<svg xmlns="http://www.w3.org/2000/svg" width="116" height="35" fill="none" viewBox="0 0 116 35"><path fill="#fff" d="M7.427 34.712c-.3 0-.59-.003-.887-.01a13 13 0 0 1-1.834-.148 6.1 6.1 0 0 1-1.625-.497 5.3 5.3 0 0 1-1.37-.922 4.93 4.93 0 0 1-1.534-2.771q-.15-.846-.163-1.702C.008 28.47 0 27.833 0 27.833V6.87s.009-.627.014-.812q.012-.855.163-1.698a4.96 4.96 0 0 1 1.528-2.78A5.5 5.5 0 0 1 3.081.654 6 6 0 0 1 4.702.16a13 13 0 0 1 1.84-.149L7.427 0h100.796l.896.012q.917.01 1.823.147c.57.09 1.122.257 1.639.497a5.3 5.3 0 0 1 2.368 2.196c.256.472.433.976.525 1.497q.153.85.171 1.712c.003.257.003.533.003.808.007.34.007.664.007.991v18.993c0 .33 0 .651-.007.976 0 .295 0 .565-.004.843a11 11 0 0 1-.168 1.683 4.9 4.9 0 0 1-.53 1.515 5 5 0 0 1-.996 1.257c-.4.376-.864.69-1.372.928a6 6 0 0 1-1.636.5q-.91.136-1.834.147c-.287.007-.588.01-.88.01l-1.063.002z"/><path fill="#000" d="M21.042 17.106a4.36 4.36 0 0 1 2.075-3.657 4.46 4.46 0 0 0-3.515-1.9c-1.478-.155-2.912.885-3.665.885-.768 0-1.929-.87-3.178-.843a4.68 4.68 0 0 0-3.939 2.402c-1.703 2.948-.432 7.281 1.199 9.665.816 1.167 1.77 2.47 3.018 2.424 1.222-.05 1.678-.779 3.152-.779 1.46 0 1.889.78 3.162.75 1.31-.021 2.137-1.172 2.924-2.35a9.7 9.7 0 0 0 1.337-2.724 4.21 4.21 0 0 1-2.57-3.873m-2.406-7.124a4.3 4.3 0 0 0 .982-3.074 4.37 4.37 0 0 0-2.825 1.462 4.08 4.08 0 0 0-1.007 2.96 3.61 3.61 0 0 0 2.85-1.348m28.306 16.102h-1.795l-1-2.956h-4.169l-1 2.956h-1.766l3.948-10.935h1.834zm-6.532-4.32h3.304l-1.629-4.797h-.045z"/><path fill="#000" fill-rule="evenodd" d="M52.11 18.028c2.024 0 3.358 1.6 3.358 4.07 0 2.477-1.327 4.07-3.327 4.07a2.7 2.7 0 0 1-2.51-1.396h-.037v3.95h-1.636V18.11h1.584v1.326h.03a2.83 2.83 0 0 1 2.538-1.41m-.431 1.394c-1.25 0-2.091 1.084-2.091 2.676 0 1.606.84 2.682 2.09 2.682 1.273 0 2.108-1.053 2.108-2.682 0-1.614-.835-2.676-2.107-2.676m9.207-1.392c2.023 0 3.357 1.599 3.357 4.07 0 2.477-1.326 4.069-3.327 4.069a2.7 2.7 0 0 1-2.508-1.395h-.038v3.948h-1.637V18.11h1.584v1.327h.03a2.83 2.83 0 0 1 2.539-1.41m-.43 1.394c-1.251 0-2.093 1.084-2.093 2.676 0 1.606.842 2.682 2.092 2.682 1.272 0 2.106-1.054 2.107-2.682 0-1.614-.834-2.675-2.107-2.676" clip-rule="evenodd"/><path fill="#000" d="M70.042 23.037c.122 1.084 1.175 1.796 2.614 1.796 1.38 0 2.372-.712 2.372-1.69 0-.848-.598-1.357-2.016-1.705l-1.417-.341c-2.007-.485-2.94-1.424-2.94-2.948 0-1.887 1.644-3.183 3.98-3.183 2.31 0 3.894 1.296 3.947 3.183H74.93c-.099-1.091-1-1.75-2.32-1.75-1.317 0-2.22.666-2.22 1.636 0 .773.577 1.228 1.986 1.577l1.205.295c2.243.531 3.176 1.432 3.176 3.032 0 2.045-1.63 3.327-4.222 3.327-2.425 0-4.062-1.251-4.168-3.23zm10.247-6.812v1.886h1.516v1.296h-1.516v4.395c0 .683.303 1.001.97 1.001q.27-.005.538-.038v1.288a4.5 4.5 0 0 1-.909.076c-1.614 0-2.244-.606-2.244-2.152v-4.57h-1.159v-1.296h1.16v-1.886zm6.175 1.788c2.311 0 3.782 1.577 3.782 4.085 0 2.515-1.463 4.084-3.782 4.084s-3.781-1.569-3.781-4.084c0-2.508 1.477-4.085 3.78-4.085m0 1.349c-1.326 0-2.113 1.023-2.113 2.735 0 1.728.787 2.736 2.113 2.736s2.115-1.008 2.115-2.736c0-1.72-.79-2.735-2.115-2.735m5.132-1.251h1.56v1.357h.038a1.9 1.9 0 0 1 1.918-1.44q.284 0 .56.06v1.531a2.3 2.3 0 0 0-.735-.098 1.65 1.65 0 0 0-1.705 1.834v4.729h-1.636zm8.119-.098c2.206 0 3.593 1.515 3.593 3.932v.56h-5.631v.1a2.077 2.077 0 0 0 2.144 2.258 1.805 1.805 0 0 0 1.842-1.12h1.554c-.221 1.446-1.63 2.44-3.433 2.44-2.319 0-3.758-1.555-3.759-4.047 0-2.5 1.447-4.123 3.69-4.123m-.001 1.326a2.02 2.02 0 0 0-2.03 2.023h3.986a1.916 1.916 0 0 0-1.956-2.023"/><path fill="#000" fill-rule="evenodd" d="M39.11 6.918a2.324 2.324 0 0 1 2.472 2.61c0 1.678-.907 2.643-2.472 2.643h-1.898V6.919zm-1.082 4.511h1.176a1.653 1.653 0 0 0 1.547-1.89 1.657 1.657 0 0 0-1.548-1.878h-1.175zm5.356-3.016a1.878 1.878 0 0 1 2.86 1.775 1.879 1.879 0 1 1-3.74 0 1.88 1.88 0 0 1 .88-1.775m.991.413c-.68 0-1.062.502-1.062 1.362 0 .866.382 1.365 1.062 1.365.678 0 1.063-.502 1.063-1.365 0-.86-.385-1.362-1.063-1.362" clip-rule="evenodd"/><path fill="#000" d="M51.215 12.172h-.812l-.82-2.92h-.061l-.816 2.92h-.804l-1.093-3.965h.793l.71 3.025h.06l.814-3.025h.751l.815 3.025h.062l.707-3.025h.782zm2.009-3.966h.753v.63h.058a1.19 1.19 0 0 1 1.184-.706 1.29 1.29 0 0 1 1.372 1.475v2.566h-.782v-2.37c0-.637-.277-.954-.856-.954a.91.91 0 0 0-.947 1.005v2.32h-.782zm4.613-1.547h.782v5.513h-.782z"/><path fill="#000" fill-rule="evenodd" d="M60.587 8.413a1.878 1.878 0 0 1 2.86 1.775 1.879 1.879 0 1 1-3.74 0 1.88 1.88 0 0 1 .88-1.775m.991.413c-.68 0-1.063.502-1.063 1.362 0 .866.383 1.365 1.063 1.365.677 0 1.064-.502 1.064-1.365 0-.86-.387-1.362-1.064-1.362" clip-rule="evenodd"/><path fill="#000" d="M66.045 8.13c.994 0 1.554.495 1.555 1.332v2.71h-.753v-.558h-.063c-.256.407-.71.645-1.19.623a1.2 1.2 0 0 1-1.322-1.187c0-.714.531-1.125 1.474-1.184l1.074-.061v-.343c0-.419-.276-.655-.811-.655-.437 0-.74.16-.826.441h-.758c.08-.681.72-1.118 1.62-1.118m-.192 2.311c-.546.037-.794.223-.794.573 0 .357.31.564.735.564a.935.935 0 0 0 1.027-.867v-.331zm6.478 1.73h-.75v-.626h-.062c-.254.444-.733.71-1.245.692-1.008 0-1.646-.794-1.646-2.05 0-1.253.645-2.046 1.646-2.046.506-.023.98.248 1.216.695h.059V6.66h.782zm-1.835-3.328c-.658 0-1.06.51-1.06 1.344 0 .84.397 1.348 1.06 1.348.66 0 1.067-.514 1.068-1.344 0-.826-.413-1.348-1.068-1.348"/><path fill="#000" fill-rule="evenodd" d="M76.448 8.413a1.878 1.878 0 0 1 2.86 1.775 1.879 1.879 0 1 1-3.74 0 1.88 1.88 0 0 1 .88-1.775m.992.413c-.68 0-1.064.503-1.064 1.362 0 .866.383 1.365 1.063 1.365.678 0 1.064-.502 1.064-1.365 0-.86-.386-1.362-1.064-1.362" clip-rule="evenodd"/><path fill="#000" d="M80.357 8.206h.754v.63h.058a1.19 1.19 0 0 1 1.184-.706 1.29 1.29 0 0 1 1.372 1.475v2.566h-.783v-2.37c0-.637-.276-.954-.855-.954a.91.91 0 0 0-.947 1.005v2.32h-.783zm7.79-.986v1.004h.86v.66h-.86v2.038c0 .416.171.598.56.598q.15 0 .3-.018v.651q-.212.039-.426.04c-.87 0-1.217-.306-1.217-1.07v-2.24h-.63v-.659h.63V7.22zm1.928-.561h.776v2.185h.062a1.22 1.22 0 0 1 1.209-.71 1.306 1.306 0 0 1 1.365 1.478v2.56h-.783V9.805c0-.634-.295-.954-.848-.954a.926.926 0 0 0-.998 1.005v2.316h-.783z"/><path fill="#000" fill-rule="evenodd" d="M96.328 8.13c1.104 0 1.77.754 1.77 1.999v.273h-2.8v.044a1.047 1.047 0 0 0 1.056 1.136.95.95 0 0 0 .943-.48h.753a1.61 1.61 0 0 1-1.718 1.146 1.8 1.8 0 0 1-1.832-2.046 1.83 1.83 0 0 1 1.828-2.072m-.004.666a1.014 1.014 0 0 0-1.026 1.027h2.003a.957.957 0 0 0-.977-1.027" clip-rule="evenodd"/></svg>