<svg xmlns="http://www.w3.org/2000/svg" width="140" height="42" fill="none" viewBox="0 0 140 42"><path fill="#000" d="M8.985 41.998c-.361 0-.714-.005-1.073-.012a16 16 0 0 1-2.218-.179 7.4 7.4 0 0 1-1.966-.602A6.4 6.4 0 0 1 2.07 40.09a5.96 5.96 0 0 1-1.855-3.353 12.6 12.6 0 0 1-.198-2.058A93 93 0 0 1 0 33.675V8.311s.01-.76.017-.982q.014-1.035.197-2.056a6 6 0 0 1 1.85-3.36A6.6 6.6 0 0 1 3.727.791 7.3 7.3 0 0 1 5.689.194Q6.795.026 7.915.014L8.985 0h121.953l1.084.014q1.11.013 2.205.178c.69.109 1.358.312 1.983.602 1.232.587 2.234 1.516 2.866 2.657a6 6 0 0 1 .635 1.81q.185 1.03.206 2.073c.004.31.004.645.004.977.009.412.009.804.009 1.199v22.98c0 .398 0 .787-.009 1.18 0 .357 0 .684-.005 1.02a13 13 0 0 1-.203 2.035 6 6 0 0 1-.641 1.834 6 6 0 0 1-1.205 1.522 6.4 6.4 0 0 1-1.66 1.122 7.4 7.4 0 0 1-1.98.604q-1.102.165-2.218.18a51 51 0 0 1-1.065.01l-1.286.003z"/><path stroke="#fff" stroke-opacity=".3" stroke-width=".5" d="m130.936.25 1.083.014h.001a16 16 0 0 1 2.168.174V.44a7.2 7.2 0 0 1 1.916.582 6.2 6.2 0 0 1 2.635 2.35l.118.201c.259.478.448.986.563 1.508l.045.226q.136.756.181 1.522l.021.51c.003.31.004.64.004.973v.005c.009.409.009.798.009 1.194v22.98c0 .399 0 .785-.009 1.174v.006c0 .357 0 .681-.005 1.015q-.02 1.006-.199 1.997a5.7 5.7 0 0 1-.613 1.755 5.8 5.8 0 0 1-1.156 1.46l-.002.001c-.465.436-1.004.8-1.595 1.079a7 7 0 0 1-1.663.54l-.25.043q-1.083.164-2.182.176h-.002a50 50 0 0 1-1.06.012h-.001l-1.286.001-120.672-.001c-.36 0-.71-.004-1.068-.012h-.002a16 16 0 0 1-2.185-.176 7.1 7.1 0 0 1-1.896-.582 6.2 6.2 0 0 1-1.593-1.072l-.003-.002-.173-.164a5.6 5.6 0 0 1-.986-1.303v-.002a5.7 5.7 0 0 1-.618-1.743 12.4 12.4 0 0 1-.193-2.018v-.004l-.012-.584-.004-.29-.002-.09V8.28l.002-.089.004-.285c.003-.218.008-.46.012-.57v-.005q.01-.76.113-1.514l.079-.5a5.7 5.7 0 0 1 .51-1.542l.108-.208a5.7 5.7 0 0 1 1.154-1.47l.001-.001a6.4 6.4 0 0 1 1.6-1.08A7 7 0 0 1 5.729.44h-.001a16 16 0 0 1 1.64-.16l.55-.016L8.989.25z"/><path fill="#fff" d="M25.458 20.696a5.27 5.27 0 0 1 2.51-4.424 5.4 5.4 0 0 0-4.251-2.299c-1.79-.187-3.524 1.071-4.435 1.071-.93 0-2.333-1.052-3.845-1.02a5.66 5.66 0 0 0-4.765 2.905c-2.06 3.568-.524 8.81 1.45 11.694.988 1.412 2.142 2.99 3.652 2.933 1.478-.06 2.03-.942 3.813-.942 1.767 0 2.285.942 3.826.907 1.586-.026 2.585-1.418 3.538-2.844a11.7 11.7 0 0 0 1.617-3.294 5.09 5.09 0 0 1-3.11-4.687m-2.91-8.619a5.2 5.2 0 0 0 1.187-3.72 5.28 5.28 0 0 0-3.417 1.769 4.94 4.94 0 0 0-1.219 3.581 4.37 4.37 0 0 0 3.449-1.63m34.246 19.481H54.62l-1.21-3.576h-5.043l-1.21 3.576h-2.136l4.776-13.23h2.22zm-7.903-5.226h3.997l-1.97-5.804h-.056z"/><path fill="#fff" fill-rule="evenodd" d="M63.048 21.811c2.448 0 4.061 1.935 4.061 4.924 0 2.998-1.604 4.924-4.025 4.924a3.27 3.27 0 0 1-3.035-1.687h-.046v4.777h-1.98V21.912h1.916v1.604h.038a3.42 3.42 0 0 1 3.07-1.705m-.523 1.688c-1.512 0-2.53 1.31-2.53 3.236 0 1.944 1.018 3.245 2.53 3.245 1.54 0 2.55-1.274 2.55-3.245 0-1.952-1.01-3.236-2.55-3.236m11.14-1.688c2.448 0 4.061 1.935 4.062 4.924 0 2.998-1.605 4.924-4.026 4.924a3.27 3.27 0 0 1-3.035-1.687h-.046v4.777h-1.98V21.912h1.917v1.604h.037a3.42 3.42 0 0 1 3.071-1.705m-.522 1.688c-1.513 0-2.53 1.31-2.53 3.236 0 1.944 1.017 3.245 2.53 3.245 1.54 0 2.548-1.274 2.548-3.245 0-1.953-1.009-3.236-2.548-3.236" clip-rule="evenodd"/><path fill="#fff" d="M84.743 27.872c.146 1.311 1.42 2.173 3.162 2.173 1.67 0 2.87-.862 2.87-2.045 0-1.026-.724-1.641-2.439-2.063l-1.714-.413c-2.43-.586-3.558-1.723-3.558-3.566 0-2.283 1.99-3.85 4.814-3.85 2.796 0 4.712 1.567 4.777 3.85h-1.999c-.12-1.32-1.21-2.117-2.806-2.117-1.595 0-2.686.806-2.686 1.98 0 .935.697 1.485 2.402 1.906l1.458.358c2.714.642 3.842 1.733 3.842 3.668 0 2.475-1.972 4.025-5.107 4.025-2.934 0-4.915-1.514-5.043-3.906zm12.396-8.242v2.282h1.834v1.568H97.14v5.318c0 .826.367 1.21 1.173 1.21q.328-.004.652-.045v1.559a5.4 5.4 0 0 1-1.1.091c-1.953 0-2.715-.733-2.715-2.604V23.48h-1.402v-1.568h1.403V19.63zm7.47 2.164c2.797 0 4.577 1.907 4.577 4.942-.001 3.043-1.771 4.941-4.577 4.941-2.804 0-4.574-1.898-4.574-4.941 0-3.035 1.787-4.942 4.574-4.942m.001 1.631c-1.604 0-2.557 1.238-2.557 3.311 0 2.09.953 3.31 2.557 3.31s2.559-1.22 2.559-3.31c0-2.082-.954-3.31-2.559-3.31m6.208-1.514h1.889v1.642h.046a2.3 2.3 0 0 1 2.32-1.743q.343 0 .678.074v1.852a2.8 2.8 0 0 0-.89-.12 1.996 1.996 0 0 0-2.063 2.22v5.72h-1.98zm9.826-.118c2.668 0 4.346 1.833 4.346 4.757v.68h-6.812v.118a2.513 2.513 0 0 0 2.594 2.733A2.18 2.18 0 0 0 123 28.725h1.88c-.267 1.751-1.972 2.952-4.153 2.952-2.806 0-4.548-1.88-4.548-4.896 0-3.025 1.751-4.987 4.465-4.987m0 1.604a2.443 2.443 0 0 0-2.457 2.448h4.822a2.32 2.32 0 0 0-2.365-2.448"/><path fill="#fff" fill-rule="evenodd" d="M47.317 8.369a2.813 2.813 0 0 1 2.992 3.16c0 2.03-1.098 3.197-2.992 3.197h-2.295V8.37zm-1.308 5.458h1.199a1.998 1.998 0 0 0 2.096-2.286 2.004 2.004 0 0 0-1.873-2.274h-1.422zm6.479-3.649a2.273 2.273 0 0 1 3.46 2.148 2.272 2.272 0 1 1-4.524 0 2.27 2.27 0 0 1 1.064-2.148m1.2.5c-.823 0-1.287.608-1.287 1.648 0 1.047.464 1.65 1.286 1.651.82 0 1.287-.608 1.288-1.651 0-1.04-.468-1.649-1.288-1.649" clip-rule="evenodd"/><path fill="#fff" d="M61.964 14.726h-.982l-.992-3.533h-.075l-.987 3.533h-.973L56.633 9.93h.96l.86 3.66h.07l.987-3.66h.908l.986 3.66h.075l.855-3.66h.947zm2.43-4.797h.911v.762h.07a1.44 1.44 0 0 1 1.432-.855 1.56 1.56 0 0 1 1.66 1.785v3.105h-.946v-2.868c0-.77-.335-1.154-1.035-1.154a1.1 1.1 0 0 0-1.146 1.216v2.806h-.946zm5.582-1.873h.946v6.67h-.946z"/><path fill="#fff" fill-rule="evenodd" d="M73.304 10.178a2.273 2.273 0 0 1 3.46 2.147 2.274 2.274 0 1 1-4.525 0 2.27 2.27 0 0 1 1.065-2.147m1.199.5c-.823 0-1.286.608-1.286 1.647 0 1.048.463 1.652 1.286 1.652.82 0 1.287-.608 1.287-1.652 0-1.04-.467-1.647-1.287-1.647" clip-rule="evenodd"/><path fill="#fff" d="M79.906 9.836c1.203 0 1.881.6 1.881 1.613v3.277h-.911v-.674h-.075c-.31.492-.86.78-1.442.753a1.45 1.45 0 0 1-1.598-1.435c0-.864.643-1.361 1.784-1.432l1.3-.075v-.414c0-.507-.336-.793-.983-.793-.528 0-.895.194-1 .533h-.916c.097-.824.872-1.353 1.96-1.353m-.233 2.797c-.66.044-.96.27-.96.693 0 .431.375.682.89.682a1.13 1.13 0 0 0 1.242-1.049v-.401zm7.839 2.093h-.907v-.758h-.076c-.307.538-.888.86-1.507.837-1.22 0-1.99-.96-1.99-2.48 0-1.515.779-2.476 1.99-2.476.612-.028 1.186.3 1.472.842h.07V8.056h.948zM85.29 10.7c-.797 0-1.281.617-1.281 1.626 0 1.017.479 1.63 1.281 1.63.798 0 1.291-.622 1.291-1.626 0-1-.498-1.63-1.291-1.63"/><path fill="#fff" fill-rule="evenodd" d="M92.493 10.178a2.273 2.273 0 0 1 3.46 2.148 2.272 2.272 0 1 1-4.524 0 2.27 2.27 0 0 1 1.064-2.148m1.2.5c-.824 0-1.287.608-1.287 1.648 0 1.047.463 1.65 1.286 1.65.82 0 1.287-.607 1.288-1.65 0-1.04-.468-1.649-1.288-1.649" clip-rule="evenodd"/><path fill="#fff" d="M97.224 9.929h.911v.762h.07a1.44 1.44 0 0 1 1.432-.855 1.56 1.56 0 0 1 1.661 1.785v3.105h-.947v-2.868c0-.77-.335-1.154-1.035-1.154a1.1 1.1 0 0 0-1.146 1.216v2.806h-.946zm9.424-1.194V9.95h1.039v.797h-1.039v2.467c0 .503.207.723.678.723q.181 0 .361-.022v.788q-.255.045-.515.049c-1.053 0-1.472-.37-1.472-1.296v-2.709h-.762V9.95h.762V8.735zm2.332-.679h.939V10.7h.075c.258-.566.843-.91 1.463-.86a1.58 1.58 0 0 1 1.652 1.789v3.097h-.948v-2.863c0-.767-.357-1.155-1.026-1.155a1.12 1.12 0 0 0-1.208 1.216v2.802h-.946z"/><path fill="#fff" fill-rule="evenodd" d="M116.546 9.836c1.335 0 2.139.913 2.139 2.42v.33h-3.386v.052a1.27 1.27 0 0 0 1.277 1.374c.463.056.914-.174 1.142-.58h.911a1.95 1.95 0 0 1-2.079 1.387 2.18 2.18 0 0 1-2.216-2.476 2.214 2.214 0 0 1 2.212-2.507m-.005.806a1.23 1.23 0 0 0-1.242 1.243h2.423a1.16 1.16 0 0 0-1.181-1.243" clip-rule="evenodd"/></svg>