<svg xmlns="http://www.w3.org/2000/svg" width="704" height="704" fill="none" viewBox="0 0 704 704"><path fill="#fe572a" d="M352.001 172.532c99.117 0 179.468 80.351 179.468 179.468s-80.351 179.468-179.468 179.468S172.533 451.117 172.533 352s80.351-179.468 179.468-179.468m0 28.612c-83.316 0-150.857 67.54-150.857 150.856s67.541 150.857 150.857 150.857S502.857 435.316 502.857 352s-67.54-150.856-150.856-150.856"/><path fill="#fb8665" d="M352 114.443c131.199 0 237.557 106.358 237.557 237.557S483.199 589.557 352 589.557C220.801 589.556 114.443 483.199 114.443 352S220.801 114.444 352 114.443m0 29.03c-115.166 0-208.527 93.361-208.527 208.527S236.834 560.527 352 560.527 560.527 467.166 560.527 352c0-115.167-93.36-208.527-208.527-208.527"/><path fill="#f9a58d" d="M352.001 57.222c162.801 0 294.778 131.977 294.778 294.778S514.803 646.778 352.001 646.778C189.2 646.778 57.223 514.801 57.223 352S189.2 57.222 352 57.222m0 28.773C205.09 85.995 85.996 205.09 85.996 352S205.09 618.004 352 618.004 618.004 498.91 618.004 352 498.91 85.995 352 85.995"/><path fill="#f7d4c8" d="M352 0c194.404 0 352 157.596 352 352S546.404 704 352 704 0 546.404 0 352 157.596 0 352 0m-.001 28.422C173.292 28.422 28.422 173.293 28.422 352s144.87 323.577 323.577 323.577S675.577 530.707 675.577 352 530.706 28.422 351.999 28.422"/></svg>