<svg width="25" height="33" viewBox="0 0 25 33" fill="none" xmlns="http://www.w3.org/2000/svg">
<path d="M12.4601 24.7955C13.1052 24.7955 13.6282 25.3185 13.6282 25.9636C13.6282 26.6087 13.1052 27.1317 12.4601 27.1317H9.34504C8.6999 27.1317 8.17691 26.6087 8.17691 25.9636C8.17691 25.3185 8.6999 24.7955 9.34504 24.7955H12.4601Z" fill="#FE572A"/>
<path d="M19.4688 9.99899V7.27333C19.4688 5.33789 17.8999 3.7689 15.9644 3.7689L5.84065 3.7689C3.90523 3.7689 2.33626 5.33789 2.33626 7.27333L2.33626 26.7424C2.33626 28.6778 3.90523 30.2468 5.84065 30.2468H15.9644C17.8999 30.2468 19.4688 28.6778 19.4688 26.7424V9.99899H21.8051V26.7424C21.8051 29.9681 19.1901 32.5831 15.9644 32.5831H5.84065C2.61495 32.5831 0 29.9681 0 26.7424L0 7.27333C0 4.04759 2.61495 1.43262 5.84065 1.43262L15.9644 1.43262C19.1901 1.43262 21.8051 4.04759 21.8051 7.27333V9.99899H19.4688Z" fill="#FE572A"/>
<path d="M24.0208 4.67257C24.0208 7.25315 21.9289 9.34513 19.3483 9.34513C16.7677 9.34513 14.6758 7.25315 14.6758 4.67257C14.6758 2.09198 16.7677 0 19.3483 0C21.9289 0 24.0208 2.09198 24.0208 4.67257Z" fill="#FE572A"/>
</svg>
