<svg xmlns="http://www.w3.org/2000/svg" width="22" height="32" fill="none" viewBox="0 0 22 32"><path fill="#fe572a" d="M12.46 23.363a1.168 1.168 0 0 1 0 2.336H9.345a1.168 1.168 0 0 1 0-2.336z"/><path fill="#fe572a" d="M19.469 8.566V5.841a3.504 3.504 0 0 0-3.505-3.505H5.841a3.504 3.504 0 0 0-3.505 3.505V25.31a3.504 3.504 0 0 0 3.505 3.504h10.123a3.504 3.504 0 0 0 3.505-3.504zh2.336V25.31a5.84 5.84 0 0 1-5.84 5.84H5.84A5.84 5.84 0 0 1 0 25.31V5.84A5.84 5.84 0 0 1 5.84 0h10.124a5.84 5.84 0 0 1 5.841 5.84v2.726z"/></svg>