<svg xmlns="http://www.w3.org/2000/svg" width="621" height="344" fill="none" viewBox="0 0 621 344"><path fill="#fff" fill-rule="evenodd" d="M443.265 123.808c19.96-28.9 55.399-44.912 92.167-38.172 48.858 8.956 81.54 55.18 74.47 104.359-.243 1.348-.246 2.527-.502 3.61-.146.621-.736.992-1.369.992l-130.556.01c-1.041 0-1.81.98-1.521 1.988 4.252 14.827 16.39 27.446 33.89 30.654 28.47 5.219 51.784-10.946 57.579-18.679.531-.709 1.496-.996 2.275-.58l32.51 17.368c.824.44 1.121 1.462.588 2.232-7.338 10.606-42.287 51.374-100.372 40.727-35.149-6.443-66.557-35.608-73.804-73.879-2.363-11.04-2.425-22.755-.378-34.084a94 94 0 0 1 7.706-23.922l-81.664 89.641c-.949 1.041-.215 2.722 1.188 2.722h86.062c.89 0 1.612.727 1.612 1.624v37.055c0 .897-.722 1.624-1.612 1.624h-142.78c-.89 0-1.612-.727-1.612-1.624v-36.618c0-.4.147-.787.412-1.084l87.84-98.664c.931-1.046.195-2.708-1.2-2.708h-85.321c-.89 0-1.612-.727-1.612-1.624V89.358c0-.897.722-1.624 1.612-1.624h142.78c.891 0 1.612.727 1.612 1.624zm79.25 1.157c-18.885-1.999-37.804 10.261-45.125 28.67l-1.244 3.275c-.403 1.061.372 2.2 1.5 2.204l82.97.289c1.077.003 1.855-1.038 1.506-2.065-5.942-17.526-21.708-30.852-39.607-32.373" clip-rule="evenodd"/><path fill="#fff" d="M237.516 38.435c.891 0 1.613.727 1.613 1.624v46.052c0 .896.721 1.623 1.612 1.623h41.434c.89 0 1.612.728 1.612 1.625v37.415c0 .896-.722 1.623-1.612 1.623h-41.434c-.891 0-1.612.727-1.612 1.624v76.104q0 12.234 5.359 16.913 5.359 4.678 18.22 4.678h21.968c.89 0 1.612.727 1.612 1.623v38.135c0 .897-.722 1.624-1.612 1.624h-30.899q-18.936 0-33.226-5.758-13.934-6.117-21.794-19.791-7.86-14.034-7.86-38.144V40.059c0-.897.722-1.624 1.612-1.624zM114.854 10c.891 0 1.612.727 1.612 1.624l.001 38.135c0 .897-.722 1.624-1.613 1.624h-10.892q-11.076 0-16.077 4.678-5.002 4.319-5.002 15.113v14.93c0 .896.722 1.623 1.612 1.623h85.931c.89 0 1.612.727 1.612 1.624v178.116c0 .897-.722 1.624-1.612 1.624h-45.007a1.62 1.62 0 0 1-1.612-1.624V130.014c0-.897-.722-1.624-1.613-1.624H84.495c-.89 0-1.612.727-1.612 1.624v137.453c0 .897-.722 1.624-1.612 1.624H36.264c-.89 0-1.612-.727-1.612-1.624V130.014c0-.897-.722-1.624-1.613-1.624H11.612c-.89 0-1.612-.727-1.612-1.624V89.351c0-.897.722-1.624 1.612-1.624H33.04c.89 0 1.613-.727 1.613-1.624V71.534q0-22.67 7.502-35.985 7.503-13.314 21.437-19.432Q77.88 10 96.817 10zM56.84 298.526v15.549h-2.045V302.48l-5.169 11.595H48.19l-5.191-11.617v11.617h-2.045v-15.549h2.202l5.752 12.852 5.753-12.852zm8.837 15.751q-1.73 0-3.145-.787a5.7 5.7 0 0 1-2.202-2.224q-.787-1.46-.787-3.371 0-1.887.81-3.325.83-1.46 2.246-2.225 1.416-.786 3.168-.786t3.169.786a5.53 5.53 0 0 1 2.224 2.202q.832 1.438.832 3.348t-.854 3.371a5.8 5.8 0 0 1-2.27 2.224q-1.438.787-3.19.787m0-1.798q1.1 0 2.068-.516.966-.517 1.55-1.551.607-1.034.607-2.517t-.584-2.516-1.528-1.528a4.2 4.2 0 0 0-2.045-.517q-1.124 0-2.067.517-.922.494-1.483 1.528-.562 1.034-.562 2.516 0 1.505.54 2.54.561 1.033 1.482 1.55.921.495 2.022.494m13.587-.292 3.82-10.426h2.18l-4.832 12.314H78.05l-4.83-12.314h2.201zm19.246-4.741q0 .585-.067 1.236h-9.842q.112 1.82 1.236 2.854 1.146 1.011 2.764 1.011 1.326 0 2.202-.607a3.3 3.3 0 0 0 1.258-1.663h2.202a5.35 5.35 0 0 1-1.977 2.899q-1.483 1.101-3.685 1.101-1.753 0-3.146-.787a5.6 5.6 0 0 1-2.157-2.224q-.787-1.46-.787-3.371 0-1.91.764-3.348t2.135-2.202q1.393-.786 3.19-.786 1.754 0 3.102.764a5.2 5.2 0 0 1 2.067 2.112q.741 1.326.741 3.011m-2.112-.427q0-1.168-.517-2a3.25 3.25 0 0 0-1.415-1.28 4.2 4.2 0 0 0-1.955-.45q-1.55 0-2.651.989-1.08.989-1.236 2.741zm19.619-5.483q1.439 0 2.562.607 1.123.584 1.775 1.775t.651 2.899v7.258h-2.022v-6.966q0-1.843-.921-2.809-.899-.988-2.449-.988-1.596 0-2.539 1.033-.945 1.012-.944 2.944v6.786h-2.022v-6.966q0-1.843-.922-2.809-.898-.988-2.449-.988-1.596 0-2.539 1.033-.944 1.012-.944 2.944v6.786h-2.045v-12.314h2.045v1.775a4.07 4.07 0 0 1 1.618-1.483 5 5 0 0 1 2.27-.517q1.55 0 2.741.697 1.19.696 1.775 2.045a4.04 4.04 0 0 1 1.708-2.022q1.19-.72 2.651-.72m19.578 5.91q0 .585-.068 1.236h-9.842q.112 1.82 1.236 2.854 1.146 1.011 2.764 1.011 1.326 0 2.202-.607a3.3 3.3 0 0 0 1.258-1.663h2.202a5.34 5.34 0 0 1-1.977 2.899q-1.483 1.101-3.685 1.101-1.752 0-3.146-.787a5.6 5.6 0 0 1-2.157-2.224q-.786-1.46-.786-3.371 0-1.91.764-3.348a5.3 5.3 0 0 1 2.134-2.202q1.394-.786 3.191-.786 1.752 0 3.101.764a5.2 5.2 0 0 1 2.067 2.112q.741 1.326.742 3.011m-2.113-.427q0-1.168-.516-2a3.25 3.25 0 0 0-1.416-1.28 4.2 4.2 0 0 0-1.955-.45q-1.55 0-2.651.989-1.079.989-1.236 2.741zm10.811-5.483q2.247 0 3.64 1.371 1.393 1.348 1.393 3.91v7.258h-2.022v-6.966q0-1.843-.921-2.809-.921-.988-2.517-.988-1.618 0-2.584 1.011-.944 1.011-.944 2.943v6.809h-2.044v-12.314h2.044v1.753a4.1 4.1 0 0 1 1.641-1.461 5.2 5.2 0 0 1 2.314-.517m10.868 1.91v7.258q0 .898.382 1.281.381.36 1.325.36h1.506v1.73h-1.843q-1.707 0-2.561-.787-.854-.786-.854-2.584v-7.258h-1.595v-1.685h1.595v-3.101h2.045v3.101h3.213v1.685zm6.342 10.764q-.584 0-.989-.405a1.35 1.35 0 0 1-.404-.989q0-.584.404-.988.405-.405.989-.405.561 0 .944.405.404.404.404.988t-.404.989q-.383.405-.944.405m17.966-.135-3.46-6.112h-1.483v6.112h-3.146v-15.684h5.887q1.82 0 3.101.651 1.28.63 1.91 1.731.651 1.078.651 2.426a4.72 4.72 0 0 1-.898 2.809q-.9 1.236-2.674 1.708l3.752 6.359zm-4.943-8.471h2.629q1.28 0 1.91-.607.629-.63.629-1.73 0-1.079-.629-1.663-.63-.607-1.91-.607h-2.629zm22.821 1.977q0 .674-.09 1.213h-9.1q.112 1.349.943 2.112.832.764 2.045.764 1.753 0 2.494-1.505h3.393q-.539 1.797-2.067 2.966-1.529 1.146-3.753 1.146-1.797 0-3.235-.787a5.8 5.8 0 0 1-2.225-2.269q-.786-1.46-.786-3.37 0-1.934.786-3.393a5.5 5.5 0 0 1 2.202-2.247q1.416-.787 3.258-.787 1.776 0 3.169.764a5.27 5.27 0 0 1 2.179 2.18q.787 1.393.787 3.213m-3.258-.899q-.022-1.214-.877-1.932-.854-.742-2.089-.742-1.168 0-1.978.719-.786.697-.966 1.955zm22.811-5.056-3.64 12.449h-3.393l-2.27-8.696-2.269 8.696h-3.416l-3.662-12.449h3.19l2.203 9.483 2.381-9.483h3.326l2.337 9.46 2.202-9.46zm.893 6.18q0-1.889.741-3.348.764-1.461 2.045-2.247 1.303-.787 2.899-.787 1.394 0 2.427.562 1.055.561 1.685 1.415v-1.775h3.168v12.449h-3.168v-1.82q-.607.876-1.685 1.46-1.056.562-2.45.562a5.35 5.35 0 0 1-2.876-.809q-1.28-.809-2.045-2.269-.741-1.483-.741-3.393m9.797.045q0-1.146-.45-1.955a3.07 3.07 0 0 0-1.213-1.259 3.2 3.2 0 0 0-1.64-.449q-.876 0-1.618.427-.741.427-1.213 1.258-.45.809-.45 1.933t.45 1.977q.471.831 1.213 1.281a3.15 3.15 0 0 0 1.618.449q.876 0 1.64-.427a3.26 3.26 0 0 0 1.213-1.258q.45-.831.45-1.977m9.386-4.292a4.5 4.5 0 0 1 1.573-1.551q.989-.561 2.247-.561v3.303h-.831q-1.484 0-2.247.696-.741.697-.742 2.427v6.202h-3.145v-12.449h3.145zm5.13 4.247q0-1.889.742-3.348.763-1.461 2.067-2.247 1.303-.787 2.899-.787 1.213 0 2.314.539 1.1.517 1.753 1.394v-5.91h3.19v16.628h-3.19v-1.843q-.585.921-1.641 1.483t-2.449.562a5.35 5.35 0 0 1-2.876-.809q-1.303-.809-2.067-2.269-.742-1.483-.742-3.393m9.797.045q0-1.146-.449-1.955a3.07 3.07 0 0 0-1.214-1.259 3.2 3.2 0 0 0-1.64-.449q-.876 0-1.618.427t-1.213 1.258q-.45.809-.45 1.933t.45 1.977q.471.831 1.213 1.281a3.15 3.15 0 0 0 1.618.449q.876 0 1.64-.427.764-.449 1.214-1.258.449-.831.449-1.977m17.813-.27q0 .674-.09 1.213h-9.1q.112 1.349.943 2.112.832.764 2.045.764 1.753 0 2.494-1.505h3.393q-.538 1.797-2.067 2.966-1.529 1.146-3.753 1.146-1.797 0-3.235-.787a5.8 5.8 0 0 1-2.225-2.269q-.786-1.46-.786-3.37 0-1.934.786-3.393a5.5 5.5 0 0 1 2.202-2.247q1.416-.787 3.258-.787 1.776 0 3.169.764a5.27 5.27 0 0 1 2.179 2.18q.787 1.393.787 3.213m-3.258-.899q-.022-1.214-.877-1.932-.854-.742-2.089-.742-1.168 0-1.978.719-.786.697-.966 1.955zm4.745 1.124q0-1.889.742-3.348.764-1.461 2.067-2.247 1.303-.787 2.898-.787 1.214 0 2.315.539 1.101.517 1.752 1.394v-5.91h3.191v16.628h-3.191v-1.843q-.584.921-1.64 1.483t-2.449.562a5.35 5.35 0 0 1-2.876-.809q-1.303-.809-2.067-2.269-.742-1.483-.742-3.393m9.797.045q0-1.146-.45-1.955a3.07 3.07 0 0 0-1.213-1.259 3.2 3.2 0 0 0-1.64-.449q-.877 0-1.618.427t-1.213 1.258q-.45.809-.45 1.933t.45 1.977q.471.831 1.213 1.281a3.15 3.15 0 0 0 1.618.449q.876 0 1.64-.427a3.26 3.26 0 0 0 1.213-1.258q.45-.831.45-1.977m7.634 6.381q-.854 0-1.416-.517a1.8 1.8 0 0 1-.539-1.326q0-.786.539-1.303.562-.539 1.416-.539.831 0 1.37.539.54.517.54 1.303a1.8 1.8 0 0 1-.54 1.326q-.539.517-1.37.517"/></svg>