<svg width="217" height="123" viewBox="0 0 217 123" fill="none" xmlns="http://www.w3.org/2000/svg">
<path fill-rule="evenodd" clip-rule="evenodd" d="M156.473 41.1015C163.681 30.6642 176.48 24.8817 189.758 27.3157C207.403 30.5501 219.207 47.2439 216.653 65.0046C216.565 65.4914 216.564 65.9175 216.472 66.3086C216.419 66.5327 216.206 66.6668 215.977 66.6668L168.827 66.6704C168.451 66.6704 168.174 67.0244 168.278 67.3883C169.814 72.7429 174.197 77.3005 180.518 78.459C190.799 80.3436 199.219 74.5058 201.312 71.7129C201.504 71.457 201.852 71.3532 202.134 71.5035L213.875 77.7761C214.172 77.935 214.279 78.3039 214.087 78.582C211.436 82.4123 198.815 97.1357 177.838 93.2906C165.144 90.9638 153.801 80.4306 151.183 66.6095C150.33 62.6224 150.308 58.3913 151.047 54.2998C151.602 51.2293 152.55 48.3351 153.83 45.6606L124.337 78.0342C123.995 78.4103 124.26 79.0172 124.766 79.0172H155.847C156.169 79.0173 156.43 79.2798 156.43 79.6037V92.986C156.43 93.3099 156.169 93.5725 155.847 93.5725H104.283C103.961 93.5725 103.701 93.31 103.701 92.9861V79.7615C103.701 79.617 103.754 79.4775 103.849 79.3699L135.573 43.7378C135.909 43.3601 135.643 42.7598 135.139 42.7598H104.326C104.004 42.7598 103.744 42.4972 103.744 42.1733V28.66C103.744 28.3361 104.004 28.0735 104.326 28.0735H155.89C156.212 28.0735 156.473 28.3361 156.473 28.66V41.1015ZM185.094 41.5193C178.273 40.7975 171.441 45.225 168.797 51.8734L168.347 53.0563C168.202 53.4394 168.482 53.8507 168.889 53.8522L198.854 53.9564C199.243 53.9577 199.523 53.5816 199.398 53.2109C197.251 46.8812 191.558 42.0685 185.094 41.5193Z" fill="white"/>
<path d="M82.1669 10.2693C82.4885 10.2693 82.7492 10.5319 82.7492 10.8558V27.4871C82.7492 27.811 83.0099 28.0736 83.3315 28.0736H98.2953C98.6168 28.0736 98.8775 28.3362 98.8775 28.6601V42.1725C98.8775 42.4963 98.6168 42.7589 98.2953 42.759H83.3315C83.0099 42.759 82.7492 43.0214 82.7492 43.3453V70.8299C82.7492 73.7756 83.3944 75.8117 84.6847 76.938C85.9749 78.0643 88.1684 78.6275 91.265 78.6275H99.1986C99.5201 78.6275 99.7808 78.89 99.7809 79.2138V92.9861C99.7809 93.31 99.5201 93.5726 99.1986 93.5726H88.0393C83.4804 93.5726 79.4805 92.8795 76.0398 91.4933C72.6851 90.0204 70.0615 87.6378 68.1691 84.3455C66.2767 80.9666 65.3305 76.3748 65.3305 70.57V10.8558C65.3305 10.5319 65.5912 10.2693 65.9128 10.2693H82.1669Z" fill="white"/>
<path d="M37.8679 0C38.1894 2.2584e-05 38.45 0.262621 38.45 0.586488L38.4502 14.3588C38.4502 14.6827 38.1894 14.9453 37.8679 14.9453H33.9341C31.2676 14.9453 29.3321 15.5085 28.1279 16.6348C26.9237 17.6745 26.3215 19.4939 26.3215 22.093V27.4846C26.3215 27.8085 26.5822 28.0711 26.9038 28.0711H57.9373C58.2589 28.0711 58.5196 28.3336 58.5196 28.6575V92.9837C58.5196 93.3076 58.2589 93.5701 57.9373 93.5701L41.6832 93.5702C41.3617 93.5702 41.101 93.3076 41.1009 92.9837V43.3429C41.1009 43.019 40.8402 42.7564 40.5187 42.7564H26.9038C26.5822 42.7564 26.3215 43.019 26.3215 43.3429V92.9837C26.3215 93.3076 26.0608 93.5702 25.7392 93.5702H9.48516C9.16359 93.5702 8.90289 93.3076 8.90287 92.9837V43.3429C8.90287 43.019 8.64216 42.7564 8.32059 42.7564H0.582286C0.26071 42.7564 5.62261e-08 42.4938 0 42.1699V28.6575C4.25526e-06 28.3337 0.260712 28.0711 0.582286 28.0711H8.32059C8.64216 28.0711 8.90287 27.8085 8.90287 27.4846V22.2229C8.90287 16.7647 9.80606 12.4327 11.6124 9.2271C13.4188 6.02146 15.9994 3.68216 19.3541 2.2093C22.7948 0.736456 26.7947 8.02862e-07 31.3537 0H37.8679Z" fill="white"/>
<path d="M13.6338 108.692V122.037H11.8789V112.086L7.44362 122.037H6.20944L1.75484 112.067V122.037H0V108.692H1.88983L6.82653 119.723L11.7632 108.692H13.6338Z" fill="white"/>
<path d="M21.2187 122.21C20.2288 122.21 19.3289 121.985 18.5189 121.535C17.7219 121.085 17.0919 120.449 16.6291 119.626C16.1792 118.791 15.9542 117.826 15.9542 116.734C15.9542 115.654 16.1856 114.702 16.6484 113.88C17.1241 113.044 17.7669 112.408 18.5768 111.971C19.3867 111.521 20.2931 111.296 21.2958 111.296C22.2986 111.296 23.205 111.521 24.0149 111.971C24.8248 112.408 25.4612 113.038 25.924 113.86C26.3997 114.683 26.6375 115.641 26.6375 116.734C26.6375 117.826 26.3932 118.791 25.9047 119.626C25.429 120.449 24.7798 121.085 23.957 121.535C23.1342 121.985 22.2215 122.21 21.2187 122.21ZM21.2187 120.668C21.8486 120.668 22.44 120.52 22.9928 120.224C23.5456 119.928 23.9892 119.485 24.3234 118.893C24.6705 118.302 24.8441 117.582 24.8441 116.734C24.8441 115.885 24.677 115.165 24.3427 114.574C24.0084 113.982 23.5713 113.545 23.0314 113.263C22.4914 112.967 21.9065 112.819 21.2766 112.819C20.6338 112.819 20.0424 112.967 19.5024 113.263C18.9753 113.545 18.5511 113.982 18.2297 114.574C17.9083 115.165 17.7476 115.885 17.7476 116.734C17.7476 117.595 17.9019 118.321 18.2104 118.913C18.5318 119.504 18.956 119.948 19.4831 120.243C20.0102 120.526 20.5888 120.668 21.2187 120.668Z" fill="white"/>
<path d="M32.8787 120.417L36.157 111.469H38.0275L33.8815 122.037H31.8374L27.6913 111.469H29.5812L32.8787 120.417Z" fill="white"/>
<path d="M49.3964 116.348C49.3964 116.682 49.3771 117.036 49.3385 117.409H40.8921C40.9564 118.45 41.3099 119.266 41.9527 119.858C42.6084 120.436 43.399 120.725 44.3247 120.725C45.0832 120.725 45.7131 120.552 46.2145 120.205C46.7287 119.845 47.0887 119.369 47.2944 118.778H49.1842C48.9014 119.793 48.3357 120.623 47.4872 121.265C46.6387 121.895 45.5846 122.21 44.3247 122.21C43.3219 122.21 42.422 121.985 41.6249 121.535C40.8407 121.085 40.2236 120.449 39.7737 119.626C39.3237 118.791 39.0987 117.826 39.0987 116.734C39.0987 115.641 39.3173 114.683 39.7544 113.86C40.1915 113.038 40.8021 112.408 41.5863 111.971C42.3834 111.521 43.2962 111.296 44.3247 111.296C45.3274 111.296 46.2145 111.514 46.9859 111.951C47.7572 112.388 48.3486 112.993 48.76 113.764C49.1842 114.522 49.3964 115.384 49.3964 116.348ZM47.5837 115.982C47.5837 115.313 47.4358 114.741 47.1401 114.265C46.8444 113.777 46.4395 113.41 45.9252 113.166C45.4239 112.909 44.8646 112.78 44.2475 112.78C43.3605 112.78 42.602 113.063 41.972 113.629C41.3549 114.195 41.0014 114.979 40.9114 115.982H47.5837Z" fill="white"/>
<path d="M64.4208 111.276C65.2436 111.276 65.9764 111.45 66.6192 111.797C67.262 112.131 67.7698 112.639 68.1426 113.32C68.5155 114.002 68.7019 114.831 68.7019 115.808V122.037H66.9663V116.059C66.9663 115.005 66.7028 114.201 66.1757 113.648C65.6614 113.083 64.9608 112.8 64.0737 112.8C63.1609 112.8 62.4346 113.095 61.8946 113.687C61.3547 114.265 61.0847 115.107 61.0847 116.213V122.037H59.3491V116.059C59.3491 115.005 59.0856 114.201 58.5585 113.648C58.0443 113.083 57.3436 112.8 56.4566 112.8C55.5438 112.8 54.8174 113.095 54.2775 113.687C53.7375 114.265 53.4675 115.107 53.4675 116.213V122.037H51.7127V111.469H53.4675V112.993C53.8146 112.44 54.2775 112.016 54.856 111.72C55.4474 111.424 56.0966 111.276 56.8037 111.276C57.6907 111.276 58.4749 111.476 59.1563 111.874C59.8377 112.273 60.3455 112.858 60.6797 113.629C60.9754 112.883 61.464 112.305 62.1453 111.893C62.8267 111.482 63.5852 111.276 64.4208 111.276Z" fill="white"/>
<path d="M81.2225 116.348C81.2225 116.682 81.2032 117.036 81.1646 117.409H72.7182C72.7825 118.45 73.136 119.266 73.7788 119.858C74.4345 120.436 75.2251 120.725 76.1508 120.725C76.9093 120.725 77.5392 120.552 78.0406 120.205C78.5548 119.845 78.9148 119.369 79.1205 118.778H81.0103C80.7275 119.793 80.1618 120.623 79.3133 121.265C78.4648 121.895 77.4107 122.21 76.1508 122.21C75.148 122.21 74.2481 121.985 73.451 121.535C72.6668 121.085 72.0497 120.449 71.5997 119.626C71.1498 118.791 70.9248 117.826 70.9248 116.734C70.9248 115.641 71.1434 114.683 71.5805 113.86C72.0176 113.038 72.6282 112.408 73.4124 111.971C74.2095 111.521 75.1223 111.296 76.1508 111.296C77.1535 111.296 78.0406 111.514 78.812 111.951C79.5833 112.388 80.1747 112.993 80.5861 113.764C81.0103 114.522 81.2225 115.384 81.2225 116.348ZM79.4098 115.982C79.4098 115.313 79.2619 114.741 78.9662 114.265C78.6705 113.777 78.2656 113.41 77.7513 113.166C77.2499 112.909 76.6907 112.78 76.0736 112.78C75.1866 112.78 74.4281 113.063 73.7981 113.629C73.181 114.195 72.8275 114.979 72.7375 115.982H79.4098Z" fill="white"/>
<path d="M88.6876 111.276C89.9732 111.276 91.0145 111.668 91.8116 112.453C92.6087 113.224 93.0072 114.342 93.0072 115.808V122.037H91.2717V116.059C91.2717 115.005 91.0081 114.201 90.481 113.648C89.9539 113.083 89.234 112.8 88.3212 112.8C87.3956 112.8 86.6564 113.089 86.1036 113.667C85.5636 114.246 85.2936 115.088 85.2936 116.194V122.037H83.5388V111.469H85.2936V112.973C85.6407 112.433 86.11 112.016 86.7014 111.72C87.3056 111.424 87.9677 111.276 88.6876 111.276Z" fill="white"/>
<path d="M98.0143 112.915V119.144C98.0143 119.658 98.1235 120.025 98.3421 120.243C98.5606 120.449 98.9399 120.552 99.4799 120.552H100.772V122.037H99.1906C98.2135 122.037 97.4807 121.812 96.9922 121.362C96.5037 120.912 96.2594 120.173 96.2594 119.144V112.915H94.8903V111.469H96.2594V108.808H98.0143V111.469H100.772V112.915H98.0143Z" fill="white"/>
<path d="M103.457 122.152C103.123 122.152 102.84 122.037 102.609 121.805C102.377 121.574 102.262 121.291 102.262 120.957C102.262 120.623 102.377 120.34 102.609 120.108C102.84 119.877 103.123 119.761 103.457 119.761C103.779 119.761 104.049 119.877 104.267 120.108C104.499 120.34 104.614 120.623 104.614 120.957C104.614 121.291 104.499 121.574 104.267 121.805C104.049 122.037 103.779 122.152 103.457 122.152Z" fill="white"/>
<path d="M118.876 122.037L115.906 116.792H114.634V122.037H111.934V108.577H116.986C118.028 108.577 118.915 108.763 119.647 109.136C120.38 109.496 120.927 109.991 121.287 110.621C121.659 111.238 121.846 111.932 121.846 112.703C121.846 113.59 121.589 114.394 121.074 115.114C120.56 115.821 119.795 116.309 118.78 116.579L122 122.037H118.876ZM114.634 114.767H116.89C117.623 114.767 118.169 114.593 118.529 114.246C118.889 113.886 119.069 113.391 119.069 112.761C119.069 112.144 118.889 111.668 118.529 111.334C118.169 110.987 117.623 110.813 116.89 110.813H114.634V114.767Z" fill="white"/>
<path d="M134.219 116.464C134.219 116.849 134.193 117.196 134.142 117.505H126.332C126.396 118.276 126.666 118.881 127.142 119.318C127.617 119.755 128.202 119.973 128.897 119.973C129.899 119.973 130.613 119.543 131.037 118.681H133.949C133.64 119.71 133.049 120.558 132.175 121.227C131.301 121.882 130.227 122.21 128.954 122.21C127.926 122.21 127 121.985 126.177 121.535C125.368 121.073 124.731 120.423 124.268 119.588C123.818 118.752 123.593 117.788 123.593 116.695C123.593 115.589 123.818 114.619 124.268 113.783C124.718 112.948 125.348 112.305 126.158 111.855C126.968 111.405 127.9 111.18 128.954 111.18C129.97 111.18 130.876 111.398 131.673 111.836C132.483 112.273 133.107 112.896 133.544 113.706C133.994 114.503 134.219 115.422 134.219 116.464ZM131.423 115.692C131.41 114.998 131.159 114.445 130.671 114.034C130.182 113.61 129.584 113.398 128.877 113.398C128.209 113.398 127.643 113.603 127.18 114.015C126.73 114.413 126.454 114.972 126.351 115.692H131.423Z" fill="white"/>
<path d="M151 111.353L147.876 122.037H144.964L143.016 114.574L141.068 122.037H138.137L134.994 111.353H137.732L139.622 119.491L141.666 111.353H144.52L146.526 119.472L148.415 111.353H151Z" fill="white"/>
<path d="M151.766 116.657C151.766 115.577 151.978 114.619 152.402 113.783C152.84 112.948 153.425 112.305 154.157 111.855C154.903 111.405 155.732 111.18 156.645 111.18C157.442 111.18 158.136 111.341 158.728 111.662C159.332 111.983 159.814 112.388 160.174 112.877V111.353H162.893V122.037H160.174V120.475C159.827 120.976 159.345 121.394 158.728 121.728C158.123 122.05 157.423 122.21 156.626 122.21C155.726 122.21 154.903 121.979 154.157 121.516C153.425 121.053 152.84 120.404 152.402 119.568C151.978 118.72 151.766 117.749 151.766 116.657ZM160.174 116.695C160.174 116.039 160.045 115.48 159.788 115.017C159.531 114.542 159.184 114.182 158.747 113.937C158.31 113.68 157.841 113.552 157.339 113.552C156.838 113.552 156.375 113.674 155.951 113.918C155.526 114.162 155.179 114.522 154.909 114.998C154.652 115.461 154.524 116.014 154.524 116.657C154.524 117.299 154.652 117.865 154.909 118.354C155.179 118.829 155.526 119.196 155.951 119.453C156.388 119.71 156.851 119.838 157.339 119.838C157.841 119.838 158.31 119.716 158.747 119.472C159.184 119.215 159.531 118.855 159.788 118.392C160.045 117.916 160.174 117.351 160.174 116.695Z" fill="white"/>
<path d="M168.229 113.012C168.577 112.446 169.027 112.003 169.579 111.681C170.145 111.36 170.788 111.199 171.508 111.199V114.034H170.794C169.946 114.034 169.303 114.233 168.866 114.632C168.442 115.03 168.229 115.724 168.229 116.714V122.037H165.53V111.353H168.229V113.012Z" fill="white"/>
<path d="M172.632 116.657C172.632 115.577 172.844 114.619 173.268 113.783C173.705 112.948 174.297 112.305 175.042 111.855C175.788 111.405 176.617 111.18 177.53 111.18C178.224 111.18 178.886 111.334 179.516 111.643C180.146 111.938 180.648 112.337 181.02 112.838V107.767H183.759V122.037H181.02V120.455C180.686 120.983 180.217 121.407 179.613 121.728C179.009 122.05 178.308 122.21 177.511 122.21C176.611 122.21 175.788 121.979 175.042 121.516C174.297 121.053 173.705 120.404 173.268 119.568C172.844 118.72 172.632 117.749 172.632 116.657ZM181.04 116.695C181.04 116.039 180.911 115.48 180.654 115.017C180.397 114.542 180.05 114.182 179.613 113.937C179.176 113.68 178.706 113.552 178.205 113.552C177.704 113.552 177.241 113.674 176.817 113.918C176.392 114.162 176.045 114.522 175.775 114.998C175.518 115.461 175.39 116.014 175.39 116.657C175.39 117.299 175.518 117.865 175.775 118.354C176.045 118.829 176.392 119.196 176.817 119.453C177.254 119.71 177.716 119.838 178.205 119.838C178.706 119.838 179.176 119.716 179.613 119.472C180.05 119.215 180.397 118.855 180.654 118.392C180.911 117.916 181.04 117.351 181.04 116.695Z" fill="white"/>
<path d="M196.327 116.464C196.327 116.849 196.301 117.196 196.25 117.505H188.44C188.504 118.276 188.774 118.881 189.25 119.318C189.725 119.755 190.31 119.973 191.004 119.973C192.007 119.973 192.721 119.543 193.145 118.681H196.057C195.748 119.71 195.157 120.558 194.283 121.227C193.409 121.882 192.335 122.21 191.062 122.21C190.034 122.21 189.108 121.985 188.285 121.535C187.475 121.073 186.839 120.423 186.376 119.588C185.926 118.752 185.701 117.788 185.701 116.695C185.701 115.589 185.926 114.619 186.376 113.783C186.826 112.948 187.456 112.305 188.266 111.855C189.076 111.405 190.008 111.18 191.062 111.18C192.078 111.18 192.984 111.398 193.781 111.836C194.591 112.273 195.215 112.896 195.652 113.706C196.102 114.503 196.327 115.422 196.327 116.464ZM193.531 115.692C193.518 114.998 193.267 114.445 192.779 114.034C192.29 113.61 191.692 113.398 190.985 113.398C190.317 113.398 189.751 113.603 189.288 114.015C188.838 114.413 188.562 114.972 188.459 115.692H193.531Z" fill="white"/>
<path d="M197.603 116.657C197.603 115.577 197.815 114.619 198.24 113.783C198.677 112.948 199.268 112.305 200.014 111.855C200.759 111.405 201.589 111.18 202.501 111.18C203.196 111.18 203.858 111.334 204.488 111.643C205.118 111.938 205.619 112.337 205.992 112.838V107.767H208.73V122.037H205.992V120.455C205.657 120.983 205.188 121.407 204.584 121.728C203.98 122.05 203.279 122.21 202.482 122.21C201.582 122.21 200.759 121.979 200.014 121.516C199.268 121.053 198.677 120.404 198.24 119.568C197.815 118.72 197.603 117.749 197.603 116.657ZM206.011 116.695C206.011 116.039 205.882 115.48 205.625 115.017C205.368 114.542 205.021 114.182 204.584 113.937C204.147 113.68 203.678 113.552 203.176 113.552C202.675 113.552 202.212 113.674 201.788 113.918C201.364 114.162 201.016 114.522 200.747 114.998C200.489 115.461 200.361 116.014 200.361 116.657C200.361 117.299 200.489 117.865 200.747 118.354C201.016 118.829 201.364 119.196 201.788 119.453C202.225 119.71 202.688 119.838 203.176 119.838C203.678 119.838 204.147 119.716 204.584 119.472C205.021 119.215 205.368 118.855 205.625 118.392C205.882 117.916 206.011 117.351 206.011 116.695Z" fill="white"/>
<path d="M212.562 122.172C212.074 122.172 211.669 122.024 211.348 121.728C211.039 121.42 210.885 121.04 210.885 120.59C210.885 120.14 211.039 119.768 211.348 119.472C211.669 119.163 212.074 119.009 212.562 119.009C213.038 119.009 213.43 119.163 213.739 119.472C214.047 119.768 214.202 120.14 214.202 120.59C214.202 121.04 214.047 121.42 213.739 121.728C213.43 122.024 213.038 122.172 212.562 122.172Z" fill="white"/>
</svg>
