<svg width="116" height="35" viewBox="0 0 116 35" fill="none" xmlns="http://www.w3.org/2000/svg">
<mask id="mask0_1548_3100" style="mask-type:luminance" maskUnits="userSpaceOnUse" x="0" y="0" width="116" height="35">
<path fill-rule="evenodd" clip-rule="evenodd" d="M0 0H115.655V34.714H0V0Z" fill="white"/>
</mask>
<g mask="url(#mask0_1548_3100)">
<path fill-rule="evenodd" clip-rule="evenodd" d="M111.372 34.714H4.28353C1.92759 34.714 0 32.7614 0 30.3748V4.33926C0 1.95266 1.92759 0 4.28353 0H111.372C113.728 0 115.655 1.95266 115.655 4.33926V30.3748C115.655 32.7614 113.728 34.714 111.372 34.714Z" fill="white"/>
</g>
<path fill-rule="evenodd" clip-rule="evenodd" d="M41.112 8.88923C41.112 9.61649 40.8969 10.1953 40.466 10.6275C39.9761 11.1413 39.3389 11.3982 38.5551 11.3982C37.8042 11.3982 37.1652 11.1378 36.6407 10.6163C36.1144 10.0955 35.8525 9.44899 35.8525 8.67834C35.8525 7.90682 36.1144 7.26114 36.6407 6.73956C37.1652 6.21885 37.8042 5.9585 38.5551 5.9585C38.927 5.9585 39.2842 6.0314 39.6224 6.17633C39.9614 6.32213 40.2328 6.51566 40.4365 6.75779L39.9787 7.21601C39.6345 6.80465 39.1603 6.5981 38.5551 6.5981C38.0071 6.5981 37.5337 6.79077 37.134 7.17609C36.7343 7.56228 36.5349 8.06217 36.5349 8.67834C36.5349 9.29365 36.7343 9.7944 37.134 10.1797C37.5337 10.5659 38.0071 10.7577 38.5551 10.7577C39.136 10.7577 39.6198 10.5642 40.0082 10.1763C40.2597 9.92371 40.4053 9.5731 40.4435 9.12181H38.5551V8.49609H41.0755C41.0998 8.63235 41.112 8.76252 41.112 8.88923Z" fill="black"/>
<path fill-rule="evenodd" clip-rule="evenodd" d="M41.112 8.88923C41.112 9.61649 40.8969 10.1953 40.466 10.6275C39.9761 11.1413 39.3389 11.3982 38.5551 11.3982C37.8042 11.3982 37.1652 11.1378 36.6407 10.6163C36.1144 10.0955 35.8525 9.44899 35.8525 8.67834C35.8525 7.90682 36.1144 7.26114 36.6407 6.73956C37.1652 6.21885 37.8042 5.9585 38.5551 5.9585C38.927 5.9585 39.2842 6.0314 39.6224 6.17633C39.9614 6.32213 40.2328 6.51566 40.4365 6.75779L39.9787 7.21601C39.6345 6.80465 39.1603 6.5981 38.5551 6.5981C38.0071 6.5981 37.5337 6.79077 37.134 7.17609C36.7343 7.56228 36.5349 8.06217 36.5349 8.67834C36.5349 9.29365 36.7343 9.7944 37.134 10.1797C37.5337 10.5659 38.0071 10.7577 38.5551 10.7577C39.136 10.7577 39.6198 10.5642 40.0082 10.1763C40.2597 9.92371 40.4053 9.5731 40.4435 9.12181H38.5551V8.49609H41.0755C41.0998 8.63235 41.112 8.76252 41.112 8.88923Z" stroke="black" stroke-width="0.201004"/>
<path fill-rule="evenodd" clip-rule="evenodd" d="M45.1095 6.7148H42.7407V8.36545H44.8762V8.99117H42.7407V10.6418H45.1095V11.2823H42.0723V6.0752H45.1095V6.7148Z" fill="black"/>
<path fill-rule="evenodd" clip-rule="evenodd" d="M45.1095 6.7148H42.7407V8.36545H44.8762V8.99117H42.7407V10.6418H45.1095V11.2823H42.0723V6.0752H45.1095V6.7148Z" stroke="black" stroke-width="0.201004"/>
<path fill-rule="evenodd" clip-rule="evenodd" d="M47.9273 11.2823H47.2588V6.7148H45.8057V6.0752H49.3804V6.7148H47.9273V11.2823Z" fill="black"/>
<path fill-rule="evenodd" clip-rule="evenodd" d="M47.9273 11.2823H47.2588V6.7148H45.8057V6.0752H49.3804V6.7148H47.9273V11.2823Z" stroke="black" stroke-width="0.201004"/>
<path fill-rule="evenodd" clip-rule="evenodd" d="M51.9688 11.2823H52.6372V6.0752H51.9688V11.2823Z" fill="black"/>
<path fill-rule="evenodd" clip-rule="evenodd" d="M51.9688 11.2823H52.6372V6.0752H51.9688V11.2823Z" stroke="black" stroke-width="0.201004"/>
<path fill-rule="evenodd" clip-rule="evenodd" d="M55.6001 11.2823H54.9317V6.7148H53.4785V6.0752H57.0533V6.7148H55.6001V11.2823Z" fill="black"/>
<path fill-rule="evenodd" clip-rule="evenodd" d="M55.6001 11.2823H54.9317V6.7148H53.4785V6.0752H57.0533V6.7148H55.6001V11.2823Z" stroke="black" stroke-width="0.201004"/>
<path fill-rule="evenodd" clip-rule="evenodd" d="M60.5016 10.1727C60.8866 10.5632 61.3574 10.7576 61.9149 10.7576C62.4715 10.7576 62.9432 10.5632 63.3281 10.1727C63.7131 9.78217 63.9064 9.28403 63.9064 8.67827C63.9064 8.07251 63.7131 7.57349 63.3281 7.18383C62.9432 6.7933 62.4715 6.59803 61.9149 6.59803C61.3574 6.59803 60.8866 6.7933 60.5016 7.18383C60.1175 7.57349 59.9242 8.07251 59.9242 8.67827C59.9242 9.28403 60.1175 9.78217 60.5016 10.1727ZM63.8208 10.6084C63.3092 11.1352 62.6737 11.3982 61.9133 11.3982C61.1529 11.3982 60.5174 11.1352 60.0067 10.6084C59.4951 10.0825 59.2402 9.43945 59.2402 8.67834C59.2402 7.91724 59.4951 7.27329 60.0067 6.74737C60.5174 6.22145 61.1529 5.9585 61.9133 5.9585C62.6693 5.9585 63.3031 6.22232 63.8173 6.75084C64.3306 7.27937 64.5872 7.92158 64.5872 8.67834C64.5872 9.43945 64.3314 10.0825 63.8208 10.6084Z" fill="black"/>
<path d="M60.5016 10.1727L60.4299 10.2432L60.43 10.2433L60.5016 10.1727ZM63.3281 7.18383L63.2566 7.25438L63.2566 7.25446L63.3281 7.18383ZM60.5016 7.18383L60.43 7.11327L60.43 7.11328L60.5016 7.18383ZM63.8208 10.6084L63.8929 10.6785L63.8929 10.6785L63.8208 10.6084ZM60.0067 10.6084L60.0789 10.5385L60.0787 10.5384L60.0067 10.6084ZM60.0067 6.74737L60.0787 6.81745L60.0788 6.81739L60.0067 6.74737ZM63.8173 6.75084L63.8894 6.68083L63.8893 6.68076L63.8173 6.75084ZM60.5016 10.1727L60.43 10.2433C60.8343 10.6534 61.3311 10.8581 61.9149 10.8581V10.7576V10.6571C61.3837 10.6571 60.9388 10.4731 60.5732 10.1022L60.5016 10.1727ZM61.9149 10.7576V10.8581C62.4978 10.8581 62.9954 10.6534 63.3997 10.2433L63.3281 10.1727L63.2566 10.1022C62.8909 10.4731 62.4452 10.6571 61.9149 10.6571V10.7576ZM63.3281 10.1727L63.3997 10.2433C63.8051 9.83195 64.0069 9.30752 64.0069 8.67827H63.9064H63.8059C63.8059 9.26053 63.621 9.7324 63.2566 10.1022L63.3281 10.1727ZM63.9064 8.67827H64.0069C64.0069 8.04908 63.8052 7.52372 63.3996 7.1132L63.3281 7.18383L63.2566 7.25446C63.621 7.62327 63.8059 8.09593 63.8059 8.67827H63.9064ZM63.3281 7.18383L63.3997 7.11327C62.9955 6.70323 62.4979 6.49753 61.9149 6.49753V6.59803V6.69853C62.4451 6.69853 62.8908 6.88337 63.2566 7.25438L63.3281 7.18383ZM61.9149 6.59803V6.49753C61.3309 6.49753 60.8342 6.70324 60.43 7.11327L60.5016 7.18383L60.5732 7.25438C60.9389 6.88335 61.3838 6.69853 61.9149 6.69853V6.59803ZM60.5016 7.18383L60.43 7.11328C60.0254 7.52377 59.8237 8.04909 59.8237 8.67827H59.9242H60.0247C60.0247 8.09592 60.2096 7.62321 60.5732 7.25438L60.5016 7.18383ZM59.9242 8.67827H59.8237C59.8237 9.30751 60.0254 9.83189 60.4299 10.2432L60.5016 10.1727L60.5733 10.1022C60.2096 9.73246 60.0247 9.26054 60.0247 8.67827H59.9242ZM63.8208 10.6084L63.7487 10.5384C63.2568 11.0449 62.6476 11.2977 61.9133 11.2977V11.3982V11.4987C62.6997 11.4987 63.3616 11.2255 63.8929 10.6785L63.8208 10.6084ZM61.9133 11.3982V11.2977C61.1789 11.2977 60.5698 11.0449 60.0789 10.5385L60.0067 10.6084L59.9345 10.6784C60.4649 11.2255 61.1269 11.4987 61.9133 11.4987V11.3982ZM60.0067 10.6084L60.0787 10.5384C59.5862 10.032 59.3407 9.41443 59.3407 8.67834H59.2402H59.1397C59.1397 9.46446 59.4041 10.133 59.9346 10.6785L60.0067 10.6084ZM59.2402 8.67834H59.3407C59.3407 7.94222 59.5862 7.32377 60.0787 6.81745L60.0067 6.74737L59.9346 6.6773C59.404 7.22281 59.1397 7.89225 59.1397 8.67834H59.2402ZM60.0067 6.74737L60.0788 6.81739C60.5698 6.31176 61.1789 6.059 61.9133 6.059V5.9585V5.85799C61.1269 5.85799 60.465 6.13115 59.9346 6.67736L60.0067 6.74737ZM61.9133 5.9585V6.059C62.643 6.059 63.2506 6.31239 63.7453 6.82092L63.8173 6.75084L63.8893 6.68076C63.3557 6.13225 62.6957 5.85799 61.9133 5.85799V5.9585ZM63.8173 6.75084L63.7452 6.82086C64.2397 7.33008 64.4867 7.94695 64.4867 8.67834H64.5872H64.6877C64.6877 7.8962 64.4214 7.22865 63.8894 6.68083L63.8173 6.75084ZM64.5872 8.67834H64.4867C64.4867 9.41435 64.2404 10.032 63.7487 10.5384L63.8208 10.6084L63.8929 10.6785C64.4225 10.133 64.6877 9.46454 64.6877 8.67834H64.5872Z" fill="black"/>
<path fill-rule="evenodd" clip-rule="evenodd" d="M65.5254 11.2823V6.0752H66.3387L68.8669 10.1255H68.8964L68.8669 9.12222V6.0752H69.5363V11.2823H68.8383L66.1939 7.03504H66.1644L66.1939 8.03914V11.2823H65.5254Z" fill="black"/>
<path fill-rule="evenodd" clip-rule="evenodd" d="M65.5254 11.2823V6.0752H66.3387L68.8669 10.1255H68.8964L68.8669 9.12222V6.0752H69.5363V11.2823H68.8383L66.1939 7.03504H66.1644L66.1939 8.03914V11.2823H65.5254Z" stroke="black" stroke-width="0.201004"/>
<path fill-rule="evenodd" clip-rule="evenodd" d="M92.7164 26.0352H94.3334V15.1862H92.7164V26.0352ZM107.288 19.0942L105.434 23.7979H105.378L103.453 19.0942H101.711L104.598 25.6681L102.951 29.3253H104.639L109.087 19.0942H107.288ZM98.1126 24.8028C97.5837 24.8028 96.8442 24.5373 96.8442 23.8812C96.8442 23.0446 97.765 22.7226 98.56 22.7226C99.2701 22.7226 99.6057 22.8771 100.037 23.0854C99.9117 24.0912 99.0473 24.8028 98.1126 24.8028ZM98.3079 18.8563C97.1365 18.8563 95.9235 19.3736 95.4215 20.5174L96.8573 21.118C97.1642 20.5174 97.7356 20.3221 98.3356 20.3221C99.1723 20.3221 100.023 20.8246 100.037 21.7176V21.8296C99.7437 21.6621 99.1159 21.4113 98.3495 21.4113C96.801 21.4113 95.2256 22.2627 95.2256 23.8534C95.2256 25.3053 96.4949 26.2409 97.9168 26.2409C99.0041 26.2409 99.6049 25.7523 99.9804 25.1795H100.037V26.017H101.599V21.8574C101.599 19.9316 100.162 18.8563 98.3079 18.8563ZM88.309 20.4151H86.0079V16.6964H88.309C89.5185 16.6964 90.2052 17.6979 90.2052 18.5553C90.2052 19.3963 89.5185 20.4151 88.309 20.4151ZM88.2679 15.1854H84.3914V26.0353H86.0084V21.9251H88.2679C90.061 21.9251 91.8236 20.6251 91.8236 18.5553C91.8236 16.4855 90.061 15.1854 88.2679 15.1854ZM67.1294 24.8045C66.0118 24.8045 65.0763 23.8681 65.0763 22.5819C65.0763 21.281 66.0118 20.3307 67.1294 20.3307C68.2323 20.3307 69.0985 21.281 69.0985 22.5819C69.0985 23.8681 68.2323 24.8045 67.1294 24.8045ZM68.9867 19.7013H68.9312C68.5679 19.2682 67.8691 18.876 66.9899 18.876C65.1457 18.876 63.455 20.498 63.455 22.5817C63.455 24.6507 65.1457 26.2588 66.9899 26.2588C67.8691 26.2588 68.5679 25.8674 68.9312 25.4196H68.9867V25.9507C68.9867 27.3636 68.2324 28.1177 67.0176 28.1177C66.0258 28.1177 65.411 27.4052 65.1596 26.8038L63.7489 27.3913C64.1538 28.3694 65.229 29.5722 67.0176 29.5722C68.9173 29.5722 70.5239 28.4536 70.5239 25.7268V19.0999H68.9867V19.7013ZM71.6411 26.0352H73.2608V15.1862H71.6411V26.0352ZM75.6495 22.4562C75.6079 21.0294 76.7532 20.303 77.5769 20.303C78.2202 20.303 78.7647 20.625 78.9468 21.0858L75.6495 22.4562ZM80.6786 21.2253C80.3708 20.4008 79.4353 18.876 77.5218 18.876C75.6221 18.876 74.0432 20.3722 74.0432 22.5678C74.0432 24.6368 75.6082 26.2588 77.703 26.2588C79.3928 26.2588 80.3708 25.2243 80.7766 24.6229L79.5194 23.7837C79.0997 24.399 78.5275 24.8043 77.703 24.8043C76.8793 24.8043 76.2923 24.4268 75.916 23.6856L80.8459 21.6444L80.6786 21.2253ZM41.3947 20.0097V21.5753H45.1377C45.0267 22.4562 44.7328 23.0993 44.2863 23.5462C43.7409 24.0921 42.8886 24.6935 41.3947 24.6935C39.0893 24.6935 37.2876 22.8337 37.2876 20.527C37.2876 18.2202 39.0893 16.3595 41.3947 16.3595C42.638 16.3595 43.5458 16.849 44.216 17.4791L45.3198 16.3743C44.3834 15.4795 43.1409 14.7939 41.3947 14.7939C38.237 14.7939 35.583 17.3671 35.583 20.527C35.583 23.6859 38.237 26.2591 41.3947 26.2591C43.0984 26.2591 44.3834 25.6994 45.3891 24.651C46.4226 23.6165 46.7443 22.162 46.7443 20.9878C46.7443 20.625 46.7166 20.2892 46.6602 20.0097H41.3947ZM50.9996 24.8048C49.8829 24.8048 48.9188 23.8822 48.9188 22.5683C48.9188 21.2396 49.8829 20.331 50.9996 20.331C52.1172 20.331 53.0814 21.2396 53.0814 22.5683C53.0814 23.8822 52.1172 24.8048 50.9996 24.8048ZM50.9994 18.876C48.9601 18.876 47.298 20.4286 47.298 22.5678C47.298 24.6932 48.9601 26.2588 50.9994 26.2588C53.0395 26.2588 54.7016 24.6932 54.7016 22.5678C54.7016 20.4286 53.0395 18.876 50.9994 18.876ZM59.0752 24.8045C57.9576 24.8045 56.9935 23.882 56.9935 22.5681C56.9935 21.2394 57.9576 20.3307 59.0752 20.3307C60.1928 20.3307 61.1561 21.2394 61.1561 22.5681C61.1561 23.882 60.1928 24.8045 59.0752 24.8045ZM59.0746 18.8762C57.0354 18.8762 55.3733 20.4288 55.3733 22.5681C55.3733 24.6935 57.0354 26.2591 59.0746 26.2591C61.1139 26.2591 62.776 24.6935 62.776 22.5681C62.776 20.4288 61.1139 18.8762 59.0746 18.8762Z" fill="black"/>
<mask id="mask1_1548_3100" style="mask-type:luminance" maskUnits="userSpaceOnUse" x="8" y="6" width="12" height="23">
<path d="M19.7715 17.2656V17.4492L9.11035 28.1182L9.10645 28.1143C8.87383 27.8675 8.72958 27.4773 8.72949 26.9551V7.76074C8.72958 7.23942 8.87375 6.84828 9.10645 6.60059L9.11035 6.5957L19.7715 17.2656Z" fill="white" stroke="white" stroke-width="0.165305"/>
</mask>
<g mask="url(#mask1_1548_3100)">
<path d="M19.7715 17.2656V17.4492L9.11035 28.1182L9.10645 28.1143C8.87383 27.8675 8.72958 27.4773 8.72949 26.9551V7.76074C8.72958 7.23942 8.87375 6.84828 9.10645 6.60059L9.11035 6.5957L19.7715 17.2656Z" fill="black" stroke="white" stroke-width="0.165305"/>
</g>
<mask id="mask2_1548_3100" style="mask-type:luminance" maskUnits="userSpaceOnUse" x="19" y="13" width="10" height="9">
<path d="M23.4736 13.7642H23.4746L27.7168 16.1763C28.3072 16.5122 28.583 16.9438 28.583 17.3579C28.583 17.7719 28.307 18.2032 27.7168 18.5396L23.4746 20.9526L23.4482 20.9663L19.9365 17.4507V17.2642L23.4473 13.7495L23.4736 13.7642Z" fill="white" stroke="white" stroke-width="0.165305"/>
</mask>
<g mask="url(#mask2_1548_3100)">
<path d="M23.4736 13.7642H23.4746L27.7168 16.1763C28.3072 16.5122 28.583 16.9438 28.583 17.3579C28.583 17.7719 28.307 18.2032 27.7168 18.5396L23.4746 20.9526L23.4482 20.9663L19.9365 17.4507V17.2642L23.4473 13.7495L23.4736 13.7642Z" fill="black" stroke="white" stroke-width="0.165305"/>
</g>
<mask id="mask3_1548_3100" style="mask-type:luminance" maskUnits="userSpaceOnUse" x="9" y="17" width="15" height="12">
<path fill-rule="evenodd" clip-rule="evenodd" d="M9.04688 28.1731C9.44571 28.5966 10.1055 28.6495 10.8486 28.2269L23.5142 21.0237L19.8527 17.3579L9.04688 28.1731Z" fill="white"/>
</mask>
<g mask="url(#mask3_1548_3100)">
<path d="M23.3789 21.0054L10.8076 28.1548C10.1206 28.5456 9.53264 28.5074 9.16406 28.1724L19.8516 17.4751L23.3789 21.0054Z" fill="black" stroke="white" stroke-width="0.165305"/>
</g>
<mask id="mask4_1548_3100" style="mask-type:luminance" maskUnits="userSpaceOnUse" x="9" y="6" width="15" height="12">
<mask id="path-24-inside-1_1548_3100" fill="white">
<path fill-rule="evenodd" clip-rule="evenodd" d="M9.04688 6.54218L19.8527 17.3582L23.5142 13.6924L10.8486 6.48924C10.5 6.29051 10.1697 6.19678 9.87662 6.19678C9.54368 6.19678 9.25843 6.31741 9.04688 6.54218Z"/>
</mask>
<path fill-rule="evenodd" clip-rule="evenodd" d="M9.04688 6.54218L19.8527 17.3582L23.5142 13.6924L10.8486 6.48924C10.5 6.29051 10.1697 6.19678 9.87662 6.19678C9.54368 6.19678 9.25843 6.31741 9.04688 6.54218Z" fill="white"/>
<path d="M19.8527 17.3582L19.7357 17.475L19.8527 17.5921L19.9696 17.475L19.8527 17.3582ZM23.5142 13.6924L23.6311 13.8092L23.7843 13.6559L23.5959 13.5487L23.5142 13.6924ZM10.8486 6.48924L10.7667 6.63284L10.7668 6.63294L10.8486 6.48924ZM9.04688 6.54218L8.92993 6.65901L19.7357 17.475L19.8527 17.3582L19.9696 17.2414L9.16382 6.42535L9.04688 6.54218ZM19.8527 17.3582L19.9696 17.475L23.6311 13.8092L23.5142 13.6924L23.3972 13.5756L19.7357 17.2414L19.8527 17.3582ZM23.5142 13.6924L23.5959 13.5487L10.9303 6.34555L10.8486 6.48924L10.7668 6.63294L23.4324 13.8361L23.5142 13.6924ZM10.8486 6.48924L10.9304 6.34564C10.5631 6.13616 10.2047 6.03147 9.87662 6.03147V6.19678V6.36208C10.1347 6.36208 10.437 6.44485 10.7667 6.63284L10.8486 6.48924ZM9.87662 6.19678M9.87662 6.19678V6.03147C9.50101 6.03147 9.17123 6.16886 8.9265 6.42889L9.04688 6.54218L9.16725 6.65548C9.34563 6.46595 9.58636 6.36208 9.87662 6.36208V6.19678Z" fill="white" mask="url(#path-24-inside-1_1548_3100)"/>
</mask>
<g mask="url(#mask4_1548_3100)">
<mask id="path-26-inside-2_1548_3100" fill="white">
<path fill-rule="evenodd" clip-rule="evenodd" d="M9.04688 6.54218L19.8527 17.3582L23.5142 13.6924L10.8486 6.48924C10.5 6.29051 10.1697 6.19678 9.87662 6.19678C9.54368 6.19678 9.25843 6.31741 9.04688 6.54218Z"/>
</mask>
<path fill-rule="evenodd" clip-rule="evenodd" d="M9.04688 6.54218L19.8527 17.3582L23.5142 13.6924L10.8486 6.48924C10.5 6.29051 10.1697 6.19678 9.87662 6.19678C9.54368 6.19678 9.25843 6.31741 9.04688 6.54218Z" fill="black"/>
<path d="M19.8527 17.3582L19.7357 17.475L19.8527 17.5921L19.9696 17.475L19.8527 17.3582ZM23.5142 13.6924L23.6311 13.8092L23.7843 13.6559L23.5959 13.5487L23.5142 13.6924ZM10.8486 6.48924L10.7667 6.63284L10.7668 6.63294L10.8486 6.48924ZM9.04688 6.54218L8.92993 6.65901L19.7357 17.475L19.8527 17.3582L19.9696 17.2414L9.16382 6.42535L9.04688 6.54218ZM19.8527 17.3582L19.9696 17.475L23.6311 13.8092L23.5142 13.6924L23.3972 13.5756L19.7357 17.2414L19.8527 17.3582ZM23.5142 13.6924L23.5959 13.5487L10.9303 6.34555L10.8486 6.48924L10.7668 6.63294L23.4324 13.8361L23.5142 13.6924ZM10.8486 6.48924L10.9304 6.34564C10.5631 6.13616 10.2047 6.03147 9.87662 6.03147V6.19678V6.36208C10.1347 6.36208 10.437 6.44485 10.7667 6.63284L10.8486 6.48924ZM9.87662 6.19678M9.87662 6.19678V6.03147C9.50101 6.03147 9.17123 6.16886 8.9265 6.42889L9.04688 6.54218L9.16725 6.65548C9.34563 6.46595 9.58636 6.36208 9.87662 6.36208V6.19678Z" fill="white" mask="url(#path-26-inside-2_1548_3100)"/>
</g>
<path fill-rule="evenodd" clip-rule="evenodd" d="M23.4345 20.9429L10.8495 28.1009C10.1455 28.5001 9.51605 28.4741 9.11201 28.1096L9.04785 28.1747L9.11114 28.2372L9.11201 28.2363C9.51605 28.6008 10.1455 28.6277 10.8495 28.2276L23.5151 21.0236L23.4345 20.9429Z" fill="white"/>
<path fill-rule="evenodd" clip-rule="evenodd" d="M9.04792 28.0475C8.79561 27.7802 8.64648 27.3653 8.64648 26.8281V26.9548C8.64648 27.492 8.79561 27.9069 9.04792 28.1742L9.11208 28.1099L9.04792 28.0475Z" fill="white"/>
<path fill-rule="evenodd" clip-rule="evenodd" d="M27.7576 18.484L23.4346 20.9426L23.5152 21.0233L27.7576 18.6107C28.3636 18.2662 28.6662 17.8123 28.6662 17.3584C28.6151 17.7689 28.3073 18.1716 27.7576 18.484Z" fill="white"/>
<path fill-rule="evenodd" clip-rule="evenodd" d="M10.8496 6.61551L27.7576 16.2313C28.3073 16.5437 28.6151 16.9464 28.6662 17.3578C28.6671 16.9039 28.3636 16.4491 27.7576 16.1046L10.8496 6.4888C9.6375 5.79973 8.64648 6.37251 8.64648 7.76107V7.88778C8.64648 6.49922 9.6375 5.92644 10.8496 6.61551Z" fill="white"/>
</svg>
