<svg xmlns="http://www.w3.org/2000/svg" width="116" height="35" fill="none" viewBox="0 0 116 35"><defs><path id="e" d="m9.047 6.542 10.806 10.816 3.661-3.666L10.85 6.49c-.349-.198-.68-.292-.972-.292-.333 0-.619.12-.83.345"/><path id="f" fill="#fff" d="m19.853 17.358-.117.117.117.117.117-.117zm3.661-3.666.117.117.153-.153-.188-.107zM10.85 6.49l-.082.144zm-1.802.053-.117.117 10.806 10.816.117-.117.117-.117L9.164 6.425zm10.806 10.816.117.117 3.661-3.666-.117-.117-.117-.116-3.661 3.665zm3.661-3.666.082-.143L10.93 6.346l-.081.143-.082.144 12.665 7.203zM10.85 6.49l.081-.143c-.367-.21-.725-.315-1.053-.315v.331c.258 0 .56.083.89.27zm-.972-.292V6.03a1.27 1.27 0 0 0-.95.398l.12.113.12.113a.94.94 0 0 1 .71-.293z"/></defs><mask id="a" width="116" height="35" x="0" y="0" maskUnits="userSpaceOnUse" style="mask-type:luminance"><path fill="#fff" fill-rule="evenodd" d="M0 0h115.655v34.714H0z" clip-rule="evenodd"/></mask><g mask="url(#a)"><path fill="#fff" fill-rule="evenodd" d="M111.372 34.714H4.284C1.928 34.714 0 32.761 0 30.374V4.34C0 1.953 1.928 0 4.284 0h107.088c2.356 0 4.283 1.953 4.283 4.34v26.035c0 2.386-1.927 4.339-4.283 4.339" clip-rule="evenodd"/></g><path fill="#000" fill-rule="evenodd" d="M41.112 8.89q0 1.089-.646 1.737-.735.771-1.91.771-1.128 0-1.915-.782-.79-.78-.788-1.938-.001-1.156.788-1.938a2.62 2.62 0 0 1 1.914-.782q.56 0 1.067.218.509.219.815.582l-.458.458q-.516-.617-1.424-.618-.822 0-1.421.578-.6.579-.6 1.502 0 .924.6 1.502t1.421.578q.871 0 1.453-.582.378-.378.435-1.054h-1.888v-.626h2.52q.037.204.037.393" clip-rule="evenodd"/><path stroke="#000" stroke-width=".201" d="M41.112 8.89q0 1.089-.646 1.737-.735.771-1.91.771-1.128 0-1.915-.782-.79-.78-.788-1.938-.001-1.156.788-1.938a2.62 2.62 0 0 1 1.914-.782q.56 0 1.067.218.509.219.815.582l-.458.458q-.516-.617-1.424-.618-.822 0-1.421.578-.6.579-.6 1.502 0 .924.6 1.502t1.421.578q.871 0 1.453-.582.378-.378.435-1.054h-1.888v-.626h2.52q.037.204.037.393Z" clip-rule="evenodd"/><path fill="#000" fill-rule="evenodd" d="M45.11 6.715h-2.37v1.65h2.136v.626h-2.135v1.65h2.368v.641h-3.037V6.075h3.037z" clip-rule="evenodd"/><path stroke="#000" stroke-width=".201" d="M45.11 6.715h-2.37v1.65h2.136v.626h-2.135v1.65h2.368v.641h-3.037V6.075h3.037z" clip-rule="evenodd"/><path fill="#000" fill-rule="evenodd" d="M47.927 11.282h-.668V6.715h-1.453v-.64h3.574v.64h-1.453z" clip-rule="evenodd"/><path stroke="#000" stroke-width=".201" d="M47.927 11.282h-.668V6.715h-1.453v-.64h3.574v.64h-1.453z" clip-rule="evenodd"/><path fill="#000" fill-rule="evenodd" d="M51.969 11.282h.668V6.075h-.668z" clip-rule="evenodd"/><path stroke="#000" stroke-width=".201" d="M51.969 11.282h.668V6.075h-.668z" clip-rule="evenodd"/><path fill="#000" fill-rule="evenodd" d="M55.6 11.282h-.668V6.715h-1.454v-.64h3.575v.64H55.6z" clip-rule="evenodd"/><path stroke="#000" stroke-width=".201" d="M55.6 11.282h-.668V6.715h-1.454v-.64h3.575v.64H55.6z" clip-rule="evenodd"/><path fill="#000" fill-rule="evenodd" d="M60.502 10.173q.577.585 1.413.585.835 0 1.413-.585t.578-1.495-.578-1.494a1.9 1.9 0 0 0-1.413-.586q-.836 0-1.413.586t-.578 1.494q.001.909.578 1.495m3.319.435q-.767.79-1.908.79-1.14 0-1.906-.79-.767-.789-.767-1.93t.767-1.93 1.906-.79q1.134 0 1.904.793.77.792.77 1.927 0 1.141-.766 1.93" clip-rule="evenodd"/><path fill="#000" d="m60.502 10.173-.072.07zm2.826-2.99-.071.071zm-2.826 0-.072-.07zm3.319 3.425.072.07zm-3.814 0 .072-.07zm0-3.86.072.07zm3.81.003.072-.07zm-3.315 3.422-.072.07q.608.615 1.485.615v-.2q-.795 0-1.342-.556zm1.413.585v.1q.876 0 1.485-.615l-.072-.07-.071-.07q-.548.555-1.342.554zm1.413-.585.072.07q.607-.618.607-1.565h-.201c0 .583-.185 1.054-.55 1.424zm.578-1.495h.1c0-.629-.2-1.154-.606-1.565l-.072.07-.071.071q.547.553.549 1.424zm-.578-1.494.072-.07a2 2 0 0 0-1.485-.616v.2q.794 0 1.342.556zm-1.413-.586v-.1q-.877 0-1.485.615l.072.07.071.071a1.8 1.8 0 0 1 1.342-.555zm-1.413.586-.072-.07c-.405.41-.606.935-.606 1.564h.2q.002-.872.55-1.424zm-.578 1.494h-.1q0 .947.606 1.565l.072-.07.071-.07c-.363-.37-.548-.842-.548-1.425zm3.897 1.93-.072-.07c-.492.507-1.101.76-1.836.76v.2q1.182.001 1.98-.82zm-1.908.79v-.1q-1.1 0-1.834-.76l-.072.07-.072.07q.797.82 1.978.82zm-1.906-.79.072-.07q-.739-.758-.738-1.86h-.201q0 1.18.795 2zm-.767-1.93h.1q0-1.102.739-1.86l-.072-.07-.072-.07q-.796.82-.795 2zm.767-1.93.072.07q.734-.759 1.834-.759v-.201q-1.181 0-1.978.82zm1.906-.79v.101q1.093 0 1.832.762l.072-.07.072-.07q-.8-.823-1.976-.823zm1.904.793-.072.07c.495.51.742 1.126.742 1.857h.2q0-1.175-.798-1.997zm.77 1.927h-.1q0 1.103-.738 1.86l.072.07.072.07q.795-.819.795-2z"/><path fill="#000" fill-rule="evenodd" d="M65.525 11.282V6.075h.814l2.528 4.05h.03l-.03-1.003V6.075h.67v5.207h-.699l-2.644-4.247h-.03l.03 1.004v3.243z" clip-rule="evenodd"/><path stroke="#000" stroke-width=".201" d="M65.525 11.282V6.075h.814l2.528 4.05h.03l-.03-1.003V6.075h.67v5.207h-.699l-2.644-4.247h-.03l.03 1.004v3.243z" clip-rule="evenodd"/><path fill="#000" fill-rule="evenodd" d="M92.716 26.035h1.617V15.186h-1.617zm14.572-6.94-1.854 4.703h-.056l-1.925-4.704h-1.742l2.887 6.574-1.647 3.657h1.688l4.448-10.23zm-9.175 5.708c-.53 0-1.269-.266-1.269-.922 0-.836.921-1.158 1.716-1.158.71 0 1.046.154 1.477.362a1.96 1.96 0 0 1-1.924 1.718m.195-5.947c-1.172 0-2.385.518-2.887 1.661l1.436.601c.307-.6.879-.796 1.479-.796.836 0 1.687.503 1.701 1.396v.112a3.6 3.6 0 0 0-1.687-.419c-1.549 0-3.124.852-3.124 2.442 0 1.452 1.269 2.388 2.69 2.388 1.088 0 1.689-.489 2.064-1.061h.057v.837h1.562v-4.16c0-1.925-1.437-3-3.291-3m-9.999 1.56h-2.301v-3.72h2.301c1.21 0 1.896 1.002 1.896 1.86 0 .84-.686 1.86-1.896 1.86m-.041-5.23H84.39v10.85h1.617v-4.11h2.26c1.793 0 3.556-1.3 3.556-3.37s-1.763-3.37-3.556-3.37m-21.139 9.619c-1.117 0-2.053-.937-2.053-2.223 0-1.301.936-2.251 2.053-2.251 1.103 0 1.97.95 1.97 2.25 0 1.287-.867 2.224-1.97 2.224m1.858-5.104h-.056c-.363-.433-1.062-.825-1.941-.825-1.844 0-3.535 1.622-3.535 3.706 0 2.069 1.69 3.677 3.535 3.677.88 0 1.578-.392 1.941-.84h.056v.532c0 1.413-.755 2.167-1.97 2.167-.991 0-1.606-.713-1.857-1.314l-1.411.587c.405.978 1.48 2.181 3.269 2.181 1.9 0 3.506-1.118 3.506-3.845V19.1h-1.537zm2.654 6.334h1.62v-10.85h-1.62zm4.008-3.579c-.041-1.427 1.104-2.153 1.928-2.153.643 0 1.188.322 1.37.783zm5.03-1.23c-.308-.825-1.244-2.35-3.157-2.35-1.9 0-3.479 1.496-3.479 3.692 0 2.069 1.565 3.69 3.66 3.69 1.69 0 2.668-1.034 3.074-1.635l-1.258-.84c-.42.616-.992 1.021-1.816 1.021s-1.41-.377-1.787-1.118l4.93-2.042zM41.395 20.01v1.565h3.743c-.111.881-.405 1.524-.852 1.971-.545.546-1.397 1.148-2.891 1.148-2.306 0-4.107-1.86-4.107-4.167s1.801-4.167 4.107-4.167c1.243 0 2.15.489 2.821 1.12l1.104-1.106c-.937-.894-2.18-1.58-3.925-1.58-3.158 0-5.812 2.573-5.812 5.733s2.654 5.732 5.812 5.732c1.703 0 2.988-.56 3.994-1.608 1.034-1.035 1.355-2.489 1.355-3.663 0-.363-.027-.699-.084-.978zM51 24.805c-1.117 0-2.081-.923-2.081-2.237 0-1.328.964-2.237 2.08-2.237 1.118 0 2.082.909 2.082 2.237 0 1.314-.964 2.237-2.081 2.237m0-5.929c-2.04 0-3.702 1.553-3.702 3.692 0 2.125 1.662 3.69 3.701 3.69s3.703-1.565 3.703-3.69c0-2.14-1.663-3.692-3.703-3.692m8.075 5.929c-1.117 0-2.082-.923-2.082-2.237 0-1.329.965-2.237 2.082-2.237 1.118 0 2.081.908 2.081 2.237 0 1.314-.963 2.236-2.08 2.236m0-5.929c-2.04 0-3.702 1.553-3.702 3.692 0 2.125 1.662 3.691 3.702 3.691s3.701-1.565 3.701-3.69c0-2.14-1.662-3.693-3.701-3.693" clip-rule="evenodd"/><mask id="b" width="12" height="23" x="8" y="6" maskUnits="userSpaceOnUse" style="mask-type:luminance"><path fill="#fff" stroke="#fff" stroke-width=".165" d="M19.772 17.266v.183L9.11 28.12l-.004-.005c-.232-.247-.376-.637-.377-1.159V7.761c0-.522.145-.913.377-1.16l.004-.005z"/></mask><g mask="url(#b)"><path fill="#000" stroke="#fff" stroke-width=".165" d="M19.772 17.266v.183L9.11 28.12l-.004-.005c-.232-.247-.376-.637-.377-1.159V7.761c0-.522.145-.913.377-1.16l.004-.005z"/></g><mask id="c" width="10" height="9" x="19" y="13" maskUnits="userSpaceOnUse" style="mask-type:luminance"><path fill="#fff" stroke="#fff" stroke-width=".165" d="m23.474 13.764 4.243 2.412c.59.336.866.768.866 1.182s-.276.845-.866 1.182l-4.242 2.413-.027.013-3.512-3.515v-.187l3.511-3.514z"/></mask><g mask="url(#c)"><path fill="#000" stroke="#fff" stroke-width=".165" d="m23.474 13.764 4.243 2.412c.59.336.866.768.866 1.182s-.276.845-.866 1.182l-4.242 2.413-.027.013-3.512-3.515v-.187l3.511-3.514z"/></g><mask id="d" width="15" height="12" x="9" y="17" maskUnits="userSpaceOnUse" style="mask-type:luminance"><path fill="#fff" fill-rule="evenodd" d="M9.047 28.173c.399.424 1.058.477 1.802.054l12.665-7.203-3.661-3.666z" clip-rule="evenodd"/></mask><g mask="url(#d)"><path fill="#000" stroke="#fff" stroke-width=".165" d="m23.379 21.005-12.571 7.15c-.687.39-1.275.352-1.644.017l10.688-10.697z"/></g><mask id="i" width="15" height="12" x="9" y="6" maskUnits="userSpaceOnUse" style="mask-type:luminance"><mask id="h" fill="#fff"><use fill-rule="evenodd" clip-rule="evenodd" href="#e"/></mask><path fill="#fff" fill-rule="evenodd" d="m9.047 6.542 10.806 10.816 3.661-3.666L10.85 6.49c-.349-.198-.68-.292-.972-.292-.333 0-.619.12-.83.345" clip-rule="evenodd"/><use href="#f" mask="url(#h)"/></mask><g mask="url(#i)"><mask id="j" fill="#fff"><use fill-rule="evenodd" clip-rule="evenodd" href="#e"/></mask><path fill="#000" fill-rule="evenodd" d="m9.047 6.542 10.806 10.816 3.661-3.666L10.85 6.49c-.349-.198-.68-.292-.972-.292-.333 0-.619.12-.83.345" clip-rule="evenodd"/><use href="#f" mask="url(#j)"/></g><path fill="#fff" fill-rule="evenodd" d="M23.435 20.943 10.85 28.1c-.704.4-1.334.373-1.738.009l-.064.065.063.062h.001c.404.364 1.034.39 1.738-.01l12.665-7.203z" clip-rule="evenodd"/><path fill="#fff" fill-rule="evenodd" d="M9.048 28.048c-.252-.268-.402-.683-.402-1.22v.127c0 .537.15.952.402 1.22l.064-.065zm18.71-9.564-4.323 2.459.08.08 4.243-2.412c.606-.345.908-.799.908-1.253-.05.41-.359.814-.908 1.126M10.85 6.616l16.908 9.615c.55.313.857.715.908 1.127.001-.454-.302-.909-.908-1.253L10.85 6.489c-1.213-.69-2.204-.116-2.204 1.272v.127c0-1.389.991-1.962 2.204-1.272" clip-rule="evenodd"/></svg>