<svg xmlns="http://www.w3.org/2000/svg" width="140" height="42" fill="none" viewBox="0 0 140 42"><mask id="a" width="140" height="42" x="0" y="0" maskUnits="userSpaceOnUse" style="mask-type:luminance"><path fill="#fff" fill-rule="evenodd" d="M0 0h139.93v42H0z" clip-rule="evenodd"/></mask><g mask="url(#a)"><path fill="#000" fill-rule="evenodd" d="M134.747 42H5.183C2.333 42 0 39.638 0 36.75V5.25C0 2.363 2.332 0 5.183 0h129.564c2.851 0 5.183 2.363 5.183 5.25v31.5c0 2.888-2.332 5.25-5.183 5.25" clip-rule="evenodd"/></g><path fill="#000" fill-rule="evenodd" d="M0 7a7 7 0 0 1 7-7h125.93a7 7 0 0 1 7 7v27.394a7 7 0 0 1-7 7H7a7 7 0 0 1-7-7z" clip-rule="evenodd"/><path stroke="#fff" stroke-opacity=".3" stroke-width=".5" d="M7 .25h125.93A6.75 6.75 0 0 1 139.68 7v27.394a6.75 6.75 0 0 1-6.75 6.75H7a6.75 6.75 0 0 1-6.75-6.75V7A6.75 6.75 0 0 1 7 .25Z"/><path fill="#fff" fill-rule="evenodd" d="M49.742 10.755q0 1.32-.781 2.103-.89.933-2.312.933-1.364 0-2.316-.946-.955-.946-.954-2.345 0-1.4.954-2.346.952-.945 2.316-.945.676 0 1.291.264t.985.703l-.554.555q-.624-.748-1.722-.748-.994 0-1.72.7-.724.7-.724 1.817-.001 1.117.724 1.817.726.7 1.72.699 1.054 0 1.758-.704.456-.457.526-1.275H46.65v-.757h3.05q.043.246.043.475m4.835-2.631h-2.866v1.997h2.584v.757h-2.584v1.998h2.866v.774h-3.675v-6.3h3.675zm3.41 5.526h-.809V8.124h-1.758V7.35h4.325v.774h-1.758zm4.888 0h.809v-6.3h-.809zm4.395 0h-.809V8.124h-1.758V7.35h4.325v.774h-1.758zm5.929-1.342a2.3 2.3 0 0 0 1.71.708q1.011 0 1.71-.708.7-.709.7-1.808t-.7-1.808a2.3 2.3 0 0 0-1.71-.709q-1.011 0-1.71.709-.698.707-.699 1.808 0 1.099.7 1.808m4.017.527q-.929.956-2.308.956-1.38 0-2.307-.956-.928-.954-.927-2.335 0-1.381.927-2.336t2.307-.955q1.371 0 2.303.959t.932 2.332q0 1.38-.927 2.335m2.062.815v-6.3h.983l3.06 4.9h.035l-.036-1.213V7.35h.81v6.3h-.844l-3.2-5.139h-.036l.036 1.215v3.924zm32.897 17.85h1.957V18.374h-1.957zm17.631-8.398-2.244 5.691h-.067l-2.329-5.69h-2.108l3.493 7.953-1.992 4.425h2.041l5.383-12.379zm-11.102 6.907c-.64 0-1.534-.321-1.534-1.115 0-1.012 1.114-1.402 2.076-1.402.859 0 1.265.187 1.787.44a2.374 2.374 0 0 1-2.329 2.077m.237-7.195c-1.417 0-2.884.626-3.492 2.01l1.737.727c.372-.727 1.063-.963 1.789-.963 1.012 0 2.041.608 2.058 1.688v.136c-.354-.203-1.114-.506-2.041-.506-1.874 0-3.78 1.03-3.78 2.954 0 1.757 1.536 2.889 3.256 2.889 1.316 0 2.043-.591 2.497-1.284h.068v1.013h1.89v-5.033c0-2.33-1.739-3.63-3.982-3.63M106.846 24.7h-2.784v-4.5h2.784c1.463 0 2.294 1.213 2.294 2.25 0 1.017-.831 2.25-2.294 2.25m-.05-6.327h-4.69V31.5h1.956v-4.973h2.734c2.169 0 4.302-1.573 4.302-4.077s-2.133-4.077-4.302-4.077M81.22 30.01c-1.352 0-2.484-1.133-2.484-2.689 0-1.574 1.132-2.724 2.484-2.724 1.334 0 2.382 1.15 2.382 2.724 0 1.556-1.048 2.69-2.382 2.69m2.247-6.174H83.4c-.44-.524-1.285-.999-2.349-.999-2.231 0-4.277 1.963-4.277 4.484 0 2.503 2.046 4.449 4.277 4.449 1.064 0 1.91-.474 2.349-1.016h.067v.643c0 1.71-.913 2.622-2.382 2.622-1.2 0-1.944-.862-2.248-1.59l-1.707.711c.49 1.183 1.79 2.639 3.955 2.639 2.298 0 4.242-1.354 4.242-4.653V23.11h-1.86zm3.212 7.663h1.96V18.374h-1.96zm4.85-4.33c-.05-1.727 1.335-2.605 2.331-2.605.779 0 1.438.39 1.658.947zm6.084-1.49c-.373-.997-1.505-2.842-3.82-2.842-2.298 0-4.208 1.81-4.208 4.467 0 2.503 1.893 4.466 4.428 4.466 2.044 0 3.227-1.252 3.718-1.98l-1.52-1.015c-.508.745-1.2 1.235-2.198 1.235-.997 0-1.707-.457-2.163-1.354l5.965-2.47zm-47.529-1.47v1.894h4.529c-.134 1.066-.49 1.844-1.03 2.385-.66.66-1.691 1.388-3.499 1.388-2.79 0-4.969-2.25-4.969-5.041s2.18-5.042 4.97-5.042c1.504 0 2.602.592 3.413 1.354l1.335-1.337C53.7 18.73 52.197 17.9 50.084 17.9c-3.82 0-7.031 3.114-7.031 6.937 0 3.822 3.21 6.935 7.031 6.935 2.062 0 3.616-.677 4.833-1.946 1.25-1.251 1.64-3.011 1.64-4.432 0-.439-.034-.845-.102-1.183zm11.621 5.801c-1.35 0-2.517-1.116-2.517-2.706 0-1.607 1.166-2.707 2.517-2.707 1.352 0 2.519 1.1 2.519 2.707 0 1.59-1.167 2.706-2.519 2.706m0-7.173c-2.467 0-4.478 1.879-4.478 4.467 0 2.572 2.01 4.466 4.478 4.466s4.48-1.894 4.48-4.466c0-2.588-2.012-4.467-4.48-4.467m9.77 7.173c-1.351 0-2.518-1.116-2.518-2.706 0-1.607 1.167-2.707 2.519-2.707s2.517 1.1 2.517 2.707c0 1.59-1.165 2.706-2.517 2.706m0-7.173c-2.467 0-4.478 1.879-4.478 4.467 0 2.572 2.011 4.466 4.478 4.466 2.468 0 4.479-1.894 4.479-4.466 0-2.588-2.011-4.467-4.478-4.467" clip-rule="evenodd"/><mask id="b" width="15" height="28" x="10" y="7" maskUnits="userSpaceOnUse" style="mask-type:luminance"><path fill="#fff" fill-rule="evenodd" d="M10.948 7.915c-.306.323-.486.825-.486 1.475v23.222c0 .651.18 1.152.486 1.474l.076.077 12.997-13.008v-.307L11.024 7.838z" clip-rule="evenodd"/></mask><g mask="url(#b)"><path fill="#00d2ff" fill-rule="evenodd" d="M10.948 7.915c-.306.323-.486.825-.486 1.475v23.222c0 .651.18 1.152.486 1.474l.076.077 12.997-13.008v-.307L11.024 7.838z" clip-rule="evenodd"/></g><mask id="c" width="11" height="10" x="24" y="16" maskUnits="userSpaceOnUse" style="mask-type:luminance"><path fill="#fff" fill-rule="evenodd" d="M24.022 20.848v.307l4.33 4.337.1-.054 5.132-2.92c1.466-.834 1.466-2.2 0-3.033l-5.133-2.919-.097-.055z" clip-rule="evenodd"/></mask><g mask="url(#c)"><path fill="#ffc802" fill-rule="evenodd" d="M24.022 20.848v.307l4.33 4.337.1-.054 5.132-2.92c1.466-.834 1.466-2.2 0-3.033l-5.133-2.919-.097-.055z" clip-rule="evenodd"/></g><mask id="d" width="19" height="14" x="10" y="21" maskUnits="userSpaceOnUse" style="mask-type:luminance"><path fill="#fff" fill-rule="evenodd" d="M10.947 34.086c.483.513 1.281.577 2.18.066l15.324-8.716-4.43-4.435z" clip-rule="evenodd"/></mask><g mask="url(#d)"><path fill="url(#e)" fill-rule="evenodd" d="M10.947 34.086c.483.513 1.281.577 2.18.066l15.324-8.716-4.43-4.435z" clip-rule="evenodd"/></g><mask id="f" width="19" height="15" x="10" y="7" maskUnits="userSpaceOnUse" style="mask-type:luminance"><path fill="#fff" fill-rule="evenodd" d="m10.947 7.915 13.074 13.086 4.43-4.435-15.324-8.715c-.422-.24-.821-.354-1.176-.354-.403 0-.748.146-1.004.418" clip-rule="evenodd"/></mask><g mask="url(#f)"><path fill="#00f076" fill-rule="evenodd" d="m10.947 7.915 13.074 13.086 4.43-4.435-15.324-8.715c-.422-.24-.821-.354-1.176-.354-.403 0-.748.146-1.004.418" clip-rule="evenodd"/></g><path fill="#000" fill-rule="evenodd" d="m28.354 25.338-15.227 8.66c-.852.484-1.613.452-2.102.011l-.078.08.077.075v-.001c.49.44 1.251.473 2.103-.01l15.324-8.717zm-17.407 8.596c-.306-.323-.486-.825-.486-1.475v.153c0 .65.18 1.152.486 1.476l.077-.078z" clip-rule="evenodd"/><path fill="#000" fill-rule="evenodd" d="m33.583 22.364-5.23 2.974.097.098 5.133-2.919c.733-.417 1.1-.966 1.1-1.515-.063.497-.435.984-1.1 1.362" clip-rule="evenodd"/><path fill="#fff" fill-rule="evenodd" d="m13.127 8.004 20.456 11.634c.665.378 1.038.865 1.1 1.363 0-.55-.367-1.1-1.1-1.516L13.127 7.85c-1.467-.833-2.667-.14-2.667 1.54v.153c0-1.68 1.199-2.373 2.665-1.539" clip-rule="evenodd"/><defs><linearGradient id="e" x1="10.555" x2="-6.177" y1="14.203" y2="42.345" gradientUnits="userSpaceOnUse"><stop stop-color="#ff3a44"/><stop offset="1" stop-color="#c31162"/></linearGradient></defs></svg>