<svg xmlns="http://www.w3.org/2000/svg" width="116" height="35" fill="none" viewBox="0 0 116 35"><g clip-path="url(#a)"><path fill="#fff" d="M7.43 33.869c-.266 0-.51 0-.776-.01a10 10 0 0 1-1.595-.139 5 5 0 0 1-1.418-.465 4.6 4.6 0 0 1-1.19-.86 4.6 4.6 0 0 1-.87-1.194 5 5 0 0 1-.468-1.412 10 10 0 0 1-.14-1.587c-.01-.184-.01-.78-.01-.78V7.34s.01-.588.01-.763a10 10 0 0 1 .14-1.587c.095-.525.247-.982.468-1.421.23-.44.519-.843.864-1.184.352-.35.757-.65 1.199-.867a4.8 4.8 0 0 1 1.418-.465A10.5 10.5 0 0 1 6.666.914l.766-.009h100.921l.784.01a10 10 0 0 1 1.586.139c.519.089.987.237 1.428.465.441.22.846.517 1.189.867a4.7 4.7 0 0 1 .88 1.193c.22.43.369.893.45 1.403.104.534.131 1.086.149 1.605.009.237.009.499.009.754v20.081c0 .272 0 .525-.009.789-.018.498-.045 1.053-.14 1.57-.09.524-.239.981-.468 1.42q-.346.672-.865 1.184c-.352.35-.757.641-1.198.867-.441.228-.897.367-1.428.465-.545.104-1.109.13-1.595.14-.247.009-.509.009-.766.009H7.429z"/><path fill="#010202" d="m39.507 22.019-1.92-5.163-1.91 5.162zm-6.692 3.83 3.98-10.379h1.594l3.98 10.379h-1.47l-.95-2.665h-4.695l-.951 2.665zm12.258-1.166v4.127h-1.285V18.064h1.285v1.174q.405-.693 1.022-1.026.626-.342 1.478-.341Q49 17.87 49.89 19q.899 1.122.898 2.964c0 1.223-.298 2.208-.898 2.964Q49 26.05 47.574 26.05q-.852 0-1.478-.333-.616-.344-1.023-1.035m4.375-2.718q0-1.411-.59-2.216-.571-.806-1.595-.807-1.021 0-1.612.807-.582.806-.582 2.216t.582 2.217q.59.797 1.612.798 1.022-.001 1.595-.799.59-.805.59-2.216m4.713 2.718v4.127h-1.294V18.064h1.294v1.174q.406-.693 1.014-1.026.625-.342 1.487-.341 1.418 0 2.307 1.13.899 1.122.897 2.964c0 1.223-.298 2.208-.897 2.964q-.89 1.122-2.307 1.122-.862 0-1.487-.333-.61-.344-1.014-1.035m4.367-2.718q0-1.411-.59-2.216-.572-.806-1.595-.807-1.022 0-1.613.807-.572.806-.572 2.216t.572 2.217q.59.797 1.613.798 1.021-.001 1.595-.799.59-.805.59-2.216m10.585 2.403v-2.786h-2.299v-1.157h3.7v4.463a6.2 6.2 0 0 1-1.807.875 7.4 7.4 0 0 1-2.095.288q-2.45-.001-3.83-1.421-1.374-1.42-1.375-3.961.001-2.542 1.375-3.961c.92-.953 2.2-1.43 3.83-1.43q1.02 0 1.928.255.926.246 1.7.736v1.498a5.6 5.6 0 0 0-1.664-1 5.2 5.2 0 0 0-1.848-.332q-1.91 0-2.88 1.059-.95 1.07-.95 3.172 0 2.101.95 3.162.97 1.06 2.88 1.06.748-.001 1.338-.122a3.5 3.5 0 0 0 1.047-.398m8.71-2.438h-1.276q-1.56-.001-2.158.358-.6.352-.6 1.211 0 .686.45 1.086.448.395 1.226.395 1.072-.001 1.717-.754.644-.753.644-2.009v-.287zm1.284-.526v4.445h-1.284v-1.184c-.292.475-.66.825-1.091 1.053q-.662.334-1.613.333-1.2 0-1.91-.668-.706-.675-.704-1.807-.001-1.305.88-1.982.888-.667 2.64-.667h1.798v-.122q0-.886-.582-1.368-.581-.48-1.636-.48-.67 0-1.303.157a5 5 0 0 0-1.225.48v-1.183q.705-.271 1.374-.404a6 6 0 0 1 1.285-.14q1.7 0 2.537.876.835.884.834 2.661m2.65 4.445V15.034h1.285V25.85zm3.974 0V15.034h1.284V25.85zm10.626-4.216v.632H90.45q.08 1.314.793 2.014.721.684 2 .683.74-.001 1.428-.175.705-.183 1.383-.543v1.21q-.687.289-1.419.448a7.4 7.4 0 0 1-1.47.149q-1.866 0-2.968-1.086-1.09-1.077-1.091-2.929 0-1.919 1.04-3.032c.692-.754 1.628-1.13 2.8-1.13q1.576 0 2.491 1.017.921 1.006.921 2.742m-5.872-.368h4.588q-.018-1.05-.6-1.682-.571-.623-1.523-.623-1.072 0-1.726.605-.642.605-.739 1.7m12.46-3.323.009 1.314a1.8 1.8 0 0 0-.477-.184 2.4 2.4 0 0 0-.555-.062q-1.09 0-1.681.71-.58.701-.581 2.023v4.103h-1.285v-7.782h1.285v1.21q.406-.712 1.058-1.053.652-.351 1.577-.35.133 0 .298.026c.104.006.224.021.352.045m8.048.122-3.434 8.503q-.546 1.394-1.064 1.822-.52.422-1.383.421h-1.031v-1.068h.757q.528 0 .828-.255.291-.245.644-1.184l.239-.579-3.172-7.66h1.365l2.448 6.082 2.438-6.082zm-78.259-6.241V6.468h3.398v.605h-2.676v1.588h2.563v.614h-2.563v1.937h2.748v.614h-3.47zm6.078-2.857-1.672-2.498h.784l1.338 1.99 1.339-1.99h.784l-1.726 2.57 1.839 2.785h-.784L39.21 9.545l-1.532 2.278h-.784zm5.282-1.902h-.915v2.009h.915q.51 0 .793-.255.273-.263.274-.754 0-.472-.274-.736-.283-.263-.793-.264m-1.636 4.76V6.467h1.636q.906 0 1.374.404.458.41.46 1.192 0 .797-.46 1.202-.466.404-1.374.403h-.915v2.157zm4.447 0V6.467h.73v4.741h2.624v.614zm6.04-4.863q-.793 0-1.268.587-.458.587-.459 1.605c0 .67.152 1.208.46 1.605q.474.588 1.266.588t1.25-.588q.466-.595.467-1.605 0-1.015-.468-1.605c-.304-.395-.721-.587-1.249-.587m0-.588q1.125 0 1.806.754.678.753.676 2.023 0 1.272-.676 2.024-.68.752-1.807.753-1.135 0-1.824-.753-.678-.754-.677-2.024.001-1.272.677-2.023.689-.756 1.824-.754m6.172 2.934q.236.08.46.342.218.254.45.709l.739 1.462h-.784l-.686-1.376q-.272-.535-.518-.71-.256-.173-.686-.174H57.3v2.26h-.73V6.468h1.645q.924 0 1.383.386.45.378.45 1.157 0 .508-.238.842a1.22 1.22 0 0 1-.692.454m-.906-2.243h-.915v1.902h.915q.528 0 .793-.246.273-.245.274-.71 0-.472-.274-.708-.265-.238-.793-.238m3.488 4.76V6.467h3.398v.605H62.43V8.66h2.564v.614H62.43v1.937h2.74v.614H61.7zm7.008 0V6.467h.73v5.355zm1.436-4.75v-.606h4.552v.605h-1.91v4.75h-.73v-4.75zm9.783-.113q-.791 0-1.257.587t-.468 1.605c0 .67.155 1.208.468 1.605q.466.588 1.257.588.793 0 1.258-.588.458-.595.46-1.605 0-1.015-.46-1.605c-.31-.395-.73-.587-1.258-.587m0-.588q1.137 0 1.816.754.678.753.676 2.023 0 1.272-.676 2.024c-.45.501-1.058.753-1.815.753q-1.137 0-1.816-.753-.678-.754-.676-2.024 0-1.272.676-2.023.68-.756 1.816-.754m3.628 5.45V6.468h.978l2.387 4.48v-4.48h.713v5.355h-.987l-2.387-4.48v4.48zM23.525 6.486h-9.58c-4.52 0-6.174 1.638-6.174 6.136v9.536c0 4.497 1.655 6.144 6.174 6.144h9.58c4.51 0 6.164-1.646 6.164-6.144v-9.536c0-4.498-1.645-6.136-6.164-6.136"/><path fill="#fff" fill-rule="evenodd" d="m17.125 19.65-.265.588h-.59l1.258-2.848h.51l1.257 2.848h-.608l-.256-.587zm.209-.516h.88l-.442-1.018zm9.336-1.744h.581v2.848h-.581zm-2.28 2.332h1.594v.516h-2.167V17.39h2.105v.525H24.39v.578h1.058v.526H24.39zm-1.65-2.332h.608l-.995 2.857h-.492l-.653-1.875-.653 1.875h-.477l-1.004-2.857h.626l.635 1.964.643-1.964h.477l.653 1.964zm-7.35 0h.58v1.614c0 .816-.45 1.287-1.242 1.287-.775 0-1.225-.465-1.225-1.27v-1.628h.58v1.614c0 .48.23.735.654.735.423 0 .652-.255.652-.718zm-3.277 0h.582v2.857h-.582V19.08h-1.311v1.166h-.581V17.39h.58v1.148h1.313zm6.62-3.629a3.637 3.637 0 0 1-3.645-3.629h.51c0 1.718 1.41 3.113 3.136 3.113s3.136-1.395 3.136-3.113h.51c0 1.997-1.637 3.629-3.646 3.629" clip-rule="evenodd"/></g><defs><clipPath id="a"><path fill="#fff" d="M0 0h115.655v34.714H0z"/></clipPath></defs></svg>