<svg xmlns="http://www.w3.org/2000/svg" width="140" height="42" fill="none" viewBox="0 0 140 42"><g clip-path="url(#a)"><path fill="#000" d="M129.987.201h-121c-.32 0-.638.01-.959.01-.682.022-1.374.065-2.066.191A6.8 6.8 0 0 0 4 1.037a6.8 6.8 0 0 0-1.674 1.221 6.47 6.47 0 0 0-1.864 3.63C.336 6.565.292 7.254.27 7.943c0 .309-.011.625-.011.944v24.306c0 .32.01.636.01.955.022.69.066 1.379.192 2.057.115.69.32 1.336.638 1.964a6.5 6.5 0 0 0 1.226 1.655c.49.488 1.053.9 1.674 1.21.627.33 1.27.53 1.962.656.692.115 1.384.158 2.066.18.321 0 .638.01.96.01h122.117c.31 0 .638-.01.949-.01a15 15 0 0 0 2.066-.18 6.9 6.9 0 0 0 1.973-.657 6.5 6.5 0 0 0 1.673-1.21 6.7 6.7 0 0 0 1.226-1.654 6.7 6.7 0 0 0 .639-1.964c.126-.678.169-1.367.191-2.057v-.955c.011-.37.011-.743.011-1.123V10.01c0-.38 0-.753-.011-1.123v-.944c-.022-.69-.065-1.378-.191-2.057a6.8 6.8 0 0 0-.639-1.963 6.8 6.8 0 0 0-2.899-2.887 6.7 6.7 0 0 0-1.973-.635c-.681-.126-1.374-.169-2.066-.19-.311 0-.639-.01-.949-.01z"/><path fill="#000" d="M8.987 40.977c-.32 0-.616 0-.937-.01-.577-.012-1.259-.044-1.93-.17a6 6 0 0 1-1.716-.563 5.5 5.5 0 0 1-1.44-1.041 5.6 5.6 0 0 1-1.052-1.443 6.1 6.1 0 0 1-.567-1.709c-.126-.69-.158-1.39-.17-1.92-.01-.223-.01-.945-.01-.945V8.881s.01-.71.01-.923c.012-.542.044-1.242.17-1.92.116-.635.3-1.188.567-1.72a5.8 5.8 0 0 1 1.045-1.432 5.5 5.5 0 0 1 1.45-1.048 5.8 5.8 0 0 1 1.717-.564 12.4 12.4 0 0 1 1.94-.168l.927-.011h122.103l.949.01c.534.011 1.237.044 1.918.17a5.8 5.8 0 0 1 1.728.563 5.4 5.4 0 0 1 1.439 1.048c.425.413.779.901 1.064 1.443.267.52.447 1.08.544 1.698.127.646.159 1.314.181 1.942.011.287.011.603.011.912v24.295c0 .33 0 .636-.011.955-.022.603-.054 1.275-.17 1.9a5.7 5.7 0 0 1-.566 1.719 5.6 5.6 0 0 1-1.046 1.432 5.8 5.8 0 0 1-1.45 1.048c-.533.277-1.085.445-1.727.564-.66.126-1.342.158-1.93.169-.299.01-.616.01-.926.01H8.987z"/><path stroke="#fff" stroke-opacity=".3" stroke-width=".5" d="m131.092 1.345.946.01c.53.011 1.217.044 1.878.166h.003a5.6 5.6 0 0 1 1.655.539l.003.002a5.1 5.1 0 0 1 1.372.999l.005.005c.354.343.656.743.91 1.187l.107.192a5.3 5.3 0 0 1 .518 1.622l.002.008c.122.625.154 1.275.176 1.903.011.282.011.593.011.903v24.295c0 .33 0 .632-.011.946-.022.603-.054 1.258-.166 1.862v.004a5.5 5.5 0 0 1-.446 1.456l-.096.19v.002q-.4.778-.999 1.368l-.001.001a5.5 5.5 0 0 1-1.388 1.003h-.001c-.506.262-1.033.425-1.658.54h-.001c-.639.122-1.304.154-1.888.165h-.003c-.295.01-.607.01-.918.01H8.737v.003c-.227 0-.446-.002-.678-.01h-.004c-.573-.01-1.239-.042-1.889-.164l-.004-.001a5.7 5.7 0 0 1-1.645-.54l-.002-.001a5.3 5.3 0 0 1-1.373-.993l-.001-.001-.15-.154a5.3 5.3 0 0 1-.856-1.225l-.001-.001-.092-.188a5.7 5.7 0 0 1-.354-1.005l-.097-.448c-.123-.669-.154-1.353-.165-1.88v-.006l-.01-.545-.001-.272v-.115l-.25-.001h.25V8.854l.002-.083.004-.269c.003-.2.005-.43.005-.539.01-.538.042-1.221.165-1.879v-.002c.112-.611.287-1.14.542-1.647a5.5 5.5 0 0 1 1-1.371 5.3 5.3 0 0 1 1.385-1.001l.004-.003a5.6 5.6 0 0 1 1.645-.54h.002c.672-.121 1.36-.155 1.9-.165l.925-.01z"/><path fill="#fff" d="m47.8 26.64-2.323-6.247-2.312 6.247zm-8.097 4.634 4.815-12.557h1.93l4.814 12.557h-1.778l-1.15-3.224h-5.68l-1.151 3.224zm14.83-1.41v4.992h-1.555V21.854h1.555v1.422q.492-.84 1.237-1.242.757-.414 1.789-.413 1.725 0 2.802 1.368 1.086 1.357 1.085 3.586c0 1.479-.36 2.67-1.085 3.586q-1.077 1.357-2.802 1.357-1.033 0-1.79-.402c-.497-.276-.908-.697-1.236-1.253m5.294-3.29q0-1.705-.714-2.68-.692-.976-1.93-.977-1.234.001-1.95.976-.704.975-.704 2.682t.703 2.681q.714.965 1.952.966 1.234 0 1.929-.966.714-.975.714-2.681m5.702 3.29v4.992h-1.565V21.854h1.565v1.422q.492-.84 1.226-1.242.757-.414 1.8-.413 1.714 0 2.791 1.368 1.087 1.357 1.086 3.586c0 1.479-.361 2.67-1.086 3.586q-1.077 1.357-2.791 1.357-1.043 0-1.8-.402c-.49-.276-.902-.697-1.226-1.253m5.283-3.29q0-1.705-.714-2.68-.69-.976-1.93-.977-1.234.001-1.95.976-.693.975-.693 2.682t.693 2.681q.713.965 1.95.966 1.236 0 1.93-.966.714-.975.714-2.681m12.807 2.909v-3.371h-2.78v-1.4h4.475v5.399a7.5 7.5 0 0 1-2.186 1.059 8.9 8.9 0 0 1-2.535.348q-2.963 0-4.634-1.72-1.663-1.717-1.663-4.792t1.663-4.792q1.673-1.729 4.634-1.73a8.6 8.6 0 0 1 2.333.308 7.3 7.3 0 0 1 2.056.89v1.813a6.8 6.8 0 0 0-2.012-1.21 6.3 6.3 0 0 0-2.236-.401q-2.31 0-3.484 1.281-1.151 1.294-1.15 3.838-.001 2.543 1.15 3.826 1.174 1.282 3.484 1.282.904 0 1.619-.147.703-.151 1.266-.481m10.538-2.951h-1.544q-1.887-.001-2.61.434-.726.426-.726 1.465-.001.829.545 1.314.54.479 1.482.477 1.299 0 2.077-.912.78-.91.78-2.43v-.348zm1.554-.636v5.378h-1.554V29.84c-.354.575-.797.999-1.32 1.275q-.8.404-1.951.402-1.452 0-2.312-.808-.853-.818-.851-2.186-.001-1.579 1.064-2.398 1.075-.807 3.195-.808h2.175v-.147q0-1.072-.703-1.655-.705-.58-1.98-.581-.81.001-1.576.19a6.2 6.2 0 0 0-1.483.582v-1.433q.853-.327 1.663-.488a7.4 7.4 0 0 1 1.554-.169q2.056-.001 3.07 1.06c.674.714 1.01 1.784 1.01 3.22m3.206 5.378V18.189h1.555v13.085zm4.808 0V18.189h1.554v13.085zm12.857-5.101v.764h-7.148q.095 1.591.959 2.438.872.828 2.42.826.893-.001 1.727-.212a7.6 7.6 0 0 0 1.674-.657v1.464a10 10 0 0 1-1.717.543 9 9 0 0 1-1.778.179c-1.507 0-2.701-.438-3.592-1.314q-1.32-1.303-1.32-3.543 0-2.321 1.259-3.669c.837-.912 1.969-1.367 3.386-1.367q1.908 0 3.015 1.23 1.115 1.218 1.115 3.318m-7.105-.445h5.55q-.021-1.271-.725-2.036-.69-.753-1.843-.753-1.298 0-2.088.732-.777.732-.894 2.057m15.075-4.02.011 1.59a2.2 2.2 0 0 0-.577-.223 2.8 2.8 0 0 0-.671-.075q-1.32.001-2.034.857-.703.851-.703 2.449v4.964h-1.555v-9.416h1.555v1.465q.49-.86 1.28-1.274.788-.425 1.908-.424.161 0 .36.032.192.012.426.054m9.737.146-4.154 10.289q-.66 1.686-1.288 2.204-.628.51-1.673.51h-1.248v-1.293h.916q.64 0 1.003-.309.351-.296.779-1.432l.288-.7-3.837-9.269h1.652l2.96 7.36 2.951-7.36zm-94.684-7.548v-6.48h4.11v.733h-3.238v1.92h3.102v.744h-3.102v2.344h3.325v.743h-4.197zm7.353-3.457-2.023-3.022h.948l1.62 2.408 1.619-2.408h.948l-2.088 3.108 2.225 3.371h-.948l-1.821-2.757-1.854 2.757h-.949zm6.39-2.3h-1.107v2.43h1.108q.617-.001.959-.31.331-.318.332-.911-.001-.572-.332-.89-.341-.319-.96-.32m-1.98 5.757v-6.48h1.98q1.098 0 1.663.489c.368.334.556.811.556 1.443q.001.964-.556 1.454-.563.489-1.662.488h-1.108v2.61h-.872zm5.382 0v-6.48h.883v5.737h3.174v.743zm7.306-5.883q-.958 0-1.533.71c-.367.474-.555 1.12-.555 1.942q0 1.22.555 1.942.575.711 1.533.711t1.511-.71c.375-.482.567-1.128.567-1.943 0-.818-.188-1.468-.567-1.942-.368-.477-.873-.71-1.51-.71m0-.711q1.364 0 2.186.912c.548.606.818 1.425.818 2.448q-.001 1.538-.818 2.448-.822.911-2.186.912-1.374 0-2.207-.912-.82-.912-.819-2.448 0-1.54.819-2.448.833-.913 2.207-.912m7.47 3.55q.284.096.555.413.264.308.544.858l.894 1.77h-.948l-.83-1.666q-.33-.646-.627-.858-.31-.211-.83-.212h-.959v2.736h-.883V7.826h1.99c.747 0 1.302.154 1.674.466q.542.458.544 1.4 0 .615-.288 1.02a1.48 1.48 0 0 1-.837.549M70.43 8.547h-1.107v2.301h1.107q.638 0 .96-.298.33-.296.33-.858 0-.57-.33-.858-.322-.286-.96-.287m4.22 5.758v-6.48h4.11v.733h-3.227v1.92h3.101v.744h-3.101v2.344h3.314v.743H74.65zm8.478 0v-6.48h.884v6.48zm1.738-5.747v-.732h5.507v.732h-2.311v5.747h-.884V8.558zm11.837-.136q-.959 0-1.522.71t-.566 1.942q-.001 1.22.566 1.942.563.711 1.522.711.958 0 1.522-.71c.367-.482.555-1.128.555-1.943 0-.818-.184-1.468-.555-1.942-.375-.477-.884-.71-1.522-.71m0-.711q1.374 0 2.196.912c.548.606.819 1.425.819 2.448q0 1.538-.819 2.448c-.545.607-1.28.912-2.196.912q-1.374 0-2.197-.912-.82-.912-.818-2.448.001-1.54.818-2.448.823-.913 2.197-.912m4.389 6.594v-6.48h1.183l2.888 5.421v-5.42h.862v6.48h-1.193l-2.889-5.421v5.42z"/><path fill="#c8102e" d="M28.462 7.847h-11.59c-5.468 0-7.47 1.982-7.47 7.424v11.537c0 5.442 2.002 7.435 7.47 7.435h11.59c5.457 0 7.458-1.993 7.458-7.435V15.271c0-5.442-1.99-7.424-7.458-7.424"/><path fill="#fff" fill-rule="evenodd" d="m20.719 23.775-.321.71h-.714l1.522-3.445h.616l1.522 3.446h-.736l-.31-.711zm.252-.625h1.064l-.534-1.231zm11.296-2.11h.703v3.446h-.703zm-2.76 2.821h1.93v.625h-2.622v-3.447h2.546v.636h-1.853v.7h1.28v.635h-1.28zm-1.994-2.822h.736l-1.205 3.457h-.595l-.79-2.268-.79 2.268h-.576l-1.216-3.456h.758l.768 2.376.779-2.376h.577l.79 2.376zm-8.893 0h.703v1.953c0 .988-.544 1.558-1.504 1.558-.937 0-1.482-.563-1.482-1.536v-1.97h.703v1.952c0 .581.278.89.79.89s.79-.309.79-.869zm-3.964 0h.704v3.457h-.704v-1.41H13.07v1.41h-.703V21.04h.704v1.389h1.586zm8.01-4.39c-2.441 0-4.41-1.97-4.41-4.39h.616c0 2.078 1.706 3.766 3.794 3.766s3.794-1.688 3.794-3.766h.617c0 2.416-1.98 4.39-4.41 4.39" clip-rule="evenodd"/></g><defs><clipPath id="a"><path fill="#fff" d="M0 0h139.93v42H0z"/></clipPath></defs></svg>