<svg width="140" height="42" viewBox="0 0 140 42" fill="none" xmlns="http://www.w3.org/2000/svg">
<g clip-path="url(#clip0_1750_2299)">
<path d="M129.987 0.20105H10.1162C9.73389 0.20105 9.35882 0.20105 8.98736 0.20105C8.66638 0.20105 8.34902 0.211819 8.02804 0.211819C7.34642 0.233357 6.65399 0.276434 5.96155 0.402075C5.26911 0.516946 4.63077 0.721563 3.99965 1.03746C3.38294 1.35695 2.81673 1.76977 2.32626 2.25797C1.82496 2.74618 1.42104 3.30618 1.10007 3.92361C0.779094 4.54823 0.577132 5.19797 0.461726 5.8872C0.3355 6.56566 0.292223 7.2549 0.270585 7.94413C0.270585 8.25285 0.259766 8.56874 0.259766 8.88823V10.0118V32.0708V33.1944C0.259766 33.5139 0.270585 33.8298 0.270585 34.1493C0.292223 34.8385 0.3355 35.5277 0.461726 36.2062C0.577132 36.8954 0.782701 37.5416 1.10007 38.1698C1.42104 38.7729 1.82496 39.3472 2.32626 39.8246C2.81673 40.3129 3.37934 40.7257 3.99965 41.0344C4.62717 41.3646 5.26911 41.5657 5.96155 41.6913C6.65399 41.8062 7.34642 41.8493 8.02804 41.8708C8.34902 41.8708 8.66638 41.8816 8.98736 41.8816C9.35882 41.8816 9.73389 41.8816 10.1162 41.8816H129.987C130.359 41.8816 130.734 41.8816 131.105 41.8816C131.415 41.8816 131.743 41.8708 132.054 41.8708C132.746 41.8493 133.439 41.8062 134.12 41.6913C134.813 41.5657 135.462 41.3611 136.093 41.0344C136.71 40.7257 137.276 40.3129 137.766 39.8246C138.257 39.3472 138.671 38.7764 138.992 38.1698C139.313 37.5452 139.515 36.8954 139.631 36.2062C139.757 35.5277 139.8 34.8385 139.822 34.1493C139.822 33.8298 139.822 33.5139 139.822 33.1944C139.833 32.8246 139.833 32.4513 139.833 32.0708V10.0118C139.833 9.63131 139.833 9.25797 139.822 8.88823C139.822 8.56874 139.822 8.25285 139.822 7.94413C139.8 7.2549 139.757 6.56566 139.631 5.8872C139.515 5.19797 139.31 4.55182 138.992 3.92361C138.671 3.30977 138.257 2.74618 137.766 2.25797C137.276 1.76977 136.713 1.35695 136.093 1.03746C135.465 0.717974 134.813 0.516946 134.12 0.402075C133.439 0.276434 132.746 0.233357 132.054 0.211819C131.743 0.211819 131.415 0.20105 131.105 0.20105C130.734 0.20105 130.359 0.20105 129.987 0.20105Z" fill="black"/>
<path d="M8.98741 40.9769C8.66644 40.9769 8.37071 40.9769 8.04974 40.9662C7.47271 40.9554 6.79109 40.9231 6.12029 40.7974C5.49277 40.6897 4.92656 40.4995 4.40362 40.2338C3.86987 39.9682 3.37939 39.6092 2.96465 39.1928C2.53909 38.7692 2.18566 38.2918 1.91157 37.7498C1.6447 37.2292 1.46437 36.68 1.34536 36.041C1.21914 35.3518 1.18668 34.6518 1.17586 34.1205C1.16504 33.898 1.16504 33.1764 1.16504 33.1764V8.88103C1.16504 8.88103 1.17586 8.17026 1.17586 7.95847C1.18668 7.41642 1.21914 6.71642 1.34536 6.03796C1.46077 5.40257 1.6447 4.84975 1.91157 4.31847C2.18927 3.78719 2.53909 3.29898 2.95744 2.88616C3.383 2.46257 3.87348 2.1 4.40723 1.83795C4.94098 1.56154 5.50359 1.38206 6.1239 1.27437C6.81633 1.14873 7.51959 1.11642 8.06416 1.10565L8.99102 1.09488H131.094L132.043 1.10565C132.577 1.11642 133.28 1.14873 133.961 1.27437C134.589 1.38206 135.155 1.56154 135.689 1.83795C136.223 2.10359 136.713 2.46257 137.128 2.88616C137.553 3.29898 137.907 3.78718 138.192 4.32924C138.459 4.84975 138.639 5.40975 138.736 6.02718C138.863 6.67334 138.895 7.34103 138.917 7.96924C138.928 8.25642 138.928 8.57232 138.928 8.88103C138.928 9.26155 138.928 9.63488 138.928 10.0046V32.0636C138.928 32.4333 138.928 32.8067 138.928 33.1764C138.928 33.5067 138.928 33.8118 138.917 34.1313C138.895 34.7344 138.863 35.4056 138.747 36.0303C138.639 36.6656 138.459 37.2185 138.181 37.7498C137.903 38.2918 137.553 38.7692 137.135 39.1821C136.71 39.6056 136.219 39.9574 135.685 40.2303C135.152 40.5067 134.6 40.6754 133.958 40.7939C133.298 40.9195 132.616 40.9518 132.028 40.9626C131.729 40.9733 131.412 40.9733 131.102 40.9733H129.984H8.98741V40.9769Z" fill="black"/>
<path d="M131.092 1.34488L132.038 1.35464V1.35562C132.568 1.36632 133.255 1.39877 133.916 1.52066H133.919C134.525 1.62463 135.066 1.79672 135.574 2.05972L135.577 2.06168C136.085 2.31465 136.554 2.65684 136.949 3.0607L136.954 3.06558C137.308 3.40887 137.61 3.80915 137.864 4.25308L137.971 4.44547C138.224 4.94044 138.396 5.4747 138.489 6.06656L138.491 6.07535C138.613 6.69996 138.645 7.34983 138.667 7.97769V7.97867C138.678 8.26025 138.678 8.57122 138.678 8.88101V33.1759C138.678 33.5066 138.678 33.8079 138.667 34.1222C138.645 34.7255 138.613 35.38 138.501 35.9845V35.9884C138.41 36.5242 138.266 36.9952 138.055 37.4435L137.959 37.6339V37.6359C137.693 38.1547 137.359 38.6104 136.96 39.0041L136.959 39.005C136.552 39.4097 136.083 39.7465 135.571 40.008H135.57C135.064 40.2702 134.537 40.4328 133.912 40.548H133.911C133.272 40.6696 132.607 40.7023 132.023 40.713H132.02C131.725 40.7236 131.413 40.7238 131.102 40.7238H8.7373V40.7257C8.5099 40.7252 8.29086 40.7238 8.05859 40.716H8.05469C7.48189 40.7053 6.81617 40.6737 6.16602 40.5519L6.16211 40.5509C5.55912 40.4474 5.01676 40.265 4.5166 40.0109L4.51465 40.0099C4.00634 39.7569 3.53779 39.4145 3.1416 39.0168L3.14062 39.0158L2.99121 38.8615C2.64995 38.4953 2.36352 38.0893 2.13477 37.6369L2.13379 37.6359L2.04199 37.4484C1.89538 37.1329 1.77955 36.8027 1.68848 36.4425L1.59082 35.9953C1.46835 35.3262 1.43651 34.6422 1.42578 34.1154V34.1086L1.41602 33.5636C1.41534 33.46 1.41521 33.363 1.41504 33.2921V33.1769L1.16504 33.1759H1.41504V8.85367C1.41533 8.83386 1.41649 8.80543 1.41699 8.77066C1.41801 8.70065 1.41954 8.60432 1.4209 8.50211C1.42356 8.30144 1.42571 8.07278 1.42578 7.96304C1.43653 7.42522 1.4685 6.74186 1.59082 6.08414L1.5918 6.08218C1.70287 5.47088 1.87838 4.94218 2.13281 4.43472C2.39985 3.92383 2.73488 3.45631 3.13281 3.06363H3.13379C3.54221 2.6571 4.01096 2.31138 4.51758 2.06265L4.52246 2.05972C5.03062 1.79661 5.56864 1.62454 6.16699 1.52066H6.16895C6.84122 1.39871 7.52819 1.36534 8.06836 1.35464L8.99414 1.34488H131.092Z" stroke="white" stroke-opacity="0.3" stroke-width="0.5"/>
<path d="M47.7996 26.6395L45.477 20.3933L43.1653 26.6395H47.7996ZM39.7031 31.2738L44.5177 18.7169H46.4472L51.2618 31.2738H49.4838L48.3333 28.0503H42.6532L41.5027 31.2738H39.7031ZM54.5328 29.8631V34.8564H52.9784V21.8544H54.5328V23.2759C54.861 22.7159 55.2721 22.3031 55.7698 22.0338C56.2747 21.7574 56.8698 21.621 57.5586 21.621C58.7091 21.621 59.6431 22.0769 60.3608 22.9887C61.0857 23.8933 61.4464 25.0887 61.4464 26.5749C61.4464 28.0538 61.0857 29.2456 60.3608 30.161C59.6431 31.0656 58.7091 31.5179 57.5586 31.5179C56.8698 31.5179 56.2747 31.3851 55.7698 31.1159C55.2721 30.8395 54.861 30.4195 54.5328 29.8631ZM59.8271 26.5749C59.8271 25.4369 59.5891 24.5431 59.113 23.8933C58.6514 23.2436 58.0094 22.9169 57.1836 22.9169C56.3613 22.9169 55.7085 23.2436 55.2325 23.8933C54.7636 24.5431 54.5292 25.4369 54.5292 26.5749C54.5292 27.7128 54.7636 28.6067 55.2325 29.2564C55.7085 29.899 56.3577 30.222 57.1836 30.222C58.0058 30.222 58.6514 29.899 59.113 29.2564C59.5891 28.6067 59.8271 27.7128 59.8271 26.5749ZM65.5289 29.8631V34.8564H63.9637V21.8544H65.5289V23.2759C65.8571 22.7159 66.2646 22.3031 66.7551 22.0338C67.26 21.7574 67.8586 21.621 68.5547 21.621C69.6979 21.621 70.6284 22.0769 71.346 22.9887C72.0709 23.8933 72.4316 25.0887 72.4316 26.5749C72.4316 28.0538 72.0709 29.2456 71.346 30.161C70.6284 31.0656 69.6979 31.5179 68.5547 31.5179C67.8586 31.5179 67.26 31.3851 66.7551 31.1159C66.2646 30.8395 65.8534 30.4195 65.5289 29.8631ZM70.8123 26.5749C70.8123 25.4369 70.5743 24.5431 70.0982 23.8933C69.6366 23.2436 68.9946 22.9169 68.1688 22.9169C67.3465 22.9169 66.6937 23.2436 66.2177 23.8933C65.7561 24.5431 65.5253 25.4369 65.5253 26.5749C65.5253 27.7128 65.7561 28.6067 66.2177 29.2564C66.6937 29.899 67.3429 30.222 68.1688 30.222C68.991 30.222 69.6366 29.899 70.0982 29.2564C70.5743 28.6067 70.8123 27.7128 70.8123 26.5749ZM83.6188 29.4826V26.1118H80.8382V24.7118H85.3138V30.1108C84.6538 30.5774 83.9253 30.9292 83.1283 31.1697C82.3385 31.4031 81.4946 31.5179 80.593 31.5179C78.6166 31.5179 77.0731 30.9436 75.9587 29.7985C74.8515 28.6533 74.2961 27.0559 74.2961 25.0061C74.2961 22.9564 74.8515 21.359 75.9587 20.2138C77.0731 19.0615 78.6202 18.4836 80.593 18.4836C81.4152 18.4836 82.1942 18.5877 82.9263 18.7923C83.6729 18.9897 84.3581 19.2877 84.982 19.6826V21.4954C84.3509 20.9569 83.6801 20.5549 82.9696 20.2856C82.2591 20.0164 81.5126 19.8836 80.7336 19.8836C79.1937 19.8836 78.0324 20.3108 77.2498 21.1651C76.4816 22.0267 76.0993 23.3082 76.0993 25.0026C76.0993 26.6969 76.4816 27.9749 77.2498 28.8292C78.0324 29.6836 79.1937 30.1108 80.7336 30.1108C81.3359 30.1108 81.8769 30.0605 82.3529 29.9636C82.8218 29.8631 83.2437 29.7015 83.6188 29.4826ZM94.1568 26.5318H92.6132C91.3546 26.5318 90.4854 26.6754 90.0022 26.9661C89.5189 27.2497 89.2773 27.7379 89.2773 28.4308C89.2773 28.9836 89.4576 29.4215 89.8219 29.7446C90.1825 30.0641 90.6766 30.222 91.3041 30.222C92.1697 30.222 92.8621 29.9169 93.3814 29.3102C93.9007 28.7036 94.1604 27.8923 94.1604 26.88V26.5318H94.1568ZM95.7112 25.8964V31.2738H94.1568V29.8415C93.8034 30.4159 93.3598 30.8395 92.8368 31.1159C92.3031 31.3851 91.6539 31.5179 90.8858 31.5179C89.9192 31.5179 89.1475 31.2487 88.574 30.7103C88.0042 30.1646 87.7229 29.4359 87.7229 28.5241C87.7229 27.4723 88.0763 26.6718 88.7868 26.1261C89.5045 25.5877 90.5684 25.3185 91.9821 25.3185H94.1568V25.1713C94.1568 24.4569 93.9224 23.9041 93.4535 23.5164C92.9847 23.1287 92.3247 22.9349 91.4736 22.9349C90.9326 22.9349 90.4097 22.9995 89.8976 23.1251C89.3855 23.2508 88.8914 23.4482 88.4153 23.7067V22.2744C88.9852 22.0554 89.5369 21.8938 90.0779 21.7861C90.6117 21.6713 91.1274 21.6174 91.6323 21.6174C93.0027 21.6174 94.027 21.9692 94.7014 22.6764C95.3758 23.3908 95.7112 24.4605 95.7112 25.8964ZM98.9173 31.2738V18.1892H100.472V31.2738H98.9173ZM103.725 31.2738V18.1892H105.279V31.2738H103.725ZM116.582 26.1728V26.9374H109.434C109.499 27.9964 109.816 28.8113 110.393 29.3749C110.974 29.9277 111.781 30.2005 112.813 30.2005C113.408 30.2005 113.985 30.1287 114.54 29.9887C115.11 29.8415 115.666 29.6226 116.214 29.3318V30.7964C115.658 31.0297 115.089 31.2092 114.497 31.3385C113.917 31.4569 113.321 31.5179 112.719 31.5179C111.212 31.5179 110.018 31.08 109.127 30.2041C108.247 29.3354 107.807 28.1544 107.807 26.661C107.807 25.1138 108.226 23.8897 109.066 22.9923C109.903 22.0805 111.035 21.6246 112.452 21.6246C113.725 21.6246 114.728 22.0338 115.467 22.8559C116.21 23.6672 116.582 24.7728 116.582 26.1728ZM109.477 25.7277H115.027C115.013 24.8805 114.771 24.202 114.302 23.6923C113.841 23.1897 113.228 22.9385 112.459 22.9385C111.594 22.9385 110.898 23.1826 110.371 23.6708C109.852 24.159 109.556 24.8446 109.477 25.7277ZM124.552 21.7072L124.563 23.2974C124.386 23.1969 124.195 23.1251 123.986 23.0749C123.777 23.0246 123.557 22.9995 123.315 22.9995C122.435 22.9995 121.757 23.2867 121.281 23.8574C120.812 24.4246 120.578 25.2395 120.578 26.3056V31.2703H119.023V21.8544H120.578V23.319C120.906 22.7446 121.331 22.321 121.858 22.0446C122.384 21.761 123.019 21.621 123.766 21.621C123.874 21.621 123.993 21.6318 124.126 21.6533C124.253 21.6605 124.397 21.6785 124.552 21.7072ZM134.289 21.8544L130.135 32.1426C129.695 33.2661 129.266 34.002 128.847 34.3467C128.429 34.6877 127.87 34.8564 127.174 34.8564H125.926V33.5641H126.842C127.268 33.5641 127.603 33.46 127.845 33.2554C128.079 33.0579 128.339 32.5805 128.624 31.8231L128.912 31.1231L125.075 21.8544H126.727L129.687 29.2133L132.638 21.8544H134.289Z" fill="white"/>
<path d="M39.6055 14.3051V7.82564H43.7168V8.55795H40.4782V10.4785H43.5798V11.2215H40.4782V13.5656H43.8034V14.3087H39.6055V14.3051ZM46.959 10.8482L44.9358 7.82564H45.8843L47.5036 10.2344L49.1229 7.82564H50.0714L47.9832 10.9344L50.2084 14.3051H49.2599L47.4387 11.5482L45.5849 14.3051H44.6365L46.959 10.8482ZM53.3496 8.54718H52.2424V10.9774H53.3496C53.7608 10.9774 54.0817 10.8733 54.3089 10.6687C54.5289 10.4569 54.6407 10.1518 54.6407 9.75692C54.6407 9.37641 54.5289 9.07846 54.3089 8.86667C54.0817 8.65487 53.7608 8.54718 53.3496 8.54718ZM51.3697 14.3051V7.82564H53.3496C54.0817 7.82564 54.6335 7.98718 55.0122 8.31385C55.3801 8.6477 55.5676 9.12513 55.5676 9.75692C55.5676 10.3995 55.3837 10.8841 55.0122 11.2108C54.6371 11.5374 54.0817 11.699 53.3496 11.699H52.2424V14.3087H51.3697V14.3051ZM56.7505 14.3051V7.82564H57.6341V13.5621H60.8077V14.3051H56.7505ZM64.0571 8.42154C63.4188 8.42154 62.9067 8.65846 62.5244 9.13231C62.1566 9.60616 61.969 10.2523 61.969 11.0744C61.969 11.8856 62.1529 12.5354 62.5244 13.0164C62.9067 13.4903 63.4188 13.7272 64.0571 13.7272C64.6955 13.7272 65.2004 13.4903 65.5683 13.0164C65.9433 12.5354 66.1345 11.8892 66.1345 11.0744C66.1345 10.2559 65.9469 9.60616 65.5683 9.13231C65.2004 8.65487 64.6955 8.42154 64.0571 8.42154ZM64.0571 7.71077C64.966 7.71077 65.6945 8.0159 66.2427 8.62257C66.7908 9.22923 67.0613 10.0477 67.0613 11.0708C67.0613 12.0974 66.7872 12.9123 66.2427 13.519C65.6945 14.1256 64.966 14.4308 64.0571 14.4308C63.1411 14.4308 62.4054 14.1256 61.85 13.519C61.3018 12.9123 61.0314 12.0938 61.0314 11.0708C61.0314 10.0441 61.3054 9.22923 61.85 8.62257C62.4054 8.01231 63.1411 7.71077 64.0571 7.71077ZM71.5261 11.261C71.7172 11.3256 71.9012 11.4621 72.0815 11.6738C72.2582 11.8785 72.4385 12.1656 72.6261 12.5318L73.5205 14.3015H72.572L71.7425 12.6359C71.5225 12.2051 71.3133 11.9179 71.115 11.7779C70.9094 11.6379 70.6317 11.5662 70.2855 11.5662H69.3262V14.3015H68.4426V7.82564H70.4333C71.1799 7.82564 71.7353 7.98 72.1067 8.29231C72.4674 8.59744 72.6513 9.0641 72.6513 9.69231C72.6513 10.1015 72.5539 10.4426 72.3628 10.7118C72.1644 10.9774 71.8903 11.1641 71.5261 11.261ZM70.4297 8.54718H69.3226V10.8482H70.4297C70.8553 10.8482 71.1763 10.7477 71.3891 10.5503C71.6091 10.3528 71.7208 10.0656 71.7208 9.69231C71.7208 9.3118 71.6091 9.02462 71.3891 8.83436C71.1763 8.6441 70.8553 8.54718 70.4297 8.54718ZM74.6493 14.3051V7.82564H78.7606V8.55795H75.5329V10.4785H78.6344V11.2215H75.5329V13.5656H78.8472V14.3087H74.6493V14.3051ZM83.128 14.3051V7.82564H84.0116V14.3051H83.128ZM84.8663 8.55795V7.82564H90.3734V8.55795H88.0616V14.3051H87.1781V8.55795H84.8663ZM96.7027 8.42154C96.0643 8.42154 95.5558 8.65846 95.1808 9.13231C94.8057 9.60616 94.6145 10.2523 94.6145 11.0744C94.6145 11.8856 94.8021 12.5354 95.1808 13.0164C95.5558 13.4903 96.0643 13.7272 96.7027 13.7272C97.341 13.7272 97.8495 13.4903 98.2246 13.0164C98.5924 12.5354 98.78 11.8892 98.78 11.0744C98.78 10.2559 98.5961 9.60616 98.2246 9.13231C97.8495 8.65487 97.341 8.42154 96.7027 8.42154ZM96.7027 7.71077C97.6187 7.71077 98.3508 8.0159 98.899 8.62257C99.4472 9.22923 99.7177 10.0477 99.7177 11.0708C99.7177 12.0974 99.4436 12.9123 98.899 13.519C98.3544 14.1256 97.6187 14.4308 96.7027 14.4308C95.7866 14.4308 95.0545 14.1256 94.5064 13.519C93.9582 12.9123 93.6877 12.0938 93.6877 11.0708C93.6877 10.0441 93.9618 9.22923 94.5064 8.62257C95.0545 8.01231 95.7866 7.71077 96.7027 7.71077ZM101.092 14.3051V7.82564H102.275L105.163 13.2462V7.82564H106.025V14.3051H104.832L101.943 8.88462V14.3051H101.092Z" fill="white"/>
<path d="M28.4624 7.84717H16.8713C11.4039 7.84717 9.40234 9.8287 9.40234 15.2708V26.8082C9.40234 32.2502 11.4039 34.2426 16.8713 34.2426H28.4624C33.9189 34.2426 35.9205 32.2502 35.9205 26.8082V15.2708C35.9205 9.8287 33.9298 7.84717 28.4624 7.84717Z" fill="#C8102E"/>
<path fill-rule="evenodd" clip-rule="evenodd" d="M20.7187 23.7749L20.3978 24.4856H19.6837L21.2056 21.0395H21.8223L23.3442 24.4856H22.6085L22.2984 23.7749H20.7187ZM20.9712 23.1503H22.0351L21.5013 21.919L20.9712 23.1503ZM32.2666 21.0395H32.9698V24.4856H32.2666V21.0395ZM29.5076 23.861H31.4371V24.4856H28.8152V21.0395H31.3614V21.6749H29.5076V22.3749H30.7879V23.0103H29.5076V23.861ZM27.5133 21.0395H28.249L27.0444 24.4964H26.4494L25.6596 22.2277L24.8698 24.4964H24.2927L23.0774 21.0395H23.8347L24.6029 23.4159L25.3819 21.0395H25.9589L26.7487 23.4159L27.5133 21.0395ZM18.6198 21.0395H19.323V22.9923C19.323 23.9795 18.7785 24.5503 17.8192 24.5503C16.8815 24.5503 16.3369 23.9867 16.3369 23.0138V21.0431H17.0402V22.9959C17.0402 23.5774 17.3179 23.8862 17.83 23.8862C18.3421 23.8862 18.6198 23.5774 18.6198 23.0174V21.0395ZM14.6563 21.0395H15.3596V24.4964H14.6563V23.0856H13.0695V24.4964H12.3662V21.0395H13.0695V22.4287H14.6563V21.0395ZM22.6662 16.6492C20.2247 16.6492 18.2555 14.6785 18.2555 12.259H18.8722C18.8722 14.3374 20.5781 16.0246 22.6662 16.0246C24.7543 16.0246 26.4602 14.3374 26.4602 12.259H27.0769C27.0769 14.6749 25.097 16.6492 22.6662 16.6492Z" fill="white"/>
</g>
<defs>
<clipPath id="clip0_1750_2299">
<rect width="139.93" height="42" fill="white"/>
</clipPath>
</defs>
</svg>
