<svg width="28" height="28" viewBox="0 0 28 28" fill="none" xmlns="http://www.w3.org/2000/svg">
<path d="M19.9062 0C21.9368 0 23.8842 0.806638 25.32 2.24246C26.7559 3.67829 27.5625 5.62569 27.5625 7.65625V19.9062C27.5625 21.9368 26.7559 23.8842 25.32 25.32C23.8842 26.7559 21.9368 27.5625 19.9062 27.5625H7.65625C5.62569 27.5625 3.67829 26.7559 2.24246 25.32C0.806638 23.8842 0 21.9368 0 19.9062V7.65625C0 5.62569 0.806638 3.67829 2.24246 2.24246C3.67829 0.806638 5.62569 0 7.65625 0H19.9062ZM13.7812 7.65625C12.1568 7.65625 10.5989 8.30156 9.45022 9.45022C8.30156 10.5989 7.65625 12.1568 7.65625 13.7812C7.65625 15.4057 8.30156 16.9636 9.45022 18.1123C10.5989 19.2609 12.1568 19.9062 13.7812 19.9062C15.4057 19.9062 16.9636 19.2609 18.1123 18.1123C19.2609 16.9636 19.9062 15.4057 19.9062 13.7812C19.9062 12.1568 19.2609 10.5989 18.1123 9.45022C16.9636 8.30156 15.4057 7.65625 13.7812 7.65625ZM13.7812 10.7187C14.5935 10.7187 15.3724 11.0414 15.9468 11.6157C16.5211 12.1901 16.8437 12.969 16.8437 13.7812C16.8437 14.5935 16.5211 15.3724 15.9468 15.9468C15.3724 16.5211 14.5935 16.8437 13.7812 16.8437C12.969 16.8437 12.1901 16.5211 11.6157 15.9468C11.0414 15.3724 10.7187 14.5935 10.7187 13.7812C10.7187 12.969 11.0414 12.1901 11.6157 11.6157C12.1901 11.0414 12.969 10.7187 13.7812 10.7187ZM20.6719 5.35937C20.2658 5.35937 19.8763 5.5207 19.5891 5.80787C19.302 6.09503 19.1406 6.48451 19.1406 6.89062C19.1406 7.29674 19.302 7.68622 19.5891 7.97338C19.8763 8.26055 20.2658 8.42187 20.6719 8.42187C21.078 8.42187 21.4675 8.26055 21.7546 7.97338C22.0418 7.68622 22.2031 7.29674 22.2031 6.89062C22.2031 6.48451 22.0418 6.09503 21.7546 5.80787C21.4675 5.5207 21.078 5.35937 20.6719 5.35937Z" fill="white"/>
</svg>
