<svg width="520" height="292" viewBox="0 0 520 292" fill="none" xmlns="http://www.w3.org/2000/svg">
<path d="M270.011 227.103C270.632 227.046 271.253 226.989 271.875 226.929C272.529 226.971 273.184 227.012 273.84 227.052C272.562 227.074 271.286 227.091 270.011 227.103ZM264.891 227.127C265.833 226.975 266.778 226.817 267.724 226.656C268.747 226.725 269.77 226.793 270.794 226.86C269.829 226.951 268.865 227.036 267.903 227.119C266.898 227.124 265.893 227.127 264.891 227.127ZM262.028 227.577C262.628 227.486 263.227 227.395 263.829 227.3C264.459 227.301 265.09 227.3 265.721 227.299C264.488 227.397 263.257 227.49 262.028 227.577ZM260.395 227.11C261.425 226.871 262.461 226.612 263.496 226.356C264.664 226.441 265.832 226.525 267.002 226.606C265.938 226.786 264.875 226.96 263.814 227.128M256.863 227.909C257.812 227.702 258.762 227.495 259.715 227.275C260.718 227.285 261.722 227.291 262.727 227.295C261.775 227.442 260.823 227.586 259.874 227.724C258.869 227.79 257.864 227.852 256.863 227.909ZM253.905 228.535C254.525 228.406 255.146 228.273 255.767 228.141C256.425 228.105 257.083 228.068 257.743 228.028C256.46 228.206 255.182 228.374 253.905 228.535ZM256.155 227.059C257.237 226.727 258.317 226.398 259.403 226.05C260.578 226.14 261.755 226.229 262.934 226.315C261.852 226.583 260.767 226.858 259.692 227.103C258.511 227.092 257.332 227.078 256.155 227.059ZM252.56 228.131C253.573 227.837 254.589 227.532 255.606 227.223C256.74 227.242 257.875 227.257 259.011 227.268C257.917 227.514 256.83 227.737 255.738 227.97C254.678 228.028 253.618 228.082 252.56 228.131ZM249.15 229.1C250.056 228.85 250.964 228.599 251.876 228.336C252.798 228.294 253.722 228.249 254.646 228.201C253.73 228.4 252.812 228.601 251.9 228.782C250.982 228.892 250.065 228.998 249.15 229.1ZM246.549 229.785C247.044 229.655 247.539 229.523 248.033 229.394C248.604 229.333 249.174 229.273 249.745 229.208C248.677 229.41 247.614 229.595 246.549 229.785ZM49.7997 188.882C49.7443 188.842 49.6922 188.803 49.6376 188.763L49.776 188.813C49.8352 188.85 49.8918 188.887 49.9513 188.923L49.7997 188.882ZM251.971 226.978C253.07 226.557 254.165 226.151 255.266 225.721C256.495 225.821 257.724 225.92 258.955 226.015C257.824 226.374 256.7 226.706 255.573 227.051C254.371 227.031 253.17 227.006 251.971 226.978ZM248.471 228.303C249.491 227.935 250.52 227.535 251.548 227.14C252.706 227.167 253.866 227.192 255.028 227.213C253.962 227.537 252.896 227.861 251.836 228.165C250.713 228.215 249.591 228.262 248.471 228.303ZM244.85 229.547C245.872 229.195 246.891 228.854 247.915 228.494C248.993 228.456 250.072 228.416 251.153 228.369C250.092 228.667 249.04 228.941 247.983 229.226C246.937 229.338 245.892 229.445 244.85 229.547ZM241.708 230.625C242.515 230.362 243.33 230.072 244.143 229.789C245.052 229.703 245.963 229.613 246.875 229.518C246.039 229.742 245.203 229.967 244.372 230.178C243.483 230.329 242.593 230.483 241.708 230.625ZM239.098 231.436C239.623 231.271 240.146 231.117 240.671 230.955C241.175 230.877 241.674 230.811 242.178 230.729C241.148 230.977 240.125 231.2 239.098 231.436ZM48.4649 188.169L48.3132 188.043L48.4338 188.096L48.5982 188.216L48.4649 188.169ZM49.0879 188.687L48.8366 188.478L49.0677 188.56L49.3318 188.754L49.0879 188.687ZM247.897 226.868C248.961 226.39 250.034 225.879 251.106 225.372C252.356 225.48 253.608 225.585 254.862 225.688C253.741 226.125 252.626 226.543 251.509 226.967C250.303 226.938 249.099 226.905 247.897 226.868ZM244.338 228.43C245.399 227.974 246.463 227.506 247.53 227.029C248.713 227.066 249.899 227.099 251.086 227.128C250.012 227.536 248.938 227.941 247.871 228.323C246.691 228.364 245.513 228.4 244.338 228.43ZM240.829 229.911C241.857 229.489 242.887 229.056 243.921 228.613C245.051 228.585 246.182 228.552 247.316 228.514C246.239 228.892 245.165 229.256 244.091 229.621C243.001 229.724 241.915 229.82 240.829 229.911ZM237.512 231.253C238.435 230.892 239.365 230.509 240.294 230.127C241.33 230.042 242.367 229.952 243.407 229.856C242.472 230.175 241.538 230.492 240.61 230.79C239.575 230.95 238.542 231.105 237.512 231.253ZM234.172 232.521C235.056 232.192 235.937 231.874 236.825 231.531C237.708 231.407 238.597 231.268 239.483 231.133C238.544 231.423 237.606 231.711 236.67 231.992C235.835 232.174 235.003 232.349 234.172 232.521ZM231.851 233.381C232.283 233.226 232.719 233.061 233.153 232.899C233.658 232.797 234.159 232.709 234.666 232.604C233.723 232.877 232.789 233.123 231.851 233.381ZM47.1154 187.321C47.07 187.278 47.0263 187.235 46.9807 187.191C47.0177 187.212 47.0537 187.232 47.0912 187.252C47.142 187.295 47.1942 187.337 47.2451 187.38L47.1154 187.321ZM47.7256 187.902C47.6441 187.825 47.5609 187.748 47.4796 187.671C47.5645 187.709 47.6462 187.747 47.7319 187.785L47.9858 187.996L47.7256 187.902ZM48.3444 188.483L48.0333 188.191C48.1429 188.231 48.2512 188.27 48.3616 188.309L48.6829 188.577L48.3444 188.483ZM45.8188 186.363L45.6942 186.227C45.7342 186.253 45.772 186.279 45.8125 186.305L45.9439 186.432L45.8188 186.363ZM46.4127 187.005L46.1828 186.756L46.4084 186.88C46.4891 186.956 46.5682 187.034 46.6489 187.111L46.4127 187.005ZM47.0057 187.642C46.9066 187.536 46.8069 187.429 46.7076 187.323L47.0103 187.459C47.1135 187.557 47.2124 187.656 47.3158 187.754L47.0057 187.642ZM47.5989 188.276C47.4843 188.154 47.3706 188.032 47.2563 187.91L47.6235 188.043L47.9871 188.384L47.5989 188.276ZM243.766 226.728C244.83 226.17 245.9 225.591 246.97 225.008C248.231 225.122 249.493 225.234 250.758 225.343C249.665 225.855 248.571 226.369 247.486 226.856C246.244 226.817 245.004 226.775 243.766 226.728ZM240.303 228.517C241.349 227.991 242.402 227.44 243.457 226.888C244.675 226.935 245.896 226.978 247.119 227.017C246.033 227.502 244.95 227.981 243.872 228.442C242.68 228.472 241.489 228.497 240.303 228.517ZM236.815 230.222C237.861 229.719 238.905 229.219 239.958 228.695C241.121 228.677 242.287 228.653 243.455 228.625C242.379 229.082 241.308 229.522 240.238 229.959C239.094 230.053 237.953 230.141 236.815 230.222ZM233.441 231.817C234.422 231.365 235.407 230.899 236.395 230.425C237.495 230.349 238.598 230.264 239.703 230.176C238.721 230.578 237.738 230.988 236.763 231.365C235.654 231.522 234.545 231.676 233.441 231.817ZM230.143 233.307C231.063 232.903 231.989 232.479 232.916 232.054C233.942 231.925 234.967 231.797 235.998 231.655C235.027 232.022 234.06 232.377 233.094 232.731C232.108 232.93 231.124 233.122 230.143 233.307ZM226.78 234.736C227.661 234.368 228.54 234.007 229.425 233.626C230.305 233.463 231.191 233.283 232.074 233.109C231.27 233.402 230.468 233.687 229.669 233.964C228.707 234.219 227.737 234.498 226.78 234.736ZM224.509 235.687C224.943 235.511 225.382 235.324 225.819 235.139C226.22 235.042 226.616 234.957 227.017 234.857C226.18 235.136 225.341 235.423 224.509 235.687ZM44.5638 185.284L44.4448 185.138L44.508 185.186L44.6447 185.337L44.5638 185.284ZM45.1465 185.996L44.9248 185.725C44.9877 185.766 45.0501 185.807 45.1126 185.848L45.3513 186.108L45.1465 185.996ZM45.7197 186.692C45.6254 186.577 45.5296 186.463 45.4353 186.348L45.7093 186.497C45.8093 186.606 45.9103 186.715 46.0108 186.823L45.7197 186.692ZM46.2927 187.384C46.183 187.252 46.0741 187.12 45.9645 186.988L46.3055 187.141C46.4204 187.265 46.5352 187.39 46.6502 187.514L46.2927 187.384ZM46.8686 188.074C46.7467 187.929 46.6242 187.783 46.5029 187.637L46.9006 187.781L47.2815 188.189L46.8686 188.074ZM239.671 226.558C240.721 225.929 241.775 225.284 242.834 224.626C244.106 224.746 245.381 224.864 246.658 224.98C245.573 225.568 244.489 226.15 243.41 226.714C242.161 226.666 240.915 226.614 239.671 226.558ZM236.242 228.56C237.295 227.954 238.348 227.35 239.408 226.718C240.637 226.774 241.868 226.826 243.101 226.874C242.034 227.432 240.966 227.994 239.907 228.523C238.683 228.542 237.461 228.553 236.242 228.56ZM232.831 230.482C233.865 229.911 234.901 229.331 235.942 228.734C237.144 228.728 238.348 228.717 239.555 228.7C238.479 229.234 237.409 229.746 236.339 230.257C235.166 230.339 233.997 230.414 232.831 230.482ZM229.515 232.285C230.499 231.764 231.489 231.221 232.48 230.675C233.624 230.609 234.77 230.539 235.92 230.46C234.896 230.948 233.875 231.422 232.857 231.886C231.741 232.027 230.626 232.16 229.515 232.285ZM226.155 234.021C227.125 233.53 228.099 233.026 229.076 232.513C230.158 232.392 231.245 232.258 232.332 232.124C231.341 232.577 230.349 233.032 229.366 233.459C228.292 233.657 227.223 233.84 226.155 234.021ZM222.885 235.631C223.806 235.185 224.726 234.745 225.654 234.281C226.625 234.118 227.592 233.97 228.569 233.793C227.634 234.192 226.699 234.586 225.769 234.968C224.803 235.203 223.845 235.412 222.885 235.631ZM219.67 237.151C220.501 236.768 221.334 236.378 222.17 235.978C223.048 235.78 223.926 235.581 224.808 235.371C223.956 235.716 223.11 236.037 222.263 236.366C221.398 236.628 220.529 236.903 219.67 237.151ZM217.405 238.178C217.795 238.004 218.189 237.823 218.581 237.644C219.075 237.506 219.571 237.361 220.066 237.217C219.175 237.552 218.29 237.862 217.405 238.178ZM43.3575 184.099L43.2705 183.979L43.3146 184.017L43.4176 184.144L43.3575 184.099ZM43.908 184.856L43.7089 184.581L43.8705 184.704L44.089 184.974L43.908 184.856ZM44.4751 185.63C44.3817 185.502 44.2877 185.375 44.1941 185.248L44.4481 185.414L44.7455 185.777C44.6552 185.728 44.564 185.679 44.4751 185.63ZM45.0274 186.38C44.9228 186.238 44.8192 186.096 44.7145 185.955C44.8198 186.013 44.9265 186.071 45.0327 186.128L45.364 186.531C45.2511 186.481 45.1382 186.43 45.0274 186.38ZM45.5819 187.127C45.4652 186.97 45.3482 186.814 45.2317 186.657C45.3563 186.714 45.4828 186.77 45.6085 186.827L45.9746 187.269C45.8434 187.222 45.7113 187.175 45.5819 187.127ZM46.1371 187.872C46.0124 187.705 45.8878 187.537 45.7628 187.37L46.1835 187.522C46.3142 187.679 46.4457 187.837 46.5769 187.994L46.1371 187.872ZM235.558 226.36C236.594 225.662 237.636 224.949 238.68 224.225C239.966 224.352 241.253 224.477 242.543 224.599C241.478 225.261 240.416 225.913 239.359 226.544C238.09 226.486 236.822 226.426 235.558 226.36ZM232.228 228.565C233.253 227.902 234.285 227.213 235.318 226.519C236.574 226.585 237.833 226.647 239.094 226.705C238.021 227.342 236.955 227.951 235.89 228.562C234.667 228.568 233.446 228.57 232.228 228.565ZM228.874 230.688C229.898 230.05 230.926 229.402 231.957 228.737C233.165 228.743 234.377 228.741 235.59 228.736C234.531 229.341 233.477 229.926 232.425 230.505C231.239 230.573 230.055 230.634 228.874 230.688ZM225.556 232.708C226.562 232.107 227.568 231.502 228.58 230.874C229.743 230.822 230.907 230.762 232.075 230.697C231.052 231.258 230.032 231.81 229.017 232.345C227.86 232.473 226.706 232.596 225.556 232.708ZM222.238 234.653C223.227 234.086 224.22 233.507 225.216 232.913C226.335 232.805 227.453 232.695 228.577 232.572C227.582 233.095 226.587 233.614 225.599 234.111C224.476 234.299 223.354 234.484 222.238 234.653ZM218.943 236.508C219.892 235.988 220.846 235.448 221.802 234.902C222.887 234.739 223.98 234.554 225.071 234.374C224.083 234.865 223.101 235.337 222.119 235.807C221.059 236.045 219.996 236.29 218.943 236.508ZM215.784 238.21C216.658 237.752 217.539 237.272 218.419 236.791C219.411 236.588 220.407 236.373 221.405 236.153C220.445 236.607 219.491 237.039 218.537 237.471C217.616 237.73 216.7 237.968 215.784 238.21ZM212.686 239.789C213.468 239.398 214.25 239.002 215.035 238.597C215.866 238.381 216.699 238.155 217.534 237.926C216.674 238.31 215.818 238.68 214.964 239.045C214.201 239.305 213.445 239.543 212.686 239.789ZM210.349 240.939C210.79 240.726 211.227 240.523 211.669 240.305C212.106 240.166 212.545 240.025 212.984 239.881C212.103 240.245 211.225 240.594 210.349 240.939ZM42.1891 182.794L42.1145 182.678L42.1362 182.7L42.2301 182.83L42.1891 182.794ZM42.7271 183.622C42.6652 183.527 42.6029 183.432 42.541 183.338C42.5909 183.381 42.639 183.425 42.6886 183.469C42.7543 183.56 42.8192 183.65 42.8851 183.741C42.8324 183.702 42.7789 183.662 42.7271 183.622ZM43.256 184.43L43.0083 184.052C43.0836 184.109 43.1602 184.167 43.2359 184.224L43.5032 184.592L43.256 184.43ZM43.7955 185.252L43.4908 184.789L43.7879 184.983L44.1135 185.429C44.0081 185.369 43.9021 185.311 43.7955 185.252ZM44.3323 186.061L44.0008 185.561C44.121 185.627 44.2372 185.693 44.3573 185.76L44.7052 186.232C44.5812 186.175 44.4576 186.118 44.3323 186.061ZM44.8668 186.865C44.7474 186.686 44.6288 186.507 44.5096 186.328C44.6443 186.39 44.7765 186.451 44.912 186.513C45.0368 186.682 45.1622 186.851 45.2877 187.02L44.8668 186.865ZM45.4066 187.669C45.2797 187.479 45.152 187.291 45.0255 187.101L45.4694 187.263C45.6015 187.441 45.7343 187.619 45.8671 187.797L45.4066 187.669ZM231.459 226.131C232.479 225.371 233.504 224.596 234.532 223.807C235.823 223.94 237.117 224.07 238.413 224.198C237.361 224.926 236.311 225.643 235.266 226.344C233.994 226.277 232.725 226.206 231.459 226.131ZM228.19 228.529C229.203 227.799 230.221 227.05 231.243 226.291C232.502 226.365 233.763 226.437 235.026 226.503C233.982 227.203 232.938 227.896 231.902 228.565C230.661 228.559 229.425 228.546 228.19 228.529ZM224.921 230.848C225.926 230.15 226.938 229.427 227.952 228.698C229.177 228.715 230.403 228.729 231.633 228.736C230.592 229.405 229.555 230.064 228.523 230.705C227.319 230.759 226.118 230.808 224.921 230.848ZM221.666 233.057C222.659 232.393 223.656 231.72 224.657 231.028C225.845 230.989 227.035 230.943 228.229 230.891C227.2 231.526 226.179 232.136 225.158 232.744C223.991 232.856 222.826 232.961 221.666 233.057ZM218.396 235.195C219.384 234.56 220.374 233.92 221.37 233.257C222.515 233.164 223.666 233.057 224.818 232.949C223.789 233.559 222.766 234.15 221.745 234.733C220.623 234.901 219.511 235.046 218.396 235.195ZM215.148 237.238C216.113 236.644 217.081 236.038 218.054 235.417C219.139 235.273 220.219 235.142 221.309 234.981C220.325 235.54 219.344 236.086 218.367 236.619C217.29 236.839 216.219 237.038 215.148 237.238ZM211.904 239.198C212.838 238.647 213.777 238.08 214.719 237.502C215.758 237.311 216.798 237.112 217.843 236.902C216.887 237.42 215.933 237.933 214.984 238.426C213.954 238.693 212.927 238.951 211.904 239.198ZM208.745 241.026C209.617 240.534 210.496 240.023 211.375 239.506C212.318 239.282 213.26 239.061 214.209 238.819C213.344 239.265 212.478 239.71 211.619 240.134C210.658 240.44 209.699 240.741 208.745 241.026ZM205.783 242.661C206.529 242.259 207.279 241.84 208.03 241.421C208.828 241.186 209.625 240.955 210.427 240.707C209.641 241.085 208.853 241.464 208.071 241.828C207.304 242.118 206.544 242.386 205.783 242.661ZM203.285 243.972C203.752 243.73 204.22 243.488 204.688 243.242C205.116 243.092 205.544 242.937 205.972 242.781C205.074 243.187 204.176 243.591 203.285 243.972ZM41.0665 181.379L41.0078 181.279H41.0082L41.0826 181.396L41.0665 181.379ZM41.5704 182.245L41.4149 181.978C41.4565 182.02 41.4963 182.062 41.5381 182.103L41.7099 182.369L41.5704 182.245ZM42.0948 183.14C42.0131 183.002 41.9304 182.863 41.8492 182.724L42.06 182.911C42.1473 183.046 42.2333 183.18 42.3206 183.315C42.2441 183.256 42.1698 183.199 42.0948 183.14ZM42.6042 184.005L42.3291 183.538C42.4182 183.606 42.5099 183.675 42.6013 183.744C42.6994 183.895 42.7983 184.045 42.8968 184.196C42.7992 184.132 42.7007 184.069 42.6042 184.005ZM43.1195 184.875L42.8015 184.339C42.9106 184.411 43.0215 184.483 43.1318 184.555C43.2445 184.726 43.356 184.898 43.4689 185.07L43.1195 184.875ZM43.6379 185.742C43.5233 185.551 43.4087 185.359 43.2948 185.168L43.6736 185.379C43.7938 185.561 43.9151 185.743 44.0355 185.924L43.6379 185.742ZM44.1528 186.603C44.0317 186.402 43.9119 186.2 43.7911 185.998L44.2129 186.192C44.3395 186.383 44.4657 186.574 44.5927 186.765L44.1528 186.603ZM44.6747 187.464C44.5473 187.253 44.419 187.042 44.2916 186.832L44.7502 187C44.883 187.2 45.0178 187.398 45.1516 187.597L44.6747 187.464ZM227.366 225.876C228.367 225.057 229.372 224.221 230.381 223.372C231.679 223.511 232.98 223.647 234.283 223.782C233.248 224.573 232.217 225.353 231.19 226.115C229.913 226.039 228.638 225.96 227.366 225.876ZM224.169 228.455C225.164 227.666 226.166 226.856 227.17 226.035C228.435 226.119 229.704 226.199 230.974 226.275C229.945 227.038 228.918 227.791 227.897 228.525C226.651 228.507 225.408 228.484 224.169 228.455ZM220.963 230.954C221.955 230.194 222.953 229.414 223.954 228.622C225.186 228.652 226.421 228.675 227.659 228.693C226.636 229.427 225.614 230.155 224.6 230.857C223.384 230.897 222.172 230.928 220.963 230.954ZM217.766 233.352C218.752 232.623 219.74 231.89 220.736 231.131C221.932 231.106 223.131 231.076 224.334 231.038C223.323 231.735 222.315 232.42 221.311 233.088C220.126 233.184 218.944 233.273 217.766 233.352ZM214.54 235.689C215.527 234.986 216.517 234.274 217.513 233.541C218.678 233.464 219.844 233.382 221.016 233.289C220.005 233.959 219.002 234.605 218 235.246C216.844 235.399 215.688 235.555 214.54 235.689ZM211.341 237.921C212.303 237.262 213.268 236.593 214.238 235.905C215.372 235.774 216.517 235.616 217.657 235.467C216.656 236.105 215.661 236.722 214.668 237.331C213.556 237.536 212.445 237.737 211.341 237.921ZM208.107 240.09C209.067 239.46 210.031 238.815 210.999 238.155C212.075 237.978 213.155 237.793 214.239 237.595C213.264 238.189 212.294 238.767 211.328 239.333C210.253 239.589 209.174 239.857 208.107 240.09ZM204.939 242.129C205.852 241.555 206.77 240.964 207.69 240.362C208.721 240.14 209.762 239.885 210.8 239.641C209.857 240.19 208.918 240.726 207.984 241.248C206.967 241.547 205.948 241.853 204.939 242.129ZM201.895 244.008C202.734 243.503 203.58 242.977 204.426 242.447C205.37 242.192 206.32 241.916 207.27 241.642C206.39 242.129 205.511 242.609 204.638 243.072C203.72 243.395 202.806 243.705 201.895 244.008ZM198.928 245.752C199.674 245.323 200.426 244.877 201.178 244.429C201.943 244.18 202.704 243.942 203.473 243.678C202.78 244.04 202.087 244.404 201.4 244.749C200.574 245.09 199.748 245.43 198.928 245.752ZM196.644 247.031C197.064 246.799 197.483 246.567 197.903 246.332C198.289 246.184 198.672 246.044 199.059 245.892C198.252 246.279 197.447 246.661 196.644 247.031ZM40.4636 180.768C40.417 180.679 40.3713 180.59 40.3252 180.501L40.4236 180.614C40.4759 180.704 40.5275 180.795 40.58 180.886L40.4636 180.768ZM40.9566 181.701L40.7425 181.296L40.9287 181.485L41.1593 181.881L40.9566 181.701ZM41.4517 182.639C41.3628 182.472 41.2754 182.304 41.1865 182.137L41.4377 182.36C41.5334 182.523 41.6284 182.688 41.7246 182.852C41.6344 182.781 41.5439 182.71 41.4517 182.639ZM41.9533 183.58C41.8527 183.391 41.7508 183.202 41.65 183.013C41.7562 183.095 41.8585 183.176 41.9642 183.258C42.069 183.437 42.1742 183.615 42.2793 183.793C42.1702 183.722 42.0605 183.651 41.9533 183.58ZM42.4467 184.501C42.3385 184.299 42.2309 184.097 42.123 183.896C42.2391 183.973 42.3578 184.05 42.4767 184.127C42.5912 184.321 42.7049 184.515 42.8197 184.708L42.4467 184.501ZM42.9437 185.423C42.8274 185.209 42.7114 184.994 42.5956 184.779L42.994 185.001C43.1161 185.206 43.2391 185.41 43.3612 185.615L42.9437 185.423ZM43.443 186.343L43.0786 185.671L43.5147 185.871C43.6418 186.084 43.7687 186.297 43.8962 186.509L43.443 186.343ZM43.9419 187.258C43.8151 187.027 43.6898 186.796 43.5638 186.564L44.0326 186.737C44.1653 186.957 44.2993 187.176 44.4325 187.396L43.9419 187.258ZM223.286 225.591C224.264 224.719 225.247 223.826 226.234 222.92C227.535 223.064 228.839 223.206 230.145 223.346C229.131 224.198 228.121 225.037 227.115 225.858C225.836 225.773 224.56 225.684 223.286 225.591ZM220.147 228.34C221.129 227.492 222.114 226.631 223.104 225.75C224.373 225.843 225.644 225.932 226.919 226.018C225.907 226.842 224.899 227.655 223.897 228.449C222.643 228.419 221.394 228.382 220.147 228.34ZM216.997 231.015C217.98 230.192 218.965 229.361 219.958 228.506C221.196 228.548 222.437 228.586 223.682 228.617C222.676 229.411 221.673 230.198 220.676 230.96C219.447 230.985 218.22 231.004 216.997 231.015ZM213.872 233.586C214.842 232.8 215.814 232.005 216.791 231.188C218.004 231.179 219.221 231.16 220.44 231.137C219.44 231.898 218.446 232.64 217.455 233.37C216.258 233.45 215.063 233.523 213.872 233.586ZM210.734 236.083C211.699 235.329 212.668 234.56 213.641 233.773C214.824 233.713 216.013 233.637 217.202 233.56C216.19 234.303 215.185 235.023 214.181 235.734C213.026 235.867 211.882 235.97 210.734 236.083ZM207.584 238.504C208.544 237.781 209.508 237.04 210.476 236.285C211.61 236.174 212.738 236.08 213.88 235.951C212.898 236.644 211.921 237.318 210.947 237.982C209.822 238.167 208.702 238.341 207.584 238.504ZM204.439 240.833C205.381 240.15 206.328 239.447 207.279 238.733C208.384 238.573 209.494 238.397 210.605 238.216C209.613 238.89 208.626 239.546 207.642 240.188C206.569 240.42 205.505 240.624 204.439 240.833ZM201.295 243.072C202.219 242.428 203.15 241.763 204.083 241.088C205.131 240.885 206.18 240.679 207.235 240.454C206.279 241.075 205.327 241.682 204.378 242.274C203.346 242.552 202.319 242.817 201.295 243.072ZM198.197 245.187C199.079 244.598 199.968 243.987 200.858 243.37C201.856 243.125 202.861 242.86 203.866 242.592C202.949 243.161 202.036 243.717 201.127 244.259C200.147 244.578 199.169 244.891 198.197 245.187ZM195.118 247.188C195.967 246.647 196.82 246.091 197.676 245.526C198.585 245.254 199.496 244.973 200.411 244.68C199.556 245.184 198.703 245.681 197.855 246.16C196.94 246.512 196.026 246.86 195.118 247.188ZM192.242 248.974C192.981 248.524 193.72 248.072 194.464 247.605C195.231 247.332 196 247.051 196.772 246.762C196.01 247.186 195.249 247.608 194.492 248.012C193.738 248.345 192.991 248.658 192.242 248.974ZM190.015 250.303C190.427 250.062 190.835 249.831 191.248 249.585C191.66 249.415 192.074 249.235 192.487 249.06C191.66 249.485 190.836 249.899 190.015 250.303ZM503.16 88.5202C502.644 87.4397 502.128 86.356 501.61 85.27C500.624 83.1998 499.633 81.1211 498.637 79.0414C501.761 84.499 504.787 90.052 507.76 95.5378C506.25 93.1853 504.718 90.841 503.16 88.5202ZM509.205 101.009C507.362 97.2856 505.523 93.4665 503.675 89.5998C505.448 92.2591 507.187 94.9465 508.899 97.6388C510.838 101.22 512.758 104.764 514.671 108.223C512.883 105.807 511.063 103.395 509.205 101.009ZM39.4064 179.184L39.2742 178.904L39.347 178.997L39.5018 179.295L39.4064 179.184ZM39.8695 180.165L39.6763 179.757L39.842 179.948L40.0517 180.35L39.8695 180.165ZM40.3438 181.158L40.0964 180.641L40.3232 180.87C40.4119 181.039 40.5014 181.208 40.5903 181.377C40.5078 181.304 40.4253 181.231 40.3438 181.158ZM40.8133 182.141C40.7201 181.947 40.6283 181.753 40.5355 181.56C40.6299 181.644 40.7254 181.728 40.8204 181.812C40.9204 182.002 41.0203 182.192 41.1209 182.381L40.8133 182.141ZM41.2942 183.136C41.1905 182.922 41.0862 182.707 40.9825 182.492C41.095 182.58 41.2066 182.667 41.3181 182.754C41.4279 182.961 41.5382 183.168 41.6485 183.374C41.5313 183.295 41.4138 183.216 41.2942 183.136ZM41.7739 184.126C41.663 183.899 41.5534 183.671 41.4434 183.444C41.5714 183.529 41.6942 183.614 41.8222 183.699L42.1687 184.346C42.0363 184.272 41.9035 184.199 41.7739 184.126ZM42.2521 185.105C42.1358 184.868 42.0189 184.631 41.9033 184.394C42.04 184.47 42.1789 184.547 42.3175 184.624C42.4391 184.85 42.5606 185.077 42.6825 185.303C42.5383 185.237 42.3938 185.171 42.2521 185.105ZM42.7316 186.081C42.6106 185.836 42.4904 185.591 42.3697 185.345C42.5179 185.413 42.6677 185.482 42.8172 185.551C42.9443 185.785 43.0716 186.019 43.1987 186.253C43.0422 186.195 42.8855 186.138 42.7316 186.081ZM43.2114 187.054C43.086 186.802 42.9623 186.55 42.838 186.298C42.9969 186.356 43.1579 186.415 43.3191 186.475C43.4493 186.714 43.5782 186.954 43.7092 187.193L43.2114 187.054ZM219.183 225.278C220.146 224.351 221.114 223.409 222.086 222.45C223.391 222.601 224.698 222.749 226.008 222.895C225.017 223.803 224.029 224.698 223.047 225.573C221.756 225.478 220.468 225.38 219.183 225.278ZM216.119 228.187C217.081 227.287 218.048 226.369 219.019 225.437C220.298 225.54 221.58 225.638 222.865 225.732C221.872 226.616 220.884 227.482 219.899 228.332C218.636 228.289 217.376 228.241 216.119 228.187ZM213.049 231.022C214.009 230.149 214.974 229.257 215.943 228.352C217.195 228.407 218.451 228.454 219.71 228.497C218.712 229.357 217.721 230.189 216.732 231.016C215.501 231.026 214.274 231.026 213.049 231.022ZM209.996 233.759C210.945 232.922 211.901 232.063 212.86 231.193C214.079 231.198 215.301 231.198 216.527 231.189C215.54 232.012 214.559 232.812 213.581 233.603C212.382 233.664 211.188 233.715 209.996 233.759ZM206.901 236.446C207.859 235.631 208.823 234.789 209.789 233.939C210.974 233.896 212.159 233.85 213.35 233.791C212.369 234.582 211.392 235.354 210.42 236.113C209.246 236.228 208.068 236.352 206.901 236.446ZM203.843 239.014C204.778 238.244 205.72 237.45 206.663 236.647C207.822 236.554 208.995 236.427 210.161 236.315C209.178 237.08 208.199 237.828 207.226 238.56C206.094 238.724 204.967 238.872 203.843 239.014ZM200.74 241.52C201.684 240.771 202.632 240.007 203.585 239.225C204.695 239.086 205.803 238.949 206.92 238.788C205.953 239.513 204.99 240.223 204.032 240.915C202.93 241.129 201.833 241.331 200.74 241.52ZM197.644 243.929C198.577 243.217 199.512 242.496 200.453 241.752C201.524 241.568 202.597 241.377 203.675 241.171C202.715 241.862 201.758 242.539 200.807 243.198C199.747 243.458 198.696 243.694 197.644 243.929ZM194.535 246.255C195.455 245.58 196.378 244.896 197.307 244.19C198.327 243.964 199.344 243.744 200.371 243.496C199.452 244.129 198.536 244.752 197.625 245.355C196.592 245.665 195.56 245.971 194.535 246.255ZM191.467 248.454C192.357 247.83 193.249 247.195 194.147 246.541C195.127 246.274 196.114 245.988 197.102 245.695C196.203 246.287 195.306 246.871 194.415 247.434C193.429 247.784 192.445 248.131 191.467 248.454ZM188.495 250.494C189.323 249.938 190.153 249.374 190.988 248.793C191.893 248.497 192.802 248.184 193.714 247.866C192.87 248.393 192.027 248.918 191.191 249.419C190.288 249.792 189.391 250.146 188.495 250.494ZM185.646 252.364C186.371 251.9 187.097 251.428 187.828 250.943C188.584 250.653 189.343 250.36 190.105 250.053C189.382 250.479 188.656 250.91 187.938 251.317C187.17 251.68 186.408 252.021 185.646 252.364ZM183.569 253.684C183.913 253.471 184.26 253.249 184.606 253.028C185.032 252.84 185.464 252.635 185.893 252.442C185.116 252.863 184.341 253.281 183.569 253.684ZM492.243 67.977C490.897 64.7907 489.543 61.6035 488.174 58.437C491.045 63.8629 493.819 69.4587 496.539 75.0808C495.13 72.6819 493.7 70.3088 492.243 67.977ZM497.457 80.3324C496.39 77.8182 495.324 75.2863 494.253 72.7461C493.727 71.4971 493.2 70.2462 492.673 68.9953C494.308 71.6361 495.91 74.3267 497.487 77.0467C498.82 79.8157 500.141 82.5874 501.454 85.3442L502.506 87.5508C500.855 85.1097 499.173 82.6973 497.457 80.3324ZM503.201 93.5747C501.375 89.4902 499.566 85.2948 497.758 81.0426C499.544 83.5195 501.292 86.0467 503.008 88.6028C504.905 92.5777 506.791 96.507 508.682 100.339C506.892 98.0523 505.066 95.7911 503.201 93.5747ZM509.994 107.927C507.772 103.549 505.602 98.9265 503.457 94.1475C505.364 96.4262 507.229 98.7504 509.058 101.1C511.3 105.625 513.549 110.009 515.832 114.165C513.926 112.061 511.982 109.975 509.994 107.927ZM38.376 177.456L38.2617 177.188L38.3157 177.267L38.4469 177.549L38.376 177.456ZM38.8243 178.511C38.7638 178.37 38.7045 178.228 38.6443 178.088L38.7861 178.272L38.9878 178.7L38.8243 178.511ZM39.2781 179.565C39.2018 179.388 39.1254 179.211 39.0497 179.034L39.2599 179.278C39.3409 179.449 39.4217 179.621 39.5028 179.792C39.4275 179.716 39.352 179.64 39.2781 179.565ZM39.7304 180.614C39.6419 180.41 39.5545 180.205 39.4661 180C39.5523 180.088 39.6396 180.176 39.7266 180.265C39.8214 180.465 39.9175 180.664 40.0126 180.864C39.9178 180.781 39.8229 180.697 39.7304 180.614ZM40.1794 181.647C40.0839 181.428 39.9872 181.209 39.8923 180.989C39.9945 181.081 40.1001 181.174 40.2044 181.266C40.306 181.479 40.4074 181.691 40.5091 181.904L40.1794 181.647ZM40.6371 182.694L40.3249 181.979L40.6762 182.254C40.7872 182.484 40.899 182.715 41.0104 182.945C40.8863 182.862 40.7624 182.778 40.6371 182.694ZM41.0975 183.743L40.7656 182.988C40.8978 183.076 41.0287 183.165 41.1596 183.253C41.2762 183.494 41.3929 183.736 41.5102 183.977C41.3728 183.899 41.2363 183.821 41.0975 183.743ZM41.5585 184.782C41.4435 184.523 41.3284 184.264 41.214 184.005C41.3576 184.086 41.4975 184.167 41.6414 184.248C41.7622 184.495 41.8824 184.743 42.0034 184.99C41.8546 184.921 41.7076 184.851 41.5585 184.782ZM42.0168 185.816C41.8981 185.55 41.781 185.283 41.6626 185.017C41.8165 185.089 41.9677 185.16 42.122 185.232C42.2469 185.486 42.3723 185.741 42.4974 185.995C42.336 185.935 42.1785 185.876 42.0168 185.816ZM42.4813 186.848C42.3588 186.575 42.2348 186.303 42.1129 186.029L42.6038 186.212C42.7318 186.471 42.8589 186.732 42.9873 186.991L42.4813 186.848ZM215.1 224.936C216.038 223.962 216.981 222.97 217.927 221.964C219.239 222.12 220.555 222.274 221.872 222.426C220.897 223.388 219.926 224.33 218.96 225.259C217.67 225.156 216.383 225.048 215.1 224.936ZM212.115 227.996C213.053 227.048 213.997 226.078 214.944 225.095C216.225 225.207 217.509 225.315 218.796 225.419C217.82 226.355 216.849 227.275 215.883 228.178C214.624 228.123 213.368 228.062 212.115 227.996ZM209.107 230.984C210.051 230.058 210.998 229.12 211.951 228.159C213.2 228.225 214.451 228.288 215.707 228.343C214.733 229.251 213.763 230.145 212.799 231.02C211.565 231.015 210.334 231.004 209.107 230.984ZM206.11 233.879C207.048 232.984 207.989 232.082 208.936 231.154C210.157 231.174 211.382 231.186 212.61 231.192C211.646 232.065 210.685 232.927 209.73 233.767C208.52 233.811 207.312 233.852 206.11 233.879ZM203.102 236.699C204.039 235.834 204.978 234.957 205.923 234.058C207.118 234.032 208.321 233.99 209.524 233.947C208.547 234.805 207.573 235.651 206.606 236.474C205.43 236.568 204.27 236.625 203.102 236.699ZM200.064 239.462C201.004 238.621 201.949 237.765 202.898 236.889C204.055 236.817 205.204 236.765 206.369 236.674C205.419 237.48 204.472 238.278 203.532 239.051C202.373 239.196 201.215 239.339 200.064 239.462ZM197.011 242.147C197.946 241.338 198.886 240.513 199.831 239.67C200.971 239.55 202.122 239.404 203.27 239.262C202.31 240.049 201.353 240.824 200.403 241.577C199.27 241.772 198.134 241.977 197.011 242.147ZM194.003 244.7C194.917 243.938 195.836 243.158 196.759 242.363C197.869 242.197 198.99 242 200.108 241.809C199.153 242.563 198.203 243.297 197.257 244.017C196.168 244.258 195.083 244.486 194.003 244.7ZM190.948 247.199C191.864 246.464 192.787 245.709 193.713 244.94C194.778 244.731 195.846 244.512 196.92 244.277C195.974 244.994 195.034 245.686 194.097 246.37C193.043 246.657 191.992 246.939 190.948 247.199ZM187.922 249.577C188.813 248.891 189.711 248.185 190.611 247.466C191.638 247.213 192.674 246.936 193.71 246.656C192.781 247.33 191.859 247.98 190.939 248.621C189.93 248.951 188.923 249.276 187.922 249.577ZM184.96 251.81C185.811 251.183 186.668 250.534 187.528 249.876C188.501 249.586 189.48 249.275 190.461 248.959C189.561 249.583 188.667 250.183 187.775 250.775C186.832 251.135 185.895 251.478 184.96 251.81ZM182.02 253.934C182.825 253.366 183.637 252.775 184.451 252.179C185.334 251.869 186.218 251.558 187.11 251.223C186.254 251.786 185.405 252.325 184.558 252.859C183.707 253.233 182.863 253.584 182.02 253.934ZM179.245 255.843C179.929 255.382 180.62 254.902 181.31 254.422C182.095 254.103 182.887 253.761 183.678 253.42C182.888 253.911 182.106 254.376 181.323 254.843C180.626 255.19 179.936 255.514 179.245 255.843ZM176.973 257.335C177.375 257.074 177.78 256.809 178.184 256.544C178.613 256.344 179.047 256.128 179.478 255.921C178.639 256.406 177.803 256.88 176.973 257.335ZM482.292 47.5192C481.06 44.2804 479.819 41.061 478.562 37.8814C481.241 43.2893 483.822 48.9302 486.345 54.6709C485.017 52.2408 483.668 49.8521 482.292 47.5192ZM486.924 59.8464L486.918 59.8322C485.504 56.0465 484.088 52.2529 482.658 48.4836C484.191 51.1112 485.692 53.8058 487.167 56.5493C488.686 60.0347 490.185 63.551 491.673 67.0695C490.121 64.6085 488.539 62.1952 486.924 59.8464ZM491.861 72.9756C490.293 68.8609 488.734 64.6931 487.173 60.5137C488.847 62.9661 490.485 65.4879 492.091 68.059C492.761 69.6447 493.429 71.2304 494.095 72.8129C495.068 75.1232 496.039 77.4271 497.009 79.7168C495.329 77.4172 493.614 75.1648 491.861 72.9756ZM497.353 86.9396C495.564 82.5671 493.806 78.0678 492.061 73.5002C493.848 75.7461 495.595 78.0582 497.307 80.4176C499.132 84.7187 500.958 88.965 502.801 93.1007C501.023 91.0001 499.208 88.9406 497.353 86.9396ZM503.91 101.927C501.726 97.3156 499.612 92.4412 497.541 87.3965C499.419 89.434 501.255 91.5301 503.055 93.6679C505.201 98.467 507.373 103.112 509.595 107.518C507.739 105.616 505.845 103.747 503.91 101.927ZM37.3865 175.608L37.2901 175.356L37.3231 175.41L37.4381 175.684L37.3865 175.608ZM37.8144 176.722L37.652 176.301L37.7714 176.474C37.8326 176.619 37.8944 176.763 37.9556 176.907L37.8144 176.722ZM38.2489 177.841L38.039 177.3L38.2263 177.544L38.4546 178.081L38.2489 177.841ZM38.677 178.943C38.5966 178.737 38.517 178.53 38.4363 178.323L38.6768 178.603C38.7648 178.808 38.8537 179.013 38.9419 179.218C38.8534 179.127 38.7664 179.035 38.677 178.943ZM39.112 180.05C39.0219 179.821 38.9305 179.591 38.8407 179.362C38.9387 179.462 39.0351 179.563 39.1336 179.663L39.4223 180.334C39.3193 180.239 39.2166 180.145 39.112 180.05ZM39.5457 181.153C39.4486 180.907 39.3525 180.662 39.2556 180.416C39.3683 180.517 39.4764 180.618 39.5891 180.72L39.8947 181.425C39.7783 181.334 39.6613 181.243 39.5457 181.153ZM39.9825 182.253C39.8784 181.992 39.774 181.73 39.6704 181.469C39.7932 181.565 39.9169 181.661 40.0404 181.758C40.1507 182.01 40.2612 182.263 40.3714 182.515L39.9825 182.253ZM40.4247 183.361L40.0955 182.537L40.4997 182.809C40.6153 183.073 40.7301 183.337 40.8465 183.601L40.4247 183.361ZM40.8634 184.457C40.7507 184.177 40.6385 183.896 40.5259 183.615L40.963 183.863C41.0818 184.132 41.2016 184.402 41.3212 184.671L40.8634 184.457ZM41.307 185.551C41.1903 185.263 41.0732 184.975 40.9568 184.687L41.4254 184.906C41.5477 185.181 41.6689 185.457 41.7915 185.732L41.307 185.551ZM41.748 186.64C41.6287 186.347 41.5107 186.054 41.3918 185.76L41.8863 185.945C42.012 186.226 42.1391 186.506 42.2654 186.787L41.748 186.64ZM211.005 224.567C211.925 223.549 212.85 222.512 213.778 221.461C215.089 221.622 216.404 221.782 217.72 221.939C216.771 222.948 215.825 223.941 214.884 224.918C213.588 224.804 212.295 224.688 211.005 224.567ZM208.086 227.765C209.007 226.77 209.933 225.755 210.862 224.726C212.148 224.847 213.437 224.964 214.729 225.077C213.778 226.062 212.831 227.034 211.89 227.983C210.619 227.916 209.35 227.844 208.086 227.765ZM205.159 230.894C206.079 229.924 207.006 228.932 207.935 227.928C209.195 228.007 210.459 228.079 211.726 228.147C210.771 229.109 209.82 230.053 208.875 230.98C207.632 230.959 206.394 230.929 205.159 230.894ZM202.241 233.931C203.155 232.994 204.075 232.033 204.999 231.061C206.231 231.097 207.466 231.127 208.705 231.149C207.752 232.082 206.806 232.988 205.862 233.887C204.65 233.912 203.445 233.922 202.241 233.931ZM199.275 236.934C200.201 236.013 201.134 235.063 202.07 234.105C203.269 234.097 204.469 234.091 205.676 234.066C204.725 234.968 203.782 235.847 202.841 236.716C201.652 236.79 200.456 236.88 199.275 236.934ZM196.344 239.806C197.254 238.928 198.169 238.03 199.089 237.117C200.264 237.064 201.453 236.978 202.637 236.905C201.678 237.788 200.726 238.649 199.777 239.496C198.626 239.616 197.486 239.708 196.344 239.806ZM193.362 242.637C194.285 241.775 195.211 240.902 196.143 240.003C197.276 239.907 198.404 239.822 199.545 239.704C198.594 240.55 197.649 241.377 196.708 242.187C195.587 242.355 194.475 242.494 193.362 242.637ZM190.371 245.384C191.289 244.555 192.21 243.714 193.138 242.849C194.241 242.709 195.346 242.567 196.458 242.403C195.521 243.208 194.589 243.996 193.662 244.766C192.562 244.982 191.463 245.195 190.371 245.384ZM187.39 248.027C188.298 247.237 189.21 246.432 190.128 245.606C191.204 245.422 192.288 245.217 193.373 245.006C192.431 245.786 191.493 246.549 190.56 247.294C189.498 247.555 188.443 247.795 187.39 248.027ZM184.402 250.58C185.299 249.829 186.2 249.063 187.107 248.276C188.144 248.049 189.187 247.808 190.233 247.553C189.311 248.287 188.392 249.005 187.479 249.704C186.449 250.01 185.423 250.303 184.402 250.58ZM181.448 253.005C182.319 252.305 183.193 251.59 184.073 250.856C185.073 250.589 186.08 250.297 187.088 250.001C186.187 250.687 185.29 251.359 184.398 252.012C183.41 252.359 182.427 252.688 181.448 253.005ZM178.485 255.338C179.34 254.68 180.2 254.006 181.065 253.314C182.003 253.014 182.943 252.708 183.889 252.38C183.007 253.021 182.129 253.649 181.256 254.257C180.327 254.635 179.405 254.989 178.485 255.338ZM175.591 257.517C176.389 256.93 177.19 256.331 177.996 255.715C178.869 255.388 179.748 255.042 180.628 254.689C179.792 255.266 178.959 255.832 178.13 256.38C177.279 256.776 176.434 257.148 175.591 257.517ZM172.861 259.482C173.55 258.998 174.242 258.503 174.938 257.997C175.69 257.673 176.448 257.328 177.206 256.983C176.49 257.45 175.775 257.909 175.065 258.353C174.327 258.741 173.592 259.116 172.861 259.482ZM170.82 260.9C171.183 260.655 171.548 260.398 171.912 260.144C172.345 259.932 172.78 259.714 173.215 259.495C172.412 259.979 171.616 260.443 170.82 260.9ZM473.087 27.1152C471.951 23.8304 470.804 20.5816 469.639 17.389C472.162 22.7735 474.583 28.4482 476.941 34.2859C475.681 31.835 474.398 29.4414 473.087 27.1152ZM477.268 39.4554C475.988 35.6192 474.702 31.8012 473.403 28.0284C474.854 30.635 476.271 33.3258 477.662 36.0816C479.052 39.5606 480.421 43.0924 481.777 46.6499C480.306 44.1815 478.804 41.7783 477.268 39.4554ZM481.627 52.5684C480.959 50.5623 480.292 48.5522 479.625 46.5423C478.91 44.3877 478.195 42.2336 477.478 40.0845C479.067 42.5076 480.617 45.0183 482.137 47.5954C483.609 51.4694 485.069 55.3709 486.524 59.2668C484.927 56.9642 483.296 54.7259 481.627 52.5684ZM486.323 66.4359C484.797 62.0317 483.292 57.5605 481.794 53.0675C483.49 55.2767 485.147 57.569 486.77 59.9271C488.349 64.1549 489.925 68.3724 491.511 72.5374C489.819 70.438 488.091 68.3998 486.323 66.4359ZM491.612 81.0755C489.858 76.4584 488.15 71.6976 486.468 66.8534C488.255 68.8514 490.001 70.9266 491.711 73.0618C493.462 77.6554 495.227 82.1826 497.023 86.584C495.257 84.6904 493.455 82.8493 491.612 81.0755ZM498.019 96.6696C495.852 91.8511 493.774 86.7492 491.757 81.4557C493.613 83.2523 495.428 85.1169 497.206 87.0346C499.276 92.0924 501.389 96.9801 503.571 101.61C502.672 100.769 501.764 99.9385 500.847 99.1205C499.915 98.2892 498.971 97.4738 498.019 96.6696ZM507.107 114.01C503.941 108.959 500.987 103.235 498.185 97.0354C499.041 97.7629 499.892 98.4986 500.732 99.2484C501.756 100.161 502.768 101.089 503.769 102.03C506.609 108.025 509.569 113.576 512.708 118.492C510.878 116.965 509.01 115.469 507.107 114.01ZM36.4358 173.632L36.3592 173.41L36.3717 173.433L36.4656 173.681L36.4358 173.632ZM36.8471 174.814L36.7023 174.4L36.8024 174.564L36.9641 174.986L36.8471 174.814ZM37.2591 175.993L37.0672 175.444L37.233 175.687C37.3028 175.869 37.3719 176.051 37.4423 176.233L37.2591 175.993ZM37.6709 177.164L37.4427 176.517L37.6628 176.806C37.7453 177.02 37.829 177.234 37.912 177.447L37.6709 177.164ZM38.0815 178.324L37.831 177.617L38.0993 177.93C38.1886 178.161 38.278 178.391 38.368 178.622L38.0815 178.324ZM38.4926 179.485C38.4016 179.229 38.3115 178.973 38.2207 178.717C38.3244 178.824 38.4271 178.931 38.5295 179.038C38.6272 179.288 38.7255 179.537 38.8235 179.787C38.7133 179.686 38.6033 179.585 38.4926 179.485ZM38.9146 180.661C38.8159 180.385 38.716 180.109 38.6178 179.834C38.7351 179.94 38.8517 180.046 38.9673 180.152L39.2793 180.945C39.157 180.85 39.0345 180.755 38.9146 180.661ZM39.3289 181.813C39.2271 181.53 39.1258 181.248 39.0242 180.965C39.149 181.064 39.2768 181.163 39.4039 181.261C39.5121 181.535 39.6204 181.809 39.729 182.083C39.5951 181.993 39.4614 181.903 39.3289 181.813ZM39.7518 182.979C39.6435 182.682 39.5348 182.385 39.4271 182.087L39.8423 182.366C39.9564 182.653 40.071 182.939 40.1854 183.225C40.0403 183.143 39.8954 183.061 39.7518 182.979ZM40.1725 184.134L39.8418 183.227L40.2866 183.479C40.4027 183.769 40.5178 184.06 40.6349 184.35C40.4805 184.278 40.3254 184.206 40.1725 184.134ZM40.5944 185.285C40.4809 184.976 40.3672 184.668 40.254 184.359L40.728 184.58C40.8476 184.877 40.9682 185.173 41.0884 185.469L40.5944 185.285ZM41.0189 186.434C40.903 186.119 40.7864 185.806 40.6706 185.491L41.1732 185.679C41.2952 185.979 41.4162 186.281 41.5392 186.581L41.0189 186.434ZM206.926 224.171C207.821 223.113 208.721 222.036 209.625 220.942C210.94 221.109 212.259 221.274 213.58 221.436C212.649 222.49 211.722 223.528 210.8 224.548C209.506 224.426 208.214 224.3 206.926 224.171ZM204.074 227.496C204.977 226.454 205.881 225.407 206.793 224.331C208.078 224.46 209.366 224.586 210.657 224.707C209.725 225.738 208.796 226.755 207.872 227.752C206.603 227.673 205.337 227.586 204.074 227.496ZM201.211 230.759C202.114 229.74 203.022 228.711 203.935 227.658C205.194 227.749 206.455 227.836 207.722 227.915C206.789 228.922 205.859 229.916 204.936 230.887C203.691 230.851 202.448 230.809 201.211 230.759ZM198.349 233.939C199.25 232.951 200.154 231.948 201.063 230.925C202.297 230.976 203.535 231.018 204.776 231.055C203.849 232.029 202.926 232.992 202.008 233.932C200.786 233.939 199.563 233.949 198.349 233.939ZM195.482 237.046C196.38 236.087 197.283 235.108 198.191 234.113C199.4 234.123 200.619 234.113 201.837 234.105C200.898 235.066 199.961 236.017 199.031 236.941C197.84 236.994 196.664 237.013 195.482 237.046ZM192.569 240.115C193.478 239.172 194.392 238.208 195.31 237.228C196.487 237.196 197.66 237.175 198.845 237.124C197.922 238.041 197.002 238.947 196.089 239.827C194.914 239.927 193.735 240.039 192.569 240.115ZM189.686 243.067C190.578 242.168 191.477 241.246 192.379 240.311C193.539 240.236 194.715 240.122 195.884 240.024C194.946 240.927 194.013 241.808 193.085 242.674C191.947 242.818 190.814 242.948 189.686 243.067ZM186.758 245.97C187.66 245.091 188.569 244.186 189.482 243.269C190.604 243.152 191.729 243.028 192.86 242.887C191.926 243.755 190.999 244.6 190.076 245.432C188.966 245.622 187.858 245.808 186.758 245.97ZM183.854 248.755C184.74 247.92 185.633 247.062 186.529 246.19C187.624 246.03 188.728 245.841 189.832 245.654C188.9 246.491 187.975 247.305 187.053 248.105C185.981 248.339 184.917 248.55 183.854 248.755ZM180.919 251.468C181.809 250.659 182.705 249.833 183.605 248.988C184.657 248.787 185.709 248.583 186.77 248.354C185.849 249.151 184.934 249.925 184.024 250.685C182.983 250.964 181.949 251.22 180.919 251.468ZM178.002 254.065C178.879 253.299 179.758 252.523 180.644 251.721C181.661 251.479 182.684 251.22 183.711 250.948C182.806 251.7 181.907 252.431 181.011 253.147C180.003 253.469 179 253.774 178.002 254.065ZM175.07 256.574C175.941 255.844 176.814 255.104 177.694 254.338C178.668 254.058 179.645 253.766 180.628 253.456C179.728 254.173 178.833 254.868 177.942 255.549C176.979 255.91 176.023 256.246 175.07 256.574ZM172.17 258.953C173.008 258.28 173.849 257.598 174.697 256.891C175.624 256.576 176.556 256.242 177.492 255.897C176.617 256.561 175.749 257.204 174.883 257.834C173.973 258.225 173.07 258.593 172.17 258.953ZM169.338 261.174C170.125 260.57 170.913 259.962 171.709 259.328C172.569 258.989 173.435 258.627 174.304 258.26C173.483 258.852 172.669 259.421 171.858 259.982C171.013 260.395 170.174 260.79 169.338 261.174ZM166.586 263.233C167.303 262.709 168.02 262.184 168.743 261.635C169.476 261.304 170.21 260.969 170.95 260.616C170.232 261.105 169.521 261.567 168.81 262.032C168.066 262.441 167.323 262.848 166.586 263.233ZM164.466 264.752C164.902 264.445 165.335 264.149 165.774 263.834C166.128 263.652 166.48 263.482 166.836 263.295C166.042 263.795 165.251 264.283 164.466 264.752ZM468.307 19.1511C467.14 15.2731 465.965 11.4328 464.774 7.65747C466.156 10.2342 467.505 12.9103 468.824 15.6682C470.108 19.1441 471.37 22.6914 472.618 26.2845C471.214 23.8208 469.778 21.4379 468.307 19.1511ZM472.213 32.296C470.973 28.0953 469.735 23.9046 468.489 19.7563C470.006 22.1368 471.485 24.6192 472.931 27.1862C474.267 31.0509 475.588 34.9669 476.903 38.903C475.376 36.6146 473.814 34.4069 472.213 32.296ZM476.328 46.1586C475.004 41.7511 473.695 37.3158 472.388 32.8893L472.351 32.7656C473.977 34.9272 475.563 37.1889 477.113 39.533C477.898 41.8828 478.679 44.2395 479.462 46.5961C480.078 48.4524 480.694 50.3087 481.311 52.1621C479.688 50.0793 478.028 48.0728 476.328 46.1586ZM480.817 60.7085C479.333 56.0563 477.881 51.3217 476.447 46.553C478.162 48.4982 479.837 50.5352 481.474 52.6512C482.981 57.1734 484.494 61.6749 486.029 66.1103C484.33 64.2351 482.594 62.43 480.817 60.7085ZM485.954 75.9641C484.225 71.1365 482.557 66.1463 480.929 61.0565C482.717 62.7994 484.463 64.6268 486.173 66.5254C487.858 71.3859 489.569 76.1649 491.325 80.8011C489.572 79.124 487.782 77.5075 485.954 75.9641ZM492.277 92.0878C490.108 87.0972 488.049 81.7992 486.068 76.2859C487.906 77.8457 489.705 79.4791 491.466 81.174C493.479 86.472 495.552 91.5822 497.714 96.4106C495.937 94.9174 494.126 93.4724 492.277 92.0878ZM501.383 109.827C498.171 104.662 495.203 98.7913 492.417 92.4103C494.275 93.8084 496.094 95.2683 497.879 96.7759C500.658 102.949 503.583 108.659 506.717 113.711C504.971 112.38 503.196 111.08 501.383 109.827ZM35.5282 171.539L35.4984 171.444L35.5357 171.553L35.5282 171.539ZM35.9204 172.786L35.7933 172.381L35.8708 172.523L36.0153 172.941L35.9204 172.786ZM36.3083 174.018C36.2506 173.836 36.1935 173.653 36.136 173.47L36.279 173.705L36.4712 174.261L36.3083 174.018ZM36.7023 175.255L36.4933 174.599C36.5591 174.697 36.6257 174.794 36.6919 174.891L36.9204 175.544L36.7023 175.255ZM37.0948 176.488C37.0161 176.242 36.9382 175.995 36.8594 175.75L37.1057 176.075C37.1901 176.316 37.2734 176.557 37.3581 176.797L37.0948 176.488ZM37.4865 177.706C37.4012 177.441 37.3154 177.177 37.2305 176.912L37.519 177.251C37.6097 177.509 37.7015 177.766 37.7928 178.024L37.4865 177.706ZM37.8801 178.925L37.6071 178.079L37.932 178.417C38.0291 178.691 38.1254 178.965 38.2227 179.238L37.8801 178.925ZM38.2803 180.158C38.1827 179.858 38.0847 179.558 37.9872 179.258L38.3462 179.585C38.4501 179.878 38.5565 180.17 38.6608 180.463C38.5323 180.361 38.4085 180.26 38.2803 180.158ZM38.6784 181.376C38.5783 181.07 38.4783 180.765 38.3788 180.459C38.5083 180.562 38.6389 180.664 38.7705 180.767C38.8763 181.062 38.9818 181.357 39.0882 181.651C38.9512 181.559 38.8129 181.467 38.6784 181.376ZM39.079 182.598C38.9739 182.279 38.8701 181.96 38.7654 181.642C38.9043 181.736 39.0453 181.83 39.1862 181.925C39.2974 182.233 39.4093 182.54 39.5209 182.848C39.3732 182.765 39.2245 182.681 39.079 182.598ZM39.4817 183.811C39.3744 183.487 39.2663 183.163 39.1597 182.839C39.3087 182.925 39.4601 183.01 39.6113 183.096C39.7244 183.408 39.8384 183.719 39.9518 184.031C39.7945 183.957 39.6367 183.884 39.4817 183.811ZM39.8829 185.02C39.7731 184.691 39.6644 184.361 39.5548 184.031C39.7129 184.106 39.8738 184.181 40.0336 184.255C40.1494 184.573 40.2653 184.889 40.3815 185.206C40.2148 185.144 40.0471 185.081 39.8829 185.02ZM40.2886 186.226C40.1759 185.892 40.0624 185.558 39.9501 185.222C40.1176 185.285 40.2882 185.349 40.458 185.412C40.5761 185.734 40.6959 186.054 40.8143 186.376L40.2886 186.226ZM202.833 223.747C203.707 222.649 204.585 221.534 205.467 220.405C206.785 220.577 208.106 220.749 209.431 220.917C208.525 222.012 207.625 223.093 206.729 224.151C205.427 224.02 204.129 223.885 202.833 223.747ZM200.063 227.19C200.939 226.115 201.82 225.016 202.705 223.906C203.998 224.045 205.294 224.179 206.594 224.311C205.681 225.388 204.775 226.438 203.872 227.481C202.599 227.389 201.329 227.292 200.063 227.19ZM197.275 230.571C198.155 229.516 199.04 228.443 199.93 227.352C201.193 227.455 202.462 227.551 203.732 227.644C202.816 228.699 201.907 229.73 201 230.75C199.754 230.698 198.513 230.637 197.275 230.571ZM194.486 233.87C195.367 232.839 196.249 231.802 197.139 230.737C198.374 230.803 199.611 230.864 200.854 230.916C199.94 231.943 199.032 232.948 198.128 233.94M191.659 237.135C192.549 236.119 193.442 235.091 194.342 234.04C195.55 234.068 196.754 234.102 197.97 234.113C197.059 235.112 196.153 236.091 195.251 237.053C194.051 237.085 192.85 237.123 191.659 237.135ZM188.849 240.296C189.73 239.318 190.614 238.325 191.504 237.311C192.69 237.3 193.886 237.266 195.08 237.235C194.156 238.22 193.237 239.188 192.322 240.136C191.156 240.21 190.006 240.244 188.849 240.296ZM185.987 243.43C186.88 242.467 187.777 241.485 188.68 240.484C189.831 240.433 190.976 240.4 192.136 240.327C191.229 241.266 190.326 242.19 189.429 243.093C188.279 243.212 187.127 243.336 185.987 243.43ZM183.148 246.449C184.029 245.527 184.916 244.583 185.807 243.624C186.939 243.532 188.083 243.412 189.225 243.295C188.304 244.22 187.387 245.129 186.476 246.015C185.36 246.178 184.254 246.314 183.148 246.449ZM180.294 249.392C181.173 248.5 182.058 247.586 182.948 246.657C184.047 246.524 185.148 246.386 186.256 246.226C185.35 247.107 184.447 247.973 183.551 248.816C182.46 249.025 181.375 249.213 180.294 249.392ZM177.423 252.255C178.302 251.394 179.187 250.509 180.076 249.61C181.146 249.435 182.22 249.253 183.3 249.049C182.392 249.9 181.487 250.738 180.59 251.551C179.528 251.804 178.474 252.034 177.423 252.255ZM174.561 255.011C175.428 254.192 176.301 253.348 177.179 252.491C178.216 252.275 179.258 252.051 180.306 251.804C179.413 252.61 178.524 253.402 177.641 254.171C176.608 254.468 175.582 254.747 174.561 255.011ZM171.679 257.683C172.544 256.898 173.415 256.087 174.29 255.263C175.295 255.007 176.303 254.737 177.318 254.448C176.421 255.226 175.53 255.986 174.643 256.726C173.649 257.064 172.663 257.379 171.679 257.683ZM168.813 260.236C169.656 259.502 170.506 258.741 171.359 257.969C172.325 257.674 173.298 257.359 174.275 257.031C173.398 257.758 172.525 258.471 171.658 259.162C170.704 259.538 169.757 259.894 168.813 260.236ZM165.988 262.648C166.8 261.971 167.618 261.268 168.439 260.556C169.356 260.228 170.279 259.879 171.206 259.518C170.363 260.186 169.523 260.84 168.69 261.474C167.784 261.883 166.884 262.272 165.988 262.648ZM163.188 264.931C163.958 264.317 164.735 263.679 165.514 263.035C166.351 262.689 167.191 262.335 168.037 261.96C167.262 262.542 166.489 263.119 165.722 263.672C164.873 264.107 164.028 264.528 163.188 264.931ZM160.538 266.991C161.219 266.474 161.905 265.938 162.591 265.397C163.312 265.058 164.035 264.709 164.762 264.346C164.077 264.83 163.393 265.316 162.715 265.778C161.985 266.197 161.26 266.597 160.538 266.991ZM158.417 268.562C158.81 268.276 159.204 267.985 159.599 267.693C160.027 267.465 160.459 267.223 160.89 266.986C160.062 267.526 159.237 268.054 158.417 268.562ZM467.106 26.0644C466.475 23.6701 465.846 21.2757 465.219 18.8862C464.667 16.7849 464.117 14.6878 463.567 12.5978C465.134 14.6955 466.659 16.9085 468.148 19.2211C469.411 23.4185 470.665 27.6605 471.921 31.9142C470.355 29.8665 468.751 27.9117 467.106 26.0644ZM471.007 40.6158C469.718 35.9167 468.454 31.1753 467.203 26.4317C468.861 28.3086 470.478 30.2948 472.057 32.3753L472.223 32.9376C473.495 37.2461 474.769 41.5631 476.056 45.8545C474.413 44.0174 472.73 42.2674 471.007 40.6158ZM475.331 55.7814C473.879 50.9161 472.473 45.952 471.095 40.9384C472.829 42.6109 474.521 44.3837 476.174 46.2437C477.612 51.03 479.067 55.7827 480.556 60.4539C478.853 58.8152 477.112 57.2543 475.331 55.7814ZM480.368 71.5848C478.65 66.5778 477.008 61.3878 475.42 56.0784C477.209 57.567 478.956 59.145 480.667 60.801C482.295 65.9025 483.965 70.9039 485.693 75.7451C485.385 75.4862 485.075 75.2287 484.764 74.9737C483.324 73.7951 481.858 72.6664 480.368 71.5848ZM486.68 88.1636C484.489 83.0362 482.428 77.5735 480.465 71.8703C481.884 72.9051 483.282 73.983 484.654 75.107C485.041 75.4233 485.425 75.7438 485.808 76.0667C487.783 81.5805 489.837 86.8813 492 91.8787C490.261 90.5846 488.488 89.3433 486.68 88.1636ZM495.981 106.293C492.664 101.038 489.627 95.025 486.806 88.4554C488.618 89.6445 490.395 90.8945 492.139 92.1985C494.904 98.5591 497.848 104.421 501.032 109.589C499.377 108.453 497.693 107.352 495.981 106.293ZM513.813 124.779C514.515 125.163 515.227 125.516 515.95 125.842C516.609 126.522 517.279 127.17 517.957 127.792C517.565 127.549 517.177 127.297 516.792 127.035C515.778 126.345 514.785 125.592 513.813 124.779ZM35.0305 170.627L34.9236 170.25L34.9821 170.367L35.1065 170.767L35.0305 170.627ZM35.4018 171.926L35.246 171.383L35.3687 171.607L35.5433 172.161L35.4018 171.926ZM35.7728 173.222L35.5836 172.561L35.7625 172.857L35.9691 173.514L35.7728 173.222ZM36.1462 174.517C36.073 174.264 35.9992 174.012 35.9263 173.758L36.151 174.092C36.2301 174.342 36.3101 174.591 36.3896 174.841L36.1462 174.517ZM36.52 175.807L36.2808 174.982L36.5468 175.335L36.8048 176.145L36.52 175.807ZM36.8931 177.089L36.6375 176.213L36.941 176.572C37.032 176.856 37.1231 177.139 37.2143 177.423C37.1068 177.311 36.999 177.2 36.8931 177.089ZM37.268 178.366L36.9977 177.446C37.1093 177.563 37.222 177.68 37.3348 177.797L37.6233 178.691C37.5047 178.583 37.3853 178.474 37.268 178.366ZM37.644 179.648C37.5492 179.327 37.456 179.007 37.3619 178.687C37.4842 178.799 37.6076 178.911 37.7308 179.024C37.8322 179.336 37.9329 179.649 38.0343 179.961C37.9048 179.857 37.7755 179.753 37.644 179.648ZM38.0276 180.937C37.9287 180.604 37.8291 180.272 37.7307 179.939C37.8665 180.047 37.9997 180.155 38.133 180.262C38.2373 180.581 38.3421 180.9 38.4466 181.219C38.3057 181.125 38.1649 181.031 38.0276 180.937ZM38.406 182.209C38.3051 181.872 38.2055 181.534 38.1049 181.197C38.2452 181.293 38.3898 181.389 38.5331 181.485C38.6406 181.813 38.747 182.141 38.8551 182.468C38.7052 182.382 38.5567 182.295 38.406 182.209ZM38.789 183.482C38.6849 183.137 38.5803 182.792 38.4767 182.447C38.631 182.536 38.7819 182.624 38.9358 182.712C39.0454 183.045 39.1566 183.377 39.2666 183.709C39.1072 183.633 38.9492 183.558 38.789 183.482ZM39.1721 184.752C39.0662 184.401 38.9608 184.051 38.855 183.7C39.0182 183.778 39.1774 183.854 39.3402 183.931C39.4521 184.268 39.5634 184.606 39.6761 184.942C39.5067 184.879 39.3416 184.815 39.1721 184.752ZM39.5572 186.018C39.4487 185.663 39.3405 185.308 39.2327 184.952L39.7431 185.145C39.8575 185.487 39.9728 185.828 40.0876 186.169L39.5572 186.018ZM198.744 223.294C199.596 222.165 200.454 221.015 201.315 219.853C202.633 220.031 203.955 220.206 205.28 220.38C204.396 221.511 203.515 222.627 202.641 223.725C201.338 223.586 200.039 223.442 198.744 223.294ZM196.043 226.843C196.898 225.732 197.759 224.598 198.623 223.454C199.916 223.601 201.213 223.745 202.513 223.885C201.626 224.997 200.742 226.097 199.865 227.174C198.587 227.07 197.314 226.958 196.043 226.843ZM193.328 230.34C194.186 229.249 195.051 228.131 195.918 227.004C197.186 227.12 198.456 227.231 199.732 227.336C198.841 228.428 197.955 229.505 197.074 230.56C195.822 230.493 194.572 230.421 193.328 230.34ZM190.606 233.767C191.464 232.701 192.33 231.606 193.198 230.503C194.441 230.585 195.688 230.658 196.938 230.726C196.046 231.793 195.162 232.832 194.279 233.865C193.053 233.835 191.823 233.814 190.606 233.767ZM187.868 237.125C188.731 236.077 189.597 235.021 190.47 233.938C191.685 233.984 192.912 234.005 194.135 234.034C193.233 235.088 192.338 236.117 191.445 237.134C190.247 237.145 189.057 237.134 187.868 237.125ZM185.093 240.447C185.965 239.416 186.842 238.37 187.724 237.301C188.91 237.312 190.096 237.321 191.291 237.311C190.396 238.328 189.508 239.325 188.624 240.306C187.445 240.358 186.262 240.419 185.093 240.447ZM182.325 243.678C183.191 242.68 184.063 241.665 184.94 240.629C186.104 240.601 187.281 240.545 188.454 240.494C187.548 241.497 186.648 242.481 185.753 243.446C184.604 243.538 183.463 243.611 182.325 243.678ZM179.54 246.84C180.407 245.87 181.28 244.88 182.157 243.871C183.291 243.805 184.429 243.73 185.573 243.639C184.675 244.605 183.781 245.554 182.893 246.482C181.769 246.618 180.653 246.733 179.54 246.84ZM176.741 249.928C177.61 248.985 178.483 248.021 179.362 247.039C180.468 246.934 181.577 246.823 182.693 246.69C181.798 247.624 180.907 248.542 180.021 249.438C178.923 249.617 177.83 249.779 176.741 249.928ZM173.931 252.934C174.799 252.022 175.672 251.087 176.55 250.135C177.63 249.989 178.714 249.831 179.804 249.656C178.906 250.562 178.012 251.453 177.124 252.321C176.054 252.543 174.991 252.744 173.931 252.934ZM171.121 255.842C171.981 254.968 172.848 254.069 173.719 253.155C174.768 252.969 175.821 252.774 176.88 252.557C175.994 253.421 175.111 254.27 174.235 255.095C173.191 255.362 172.154 255.61 171.121 255.842ZM168.287 258.673C169.149 257.829 170.017 256.96 170.89 256.076C171.909 255.849 172.934 255.608 173.964 255.348C173.072 256.185 172.185 257.006 171.304 257.804C170.293 258.112 169.288 258.4 168.287 258.673ZM165.461 261.391C166.31 260.591 167.165 259.767 168.025 258.928C169.012 258.661 170.005 258.374 171.003 258.073C170.125 258.864 169.253 259.639 168.386 260.391C167.406 260.742 166.43 261.077 165.461 261.391ZM162.658 263.982C163.49 263.229 164.328 262.453 165.169 261.662C166.117 261.359 167.07 261.035 168.029 260.696C167.167 261.44 166.309 262.169 165.458 262.875C164.519 263.263 163.586 263.63 162.658 263.982ZM159.869 266.449C160.672 265.755 161.481 265.036 162.294 264.306C163.189 263.971 164.088 263.622 164.993 263.253C164.17 263.931 163.349 264.596 162.535 265.238C161.641 265.66 160.753 266.064 159.869 266.449ZM157.11 268.783C157.879 268.148 158.654 267.49 159.432 266.821C160.262 266.464 161.095 266.094 161.933 265.706C161.131 266.332 160.332 266.945 159.539 267.538C158.724 267.971 157.916 268.382 157.11 268.783ZM154.457 270.922C155.133 270.391 155.816 269.836 156.5 269.277C157.224 268.923 157.955 268.546 158.687 268.166C157.984 268.682 157.284 269.188 156.588 269.678C155.875 270.103 155.162 270.524 154.457 270.922ZM152.401 272.503C152.809 272.196 153.22 271.874 153.631 271.557C154.066 271.318 154.502 271.077 154.94 270.828C154.087 271.409 153.242 271.963 152.401 272.503ZM461.935 20.7613C460.801 16.0078 459.687 11.241 458.581 6.49633C460.195 8.28848 461.764 10.2078 463.293 12.2359C463.88 14.4599 464.465 16.6923 465.052 18.9295C465.651 21.2102 466.251 23.4952 466.853 25.7807C465.255 24.0012 463.616 22.3243 461.935 20.7613ZM465.659 35.9337C464.41 31.0211 463.197 26.0505 462.007 21.0641C463.697 22.6466 465.343 24.346 466.95 26.1479C468.206 30.9083 469.473 35.6676 470.765 40.385C469.103 38.8046 467.402 37.3171 465.659 35.9337ZM469.864 51.6428C468.434 46.5989 467.061 41.438 465.73 36.2106C467.479 37.6082 469.186 39.1111 470.854 40.7074C472.232 45.7312 473.64 50.7061 475.093 55.5833C474.286 54.9209 473.471 54.2767 472.648 53.6522C471.731 52.9566 470.802 52.288 469.864 51.6428ZM474.851 67.895C473.129 62.7482 471.499 57.3963 469.938 51.9045C470.816 52.5117 471.685 53.1377 472.544 53.7888C473.433 54.4633 474.312 55.1617 475.182 55.8804C476.768 61.1955 478.409 66.3927 480.126 71.4081C478.403 70.1657 476.645 68.9902 474.851 67.895ZM481.238 84.8669C478.997 79.6306 476.907 74.0262 474.937 68.1532C476.736 69.2574 478.497 70.4418 480.224 71.6929C482.181 77.3947 484.236 82.8612 486.42 87.9933C484.725 86.8942 482.997 85.8515 481.238 84.8669ZM490.884 103.318C487.406 98.011 484.251 91.8791 481.349 85.131C483.113 86.1234 484.845 87.1738 486.545 88.2813C489.346 94.8304 492.359 100.834 495.65 106.091C494.086 105.131 492.498 104.204 490.884 103.318ZM513.667 123.072C514.552 123.357 515.452 123.603 516.367 123.808C517.125 124.825 517.894 125.805 518.676 126.743C517.784 126.437 516.909 126.087 516.048 125.698C515.241 124.865 514.448 123.989 513.667 123.072ZM510.759 121.973C511.61 122.342 512.475 122.673 513.354 122.967C514.099 123.849 514.855 124.692 515.623 125.499C514.772 125.099 513.935 124.66 513.112 124.182C512.314 123.485 511.531 122.748 510.759 121.973ZM508.14 120.693C508.86 121.086 509.591 121.452 510.333 121.787C510.988 122.457 511.653 123.095 512.327 123.709C511.744 123.35 511.167 122.975 510.599 122.577C509.764 121.991 508.945 121.36 508.14 120.693ZM34.1854 168.354L34.0922 167.992L34.1297 168.077L34.2398 168.466L34.1854 168.354ZM34.5344 169.711L34.3964 169.176L34.5015 169.389L34.6563 169.936L34.5344 169.711ZM34.8857 171.07C34.8275 170.846 34.7693 170.623 34.7119 170.399L34.8705 170.692L35.0611 171.36L34.8857 171.07ZM35.2381 172.424L35.0385 171.657L35.2427 171.996L35.4615 172.759C35.3868 172.648 35.3127 172.536 35.2381 172.424ZM35.59 173.773C35.5164 173.493 35.4436 173.212 35.3702 172.932C35.4514 173.053 35.5332 173.174 35.6148 173.295C35.6944 173.572 35.774 173.849 35.8539 174.126L35.59 173.773ZM35.9456 175.125L35.7067 174.217L35.99 174.596L36.2474 175.484L35.9456 175.125ZM36.2992 176.466C36.2148 176.149 36.1318 175.832 36.0481 175.515C36.1531 175.64 36.2592 175.765 36.3648 175.89C36.4551 176.2 36.5442 176.511 36.6347 176.821C36.5217 176.702 36.4111 176.584 36.2992 176.466ZM36.6566 177.808C36.5686 177.478 36.4799 177.147 36.392 176.816C36.5067 176.937 36.6233 177.057 36.7397 177.178C36.8341 177.499 36.9283 177.821 37.0232 178.143C36.9001 178.031 36.7769 177.92 36.6566 177.808ZM37.0118 179.14C36.9203 178.799 36.8301 178.459 36.7394 178.118C36.8638 178.233 36.9905 178.348 37.1169 178.463C37.2146 178.795 37.312 179.128 37.4097 179.46L37.0118 179.14ZM37.3735 180.484C37.278 180.13 37.1818 179.776 37.0868 179.422C37.2232 179.531 37.3589 179.64 37.4949 179.75C37.5966 180.094 37.6996 180.437 37.8016 180.781C37.6595 180.682 37.5179 180.583 37.3735 180.484ZM37.7344 181.821C37.6371 181.461 37.54 181.101 37.4427 180.741C37.591 180.843 37.7338 180.943 37.8803 181.044C37.9833 181.391 38.0859 181.738 38.1896 182.083L37.7344 181.821ZM38.0969 183.153C37.9969 182.787 37.8973 182.421 37.7977 182.054L38.2604 182.322C38.3664 182.675 38.473 183.029 38.5794 183.382L38.0969 183.153ZM38.4614 184.482C38.3591 184.111 38.2573 183.74 38.156 183.368L38.6453 183.601C38.7534 183.959 38.8613 184.317 38.9695 184.675L38.4614 184.482ZM38.8256 185.808C38.722 185.432 38.6192 185.056 38.5158 184.681L39.0303 184.876C39.1402 185.238 39.2498 185.6 39.36 185.961L38.8256 185.808ZM194.659 222.815C195.491 221.652 196.325 220.481 197.167 219.284C198.485 219.468 199.806 219.649 201.132 219.828C200.27 220.992 199.411 222.142 198.557 223.273C197.254 223.125 195.955 222.972 194.659 222.815ZM192.027 226.461C192.862 225.315 193.702 224.154 194.545 222.975C195.839 223.131 197.136 223.284 198.437 223.433C197.571 224.578 196.709 225.713 195.853 226.826C194.574 226.709 193.298 226.588 192.027 226.461ZM189.383 230.055C190.22 228.929 191.063 227.783 191.909 226.622C193.178 226.749 194.451 226.87 195.728 226.987C194.859 228.115 193.992 229.233 193.133 230.326C191.878 230.243 190.629 230.152 189.383 230.055ZM186.741 233.576C187.575 232.477 188.417 231.352 189.261 230.218C190.504 230.315 191.751 230.406 193.003 230.49C192.133 231.595 191.265 232.694 190.406 233.762C189.177 233.715 187.961 233.641 186.741 233.576ZM184.063 237.066C184.907 235.98 185.758 234.867 186.612 233.743C187.83 233.808 189.041 233.884 190.267 233.933C189.394 235.015 188.526 236.077 187.663 237.124C186.459 237.114 185.258 237.097 184.063 237.066ZM181.373 240.482C182.221 239.416 183.072 238.342 183.93 237.239C185.121 237.27 186.318 237.29 187.518 237.301C186.634 238.371 185.757 239.417 184.883 240.449C183.706 240.476 182.54 240.477 181.373 240.482ZM178.658 243.847C179.511 242.803 180.367 241.745 181.229 240.664C182.393 240.66 183.557 240.657 184.731 240.631C183.849 241.672 182.973 242.69 182.101 243.693C180.948 243.76 179.802 243.806 178.658 243.847ZM175.931 247.144C176.785 246.125 177.643 245.091 178.507 244.034C179.646 243.994 180.786 243.951 181.934 243.886C181.053 244.898 180.178 245.89 179.307 246.863C178.176 246.971 177.051 247.065 175.931 247.144ZM173.195 250.363C174.048 249.373 174.907 248.364 175.771 247.335C176.885 247.258 178.004 247.167 179.129 247.062C178.246 248.048 177.368 249.015 176.495 249.961C175.39 250.11 174.29 250.245 173.195 250.363ZM170.447 253.504C171.3 252.543 172.16 251.562 173.024 250.561C174.112 250.445 175.205 250.315 176.304 250.168C175.419 251.126 174.539 252.067 173.664 252.984C172.586 253.175 171.514 253.346 170.447 253.504ZM167.693 256.556C168.543 255.629 169.399 254.68 170.26 253.713C171.319 253.559 172.382 253.393 173.453 253.205C172.575 254.125 171.701 255.028 170.834 255.907C169.781 256.141 168.734 256.357 167.693 256.556ZM164.912 259.537C165.766 258.638 166.626 257.715 167.491 256.775C168.523 256.58 169.56 256.369 170.603 256.14C169.72 257.033 168.842 257.909 167.971 258.76C166.946 259.037 165.926 259.297 164.912 259.537ZM162.147 262.398C162.99 261.543 163.839 260.662 164.694 259.765C165.696 259.53 166.705 259.276 167.718 259.005C166.845 259.855 165.977 260.688 165.116 261.497C164.12 261.817 163.131 262.117 162.147 262.398ZM159.37 265.164C160.208 264.347 161.052 263.505 161.901 262.645C162.87 262.372 163.845 262.078 164.825 261.768C163.957 262.58 163.093 263.375 162.236 264.146C161.275 264.505 160.32 264.844 159.37 265.164ZM156.617 267.798C157.432 267.035 158.255 266.247 159.081 265.444C160.011 265.133 160.948 264.802 161.889 264.455C161.046 265.21 160.208 265.948 159.376 266.663C158.45 267.061 157.531 267.439 156.617 267.798ZM153.838 270.343C154.645 269.621 155.459 268.875 156.276 268.114C157.159 267.771 158.047 267.412 158.94 267.034C158.104 267.747 157.272 268.444 156.447 269.118C155.572 269.545 154.702 269.953 153.838 270.343ZM151.145 272.698C151.901 272.053 152.663 271.386 153.428 270.705C154.25 270.34 155.077 269.954 155.908 269.555C155.125 270.187 154.348 270.804 153.575 271.401C152.761 271.85 151.95 272.284 151.145 272.698ZM148.573 274.842C149.246 274.296 149.924 273.728 150.604 273.153C151.319 272.792 152.037 272.418 152.759 272.03C152.06 272.562 151.366 273.077 150.674 273.581C149.97 274.015 149.269 274.437 148.573 274.842ZM146.508 276.491C146.92 276.17 147.336 275.832 147.751 275.498C148.181 275.254 148.61 275.014 149.043 274.759C148.191 275.361 147.347 275.936 146.508 276.491ZM194.364 222.953C193.518 224.134 192.678 225.295 191.842 226.443C184.955 225.749 178.186 224.901 171.542 223.917C124.542 216.956 83.8934 203.243 53.4206 190.097C84.7758 201.042 126.746 212.948 174.738 220.269C181.175 221.251 187.722 222.15 194.364 222.953ZM196.988 219.26C196.146 220.458 195.311 221.628 194.478 222.793C187.805 221.987 181.23 221.085 174.764 220.099C127.506 212.89 86.0913 201.238 54.9099 190.439C86.863 199.018 129.415 208.832 177.456 216.37C183.872 217.377 190.387 218.343 196.988 219.26ZM456.698 16.3882C455.609 11.4176 454.55 6.41873 453.508 1.42813C455.165 2.90238 456.775 4.51096 458.344 6.23641C459.453 10.9958 460.57 15.7783 461.707 20.5481C460.079 19.049 458.41 17.6597 456.698 16.3882ZM460.289 32.1059C459.068 27.0126 457.895 21.8448 456.754 16.6445C458.473 17.9298 460.146 19.3354 461.779 20.8506C462.971 25.8484 464.185 30.8304 465.436 35.755C464.57 35.0734 463.693 34.4176 462.806 33.7893C461.977 33.2027 461.137 32.6442 460.289 32.1059ZM464.42 48.2639C462.998 43.0778 461.645 37.7555 460.347 32.3479C461.141 32.8557 461.929 33.379 462.706 33.9295C463.652 34.5996 464.585 35.3014 465.506 36.0318C466.838 41.2661 468.21 46.4343 469.641 51.4868C467.938 50.3257 466.198 49.2497 464.42 48.2639ZM469.42 64.8834C467.676 59.6266 466.037 54.1432 464.483 48.4944C466.265 49.4886 468.008 50.5767 469.715 51.7482C471.275 57.2462 472.904 62.6046 474.625 67.759C472.923 66.729 471.189 65.7672 469.42 64.8834ZM475.958 82.1499C473.642 76.8398 471.499 71.1297 469.498 65.1167C471.269 66.0063 473.005 66.9727 474.708 68.0098C476.674 73.8822 478.758 79.4866 480.993 84.7281C479.344 83.8126 477.665 82.9529 475.958 82.1499ZM486.12 100.856C482.422 95.5354 479.095 89.3077 476.065 82.3934C477.775 83.2022 479.454 84.07 481.105 84.9922C483.986 91.7178 487.118 97.8376 490.569 103.148C489.106 102.351 487.626 101.583 486.12 100.856ZM515.057 120.483C515.651 120.538 516.253 120.573 516.86 120.598C517.598 121.784 518.343 122.936 519.098 124.055C517.77 122.854 516.424 121.661 515.057 120.483ZM514.151 120.38C514.351 120.404 514.551 120.429 514.751 120.451C516.144 121.648 517.516 122.86 518.869 124.082C518.057 123.969 517.255 123.828 516.466 123.654C515.683 122.602 514.912 121.51 514.151 120.38ZM511.109 119.867C512.033 120.069 512.972 120.232 513.927 120.354C514.676 121.47 515.436 122.55 516.207 123.591C515.273 123.375 514.355 123.117 513.452 122.818C512.659 121.875 511.878 120.892 511.109 119.867ZM508.061 119.048C508.977 119.345 509.91 119.601 510.858 119.815C511.608 120.82 512.37 121.787 513.144 122.714C512.224 122.399 511.32 122.043 510.431 121.642C509.627 120.819 508.837 119.953 508.061 119.048ZM505.083 117.915C505.954 118.294 506.839 118.635 507.74 118.938C508.481 119.81 509.234 120.646 510 121.444C509.128 121.035 508.272 120.585 507.43 120.097C506.634 119.408 505.852 118.679 505.083 117.915ZM502.419 116.611C503.148 117.007 503.889 117.375 504.64 117.716C505.303 118.387 505.976 119.029 506.659 119.644C505.889 119.173 505.132 118.667 504.386 118.13C503.72 117.65 503.065 117.142 502.419 116.611ZM500.887 115.527C499.96 114.959 499.048 114.35 498.157 113.691C493.825 110.491 489.904 106.248 486.33 101.158C487.835 101.89 489.315 102.664 490.776 103.466C493.874 108.186 497.228 112.258 500.887 115.527ZM504.312 117.38C503.44 116.973 502.583 116.526 501.741 116.041C497.873 112.737 494.342 108.546 491.092 103.636C492.71 104.529 494.3 105.465 495.868 106.433C498.495 110.59 501.299 114.273 504.312 117.38ZM507.516 118.677C506.574 118.351 505.647 117.982 504.737 117.571C501.689 114.48 498.854 110.799 496.198 106.635C497.916 107.704 499.606 108.814 501.265 109.961C503.251 113.15 505.329 116.073 507.516 118.677ZM510.701 119.603C509.729 119.376 508.776 119.102 507.838 118.789C505.665 116.228 503.6 113.354 501.625 110.214C503.446 111.481 505.231 112.793 506.985 114.137C508.192 116.06 509.429 117.885 510.701 119.603ZM513.8 120.166C512.836 120.038 511.888 119.869 510.955 119.66C509.731 118.015 508.538 116.272 507.374 114.436C509.293 115.916 511.176 117.432 513.02 118.98C513.279 119.38 513.539 119.775 513.8 120.166ZM514.514 120.249C514.351 120.23 514.187 120.212 514.025 120.192C513.843 119.921 513.662 119.647 513.482 119.372C513.827 119.664 514.171 119.956 514.514 120.249ZM516.751 120.423C516.102 120.395 515.46 120.35 514.825 120.286C514.268 119.808 513.709 119.331 513.146 118.859C509.972 113.947 506.982 108.378 504.114 102.356C506.068 104.204 507.98 106.1 509.853 108.029C512.09 112.437 514.381 116.598 516.751 120.423ZM519.419 120.442C518.586 120.468 517.767 120.46 516.956 120.429C514.658 116.727 512.433 112.706 510.26 108.449C512.281 110.543 514.258 112.674 516.195 114.823C517.261 116.749 518.335 118.625 519.419 120.442ZM280.122 227.083C280.815 227.174 281.506 227.267 282.199 227.357C280.851 227.287 279.505 227.213 278.161 227.136C278.814 227.12 279.468 227.102 280.122 227.083ZM275.879 226.524C276.932 226.664 277.986 226.802 279.04 226.941C278.029 226.967 277.018 226.991 276.009 227.012C274.986 226.952 273.964 226.889 272.942 226.825C273.92 226.728 274.899 226.628 275.879 226.524ZM271.648 225.959C272.815 226.116 273.98 226.272 275.148 226.427C274.054 226.542 272.961 226.651 271.869 226.756C270.726 226.684 269.584 226.609 268.443 226.532C269.509 226.347 270.578 226.156 271.648 225.959ZM267.409 225.387C268.637 225.553 269.866 225.719 271.096 225.885C269.966 226.09 268.839 226.29 267.713 226.483C266.488 226.399 265.263 226.312 264.04 226.224C265.162 225.948 266.282 225.681 267.409 225.387ZM263.132 224.807C264.41 224.982 265.692 225.154 266.972 225.328C265.802 225.632 264.643 225.898 263.478 226.183C262.258 226.094 261.04 226.003 259.823 225.909C260.923 225.554 262.027 225.18 263.132 224.807ZM258.916 224.225C260.191 224.401 261.464 224.578 262.742 224.753C261.619 225.131 260.493 225.516 259.375 225.875C258.128 225.779 256.882 225.68 255.638 225.579C256.725 225.148 257.823 224.678 258.916 224.225ZM254.742 223.648C256.017 223.826 257.299 224.001 258.577 224.178C257.461 224.639 256.343 225.108 255.233 225.546C253.959 225.441 252.686 225.335 251.415 225.226C252.522 224.705 253.627 224.196 254.742 223.648ZM250.513 223.054C251.819 223.237 253.121 223.422 254.429 223.605C253.302 224.157 252.185 224.672 251.066 225.197C249.789 225.087 248.514 224.974 247.24 224.86C248.328 224.267 249.417 223.675 250.513 223.054ZM246.267 222.454C247.586 222.642 248.91 222.828 250.233 223.014C249.126 223.64 248.026 224.236 246.928 224.832C245.643 224.716 244.36 224.597 243.078 224.477C244.138 223.816 245.201 223.139 246.267 222.454ZM242.049 221.853C243.366 222.041 244.682 222.23 246.003 222.417C244.928 223.106 243.856 223.784 242.787 224.45C241.488 224.327 240.192 224.202 238.897 224.074C239.944 223.347 240.993 222.61 242.049 221.853ZM237.824 221.245C239.149 221.436 240.474 221.627 241.802 221.817C240.74 222.578 239.684 223.318 238.63 224.048C237.328 223.919 236.027 223.788 234.729 223.655C235.757 222.866 236.788 222.066 237.824 221.245ZM233.591 220.633C234.921 220.826 236.257 221.019 237.591 221.211C236.549 222.036 235.513 222.838 234.48 223.629C233.172 223.495 231.866 223.358 230.563 223.219C231.568 222.371 232.577 221.511 233.591 220.633ZM229.363 220.012C230.698 220.208 232.03 220.405 233.369 220.6C232.35 221.481 231.337 222.344 230.327 223.193C229.017 223.053 227.709 222.911 226.404 222.766C227.386 221.862 228.373 220.944 229.363 220.012ZM225.143 219.393C226.473 219.59 227.814 219.785 229.148 219.981C228.154 220.915 227.164 221.836 226.178 222.741C224.863 222.595 223.55 222.446 222.241 222.296C223.204 221.344 224.171 220.38 225.143 219.393ZM220.907 218.76C222.25 218.961 223.587 219.163 224.935 219.362C223.961 220.35 222.992 221.318 222.027 222.271C220.706 222.119 219.389 221.965 218.074 221.809C219.014 220.808 219.958 219.792 220.907 218.76ZM216.687 218.13C218.022 218.331 219.367 218.53 220.707 218.731C219.756 219.765 218.81 220.782 217.867 221.784C216.547 221.626 215.229 221.467 213.914 221.305C214.834 220.263 215.757 219.209 216.687 218.13ZM212.45 217.489C213.797 217.693 215.141 217.898 216.493 218.101C215.562 219.182 214.637 220.237 213.716 221.281C212.393 221.118 211.073 220.953 209.756 220.785C210.65 219.703 211.548 218.601 212.45 217.489ZM208.221 216.846C209.564 217.051 210.912 217.256 212.261 217.46C211.357 218.574 210.457 219.676 209.561 220.76C208.235 220.592 206.911 220.421 205.59 220.247C206.463 219.13 207.339 217.997 208.221 216.846ZM203.998 216.199C205.341 216.405 206.687 216.612 208.037 216.818C207.154 217.971 206.276 219.103 205.402 220.223C204.075 220.049 202.751 219.873 201.431 219.695C202.283 218.545 203.137 217.385 203.998 216.199ZM199.766 215.545C201.114 215.753 202.463 215.963 203.818 216.171C202.956 217.359 202.1 218.52 201.248 219.671C199.92 219.492 198.597 219.31 197.276 219.127C198.101 217.952 198.932 216.753 199.766 215.545ZM56.3354 190.649C93.2031 197.769 143.652 206.844 199.588 215.517C198.754 216.725 197.922 217.927 197.098 219.102C190.469 218.181 183.926 217.211 177.482 216.2C130.125 208.77 88.1166 199.133 56.3354 190.649ZM52.4383 189.894L52.6003 189.926C83.1712 203.177 124.115 217.067 171.517 224.087C178.131 225.066 184.87 225.912 191.725 226.603C190.876 227.765 190.033 228.912 189.194 230.04C182.041 229.48 175.025 228.694 168.159 227.708C121.733 221.044 82.1089 205.345 52.4383 189.894ZM51.5949 189.73L51.8529 189.78C81.5945 205.324 121.423 221.173 168.135 227.879C174.969 228.86 181.953 229.643 189.072 230.203C188.227 231.34 187.384 232.465 186.548 233.565C131.166 230.591 84.912 210.225 51.5949 189.73ZM50.765 189.568L51.1107 189.635C84.4514 210.211 130.838 230.724 186.42 233.733C185.565 234.857 184.713 235.973 183.869 237.06C128.615 235.59 83.3259 212.856 50.765 189.568ZM49.9573 189.411L50.3511 189.487C82.9282 212.859 128.32 235.727 183.732 237.232C182.873 238.336 182.02 239.417 181.17 240.484C126.045 240.636 81.7452 215.535 49.9573 189.411ZM49.1697 189.257L49.6021 189.341C81.4019 215.547 125.776 240.779 181.027 240.666C180.162 241.75 179.305 242.808 178.45 243.854C123.445 245.751 80.1673 218.263 49.1697 189.257ZM48.3778 189.103L48.8515 189.195C79.8622 218.272 123.197 245.887 178.299 244.041C177.432 245.101 176.572 246.137 175.715 247.158C124.93 250.659 84.982 225.327 55.3778 196.242C52.9765 193.882 50.6438 191.498 48.3778 189.103ZM47.6025 188.95L48.0877 189.046C50.4069 191.501 52.796 193.946 55.2574 196.364C84.8616 225.45 124.797 250.787 175.555 247.35C174.687 248.383 173.825 249.393 172.968 250.387C131.657 254.774 98.1007 237.471 71.4997 213.748C62.8004 205.99 54.8445 197.546 47.6025 188.95ZM46.834 188.799L47.3333 188.897C54.6165 197.554 62.6241 206.063 71.385 213.876C97.9821 237.595 131.52 254.905 172.797 250.585C171.927 251.591 171.063 252.576 170.204 253.541C135.207 258.649 106.21 246.253 82.387 226.748C68.9393 215.738 57.1389 202.464 46.834 188.799ZM46.0661 188.648L46.5809 188.749C56.92 202.478 68.7677 215.82 82.2778 226.882C106.092 246.379 135.064 258.788 170.017 253.751C169.151 254.723 168.29 255.675 167.434 256.606C136.854 262.373 111.196 253.248 89.6768 236.923C72.6992 224.045 58.2919 206.691 46.0661 188.648ZM45.302 188.497L45.8259 188.6C58.0809 206.708 72.5323 224.133 89.5727 237.06C111.078 253.373 136.704 262.513 167.233 256.824C166.363 257.769 165.498 258.695 164.639 259.597C137.252 266.007 114.102 259.194 94.4401 245.269C74.8472 231.393 58.7134 210.455 45.302 188.497ZM44.5424 188.348L45.0733 188.452C58.5111 210.475 74.6848 231.488 94.3406 245.409C113.981 259.319 137.095 266.145 164.421 259.825C163.557 260.73 162.699 261.617 161.846 262.48C136.813 269.551 115.564 264.486 97.388 252.392C75.8636 238.069 58.6425 213.893 44.5424 188.348ZM43.7821 188.198L44.3218 188.304C58.4456 213.916 75.705 238.17 97.2932 252.535C115.44 264.61 136.642 269.693 161.602 262.727C160.737 263.599 159.878 264.452 159.026 265.281C135.761 273.039 115.983 269.348 99.0029 258.675C76.0628 244.254 58.2211 217.091 43.7821 188.198ZM43.0215 188.048L43.5688 188.156C58.0294 217.116 75.9068 244.359 98.9113 258.82C115.854 269.47 135.574 273.182 158.749 265.549C157.9 266.372 157.056 267.175 156.219 267.956C134.28 276.468 115.638 273.922 99.6182 264.365C75.6574 250.069 57.5469 220.107 43.0215 188.048ZM42.2654 187.898L42.8149 188.008C57.3604 220.134 75.504 250.178 99.5303 264.512C115.497 274.038 134.057 276.622 155.879 268.27C155.038 269.05 154.203 269.81 153.373 270.547C132.447 279.855 114.705 278.288 99.4714 269.627C74.7973 255.599 56.6888 222.981 42.2654 187.898ZM41.5066 187.747L42.0627 187.858C56.5053 223.009 74.6457 255.711 99.3864 269.776C114.551 278.398 132.194 280.007 152.973 270.901C152.159 271.62 151.35 272.32 150.547 272.999C130.37 283.195 113.328 282.509 98.7338 274.574C73.588 260.903 55.6868 225.742 41.5066 187.747ZM40.7502 187.597L41.3079 187.708C55.5058 225.771 73.4375 261.016 98.6515 274.725C113.145 282.605 130.041 283.36 150.009 273.452C149.232 274.102 148.46 274.733 147.693 275.347C128.079 286.495 111.594 286.62 97.5327 279.286C72.1078 266.025 54.5777 228.412 40.7502 187.597ZM39.9948 187.447L40.556 187.558C54.4001 228.443 71.9585 266.14 97.4531 279.438C111.348 286.685 127.596 286.686 146.879 275.998C146.189 276.541 145.504 277.063 144.822 277.576C125.619 289.751 109.576 290.649 95.9622 283.818C70.414 270.999 53.3844 231.007 39.9948 187.447ZM39.24 187.296L39.8039 187.409C53.2092 231.038 70.2658 271.116 95.8849 283.971C109.166 290.635 124.745 289.97 143.299 278.707C123.77 292.892 107.646 294.768 94.0951 288.212C68.55 275.851 52.1239 233.54 39.24 187.296ZM39.7536 187.246L39.1947 187.134C39.0887 186.753 38.9827 186.373 38.8768 185.992L39.417 186.147C39.529 186.513 39.6415 186.879 39.7536 187.246ZM40.5005 187.394L39.945 187.284L39.6142 186.204L40.1505 186.356C40.267 186.702 40.3833 187.049 40.5005 187.394ZM41.2455 187.542L40.6946 187.433C40.5798 187.093 40.4662 186.753 40.3516 186.413L40.884 186.564C41.0043 186.891 41.1245 187.217 41.2455 187.542ZM41.9938 187.691L41.4443 187.582C41.325 187.263 41.2072 186.943 41.0889 186.622L41.6164 186.772C41.7417 187.079 41.8681 187.385 41.9938 187.691ZM42.7392 187.839L42.1967 187.731C42.0735 187.431 41.9493 187.132 41.8262 186.832L42.3528 186.981C42.4818 187.267 42.61 187.553 42.7392 187.839ZM43.484 187.986L42.9458 187.88C42.8197 187.601 42.6945 187.322 42.569 187.043L43.0856 187.188C43.2182 187.454 43.3512 187.72 43.484 187.986ZM44.227 188.132L43.6974 188.028L43.3093 187.25L43.8195 187.394L44.227 188.132ZM44.9676 188.278L44.4474 188.176L44.0525 187.459L44.5565 187.6C44.6933 187.826 44.8298 188.052 44.9676 188.278ZM45.7067 188.423L45.1961 188.323C45.0634 188.105 44.9309 187.886 44.7991 187.668L45.2917 187.806C45.4303 188.012 45.568 188.218 45.7067 188.423ZM46.4448 188.569L45.9457 188.471C45.8123 188.273 45.6799 188.075 45.5471 187.878L46.0261 188.011C46.1653 188.197 46.3044 188.383 46.4448 188.569ZM47.1794 188.713L46.6978 188.618C46.5639 188.441 46.4301 188.263 46.2968 188.086L46.7618 188.214C46.9008 188.381 47.04 188.547 47.1794 188.713ZM47.9094 188.857L47.4477 188.766C47.3155 188.609 47.1849 188.452 47.0534 188.295L47.4954 188.418C47.6332 188.564 47.7718 188.71 47.9094 188.857ZM48.6452 189.001L48.1998 188.914L47.8149 188.506L48.2441 188.625L48.6452 189.001ZM49.3611 189.141L48.963 189.063L48.6015 188.724L48.9869 188.829C49.1115 188.933 49.2357 189.037 49.3611 189.141ZM50.0521 189.275L49.7161 189.21C49.607 189.12 49.4999 189.03 49.3919 188.94L49.7017 189.025C49.817 189.108 49.936 189.192 50.0521 189.275ZM50.7419 189.41L50.4658 189.356C50.3735 189.29 50.2788 189.223 50.1856 189.157L50.4455 189.228C50.5439 189.289 50.6442 189.35 50.7419 189.41ZM51.3856 189.535L51.226 189.504L51.0424 189.392L51.1884 189.432L51.3856 189.535ZM233.53 220.459C232.188 220.263 230.853 220.066 229.515 219.87C254.181 196.636 281.5 163.509 311.822 118.01C383.108 11.0408 425.114 -4.51169 454.352 14.9439C455.091 15.4356 455.821 15.9521 456.544 16.4876C457.685 21.695 458.859 26.8701 460.081 31.9716C429.536 12.767 386.389 25.9574 315.167 126.372C285.271 168.521 258.156 199.109 233.53 220.459ZM237.766 221.071C236.427 220.878 235.087 220.686 233.753 220.491C258.361 199.134 285.451 168.566 315.307 126.472C386.571 25.9986 429.662 12.9223 460.138 32.2135C461.437 37.6276 462.789 42.9564 464.212 48.1501C432.514 30.731 388.536 42.8483 318.655 134.83C289.224 173.569 262.337 201.598 237.766 221.071ZM241.992 221.68C240.659 221.488 239.328 221.297 237.998 221.105C262.547 201.625 289.404 173.616 318.792 134.934C388.705 42.9094 432.636 30.8888 464.275 48.3808C465.826 54.0317 467.463 59.5185 469.206 64.7801C436.287 48.4829 391.306 58.9395 322.143 143.288C293.174 178.618 266.511 204.083 241.992 221.68ZM246.213 222.281C244.886 222.093 243.562 221.904 242.239 221.715C266.731 204.111 293.355 178.668 322.277 143.397C391.47 59.0104 436.413 48.645 469.282 65.0104C471.279 71.0195 473.415 76.7287 475.724 82.0406C441.415 66.032 395.061 74.0103 325.632 151.745C297.121 183.668 270.684 206.562 246.213 222.281ZM250.462 222.881C249.133 222.694 247.804 222.507 246.478 222.319C270.913 206.593 297.305 183.719 325.761 151.859C395.233 74.076 441.56 66.1993 475.831 82.2842C478.841 89.1764 482.146 95.3901 485.816 100.714C449.696 83.4198 401.039 87.1121 329.122 160.202C301.082 188.698 274.875 209.04 250.462 222.881ZM520 115.108C518.762 113.127 517.517 111.118 516.262 109.093C513.901 105.284 511.503 101.415 509.05 97.556L508.96 97.3901C505.288 90.6126 501.545 83.7014 497.641 76.9676C494.302 70.0308 490.888 63.1083 487.319 56.4687C484.258 49.4432 481.115 42.5445 477.82 36.0131C474.984 28.9158 472.061 22.0374 468.983 15.6018C466.986 10.1991 464.936 4.96785 462.803 0.000103829H462.617C464.534 4.4613 466.384 9.13671 468.188 13.9583C466.983 11.4913 465.754 9.09298 464.496 6.7789C463.772 4.49288 463.041 2.23117 462.302 0.000103829H462.121C462.776 1.97769 463.425 3.97937 464.069 6.00079C462.927 3.92899 461.762 1.92522 460.57 0.000103829H460.37C461.725 2.18473 463.046 4.47107 464.337 6.84518C465.563 10.7146 466.772 14.6547 467.972 18.6361C466.503 16.3759 464.997 14.2113 463.451 12.1597C462.373 8.06834 461.294 4.00607 460.205 0.000103829H460.027C461.084 3.88857 462.132 7.83065 463.179 11.8012C461.66 9.80564 460.103 7.91844 458.502 6.15455L458.126 4.54337C457.772 3.0258 457.42 1.51082 457.067 0.000103829H456.89C457.246 1.5237 457.602 3.05156 457.958 4.58264L458.264 5.89493C456.702 4.19109 455.099 2.6034 453.45 1.14774L453.211 0.000103829H453.035L453.235 0.961366C452.861 0.634227 452.484 0.313737 452.105 0.000103829H451.836C452.326 0.401833 452.812 0.814886 453.293 1.23937C454.336 6.24005 455.397 11.2497 456.487 16.2313C455.814 15.7357 455.134 15.2577 454.447 14.8003C425.127 -4.70938 383.039 10.8339 311.678 117.915C281.321 163.468 253.979 196.612 229.3 219.838C227.962 219.642 226.619 219.447 225.286 219.25C250.006 194.141 277.556 158.441 308.336 109.548C347.053 48.0489 376.831 14.6133 400.456 0.000103829H400.142C376.52 14.7108 346.786 48.1515 308.191 109.456C277.378 158.402 249.808 194.118 225.078 219.219C223.726 219.019 222.386 218.817 221.039 218.616C245.82 191.632 273.6 153.389 304.851 101.087C334.076 52.1744 358.05 19.8263 378.025 0.000103829H377.792C357.82 19.8529 333.869 52.1848 304.703 100.998C273.423 153.35 245.627 191.609 220.84 218.586C219.496 218.386 218.149 218.186 216.81 217.985C241.646 189.126 269.656 148.315 301.365 92.6248C324.806 51.456 344.776 21.2859 361.942 0.000207659H361.733C344.571 21.2917 324.619 51.4365 301.216 92.5401C269.48 148.278 241.456 189.104 216.617 217.956C215.263 217.752 213.917 217.548 212.568 217.343C237.464 186.609 265.704 143.255 297.879 84.1637C317.075 48.9112 333.884 21.249 348.686 0.000207659H348.484C333.688 21.2443 316.894 48.8831 297.728 84.0814C265.526 143.22 237.275 186.588 212.379 217.315C211.028 217.11 209.678 216.905 208.333 216.7C233.285 184.091 261.755 138.185 294.393 75.7023C310.227 45.3908 324.4 20.3802 337.131 0.000103829H336.935C324.211 20.37 310.052 45.3545 294.241 75.6228C261.579 138.151 233.1 184.071 208.148 216.672C206.796 216.465 205.449 216.259 204.103 216.052C229.112 181.57 257.811 133.104 290.907 67.2407C303.962 41.2611 315.862 18.9815 326.738 0H326.545C315.676 18.9673 303.789 41.2229 290.754 67.1641C257.636 133.07 228.929 181.55 203.923 216.024C202.568 215.815 201.217 215.606 199.868 215.397C224.934 179.042 253.863 128.03 287.421 58.7797C298.106 36.7324 308.004 17.2105 317.187 0.000103829H316.995C307.82 17.1934 297.934 36.6921 287.267 58.7051C253.687 127.999 224.752 179.023 199.689 215.37C142.667 206.533 91.3207 197.275 54.2804 190.099C53.766 189.96 53.2573 189.822 52.7473 189.684C52.2706 189.518 51.7917 189.351 51.3216 189.185C50.8401 188.975 50.3628 188.765 49.8866 188.554C49.4569 188.326 49.0351 188.099 48.6096 187.871C48.148 187.581 47.6876 187.29 47.2305 186.999C46.8245 186.701 46.4082 186.402 46.0073 186.103C45.5268 185.693 45.0523 185.284 44.5778 184.874C44.1841 184.49 43.8018 184.105 43.4124 183.721C43.043 183.311 42.6754 182.901 42.3102 182.491C41.9362 182.021 41.5638 181.552 41.1936 181.083C40.8223 180.559 40.4529 180.035 40.0856 179.511C39.7408 178.966 39.3969 178.421 39.0559 177.876C38.7119 177.27 38.3697 176.664 38.0296 176.057C37.7097 175.43 37.3912 174.803 37.0747 174.175C36.7591 173.488 36.4451 172.8 36.1327 172.112C35.8366 171.397 35.5425 170.682 35.2493 169.968C34.9658 169.209 34.6836 168.451 34.403 167.693C34.1322 166.892 33.8624 166.091 33.5941 165.291C33.3411 164.463 33.0887 163.636 32.838 162.809C32.593 161.924 32.3495 161.04 32.1067 160.156C29.9383 151.5 27.8541 142.882 25.8191 134.466C17.2287 98.9388 9.51077 67.0235 0.00012207 51.0818V51.4128C9.42624 67.4018 17.1073 99.1674 25.652 134.506C27.0982 140.487 28.5691 146.571 30.0774 152.698C28.3165 146.167 26.6079 139.693 24.9355 133.358C16.4007 101.025 8.80795 72.2659 0 57.4567V57.791C8.72934 72.6406 16.2831 101.253 24.769 133.402C26.7122 140.763 28.7041 148.309 30.7704 155.917C28.409 147.971 26.1448 140.107 23.9501 132.48C15.5408 103.26 8.12924 77.5109 0 63.8249V64.1615C8.05582 77.8807 15.4272 103.488 23.7843 132.527C26.2606 141.131 28.8237 150.036 31.5171 159.022C28.4817 149.764 25.6116 140.613 22.8593 131.834C14.6477 105.642 7.4726 82.7583 0 70.1873V70.5247C7.40552 83.1212 14.5386 105.87 22.695 131.885C25.7348 141.581 28.9176 151.73 32.3092 161.976C28.5231 151.524 24.998 141.199 21.6606 131.423C13.7216 108.168 6.83789 88.0068 0.00012207 76.5429V76.8785C6.77655 88.3608 13.6168 108.394 21.4976 131.478C25.0782 141.965 28.8736 153.082 32.976 164.313L33.0032 164.42C28.4393 153.012 24.254 141.756 20.3485 131.249C12.7592 110.833 6.2229 93.2521 0.00012207 82.8879V83.2213C6.16718 93.596 12.6589 111.057 20.1875 131.309C24.2305 142.184 28.573 153.863 33.3246 165.682L33.4168 166.044C28.1159 154.028 23.3231 142.193 18.9199 131.319C11.759 113.635 5.62555 98.4904 0.00012207 89.2186V89.5486C5.57489 98.8229 11.6626 113.856 18.7601 131.383C23.278 142.541 28.2063 154.71 33.6727 167.048L33.8093 167.584C27.7057 155.055 22.2704 142.743 17.3668 131.636C10.7165 116.57 5.04285 103.718 0.00012207 95.5325V95.8602C4.99719 104.042 10.6238 116.787 17.2095 131.705C22.2124 143.038 27.7684 155.624 34.0235 168.416L34.1963 169.087C27.208 156.124 21.087 143.42 15.6833 132.204C9.62662 119.634 4.47076 108.932 0.000183105 101.824V102.148C4.42957 109.243 9.53824 119.846 15.5286 132.279C21.0174 143.671 27.2471 156.599 34.3734 169.775C34.4393 170.031 34.5049 170.288 34.571 170.544C26.6064 157.228 19.7535 144.219 13.8602 133.032C8.48276 122.822 3.90271 114.128 0.00012207 108.091V108.408C3.86517 114.426 8.39694 123.029 13.708 133.112C19.6771 144.444 26.6289 157.642 34.726 171.138L34.9467 171.986C25.8873 158.384 18.2487 145.149 11.886 134.124C7.27386 126.132 3.3313 119.3 0.00012207 114.326V114.635C3.29645 119.584 7.19147 126.332 11.7372 134.209C18.166 145.35 25.8963 158.744 35.0788 172.495C35.1578 172.799 35.2366 173.103 35.316 173.407C25.0224 159.584 16.5382 146.201 9.74683 135.488C5.98639 129.556 2.74445 124.442 0.00012207 120.523V120.822C2.71118 124.71 5.90552 129.749 9.60104 135.579C16.4502 146.383 25.0206 159.902 35.4321 173.849C35.5165 174.171 35.6018 174.493 35.6866 174.815C23.9749 160.825 14.571 147.363 7.42236 137.129C4.59772 133.086 2.12512 129.546 0 126.675V126.963C2.09229 129.798 4.51849 133.271 7.28168 137.227C14.4803 147.533 23.9647 161.11 35.7893 175.205C35.8768 175.538 35.9639 175.871 36.0518 176.204C34.4979 174.564 32.9799 172.931 31.5073 171.314C20.2967 159.005 11.4088 147.497 4.88702 139.054C3.07513 136.708 1.44592 134.599 0 132.774V133.05C1.4115 134.835 2.99548 136.885 4.75104 139.159C11.2753 147.606 20.1665 159.118 31.3797 171.43C32.923 173.124 34.5124 174.834 36.1437 176.553C36.2359 176.9 36.3288 177.247 36.4211 177.594C21.0109 163.334 9.47852 149.872 2.10034 141.261C1.35822 140.394 0.657715 139.577 0 138.813V139.076C0.619629 139.797 1.27637 140.563 1.96967 141.372C9.38275 150.024 20.989 163.569 36.5042 177.904C36.5976 178.255 36.6911 178.607 36.7852 178.958C19.5587 165.124 7.08844 152.225 0 144.784V145.033C7.13812 152.523 19.6328 165.422 36.8601 179.24C36.9579 179.605 37.0559 179.968 37.154 180.332C19.6693 168.305 7.01117 157.188 0 150.679V150.914C7.06042 157.461 19.7388 168.577 37.2233 180.589C37.3234 180.959 37.4229 181.329 37.5234 181.699C19.7982 171.434 6.95709 162.054 0.00012207 156.494V156.713C7.00824 162.305 19.8689 171.683 37.5865 181.932C37.6882 182.307 37.7898 182.681 37.892 183.055C19.9478 174.508 6.92792 166.82 0.00012207 162.221V162.425C6.98047 167.049 20.0177 174.735 37.9507 183.27C38.0542 183.649 38.1583 184.028 38.2624 184.407C20.1162 177.529 6.92242 171.484 0.00012207 167.856V168.044C6.97589 171.691 20.1841 177.736 38.3167 184.605C38.4218 184.987 38.5262 185.37 38.6319 185.752C20.2978 180.493 6.93732 176.043 0.00012207 173.395V173.566C6.992 176.231 20.3671 180.683 38.6831 185.936C38.7904 186.323 38.8979 186.71 39.0059 187.097C20.4996 183.407 6.97296 180.501 0.00012207 178.835V178.989C7.02802 180.666 20.5663 183.573 39.0511 187.259C51.9498 233.573 68.4019 275.97 94.0199 288.366C107.963 295.113 124.618 292.959 144.881 277.725C146.799 276.509 148.75 275.177 150.731 273.734C152.671 272.541 154.641 271.244 156.642 269.836C158.659 268.637 160.702 267.344 162.78 265.93C164.779 264.782 166.808 263.533 168.862 262.193C170.922 261.06 173.007 259.836 175.121 258.514C177.181 257.432 179.266 256.261 181.375 255.008C183.552 253.922 185.754 252.754 187.983 251.488C190.15 250.464 192.341 249.361 194.556 248.174C196.827 247.169 199.122 246.091 201.443 244.923C203.651 244.013 205.878 243.042 208.128 241.996C210.401 241.137 212.698 240.207 215.012 239.217C217.422 238.396 219.858 237.491 222.309 236.538C224.765 235.793 227.24 234.994 229.733 234.131C232.052 233.517 234.385 232.861 236.733 232.157C239.284 231.6 241.849 231 244.433 230.343C246.921 229.917 249.42 229.459 251.936 228.952C254.576 228.635 257.228 228.283 259.893 227.895C262.555 227.721 265.228 227.521 267.911 227.291C270.602 227.275 273.301 227.24 276.007 227.184C278.784 227.349 281.567 227.5 284.356 227.639C346.838 235.764 410.996 242.16 467.34 244.067C485.848 244.693 503.513 244.835 519.999 244.396V244.224C503.515 244.664 485.852 244.522 467.345 243.895C411.625 242.009 348.264 235.733 286.441 227.74C309.775 228.849 333.463 229.043 357.079 228.027C401.306 226.124 443.285 226.904 480.604 227.598C494.415 227.854 507.587 228.099 519.999 228.191V228.019C507.588 227.927 494.417 227.683 480.607 227.426C443.285 226.732 401.302 225.952 357.072 227.856C332.734 228.903 308.318 228.665 284.294 227.464C283.248 227.328 282.205 227.19 281.16 227.053C304.892 226.331 329.169 223.992 353.604 219.566C417.527 207.987 474.539 209.963 520 212.366V212.194C474.532 209.79 417.512 207.815 353.574 219.397C328.782 223.888 304.152 226.229 280.091 226.912C278.922 226.758 277.752 226.605 276.584 226.45C300.482 223.863 325.108 218.961 350.128 211.104C417.636 189.905 475.151 192.021 520 197.025V196.852C475.138 191.848 417.607 189.734 350.077 210.94C324.819 218.871 299.964 223.789 275.853 226.354C274.625 226.191 273.399 226.028 272.174 225.864C296.185 221.404 321.101 213.932 346.651 202.64C418.041 171.089 475.89 174.095 520 182.3V182.125C475.87 173.919 418 170.919 346.581 202.483C320.86 213.851 295.78 221.343 271.621 225.789C270.351 225.619 269.083 225.447 267.815 225.275C291.921 218.94 317.109 208.908 343.172 194.176C418.784 151.439 476.76 156.272 520 168.347V168.168C476.736 156.092 418.732 151.271 343.087 194.027C316.898 208.83 291.591 218.891 267.378 225.216C266.08 225.04 264.78 224.866 263.484 224.689C287.677 216.476 313.125 203.886 339.692 185.713C419.938 130.82 477.761 138.695 520 155.377V155.191C477.73 138.509 419.873 130.656 339.595 185.571C312.919 203.818 287.375 216.431 263.095 224.636C261.798 224.458 260.507 224.278 259.213 224.1C283.473 214.008 309.162 198.852 336.21 177.249C421.565 109.075 478.881 121.544 520 143.628V143.431C478.845 121.349 421.49 108.916 336.103 177.115C308.968 198.788 283.201 213.969 258.874 224.053C257.582 223.874 256.287 223.698 254.998 223.518C279.305 211.548 305.224 193.797 332.728 168.786C423.767 85.996 480.093 105.102 520 133.416V133.205C480.052 104.89 423.679 85.843 332.612 168.658C305.036 193.735 279.054 211.513 254.694 223.476C253.374 223.292 252.059 223.105 250.742 222.92C275.112 209.072 301.267 188.755 329.244 160.322C401.255 87.1376 449.917 83.5984 486.019 101.01C489.649 106.224 493.638 110.567 498.054 113.829C499.22 114.691 500.416 115.478 501.644 116.184C502.508 116.922 503.387 117.621 504.286 118.269C505.278 118.984 506.294 119.639 507.33 120.238C508.363 121.132 509.419 121.959 510.5 122.718C511.323 123.294 512.161 123.827 513.013 124.323C514.209 125.366 515.435 126.32 516.694 127.177C517.332 127.611 517.978 128.018 518.633 128.4C519.084 128.798 519.54 129.182 520 129.553V129.335C519.795 129.168 519.59 128.999 519.386 128.826C519.59 128.939 519.794 129.049 520 129.156V128.966C519.573 128.741 519.15 128.505 518.731 128.259C517.935 127.557 517.151 126.814 516.38 126.033C517.201 126.39 518.037 126.71 518.886 126.992C519.254 127.431 519.626 127.86 520 128.281V128.021C519.73 127.716 519.462 127.407 519.195 127.092C519.462 127.178 519.73 127.259 520 127.337V127.158C519.659 127.059 519.32 126.954 518.984 126.842C518.184 125.89 517.397 124.898 516.621 123.864C517.436 124.038 518.263 124.183 519.103 124.292C519.239 124.415 519.374 124.538 519.509 124.661C519.672 124.899 519.836 125.136 520 125.371V124.875L519.635 124.543C519.588 124.474 519.541 124.406 519.494 124.337C519.662 124.357 519.831 124.376 520 124.393V124.222C519.789 124.201 519.578 124.177 519.368 124.151C518.592 123.006 517.825 121.822 517.066 120.604C517.873 120.632 518.689 120.637 519.518 120.608C519.678 120.877 519.839 121.144 520 121.41V121.078C519.903 120.919 519.807 120.759 519.711 120.598L520 120.585V120.416C519.871 120.422 519.742 120.427 519.613 120.432C518.637 118.799 517.67 117.117 516.709 115.394C517.818 116.631 518.915 117.874 520 119.119V118.857C518.794 117.475 517.573 116.095 516.336 114.722C514.062 110.613 511.822 106.272 509.591 101.787C511.539 104.302 513.445 106.844 515.317 109.388C516.879 112.199 518.438 114.951 520 117.619V117.278C518.711 115.072 517.424 112.808 516.135 110.502C517.439 112.283 518.726 114.063 520 115.833V115.539C518.508 113.466 516.997 111.38 515.462 109.295C513.736 106.188 512.004 103.007 510.259 99.7882C512.242 102.934 514.191 106.078 516.116 109.183C517.421 111.289 518.714 113.375 520 115.433V115.108H520Z" fill="url(#paint0_linear_1548_2695)"/>
<defs>
<linearGradient id="paint0_linear_1548_2695" x1="0" y1="146" x2="420.5" y2="146" gradientUnits="userSpaceOnUse">
<stop/>
<stop offset="1" stop-color="#666666" stop-opacity="0"/>
</linearGradient>
</defs>
</svg>
