<svg xmlns="http://www.w3.org/2000/svg" width="520" height="292" fill="none" viewBox="0 0 520 292"><path fill="url(#a)" d="M270.011 227.103q.931-.085 1.864-.174.981.063 1.965.123a491 491 0 0 1-3.829.051m-5.12.024q1.413-.229 2.833-.471 1.534.103 3.07.204a365 365 0 0 1-2.891.259q-1.508.008-3.012.008m-2.863.45q.899-.135 1.801-.277.945.001 1.892-.001a429 429 0 0 1-3.693.278m-1.633-.467c1.03-.239 2.066-.498 3.101-.754q1.752.128 3.506.25-1.596.27-3.188.522m-6.951.781c.949-.207 1.899-.414 2.852-.634q1.504.015 3.012.02a328 328 0 0 1-2.853.429q-1.509.1-3.011.185m-2.958.626q.93-.195 1.862-.394.986-.054 1.976-.113a311 311 0 0 1-3.838.507m2.25-1.476c1.082-.332 2.162-.661 3.248-1.009q1.762.136 3.531.265c-1.082.268-2.167.543-3.242.788q-1.772-.016-3.537-.044m-3.595 1.072q1.52-.443 3.046-.908 1.701.029 3.405.045c-1.094.246-2.181.469-3.273.702q-1.59.087-3.178.161m-3.41.969c.906-.25 1.814-.501 2.726-.764q1.383-.063 2.77-.135c-.916.199-1.834.4-2.746.581q-1.377.165-2.75.318m-2.601.685 1.484-.391q.856-.09 1.712-.186c-1.068.202-2.131.387-3.196.577m-196.75-40.903-.161-.119.138.05.175.11zm202.172 38.096c1.099-.421 2.194-.827 3.295-1.257q1.843.15 3.689.294c-1.131.359-2.255.691-3.382 1.036q-1.803-.03-3.602-.073m-3.5 1.325c1.02-.368 2.049-.768 3.077-1.163q1.737.041 3.48.073c-1.066.324-2.132.648-3.192.952q-1.685.076-3.365.138m-3.621 1.244c1.022-.352 2.041-.693 3.065-1.053q1.617-.056 3.238-.125c-1.061.298-2.113.572-3.17.857a347 347 0 0 1-3.133.321m-3.142 1.078c.807-.263 1.622-.553 2.435-.836q1.364-.129 2.732-.271c-.836.224-1.672.449-2.503.66-.889.151-1.779.305-2.664.447m-2.61.811c.525-.165 1.048-.319 1.573-.481.504-.078 1.003-.144 1.507-.226-1.03.248-2.053.471-3.08.707M48.465 188.169l-.152-.126.12.053.165.12zm.623.518-.251-.209.23.082.265.194zm198.809 38.181c1.064-.478 2.137-.989 3.209-1.496q1.875.162 3.756.316c-1.121.437-2.236.855-3.353 1.279q-1.809-.043-3.612-.099m-3.559 1.562q1.592-.685 3.192-1.401 1.775.055 3.556.099a179 179 0 0 1-3.215 1.195q-1.77.062-3.533.107m-3.509 1.481a220 220 0 0 0 3.092-1.298q1.695-.042 3.395-.099c-1.077.378-2.151.742-3.225 1.107q-1.634.154-3.262.29m-3.317 1.342c.923-.361 1.853-.744 2.782-1.126q1.554-.127 3.113-.271c-.935.319-1.869.636-2.797.934q-1.553.24-3.098.463m-3.34 1.268c.884-.329 1.765-.647 2.653-.99.883-.124 1.772-.263 2.658-.398q-1.409.436-2.813.859-1.252.272-2.498.529m-2.321.86c.432-.155.868-.32 1.302-.482.505-.102 1.006-.19 1.513-.295-.943.273-1.877.519-2.815.777m-184.736-46.06-.134-.13.11.061.154.128zm.61.581-.245-.231.252.114.254.211zm.62.581-.312-.292.329.118.32.268zm-2.526-2.12-.125-.136.118.078.132.127zm.594.642-.23-.249.225.124.24.231zm.593.637-.298-.319.302.136c.104.098.202.197.306.295zm.593.634-.343-.366.367.133.364.341zm196.167 38.452a230 230 0 0 0 3.204-1.72q1.891.171 3.788.335c-1.093.512-2.187 1.026-3.272 1.513a568 568 0 0 1-3.72-.128m-3.463 1.789c1.046-.526 2.099-1.077 3.154-1.629q1.827.07 3.662.129c-1.086.485-2.169.964-3.247 1.425a430 430 0 0 1-3.569.075m-3.488 1.705c1.046-.503 2.09-1.003 3.143-1.527q1.745-.028 3.497-.07c-1.076.457-2.147.897-3.217 1.334q-1.716.141-3.423.263m-3.374 1.595q1.472-.68 2.954-1.392 1.65-.115 3.308-.249c-.982.402-1.965.812-2.94 1.189a247 247 0 0 1-3.322.452m-3.298 1.49c.92-.404 1.846-.828 2.773-1.253 1.026-.129 2.051-.257 3.082-.399-.971.367-1.938.722-2.904 1.076q-1.48.298-2.951.576m-3.363 1.429c.881-.368 1.76-.729 2.645-1.11.88-.163 1.766-.343 2.649-.517q-1.206.44-2.405.855c-.962.255-1.932.534-2.889.772m-2.271.951c.434-.176.873-.363 1.31-.548.401-.097.797-.182 1.198-.282-.837.279-1.676.566-2.508.83M44.564 185.284l-.12-.146.064.048.137.151zm.583.712-.222-.271.188.123.238.26zm.573.696-.285-.344.274.149.302.326zm.573.692-.328-.396.34.153.345.373zm.576.69-.366-.437.398.144.38.408zm192.802 38.484a228 228 0 0 0 3.163-1.932q1.908.18 3.824.354c-1.085.588-2.169 1.17-3.248 1.734q-1.873-.072-3.739-.156m-3.429 2.002c1.053-.606 2.106-1.21 3.166-1.842q1.844.084 3.693.156c-1.067.558-2.135 1.12-3.194 1.649q-1.836.028-3.665.037m-3.411 1.922q1.55-.855 3.111-1.748 1.803-.009 3.613-.034a235 235 0 0 1-3.216 1.557 305 305 0 0 1-3.508.225m-3.316 1.803c.984-.521 1.974-1.064 2.965-1.61q1.715-.098 3.44-.215-1.536.731-3.063 1.426-1.675.212-3.342.399m-3.36 1.736q1.455-.737 2.921-1.508a291 291 0 0 0 3.256-.389c-.991.453-1.983.908-2.966 1.335-1.074.198-2.143.381-3.211.562m-3.27 1.61c.921-.446 1.841-.886 2.769-1.35.971-.163 1.938-.311 2.915-.488q-1.404.6-2.8 1.175c-.966.235-1.924.444-2.884.663m-3.215 1.52q1.246-.574 2.5-1.173c.878-.198 1.756-.397 2.638-.607-.852.345-1.698.666-2.545.995-.865.262-1.734.537-2.593.785m-2.265 1.027c.39-.174.784-.355 1.176-.534q.742-.209 1.485-.427c-.891.335-1.776.645-2.661.961M43.358 184.099l-.087-.12.044.038.103.127zm.55.757-.2-.275.163.123.218.27zm.567.774-.28-.382.253.166.297.363zm.552.75-.312-.425q.157.087.318.173l.331.403zm.555.747-.35-.47.377.17.366.442q-.199-.07-.393-.142m.555.745-.374-.502.42.152.394.472zm189.421 38.488a281 281 0 0 0 3.122-2.135q1.928.19 3.863.374a208 208 0 0 1-3.184 1.945 586 586 0 0 1-3.801-.184m-3.33 2.205a214 214 0 0 0 3.09-2.046q1.884.099 3.776.186c-1.073.637-2.139 1.246-3.204 1.857q-1.835.01-3.662.003m-3.354 2.123a233 233 0 0 0 3.083-1.951q1.813.008 3.633-.001c-1.059.605-2.113 1.19-3.165 1.769q-1.78.102-3.551.183m-3.318 2.02a209 209 0 0 0 3.024-1.834 321 321 0 0 0 3.495-.177 211 211 0 0 1-3.058 1.648q-1.736.194-3.461.363m-3.318 1.945q1.484-.85 2.978-1.74a264 264 0 0 0 3.361-.341c-.995.523-1.99 1.042-2.978 1.539-1.123.188-2.245.373-3.361.542m-3.295 1.855c.949-.52 1.903-1.06 2.859-1.606 1.085-.163 2.178-.348 3.269-.528-.988.491-1.97.963-2.952 1.433-1.06.238-2.123.483-3.176.701m-3.159 1.702c.874-.458 1.755-.938 2.635-1.419q1.488-.306 2.986-.638c-.96.454-1.914.886-2.868 1.318-.921.259-1.837.497-2.753.739m-3.098 1.579q1.172-.585 2.349-1.192 1.246-.326 2.499-.671c-.86.384-1.716.754-2.57 1.119-.763.26-1.519.498-2.278.744m-2.337 1.15c.441-.213.878-.416 1.32-.634q.656-.208 1.315-.424c-.881.364-1.759.713-2.635 1.058m-168.16-58.145-.075-.116.022.022.094.13zm.538.828-.186-.284.148.131.196.272zm.529.808-.248-.378.228.172.267.368zm.54.822-.305-.463.297.194.326.446q-.159-.09-.319-.177m.536.809-.331-.5.356.199.348.472zm.535.804-.357-.537.402.185.376.507zm.54.804-.381-.568.443.162.398.534zm186.052 38.462q1.53-1.14 3.073-2.324 1.937.2 3.881.391a263 263 0 0 1-3.147 2.146 582 582 0 0 1-3.807-.213m-3.269 2.398a264 264 0 0 0 3.053-2.238q1.889.112 3.783.212c-1.044.7-2.088 1.393-3.124 2.062a415 415 0 0 1-3.712-.036m-3.269 2.319a229 229 0 0 0 3.031-2.15q1.837.026 3.681.038a240 240 0 0 1-3.11 1.969q-1.806.082-3.602.143m-3.255 2.209c.993-.664 1.99-1.337 2.991-2.029q1.781-.059 3.572-.137c-1.029.635-2.05 1.245-3.071 1.853q-1.751.168-3.492.313m-3.27 2.138c.988-.635 1.978-1.275 2.974-1.938 1.145-.093 2.296-.2 3.448-.308-1.029.61-2.052 1.201-3.073 1.784-1.122.168-2.234.313-3.349.462m-3.248 2.043q1.447-.89 2.906-1.821c1.085-.144 2.165-.275 3.255-.436q-1.476.838-2.942 1.638c-1.077.22-2.148.419-3.219.619m-3.244 1.96a190 190 0 0 0 2.815-1.696q1.558-.286 3.124-.6c-.956.518-1.91 1.031-2.859 1.524q-1.545.401-3.08.772m-3.159 1.828c.872-.492 1.751-1.003 2.63-1.52.943-.224 1.885-.445 2.834-.687-.865.446-1.731.891-2.59 1.315-.961.306-1.92.607-2.874.892m-2.962 1.635c.746-.402 1.496-.821 2.247-1.24.798-.235 1.595-.466 2.397-.714-.786.378-1.574.757-2.356 1.121-.767.29-1.527.558-2.288.833m-2.498 1.311q.7-.362 1.403-.73.642-.226 1.284-.461c-.898.406-1.796.81-2.687 1.191M41.067 181.379l-.06-.1h.001l.075.117zm.503.866-.155-.267q.06.063.123.125l.172.266zm.525.895q-.124-.207-.246-.416l.211.187.26.404zm.51.865-.276-.467.272.206.296.452zm.515.87-.319-.536.33.216q.17.257.338.515zm.518.867-.343-.574.379.211.361.545zm.515.861-.362-.605.422.194.38.573zm.522.861-.383-.632.458.168q.2.3.402.597zm182.691 38.412a285 285 0 0 0 3.015-2.504q1.947.208 3.902.41a273 273 0 0 1-3.093 2.333 590 590 0 0 1-3.824-.239m-3.197 2.579c.995-.789 1.997-1.599 3.001-2.42q1.898.126 3.804.24a259 259 0 0 1-3.077 2.25 416 416 0 0 1-3.728-.07m-3.206 2.499q1.489-1.142 2.991-2.332 1.848.045 3.705.071a224 224 0 0 1-3.059 2.164q-1.824.059-3.637.097m-3.197 2.398a254 254 0 0 0 2.97-2.221q1.794-.037 3.598-.093a222 222 0 0 1-3.023 2.05q-1.778.145-3.545.264m-3.226 2.337c.987-.703 1.977-1.415 2.973-2.148q1.746-.114 3.503-.252a222 222 0 0 1-3.016 1.957c-1.156.153-2.312.309-3.46.443m-3.199 2.232c.962-.659 1.927-1.328 2.897-2.016 1.134-.131 2.279-.289 3.419-.438a203 203 0 0 1-2.989 1.864c-1.112.205-2.223.406-3.327.59m-3.234 2.169q1.44-.945 2.892-1.935 1.614-.264 3.24-.56-1.462.89-2.911 1.738c-1.075.256-2.154.524-3.221.757m-3.168 2.039a180 180 0 0 0 2.751-1.767c1.031-.222 2.072-.477 3.11-.721q-1.415.824-2.816 1.607c-1.017.299-2.036.605-3.045.881m-3.044 1.879c.839-.505 1.685-1.031 2.531-1.561.944-.255 1.894-.531 2.844-.805-.88.487-1.759.967-2.632 1.43q-1.377.483-2.743.936m-2.967 1.744a170 170 0 0 0 2.25-1.323c.765-.249 1.526-.487 2.295-.751-.693.362-1.386.726-2.073 1.071-.826.341-1.652.681-2.472 1.003m-2.284 1.279q.63-.347 1.259-.699c.386-.148.769-.288 1.156-.44q-1.21.582-2.415 1.139m-156.18-66.263-.139-.267.099.113.156.272zm.493.933-.215-.405.187.189.23.396zm.495.938q-.134-.251-.265-.502l.25.223.288.492zm.501.941-.303-.567.314.245.315.535zm.494.921-.324-.605q.175.116.354.231l.343.581zm.497.922q-.175-.321-.348-.644l.398.222.367.614zm.499.92-.364-.672.436.2.381.638zm.499.915q-.19-.346-.378-.694l.469.173q.198.33.4.659zm179.344 38.333q1.467-1.31 2.948-2.671 1.952.216 3.911.426a275 275 0 0 1-3.03 2.512 590 590 0 0 1-3.829-.267m-3.139 2.749q1.472-1.27 2.957-2.59 1.903.14 3.815.268a293 293 0 0 1-3.022 2.431 385 385 0 0 1-3.75-.109m-3.15 2.675c.983-.823 1.968-1.654 2.961-2.509q1.857.064 3.724.111a246 246 0 0 1-3.006 2.343q-1.844.038-3.679.055m-3.125 2.571a244 244 0 0 0 2.919-2.398q1.82-.015 3.649-.051-1.5 1.14-2.985 2.233-1.796.12-3.583.216m-3.138 2.497q1.447-1.13 2.907-2.31a255 255 0 0 0 3.561-.213 217 217 0 0 1-3.021 2.174c-1.155.133-2.299.236-3.447.349m-3.15 2.421q1.44-1.085 2.892-2.219c1.134-.111 2.262-.205 3.404-.334a220 220 0 0 1-2.933 2.031 187 187 0 0 1-3.363.522m-3.145 2.329a212 212 0 0 0 2.84-2.1c1.105-.16 2.215-.336 3.326-.517q-1.488 1.01-2.963 1.972c-1.073.232-2.137.436-3.203.645m-3.144 2.239c.924-.644 1.855-1.309 2.788-1.984 1.048-.203 2.097-.409 3.152-.634a185 185 0 0 1-2.857 1.82q-1.548.416-3.083.798m-3.098 2.115c.882-.589 1.771-1.2 2.661-1.817.998-.245 2.003-.51 3.008-.778q-1.376.854-2.739 1.667c-.98.319-1.958.632-2.93.928m-3.079 2.001q1.274-.813 2.558-1.662 1.363-.407 2.735-.846c-.855.504-1.708 1.001-2.556 1.48-.915.352-1.829.7-2.737 1.028m-2.876 1.786c.739-.45 1.478-.902 2.222-1.369q1.15-.41 2.308-.843c-.762.424-1.523.846-2.28 1.25-.754.333-1.501.646-2.25.962m-2.227 1.329c.412-.241.82-.472 1.233-.718.412-.17.826-.35 1.239-.525q-1.24.637-2.472 1.243M503.16 88.52l-1.55-3.25a3366 3366 0 0 0-2.973-6.229c3.124 5.458 6.15 11.011 9.123 16.497a408 408 0 0 0-4.6-7.018m6.045 12.489a924 924 0 0 1-5.53-11.41 443 443 0 0 1 5.224 8.04c1.939 3.581 3.859 7.125 5.772 10.584a370 370 0 0 0-5.466-7.214M39.406 179.184l-.132-.28.073.093.155.298zm.464.981-.194-.408.166.191.21.402zm.474.993-.248-.517.227.229.267.507zm.47.983-.279-.581.285.252.3.569zm.48.995-.311-.644.335.262.33.62zm.48.99-.33-.682c.127.085.25.17.378.255l.347.647zm.478.979-.349-.711.415.23.364.679zm.48.976-.362-.736.447.206.382.702zm.48.973-.374-.756.481.177.39.718zm175.971 38.224q1.445-1.39 2.903-2.828 1.957.226 3.922.445-1.487 1.364-2.961 2.678a673 673 0 0 1-3.864-.295m-3.064 2.909q1.443-1.351 2.9-2.75 1.918.154 3.846.295-1.489 1.326-2.966 2.6a425 425 0 0 1-3.78-.145m-3.07 2.835q1.44-1.311 2.894-2.67 1.878.082 3.767.145c-.998.86-1.989 1.692-2.978 2.519q-1.846.013-3.683.006m-3.053 2.737c.949-.837 1.905-1.696 2.864-2.566q1.828.008 3.667-.004a254 254 0 0 1-2.946 2.414q-1.798.09-3.585.156m-3.095 2.687c.958-.815 1.922-1.657 2.888-2.507 1.185-.043 2.37-.089 3.561-.148q-1.472 1.185-2.93 2.322c-1.174.115-2.352.239-3.519.333m-3.058 2.568c.935-.77 1.877-1.564 2.82-2.367 1.159-.093 2.332-.22 3.498-.332q-1.475 1.147-2.935 2.245a187 187 0 0 1-3.383.454m-3.103 2.506q1.416-1.123 2.845-2.295c1.11-.139 2.218-.276 3.335-.437q-1.45 1.088-2.888 2.127-1.653.321-3.292.605m-3.096 2.409c.933-.712 1.868-1.433 2.809-2.177q1.606-.274 3.222-.581-1.44 1.038-2.868 2.027c-1.06.26-2.111.496-3.163.731m-3.109 2.326c.92-.675 1.843-1.359 2.772-2.065 1.02-.226 2.037-.446 3.064-.694-.919.633-1.835 1.256-2.746 1.859-1.033.31-2.065.616-3.09.9m-3.068 2.199c.89-.624 1.782-1.259 2.68-1.913.98-.267 1.967-.553 2.955-.846-.899.592-1.796 1.176-2.687 1.739-.986.35-1.97.697-2.948 1.02m-2.972 2.04c.828-.556 1.658-1.12 2.493-1.701.905-.296 1.814-.609 2.726-.927-.844.527-1.687 1.052-2.523 1.553-.903.373-1.8.727-2.696 1.075m-2.849 1.87q1.087-.695 2.182-1.421c.756-.29 1.515-.583 2.277-.89-.723.426-1.449.857-2.167 1.264-.768.363-1.53.704-2.292 1.047m-2.077 1.32c.344-.213.691-.435 1.037-.656.426-.188.858-.393 1.287-.586-.777.421-1.552.839-2.324 1.242M492.243 67.977a1240 1240 0 0 0-4.069-9.54c2.871 5.426 5.645 11.022 8.365 16.644a303 303 0 0 0-4.296-7.104m5.214 12.355c-1.067-2.514-2.133-5.046-3.204-7.586l-1.58-3.75a324 324 0 0 1 4.814 8.05c1.333 2.77 2.654 5.541 3.967 8.298l1.052 2.207a267 267 0 0 0-5.049-7.219m5.744 13.243a747 747 0 0 1-5.443-12.532 275 275 0 0 1 5.25 7.56 997 997 0 0 0 5.674 11.736 246 246 0 0 0-5.481-6.764m6.793 14.352c-2.222-4.378-4.392-9-6.537-13.78a253 253 0 0 1 5.601 6.953c2.242 4.525 4.491 8.909 6.774 13.065a248 248 0 0 0-5.838-6.238M38.376 177.456l-.114-.268.054.079.13.282zm.448 1.055-.18-.423.142.184.202.428zm.454 1.054-.228-.531.21.244.243.514zm.452 1.049-.264-.614.26.265.287.599zm.45 1.033q-.145-.328-.288-.658.154.139.312.277l.305.638zm.457 1.047-.312-.715.351.275.334.691zm.46 1.049-.331-.755.394.265.35.724zm.462 1.039-.345-.777.427.243.362.742zm.458 1.034-.354-.799.459.215.375.763zm.464 1.032-.368-.819.49.183.384.779zM215.1 224.936a345 345 0 0 0 2.827-2.972q1.969.234 3.945.462-1.463 1.441-2.912 2.833-1.935-.155-3.86-.323m-2.985 3.06c.938-.948 1.882-1.918 2.829-2.901q1.922.168 3.852.324-1.464 1.404-2.913 2.759a421 421 0 0 1-3.768-.182m-3.008 2.988c.944-.926 1.891-1.864 2.844-2.825q1.873.1 3.756.184-1.461 1.363-2.908 2.677a302 302 0 0 1-3.692-.036m-2.997 2.895a293 293 0 0 0 2.826-2.725q1.832.03 3.674.038a267 267 0 0 1-2.88 2.575c-1.21.044-2.418.085-3.62.112m-3.008 2.82c.937-.865 1.876-1.742 2.821-2.641 1.195-.026 2.398-.068 3.601-.111-.977.858-1.951 1.704-2.918 2.527-1.176.094-2.336.151-3.504.225m-3.038 2.763q1.41-1.26 2.834-2.573c1.157-.072 2.306-.124 3.471-.215-.95.806-1.897 1.604-2.837 2.377-1.159.145-2.317.288-3.468.411m-3.053 2.685q1.403-1.213 2.82-2.477c1.14-.12 2.291-.266 3.439-.408-.96.787-1.917 1.562-2.867 2.315-1.133.195-2.269.4-3.392.57m-3.008 2.553q1.371-1.144 2.756-2.337c1.11-.166 2.231-.363 3.349-.554q-1.432 1.13-2.851 2.208a150 150 0 0 1-3.254.683m-3.055 2.499q1.375-1.104 2.765-2.259 1.597-.312 3.207-.663a195 195 0 0 1-2.823 2.093c-1.054.287-2.105.569-3.149.829m-3.026 2.378q1.338-1.03 2.689-2.111c1.027-.253 2.063-.53 3.099-.81-.929.674-1.851 1.324-2.771 1.965-1.009.33-2.016.655-3.017.956m-2.962 2.233c.851-.627 1.708-1.276 2.568-1.934.973-.29 1.952-.601 2.933-.917-.9.624-1.794 1.224-2.686 1.816q-1.413.539-2.815 1.035m-2.94 2.124c.805-.568 1.617-1.159 2.431-1.755.883-.31 1.767-.621 2.659-.956-.856.563-1.705 1.102-2.552 1.636-.851.374-1.695.725-2.538 1.075m-2.775 1.909c.684-.461 1.375-.941 2.065-1.421.785-.319 1.577-.661 2.368-1.002-.79.491-1.572.956-2.355 1.423-.697.347-1.387.671-2.078 1m-2.272 1.492q.604-.392 1.211-.791c.429-.2.863-.416 1.294-.623-.839.485-1.675.959-2.505 1.414M482.292 47.519a797 797 0 0 0-3.73-9.638c2.679 5.408 5.26 11.05 7.783 16.79a251 251 0 0 0-4.053-7.152m4.632 12.327-.006-.014c-1.414-3.785-2.83-7.58-4.26-11.348a266 266 0 0 1 4.509 8.065c1.519 3.486 3.018 7.002 4.506 10.52a218 218 0 0 0-4.749-7.223m4.937 13.13a2015 2015 0 0 1-4.688-12.462 222 222 0 0 1 4.918 7.545q1.005 2.38 2.004 4.754 1.46 3.467 2.914 6.904c-1.68-2.3-3.395-4.552-5.148-6.741m5.492 13.964a619 619 0 0 1-5.292-13.44 196 196 0 0 1 5.246 6.918 774 774 0 0 0 5.494 12.683 182 182 0 0 0-5.448-6.161m6.557 14.987c-2.184-4.611-4.298-9.486-6.369-14.53a186 186 0 0 1 5.514 6.27c2.146 4.8 4.318 9.445 6.54 13.851a186 186 0 0 0-5.685-5.591M37.387 175.608l-.097-.252.033.054.115.274zm.427 1.114-.162-.421.12.173q.09.217.184.433zm.435 1.119-.21-.541.187.244.229.537zm.428 1.102-.24-.62.24.28.265.615zm.435 1.107-.271-.688.293.301.288.671zm.434 1.103-.29-.737.333.304.306.705zm.437 1.1-.313-.784.37.289.331.757zm.442 1.108-.33-.824.405.272.346.792zm.438 1.096-.337-.842.437.248.358.808zm.444 1.094-.35-.864.468.219.367.826zm.441 1.089-.356-.88.494.185.38.842zm169.257 37.927q1.38-1.528 2.773-3.106 1.967.242 3.942.478a347 347 0 0 1-2.836 2.979q-1.944-.17-3.879-.351m-2.919 3.198q1.382-1.494 2.776-3.039 1.929.182 3.867.351c-.951.985-1.898 1.957-2.839 2.906q-1.907-.1-3.804-.218m-2.927 3.129c.92-.97 1.847-1.962 2.776-2.966q1.89.118 3.791.219-1.433 1.443-2.851 2.833a325 325 0 0 1-3.716-.086m-2.918 3.037a310 310 0 0 0 2.758-2.87q1.848.055 3.706.088c-.953.933-1.899 1.839-2.843 2.738-1.212.025-2.417.035-3.621.044m-2.966 3.003a279 279 0 0 0 2.795-2.829c1.199-.008 2.399-.014 3.606-.039-.951.902-1.894 1.781-2.835 2.65-1.189.074-2.385.164-3.566.218m-2.931 2.872q1.365-1.318 2.745-2.689c1.175-.053 2.364-.139 3.548-.212-.959.883-1.911 1.744-2.86 2.591-1.151.12-2.291.212-3.433.31m-2.982 2.831a237 237 0 0 0 2.781-2.634c1.133-.096 2.261-.181 3.402-.299q-1.426 1.269-2.837 2.483c-1.121.168-2.233.307-3.346.45m-2.991 2.747c.918-.829 1.839-1.67 2.767-2.535 1.103-.14 2.208-.282 3.32-.446a220 220 0 0 1-2.796 2.363c-1.1.216-2.199.429-3.291.618m-2.981 2.643q1.361-1.183 2.738-2.421c1.076-.184 2.16-.389 3.245-.6q-1.413 1.17-2.813 2.288a135 135 0 0 1-3.17.733m-2.988 2.553q1.345-1.125 2.705-2.304 1.556-.34 3.126-.723a185 185 0 0 1-2.754 2.151q-1.545.46-3.077.876m-2.954 2.425q1.306-1.049 2.625-2.149c1-.267 2.007-.559 3.015-.855q-1.352 1.03-2.69 2.011-1.482.519-2.95.993m-2.963 2.333q1.282-.986 2.58-2.024c.938-.3 1.878-.606 2.824-.934q-1.323.963-2.633 1.877c-.929.378-1.851.732-2.771 1.081m-2.894 2.179q1.196-.88 2.405-1.802c.873-.327 1.752-.673 2.632-1.026a151 151 0 0 1-2.498 1.691c-.851.396-1.696.768-2.539 1.137m-2.73 1.965a157 157 0 0 0 2.077-1.485c.752-.324 1.51-.669 2.268-1.014q-1.075.702-2.141 1.37-1.107.581-2.204 1.129m-2.041 1.418c.363-.245.728-.502 1.092-.756q.65-.32 1.303-.649c-.803.484-1.599.948-2.395 1.405M473.087 27.115a611 611 0 0 0-3.448-9.726c2.523 5.384 4.944 11.06 7.302 16.897a213 213 0 0 0-3.854-7.17m4.181 12.34c-1.28-3.836-2.566-7.654-3.865-11.427a225 225 0 0 1 4.259 8.054 713 713 0 0 1 4.115 10.568 182 182 0 0 0-4.509-7.195m4.359 13.113q-1.002-3.01-2.002-6.026-1.072-3.232-2.147-6.458a186 186 0 0 1 4.659 7.511 2191 2191 0 0 1 4.387 11.672 160 160 0 0 0-4.897-6.699m4.696 13.868a1207 1207 0 0 1-4.529-13.369 163 163 0 0 1 4.976 6.86 2106 2106 0 0 0 4.741 12.61 147 147 0 0 0-5.188-6.101m5.289 14.64a526 526 0 0 1-5.144-14.223 149 149 0 0 1 5.243 6.209 627 627 0 0 0 5.312 13.522 143 143 0 0 0-5.411-5.508m6.407 15.594c-2.167-4.819-4.245-9.92-6.262-15.214a144 144 0 0 1 5.449 5.579c2.07 5.057 4.183 9.945 6.365 14.575a139 139 0 0 0-5.552-4.94m9.088 17.34c-3.166-5.051-6.12-10.775-8.922-16.975a139 139 0 0 1 2.547 2.213q1.536 1.37 3.037 2.782c2.84 5.995 5.8 11.546 8.939 16.462a174 174 0 0 0-5.601-4.482M36.436 173.632l-.077-.222.013.023.094.248zm.411 1.182-.145-.414.1.164.162.422zm.412 1.179-.192-.549.166.243.21.546zm.412 1.171-.228-.647.22.289.249.641zm.41 1.16-.25-.707.268.313.269.692zm.412 1.161-.272-.768.309.321q.145.374.294.749zm.422 1.176-.297-.827.35.318.311.793zm.414 1.152-.305-.848q.188.149.38.296l.325.822zm.423 1.166-.325-.892.415.279.343.859zm.42 1.155-.33-.907.445.252q.172.435.348.871zm.422 1.151-.34-.926.474.221.36.889zm.425 1.149q-.175-.471-.348-.943l.502.188.366.902zm165.907 37.737a365 365 0 0 0 2.699-3.229q1.973.25 3.955.494a364 364 0 0 1-2.78 3.112 669 669 0 0 1-3.874-.377m-2.852 3.325a379 379 0 0 0 2.719-3.165q1.928.194 3.864.376a333 333 0 0 1-2.785 3.045 425 425 0 0 1-3.798-.256m-2.863 3.263a381 381 0 0 0 2.724-3.101q1.887.137 3.787.257a319 319 0 0 1-2.786 2.972 325 325 0 0 1-3.725-.128m-2.862 3.18q1.351-1.48 2.714-3.014 1.851.075 3.713.13c-.927.974-1.85 1.937-2.768 2.877-1.222.007-2.445.017-3.659.007m-2.867 3.107a311 311 0 0 0 2.709-2.933c1.209.01 2.428 0 3.646-.008-.939.961-1.876 1.912-2.806 2.836-1.191.053-2.367.072-3.549.105m-2.913 3.069q1.364-1.416 2.741-2.887c1.177-.032 2.35-.053 3.535-.104-.923.917-1.843 1.823-2.756 2.703-1.175.1-2.354.212-3.52.288m-2.883 2.952c.892-.899 1.791-1.821 2.693-2.756 1.16-.075 2.336-.189 3.505-.287q-1.407 1.353-2.799 2.65-1.707.215-3.399.393m-2.928 2.903c.902-.879 1.811-1.784 2.724-2.701 1.122-.117 2.247-.241 3.378-.382a248 248 0 0 1-2.784 2.545c-1.11.19-2.218.376-3.318.538m-2.904 2.785c.886-.835 1.779-1.693 2.675-2.565 1.095-.16 2.199-.349 3.303-.536-.932.837-1.857 1.651-2.779 2.451-1.072.234-2.136.445-3.199.65m-2.935 2.713q1.335-1.213 2.686-2.48c1.052-.201 2.104-.405 3.165-.634-.921.797-1.836 1.571-2.746 2.331-1.041.279-2.075.535-3.105.783m-2.917 2.597c.877-.766 1.756-1.542 2.642-2.344q1.526-.364 3.067-.773-1.357 1.126-2.7 2.199-1.512.482-3.009.918m-2.932 2.509c.871-.73 1.744-1.47 2.624-2.236a120 120 0 0 0 2.934-.882q-1.35 1.074-2.686 2.093c-.963.361-1.919.697-2.872 1.025m-2.9 2.379c.838-.673 1.679-1.355 2.527-2.062q1.39-.474 2.795-.994c-.875.664-1.743 1.307-2.609 1.937-.91.391-1.813.759-2.713 1.119m-2.832 2.221c.787-.604 1.575-1.212 2.371-1.846.86-.339 1.726-.701 2.595-1.068-.821.592-1.635 1.161-2.446 1.722q-1.267.618-2.52 1.192m-2.752 2.059c.717-.524 1.434-1.049 2.157-1.598a116 116 0 0 0 2.207-1.019c-.718.489-1.429.951-2.14 1.416-.744.409-1.487.816-2.224 1.201m-2.12 1.519c.436-.307.869-.603 1.308-.918.354-.182.706-.352 1.062-.539q-1.192.752-2.37 1.457m303.841-245.6a908 908 0 0 0-3.533-11.495 195 195 0 0 1 4.05 8.011 578 578 0 0 1 3.794 10.617 156 156 0 0 0-4.311-7.134m3.906 13.144c-1.24-4.2-2.478-8.391-3.724-12.54a160 160 0 0 1 4.442 7.43c1.336 3.865 2.657 7.78 3.972 11.717a134 134 0 0 0-4.69-6.607m4.115 13.863c-1.324-4.408-2.633-8.843-3.94-13.27l-.037-.123a137 137 0 0 1 4.762 6.767q1.176 3.526 2.349 7.063.924 2.785 1.849 5.566a122 122 0 0 0-4.983-6.003m4.489 14.55a891 891 0 0 1-4.37-14.156 123 123 0 0 1 5.027 6.098c1.507 4.522 3.02 9.024 4.555 13.46a115 115 0 0 0-5.212-5.403m5.137 15.255a460 460 0 0 1-5.025-14.907 117 117 0 0 1 5.244 5.468 537 537 0 0 0 5.152 14.276 117 117 0 0 0-5.371-4.837m6.323 16.124c-2.169-4.99-4.228-10.289-6.209-15.802a117 117 0 0 1 5.398 4.888c2.013 5.298 4.086 10.408 6.248 15.237a124 124 0 0 0-5.437-4.323m9.106 17.739c-3.212-5.165-6.18-11.036-8.966-17.417a124 124 0 0 1 5.462 4.366c2.779 6.173 5.704 11.883 8.838 16.935a142 142 0 0 0-5.334-3.884M35.528 171.539l-.03-.095.038.109zm.392 1.247-.127-.405.078.142.144.418zm.388 1.232-.172-.548.143.235.192.556zm.394 1.237-.209-.656.199.292.228.653zm.393 1.233-.236-.738.247.325q.125.362.252.722zm.392 1.218-.257-.794.289.339q.136.387.274.773zm.393 1.219-.273-.846.325.338.29.821zm.4 1.233-.293-.9.36.327.314.878-.38-.305m.398 1.218-.3-.917.392.308.318.884zm.401 1.222-.314-.956.421.283.335.923zm.403 1.213q-.163-.486-.322-.972l.451.257.34.935zm.4 1.209-.327-.989q.238.113.479.224.173.476.348.951zm.407 1.206q-.17-.5-.339-1.004l.508.19.356.964zm162.544 37.521a468 468 0 0 0 2.634-3.342q1.977.259 3.964.512a369 369 0 0 1-2.702 3.234q-1.953-.197-3.896-.404m-2.77 3.443a397 397 0 0 0 2.642-3.284q1.94.208 3.889.405a400 400 0 0 1-2.722 3.17 463 463 0 0 1-3.809-.291m-2.788 3.381q1.32-1.583 2.655-3.219 1.896.154 3.802.292A349 349 0 0 1 201 230.75a323 323 0 0 1-3.725-.179m-2.789 3.299a372 372 0 0 0 2.653-3.133q1.852.1 3.715.179a345 345 0 0 1-2.726 3.024m-6.469 3.195c.89-1.016 1.783-2.044 2.683-3.095 1.208.028 2.412.062 3.628.073q-1.366 1.498-2.719 2.94c-1.2.032-2.401.07-3.592.082m-2.81 3.161q1.32-1.466 2.655-2.985c1.186-.011 2.382-.045 3.576-.076q-1.386 1.478-2.758 2.901c-1.166.074-2.316.108-3.473.16m-2.862 3.134q1.339-1.445 2.693-2.946c1.151-.051 2.296-.084 3.456-.157q-1.361 1.41-2.707 2.766c-1.15.119-2.302.243-3.442.337m-2.839 3.019q1.322-1.385 2.659-2.825c1.132-.092 2.276-.212 3.418-.329q-1.382 1.39-2.749 2.72a142 142 0 0 1-3.328.434m-2.854 2.943a271 271 0 0 0 2.654-2.735c1.099-.133 2.2-.271 3.308-.431-.906.881-1.809 1.747-2.705 2.59-1.091.209-2.176.397-3.257.576m-2.871 2.863c.879-.861 1.764-1.746 2.653-2.645a133 133 0 0 0 3.224-.561c-.908.851-1.813 1.689-2.71 2.502-1.062.253-2.116.483-3.167.704m-2.862 2.756a223 223 0 0 0 2.618-2.52c1.037-.216 2.079-.44 3.127-.687-.893.806-1.782 1.598-2.665 2.367a119 119 0 0 1-3.08.84m-2.882 2.672a194 194 0 0 0 2.611-2.42q1.507-.383 3.028-.815a183 183 0 0 1-2.675 2.278c-.994.338-1.98.653-2.964.957m-2.866 2.553c.843-.734 1.693-1.495 2.546-2.267q1.45-.444 2.916-.938c-.877.727-1.75 1.44-2.617 2.131q-1.43.562-2.845 1.074m-2.825 2.412c.812-.677 1.63-1.38 2.451-2.092.917-.328 1.84-.677 2.767-1.038q-1.266 1.004-2.516 1.956-1.359.612-2.702 1.174m-2.8 2.283c.77-.614 1.547-1.252 2.326-1.896.837-.346 1.677-.7 2.523-1.075-.775.582-1.548 1.159-2.315 1.712q-1.274.654-2.534 1.259m-2.65 2.06c.681-.517 1.367-1.053 2.053-1.594q1.081-.507 2.171-1.051c-.685.484-1.369.97-2.047 1.432-.73.419-1.455.819-2.177 1.213m-2.121 1.571q.59-.43 1.182-.869c.428-.228.86-.47 1.291-.707q-1.243.812-2.473 1.576M467.106 26.064q-.946-3.592-1.887-7.178l-1.652-6.288a116 116 0 0 1 4.581 6.623c1.263 4.198 2.517 8.44 3.773 12.693a102 102 0 0 0-4.815-5.85m3.901 14.552c-1.289-4.7-2.553-9.44-3.804-14.184a103 103 0 0 1 4.854 5.943l.166.563c1.272 4.308 2.546 8.625 3.833 12.917a95 95 0 0 0-5.049-5.24m4.324 15.165a710 710 0 0 1-4.236-14.843 96 96 0 0 1 5.079 5.306 892 892 0 0 0 4.382 14.21 93 93 0 0 0-5.225-4.673m5.037 15.804c-1.718-5.007-3.36-10.197-4.948-15.507a94 94 0 0 1 5.247 4.723 466 466 0 0 0 5.026 14.944 96 96 0 0 0-5.325-4.16m6.312 16.579c-2.191-5.128-4.252-10.59-6.215-16.294a94 94 0 0 1 5.343 4.197c1.975 5.514 4.029 10.814 6.192 15.812a105 105 0 0 0-5.32-3.715m9.301 18.129c-3.317-5.255-6.354-11.268-9.175-17.838a106 106 0 0 1 5.333 3.743c2.765 6.361 5.709 12.223 8.893 17.391a127 127 0 0 0-5.051-3.296m17.832 18.486q1.053.575 2.137 1.063.99 1.019 2.007 1.95-.588-.364-1.165-.757a38 38 0 0 1-2.979-2.256M35.031 170.627l-.107-.377.058.117.124.4zm.37 1.299-.155-.543.123.224.174.554zm.372 1.296-.19-.661.18.296.206.657zm.373 1.295-.22-.759.225.334.239.749zm.374 1.29-.24-.825.267.353.258.81zm.373 1.282-.255-.876.303.359.273.851zm.375 1.277-.27-.92.337.351.288.894zm.376 1.282-.282-.961.369.337.303.937zm.384 1.289q-.15-.499-.297-.998l.402.323.314.957zm.378 1.272-.301-1.012q.212.144.428.288l.322.983zm.383 1.273-.312-1.035.459.265.33.997zm.383 1.27-.317-1.052.485.231q.167.506.336 1.011c-.17-.063-.334-.127-.504-.19m.385 1.266q-.163-.532-.324-1.066l.51.193.345 1.024zm159.187 37.276c.852-1.129 1.71-2.279 2.571-3.441q1.977.267 3.965.527a481 481 0 0 1-2.639 3.345 522 522 0 0 1-3.897-.431m-2.701 3.549a471 471 0 0 0 2.58-3.389q1.94.22 3.89.431a420 420 0 0 1-2.648 3.289 424 424 0 0 1-3.822-.331m-2.715 3.497a397 397 0 0 0 2.59-3.336q1.901.174 3.814.332a368 368 0 0 1-2.658 3.224 325 325 0 0 1-3.746-.22m-2.722 3.427a382 382 0 0 0 2.592-3.264q1.865.122 3.74.223a373 373 0 0 1-2.659 3.139c-1.226-.03-2.456-.051-3.673-.098m-2.738 3.358a392 392 0 0 0 2.602-3.187c1.215.046 2.442.067 3.665.096a322 322 0 0 1-2.69 3.1c-1.198.011-2.388 0-3.577-.009m-2.775 3.322a336 336 0 0 0 2.631-3.146c1.186.011 2.372.02 3.567.01a341 341 0 0 1-2.667 2.995c-1.179.052-2.362.113-3.531.141m-2.768 3.231q1.3-1.496 2.615-3.049c1.164-.028 2.341-.084 3.514-.135a304 304 0 0 1-2.701 2.952c-1.149.092-2.29.165-3.428.232m-2.785 3.162q1.301-1.455 2.617-2.969 1.7-.097 3.416-.232-1.347 1.45-2.68 2.843c-1.124.136-2.24.251-3.353.358m-2.799 3.088q1.303-1.415 2.621-2.889c1.106-.105 2.215-.216 3.331-.349q-1.343 1.402-2.672 2.748-1.647.268-3.28.49m-2.81 3.006q1.302-1.37 2.619-2.799 1.62-.218 3.254-.479-1.347 1.361-2.68 2.665c-1.07.222-2.133.423-3.193.613m-2.81 2.908c.86-.874 1.727-1.773 2.598-2.687 1.049-.186 2.102-.381 3.161-.598-.886.864-1.769 1.713-2.645 2.538a109 109 0 0 1-3.114.747m-2.834 2.831a219 219 0 0 0 2.603-2.597q1.529-.34 3.074-.728-1.338 1.257-2.66 2.456-1.516.46-3.017.869m-2.826 2.718c.849-.8 1.704-1.624 2.564-2.463q1.48-.402 2.978-.855a186 186 0 0 1-2.617 2.318q-1.47.528-2.925 1m-2.803 2.591c.832-.753 1.67-1.529 2.511-2.32a99 99 0 0 0 2.86-.966q-1.294 1.118-2.571 2.179-1.408.58-2.8 1.107m-2.789 2.467a172 172 0 0 0 2.425-2.143 100 100 0 0 0 2.699-1.053 149 149 0 0 1-2.458 1.985q-1.34.633-2.666 1.211m-2.759 2.334a153 153 0 0 0 2.322-1.962q1.245-.534 2.501-1.115-1.204.94-2.394 1.832c-.815.433-1.623.844-2.429 1.245m-2.653 2.139a137 137 0 0 0 2.043-1.645 103 103 0 0 0 2.187-1.111q-1.055.776-2.099 1.512c-.713.425-1.426.846-2.131 1.244m-2.056 1.581c.408-.307.819-.629 1.23-.946q.652-.357 1.309-.729c-.853.581-1.698 1.135-2.539 1.675M461.935 20.761a2815 2815 0 0 1-3.354-14.265 85 85 0 0 1 4.712 5.74q.88 3.336 1.759 6.694.898 3.421 1.801 6.85a78 78 0 0 0-4.918-5.019m3.724 15.173a1043 1043 0 0 1-3.652-14.87 79 79 0 0 1 4.943 5.084c1.256 4.76 2.523 9.52 3.815 14.237a76 76 0 0 0-5.106-4.451m4.205 15.709a595 595 0 0 1-4.134-15.432 76 76 0 0 1 5.124 4.496 710 710 0 0 0 4.239 14.876 82 82 0 0 0-2.445-1.93 74 74 0 0 0-2.784-2.01m4.987 16.252c-1.722-5.147-3.352-10.499-4.913-15.99a74 74 0 0 1 5.244 3.975c1.586 5.316 3.227 10.513 4.944 15.528a83 83 0 0 0-5.275-3.513m6.387 16.972c-2.241-5.236-4.331-10.84-6.301-16.714a83 83 0 0 1 5.287 3.54c1.957 5.702 4.012 11.168 6.196 16.3a93 93 0 0 0-5.182-3.126m9.646 18.451c-3.478-5.307-6.633-11.439-9.535-18.187a94 94 0 0 1 5.196 3.15c2.801 6.55 5.814 12.553 9.105 17.81a114 114 0 0 0-4.766-2.773m22.783 19.754q1.327.428 2.7.736a69 69 0 0 0 2.309 2.935 30 30 0 0 1-2.628-1.045 55 55 0 0 1-2.381-2.626m-2.908-1.099q1.276.553 2.595.994a57 57 0 0 0 2.269 2.532q-1.276-.6-2.511-1.317a47 47 0 0 1-2.353-2.209m-2.619-1.28q1.08.59 2.193 1.094c.655.67 1.32 1.308 1.994 1.922a35 35 0 0 1-1.728-1.132 39 39 0 0 1-2.459-1.884M34.185 168.354l-.093-.362.038.085.11.389zm.35 1.357-.139-.535.105.213.155.547zm.35 1.359-.173-.671.158.293.191.668zm.353 1.354-.2-.767.205.339.218.763zm.352 1.349-.22-.841.245.363.239.831zm.356 1.352-.24-.908.284.379.257.888zm.353 1.341-.25-.951q.157.188.316.375l.27.931zm.358 1.342-.265-.992.348.362.283.965q-.185-.167-.366-.335m.355 1.332-.273-1.022.378.345.293.997zm.361 1.344-.286-1.062.408.328.307 1.031zm.361 1.337-.291-1.08.437.303q.154.521.31 1.039zm.363 1.332-.3-1.099.463.268.32 1.06zm.364 1.329-.305-1.114.49.233.323 1.074zm.365 1.326-.31-1.127.514.195.33 1.085zm155.833 37.007a542 542 0 0 0 2.508-3.531 884 884 0 0 0 3.965.544 462 462 0 0 1-2.575 3.445 526 526 0 0 1-3.898-.458m-2.632 3.646a480 480 0 0 0 2.518-3.486q1.94.234 3.892.458a530 530 0 0 1-2.584 3.393 460 460 0 0 1-3.826-.365m-2.644 3.594a449 449 0 0 0 2.526-3.433q1.904.19 3.819.365a439 439 0 0 1-2.595 3.339 323 323 0 0 1-3.75-.271m-2.642 3.521a452 452 0 0 0 2.52-3.358q1.864.146 3.742.272a404 404 0 0 1-2.597 3.272c-1.229-.047-2.445-.121-3.665-.186m-2.678 3.49a385 385 0 0 0 2.549-3.323c1.218.065 2.429.141 3.655.19a393 393 0 0 1-2.604 3.191q-1.807-.013-3.6-.058m-2.69 3.416a378 378 0 0 0 2.557-3.243q1.787.046 3.588.062a336 336 0 0 1-2.635 3.148c-1.177.027-2.343.028-3.51.033m-2.715 3.365a344 344 0 0 0 2.571-3.183c1.164-.004 2.328-.007 3.502-.033a316 316 0 0 1-2.63 3.062c-1.153.067-2.299.113-3.443.154m-2.727 3.297a329 329 0 0 0 2.576-3.11c1.139-.04 2.279-.083 3.427-.148a287 287 0 0 1-2.627 2.977q-1.696.162-3.376.281m-2.736 3.219q1.28-1.485 2.576-3.028a140 140 0 0 0 3.358-.273q-1.325 1.48-2.634 2.899-1.657.224-3.3.402m-2.748 3.141q1.28-1.442 2.577-2.943 1.632-.173 3.28-.393-1.327 1.439-2.64 2.816-1.617.285-3.217.52m-2.754 3.052q1.275-1.392 2.567-2.843a110 110 0 0 0 3.193-.508q-1.318 1.382-2.619 2.702-1.58.35-3.141.649m-2.781 2.981q1.281-1.35 2.579-2.762 1.548-.292 3.112-.635c-.883.893-1.761 1.769-2.632 2.62q-1.538.416-3.059.777m-2.765 2.861a217 217 0 0 0 2.547-2.633q1.504-.353 3.024-.76a203 203 0 0 1-2.602 2.492q-1.494.48-2.969.901m-2.777 2.766q1.257-1.227 2.531-2.519a96 96 0 0 0 2.924-.877q-1.303 1.22-2.589 2.378-1.441.538-2.866 1.018m-2.753 2.634a182 182 0 0 0 2.464-2.354q1.396-.467 2.808-.989a164 164 0 0 1-2.513 2.208 94 94 0 0 1-2.759 1.135m-2.779 2.545c.807-.722 1.621-1.468 2.438-2.229a96 96 0 0 0 2.664-1.08 154 154 0 0 1-2.493 2.084q-1.313.64-2.609 1.225m-2.693 2.355c.756-.645 1.518-1.312 2.283-1.993a92 92 0 0 0 2.48-1.15q-1.174.95-2.333 1.846-1.222.675-2.43 1.297m-2.572 2.144c.673-.546 1.351-1.114 2.031-1.689a95 95 0 0 0 2.155-1.123q-1.048.797-2.085 1.551-1.056.652-2.101 1.261m-2.065 1.649c.412-.321.828-.659 1.243-.993.43-.244.859-.484 1.292-.739a100 100 0 0 1-2.535 1.732m47.856-53.538a551 551 0 0 1-2.522 3.49 439 439 0 0 1-20.3-2.526c-47-6.961-87.649-20.674-118.121-33.82 31.355 10.945 73.325 22.851 121.317 30.172a638 638 0 0 0 19.626 2.684m2.624-3.693a532 532 0 0 1-2.51 3.533 640 640 0 0 1-19.714-2.694c-47.258-7.209-88.673-18.861-119.854-29.66 31.953 8.579 74.505 18.393 122.546 25.931a1119 1119 0 0 0 19.532 2.89m259.71-202.872c-1.089-4.97-2.148-9.97-3.19-14.96a65 65 0 0 1 4.836 4.808c1.109 4.76 2.226 9.542 3.363 14.312a62 62 0 0 0-5.009-4.16m3.591 15.718a823 823 0 0 1-3.535-15.461 62 62 0 0 1 5.025 4.206c1.192 4.997 2.406 9.98 3.657 14.904a60 60 0 0 0-5.147-3.65m4.131 16.158a514 514 0 0 1-4.073-15.916 60 60 0 0 1 2.359 1.581 65 65 0 0 1 2.8 2.103 598 598 0 0 0 4.135 15.455 67 67 0 0 0-5.221-3.223m5 16.62c-1.744-5.257-3.383-10.74-4.937-16.39a67 67 0 0 1 5.232 3.254c1.56 5.498 3.189 10.857 4.91 16.011a74 74 0 0 0-5.205-2.876m6.538 17.266c-2.316-5.31-4.459-11.02-6.46-17.033a73 73 0 0 1 5.21 2.893c1.966 5.872 4.05 11.477 6.285 16.718a84 84 0 0 0-5.035-2.578m10.162 18.706c-3.698-5.32-7.025-11.548-10.055-18.463a84 84 0 0 1 5.04 2.6c2.881 6.725 6.013 12.845 9.464 18.155a102 102 0 0 0-4.449-2.292m28.937 19.627c.594.055 1.196.09 1.803.115a112 112 0 0 0 2.238 3.457 225 225 0 0 0-4.041-3.572m-.906-.103q.3.037.6.071a222 222 0 0 1 4.118 3.631 31 31 0 0 1-2.403-.428 85 85 0 0 1-2.315-3.274m-3.042-.513q1.386.303 2.818.487a85 85 0 0 0 2.28 3.237 31 31 0 0 1-2.755-.773 68 68 0 0 1-2.343-2.951m-3.048-.819q1.375.446 2.797.767a68 68 0 0 0 2.286 2.899 31 31 0 0 1-2.713-1.072 54 54 0 0 1-2.37-2.594m-2.978-1.133q1.306.569 2.657 1.023a56 56 0 0 0 2.26 2.506 34 34 0 0 1-2.57-1.347 47 47 0 0 1-2.347-2.182m-2.664-1.304q1.094.594 2.221 1.105a48 48 0 0 0 2.019 1.928 37 37 0 0 1-2.273-1.514 39 39 0 0 1-1.967-1.519m-1.532-1.084a38 38 0 0 1-2.73-1.836c-4.332-3.2-8.253-7.443-11.827-12.533 1.505.732 2.985 1.506 4.446 2.308 3.098 4.72 6.452 8.792 10.111 12.061m3.425 1.853a34 34 0 0 1-2.571-1.339c-3.868-3.304-7.399-7.495-10.649-12.405 1.618.893 3.208 1.829 4.776 2.797 2.627 4.157 5.431 7.84 8.444 10.947m3.204 1.297a33 33 0 0 1-2.779-1.106c-3.048-3.091-5.883-6.772-8.539-10.936a126 126 0 0 1 5.067 3.326c1.986 3.189 4.064 6.112 6.251 8.716m3.185.926a32 32 0 0 1-2.863-.814c-2.173-2.561-4.238-5.435-6.213-8.575a145 145 0 0 1 5.36 3.923 86 86 0 0 0 3.716 5.466m3.099.563a33 33 0 0 1-2.845-.506 85 85 0 0 1-3.581-5.224 175 175 0 0 1 5.646 4.544q.389.6.78 1.186m.714.083-.489-.057a83 83 0 0 1-.543-.82q.517.438 1.032.877m2.237.174a34 34 0 0 1-1.926-.137q-.835-.718-1.679-1.427c-3.174-4.912-6.164-10.481-9.032-16.503a190 190 0 0 1 5.739 5.673c2.237 4.408 4.528 8.569 6.898 12.394m2.668.019c-.833.026-1.652.018-2.463-.013-2.298-3.702-4.523-7.723-6.696-11.98a256 256 0 0 1 5.935 6.374 200 200 0 0 0 3.224 5.619M280.122 227.083q1.038.138 2.077.274a756 756 0 0 1-4.038-.221q.98-.024 1.961-.053m-4.243-.559q1.58.21 3.161.417-1.517.04-3.031.071-1.534-.09-3.067-.187 1.467-.145 2.937-.301m-4.231-.565q1.75.236 3.5.468-1.641.172-3.279.329a768 768 0 0 1-3.426-.224 318 318 0 0 0 3.205-.573m-4.239-.572 3.687.498q-1.694.308-3.383.598-1.838-.127-3.673-.259c1.122-.276 2.242-.543 3.369-.837m-4.277-.58 3.84.521c-1.17.304-2.329.57-3.494.855q-1.83-.133-3.655-.274c1.1-.355 2.204-.729 3.309-1.102m-4.216-.582q1.91.265 3.826.528c-1.123.378-2.249.763-3.367 1.122a897 897 0 0 1-3.737-.296c1.087-.431 2.185-.901 3.278-1.354m-4.174-.577c1.275.178 2.557.353 3.835.53-1.116.461-2.234.93-3.344 1.368q-1.911-.157-3.818-.32c1.107-.521 2.212-1.03 3.327-1.578m-4.229-.594c1.306.183 2.608.368 3.916.551-1.127.552-2.244 1.067-3.363 1.592q-1.915-.166-3.826-.337c1.088-.593 2.177-1.185 3.273-1.806m-4.246-.6q1.98.281 3.966.56c-1.107.626-2.207 1.222-3.305 1.818q-1.927-.175-3.85-.355 1.59-.994 3.189-2.023m-4.218-.601q1.974.283 3.954.564a297 297 0 0 1-3.216 2.033 950 950 0 0 1-3.89-.376 256 256 0 0 0 3.152-2.221m-4.225-.608 3.978.572a242 242 0 0 1-3.172 2.231q-1.954-.193-3.901-.393a252 252 0 0 0 3.095-2.41m-4.233-.612 4 .578a243 243 0 0 1-3.111 2.418 941 941 0 0 1-3.917-.41 312 312 0 0 0 3.028-2.586m-4.228-.621c1.335.196 2.667.393 4.006.588a288 288 0 0 1-3.042 2.593q-1.965-.21-3.923-.427 1.474-1.356 2.959-2.754m-4.22-.619c1.33.197 2.671.392 4.005.588q-1.491 1.402-2.97 2.76-1.973-.22-3.937-.445c.963-.952 1.93-1.916 2.902-2.903m-4.236-.633c1.343.201 2.68.403 4.028.602q-1.46 1.48-2.908 2.909-1.981-.228-3.953-.462 1.41-1.501 2.833-3.049m-4.22-.63c1.335.201 2.68.4 4.02.601a364 364 0 0 1-2.84 3.053q-1.98-.236-3.953-.479c.92-1.042 1.843-2.096 2.773-3.175m-4.237-.641c1.347.204 2.691.409 4.043.612a354 354 0 0 1-2.777 3.18 930 930 0 0 1-3.96-.496 472 472 0 0 0 2.694-3.296m-4.229-.643q2.016.308 4.04.614a473 473 0 0 1-2.7 3.3q-1.99-.252-3.971-.513 1.309-1.675 2.631-3.401m-4.223-.647 4.039.619a472 472 0 0 1-2.635 3.405q-1.99-.261-3.971-.528c.852-1.15 1.706-2.31 2.567-3.496m-4.232-.654 4.052.626a454 454 0 0 1-2.57 3.5q-1.991-.269-3.972-.544a554 554 0 0 0 2.49-3.582m-143.43-24.896c36.867 7.12 87.316 16.195 143.252 24.868a598 598 0 0 1-2.49 3.585 1129 1129 0 0 1-19.616-2.902c-47.357-7.43-89.365-17.067-121.147-25.551m-3.898-.755.162.032c30.571 13.251 71.515 27.141 118.917 34.161a438 438 0 0 0 20.208 2.516 502 502 0 0 1-2.531 3.437 328 328 0 0 1-21.035-2.332c-46.426-6.664-86.05-22.363-115.72-37.814m-.843-.164.258.05c29.741 15.544 69.57 31.393 116.282 38.099a329 329 0 0 0 20.937 2.324 392 392 0 0 1-2.524 3.362c-55.382-2.974-101.636-23.34-134.953-43.835m-.83-.162.346.067c33.34 20.576 79.727 41.089 135.309 44.098a425 425 0 0 1-2.551 3.327c-55.254-1.47-100.543-24.204-133.104-47.492m-.808-.157.394.076c32.577 23.372 77.969 46.24 133.381 47.745a361 361 0 0 1-2.562 3.252c-55.125.152-99.425-24.949-131.213-51.073m-.787-.154.432.084c31.8 26.206 76.174 51.438 131.425 51.325a348 348 0 0 1-2.577 3.188c-55.005 1.897-98.283-25.591-129.28-54.597m-.792-.154.474.092c31.01 29.077 74.345 56.692 129.447 54.846a318 318 0 0 1-2.584 3.117c-50.785 3.501-90.733-21.831-120.337-50.916a275 275 0 0 1-7-7.139m-.776-.153.486.096c2.319 2.455 4.708 4.9 7.17 7.318 29.604 29.086 69.539 54.423 120.297 50.986a314 314 0 0 1-2.587 3.037c-41.311 4.387-74.867-12.916-101.468-36.639-8.7-7.758-16.656-16.202-23.897-24.798m-.768-.151.5.098c7.282 8.657 15.29 17.166 24.051 24.979 26.597 23.719 60.135 41.029 101.412 36.709a275 275 0 0 1-2.593 2.956c-34.997 5.108-63.994-7.288-87.817-26.793-13.448-11.01-25.248-24.284-35.553-37.949m-.768-.151.515.101c10.339 13.729 22.187 27.071 35.697 38.133 23.814 19.497 52.786 31.906 87.739 26.869q-1.299 1.458-2.583 2.855c-30.58 5.767-56.238-3.358-77.757-19.683-16.978-12.878-31.385-30.232-43.61-48.275m-.764-.151.524.103c12.255 18.108 26.706 35.533 43.747 48.46 21.505 16.313 47.131 25.453 77.66 19.764q-1.305 1.419-2.594 2.773c-27.387 6.41-50.537-.403-70.199-14.328-19.593-13.876-35.727-34.814-49.138-56.772m-.76-.149.531.104c13.438 22.023 29.612 43.036 49.268 56.957 19.64 13.91 42.754 20.736 70.08 14.416q-1.296 1.359-2.575 2.655c-25.033 7.071-46.282 2.006-64.458-10.088-21.524-14.323-38.746-38.499-52.846-64.044m-.76-.15.54.106c14.124 25.612 31.383 49.866 52.971 64.231 18.147 12.075 39.349 17.158 64.309 10.192q-1.298 1.31-2.576 2.554c-23.265 7.758-43.043 4.067-60.023-6.606-22.94-14.421-40.782-41.584-55.22-70.477m-.76-.15.547.108c14.46 28.96 32.338 56.203 55.342 70.664 16.943 10.65 36.663 14.362 59.838 6.729q-1.274 1.235-2.53 2.407c-21.939 8.512-40.581 5.966-56.6-3.591-23.962-14.296-42.072-44.258-56.597-76.317m-.757-.15.55.11c14.545 32.126 32.689 62.17 56.715 76.504 15.967 9.526 34.527 12.11 56.349 3.758q-1.261 1.17-2.506 2.277c-20.926 9.308-38.668 7.741-53.902-.92-24.674-14.028-42.782-46.646-57.206-81.729m-.758-.151.556.111c14.442 35.151 32.583 67.853 57.323 81.918 15.165 8.622 32.808 10.231 53.587 1.125q-1.221 1.079-2.426 2.098c-20.177 10.196-37.219 9.51-51.813 1.575-25.146-13.671-43.047-48.832-57.227-86.827m-.757-.15.558.111c14.198 38.063 32.13 73.308 57.344 87.017 14.493 7.88 31.389 8.635 51.357-1.273q-1.165.975-2.316 1.895c-19.614 11.148-36.099 11.273-50.16 3.939-25.425-13.261-42.955-50.874-56.783-91.689m-.755-.15.561.111c13.844 40.885 31.403 78.582 56.897 91.88 13.895 7.247 30.143 7.248 49.426-3.44a118 118 0 0 1-2.057 1.578c-19.203 12.175-35.246 13.073-48.86 6.242-25.548-12.819-42.578-52.811-55.967-96.371m-.755-.151.564.113c13.405 43.629 30.462 83.707 56.08 96.562 13.282 6.664 28.861 5.999 47.415-5.264-19.529 14.185-35.653 16.061-49.204 9.505C68.55 275.851 52.124 233.54 39.24 187.296m.514-.05-.56-.112-.317-1.142.54.155zm.747.148-.556-.11-.33-1.08.535.152zm.745.148-.551-.109-.343-1.02.532.151zm.748.149-.55-.109-.355-.96.527.15zm.745.148-.542-.108-.37-.899.526.149zm.745.147-.538-.106-.377-.837.517.145zm.743.146-.53-.104-.388-.778.51.144zm.74.146-.52-.102-.395-.717.505.141zm.74.145-.51-.1q-.2-.327-.398-.655l.493.138zm.738.146-.5-.098-.398-.593.48.133q.207.279.418.558m.734.144-.481-.095-.401-.532.465.128zm.73.144-.461-.091-.395-.471.442.123q.208.219.414.439m.736.144-.445-.087-.385-.408.43.119zm.716.14-.398-.078-.361-.339.385.105zm.691.134-.336-.065-.324-.27.31.085zm.69.135-.276-.054-.28-.199.26.071zm.644.125-.16-.031-.184-.112.146.04zm182.144 30.924-4.015-.589c24.666-23.234 51.985-56.361 82.307-101.86C383.108 11.04 425.114-4.512 454.352 14.944a53 53 0 0 1 2.192 1.544 820 820 0 0 0 3.537 15.484c-30.545-19.205-73.692-6.015-144.914 94.4-29.896 42.149-57.011 72.737-81.637 94.087m4.236.612q-2.01-.288-4.013-.58c24.608-21.357 51.698-51.925 81.554-94.019 71.264-100.473 114.355-113.55 144.831-94.258a516 516 0 0 0 4.074 15.936c-31.698-17.419-75.676-5.302-145.557 86.68-29.431 38.739-56.318 66.768-80.889 86.241m4.226.609-3.994-.575c24.549-19.48 51.406-47.489 80.794-86.171 69.913-92.025 113.844-104.045 145.483-86.553 1.551 5.65 3.188 11.138 4.931 16.4-32.919-16.298-77.9-5.842-147.063 78.507-28.969 35.33-55.632 60.795-80.151 78.392m4.221.601-3.974-.566c24.492-17.604 51.116-43.047 80.038-78.318C391.47 59.01 436.413 48.645 469.282 65.01c1.997 6.01 4.133 11.719 6.442 17.03-34.309-16.008-80.663-8.03-150.092 69.705-28.511 31.923-54.948 54.817-79.419 70.536m4.249.6-3.984-.562c24.435-15.726 50.827-38.6 79.283-70.46 69.472-77.783 115.799-85.66 150.07-69.575 3.01 6.892 6.315 13.106 9.985 18.43-36.12-17.294-84.777-13.602-156.694 59.488-28.04 28.496-54.247 48.838-78.66 62.679M520 115.108c-1.238-1.981-2.483-3.99-3.738-6.015-2.361-3.809-4.759-7.678-7.212-11.537l-.09-.166c-3.672-6.777-7.415-13.689-11.319-20.422-3.339-6.937-6.753-13.86-10.322-20.5-3.061-7.025-6.204-13.924-9.499-20.455-2.836-7.097-5.759-13.976-8.837-20.411-1.997-5.403-4.047-10.634-6.18-15.602h-.186c1.917 4.461 3.767 9.137 5.571 13.958a186 186 0 0 0-3.692-7.18A543 543 0 0 0 462.302 0h-.181q.982 2.968 1.948 6a137 137 0 0 0-3.499-6h-.2a139 139 0 0 1 3.967 6.845c1.226 3.87 2.435 7.81 3.635 11.791a114 114 0 0 0-4.521-6.476A1617 1617 0 0 0 460.205 0h-.178c1.057 3.889 2.105 7.83 3.152 11.801a85 85 0 0 0-4.677-5.646l-.376-1.612L457.067 0h-.177l1.068 4.583.306 1.312a64 64 0 0 0-4.814-4.747L453.211 0h-.176l.2.961a54 54 0 0 0-1.13-.96h-.269q.735.601 1.457 1.238c1.043 5.001 2.104 10.01 3.194 14.992a53 53 0 0 0-2.04-1.43c-29.32-19.51-71.408-3.967-142.769 103.114-30.357 45.553-57.699 78.697-82.378 101.923-1.338-.196-2.681-.391-4.014-.588 24.72-25.109 52.27-60.809 83.05-109.702 38.717-61.5 68.495-94.935 92.12-109.548h-.314c-23.622 14.71-53.356 48.152-91.951 109.456-30.813 48.946-58.383 84.662-83.113 109.763-1.352-.2-2.692-.402-4.039-.603 24.781-26.984 52.561-65.227 83.812-117.529C334.076 52.174 358.05 19.827 378.025 0h-.233c-19.972 19.853-43.923 52.185-73.089 100.998-31.28 52.352-59.076 90.611-83.863 117.588-1.344-.2-2.691-.4-4.03-.601 24.836-28.859 52.846-69.67 84.555-125.36C324.806 51.456 344.776 21.285 361.942 0h-.209c-17.162 21.292-37.114 51.437-60.517 92.54-31.736 55.738-59.76 96.564-84.599 125.416l-4.049-.613c24.896-30.734 53.136-74.088 85.311-133.18C317.075 48.912 333.884 21.25 348.686 0h-.202c-14.796 21.244-31.59 48.883-50.756 84.081-32.202 59.139-60.453 102.507-85.349 133.234l-4.046-.615c24.952-32.609 53.422-78.515 86.06-140.998C310.227 45.391 324.4 20.38 337.131 0h-.196c-12.724 20.37-26.883 45.355-42.694 75.623-32.662 62.528-61.141 108.448-86.093 141.049l-4.045-.62c25.009-34.482 53.708-82.948 86.804-148.811C303.962 41.26 315.862 18.98 326.738 0h-.193c-10.869 18.967-22.756 41.223-35.791 67.164-33.118 65.906-61.825 114.386-86.831 148.86l-4.055-.627c25.066-36.355 53.995-87.367 87.553-156.617C298.106 36.732 308.004 17.21 317.187 0h-.192c-9.175 17.193-19.061 36.692-29.728 58.705-33.58 69.294-62.515 120.318-87.578 156.665-57.022-8.837-108.368-18.095-145.409-25.271l-1.533-.415c-.476-.166-.955-.333-1.425-.499q-.723-.315-1.435-.631c-.43-.228-.852-.455-1.277-.683q-.693-.435-1.38-.872c-.405-.298-.822-.597-1.223-.896q-.719-.614-1.43-1.229c-.393-.384-.775-.769-1.165-1.153q-.554-.615-1.102-1.23-.561-.705-1.116-1.408-.558-.786-1.108-1.572-.519-.817-1.03-1.635-.516-.909-1.026-1.819-.48-.94-.955-1.882-.474-1.03-.942-2.063-.444-1.073-.884-2.144l-.846-2.275-.809-2.402-.756-2.482q-.368-1.327-.731-2.653c-2.169-8.656-4.253-17.274-6.288-25.69C17.23 98.939 9.511 67.023 0 51.082v.33c9.426 15.99 17.107 47.755 25.652 83.094a4540 4540 0 0 0 4.425 18.192c-1.76-6.531-3.47-13.005-5.142-19.34C16.402 101.025 8.809 72.266 0 57.457v.334c8.73 14.85 16.283 43.462 24.769 75.611a3276 3276 0 0 0 6.001 22.515c-2.361-7.946-4.625-15.81-6.82-23.437C15.54 103.26 8.13 77.51 0 63.825v.337c8.056 13.719 15.427 39.326 23.784 68.365 2.477 8.604 5.04 17.509 7.733 26.495-3.035-9.258-5.905-18.409-8.658-27.188C14.648 105.642 7.473 82.758 0 70.187v.338c7.406 12.596 14.539 35.345 22.695 61.36 3.04 9.696 6.223 19.845 9.614 30.091-3.786-10.452-7.311-20.777-10.648-30.553C13.72 108.168 6.838 88.007 0 76.543v.335c6.776 11.483 13.616 31.516 21.497 54.6 3.58 10.487 7.376 21.604 11.478 32.835l.027.107c-4.564-11.408-8.749-22.664-12.654-33.171C12.759 110.833 6.223 93.252 0 82.888v.333c6.167 10.375 12.659 27.836 20.188 48.088 4.043 10.875 8.385 22.554 13.137 34.373l.092.362c-5.301-12.016-10.094-23.851-14.497-34.725C11.759 113.635 5.626 98.49 0 89.219v.33c5.575 9.274 11.663 24.307 18.76 41.834 4.518 11.158 9.446 23.327 14.913 35.665l.136.536c-6.103-12.529-11.539-24.841-16.442-35.948C10.717 116.57 5.043 103.718 0 95.533v.327c4.997 8.182 10.624 20.927 17.21 35.845 5.002 11.333 10.558 23.919 16.813 36.711l.173.671c-6.988-12.963-13.109-25.667-18.513-36.883C9.627 119.634 4.471 108.932 0 101.824v.324c4.43 7.095 9.538 17.698 15.529 30.131 5.488 11.392 11.718 24.32 18.844 37.496l.198.769c-7.965-13.316-14.817-26.325-20.71-37.512-5.378-10.21-9.958-18.904-13.86-24.941v.317c3.864 6.018 8.396 14.621 13.707 24.704 5.97 11.332 12.92 24.53 21.018 38.026l.22.848c-9.059-13.602-16.697-26.837-23.06-37.862C7.274 126.132 3.331 119.3 0 114.326v.309c3.296 4.949 7.191 11.697 11.737 19.574 6.429 11.141 14.16 24.535 23.342 38.286l.237.912c-10.294-13.823-18.778-27.206-25.57-37.919-3.76-5.932-7.002-11.046-9.746-14.965v.299c2.711 3.888 5.906 8.927 9.601 14.757 6.85 10.804 15.42 24.323 25.831 38.27l.255.966c-11.712-13.99-21.116-27.452-28.265-37.686-2.824-4.043-5.297-7.583-7.422-10.454v.288c2.092 2.835 4.518 6.308 7.282 10.264 7.198 10.306 16.683 23.883 28.507 37.978l.263.999a338 338 0 0 1-4.545-4.89c-11.21-12.309-20.098-23.817-26.62-32.26A675 675 0 0 0 0 132.774v.276a696 696 0 0 1 4.751 6.109c6.524 8.447 15.415 19.959 26.629 32.271a344 344 0 0 0 4.764 5.123l.277 1.041c-15.41-14.26-26.942-27.722-34.32-36.333Q.986 139.96 0 138.813v.263q.93 1.082 1.97 2.296c7.413 8.652 19.019 22.197 34.534 36.532l.281 1.054C19.56 165.124 7.088 152.225 0 144.784v.249c7.138 7.49 19.633 20.389 36.86 34.207l.294 1.092C19.669 168.305 7.011 157.188 0 150.679v.235c7.06 6.547 19.739 17.663 37.223 29.675l.3 1.11C19.798 171.434 6.957 162.054 0 156.494v.219c7.008 5.592 19.869 14.97 37.587 25.219l.305 1.123C19.948 174.508 6.928 166.82 0 162.221v.204c6.98 4.624 20.018 12.31 37.95 20.845l.312 1.137C20.116 177.529 6.922 171.484 0 167.856v.188c6.976 3.647 20.184 9.692 38.317 16.561l.315 1.147C20.298 180.493 6.937 176.043 0 173.395v.171c6.992 2.665 20.367 7.117 38.683 12.37l.323 1.161C20.5 183.407 6.973 180.501 0 178.835v.154c7.028 1.677 20.566 4.584 39.051 8.27 12.899 46.314 29.35 88.711 54.969 101.107 13.943 6.747 30.598 4.593 50.861-10.641a110 110 0 0 0 5.85-3.991q2.91-1.788 5.911-3.898a119 119 0 0 0 6.138-3.906 126 126 0 0 0 6.082-3.737 130 130 0 0 0 6.259-3.679 137 137 0 0 0 6.254-3.506 139 139 0 0 0 6.608-3.52 146 146 0 0 0 6.573-3.314 153 153 0 0 0 6.887-3.251 165 165 0 0 0 6.685-2.927c2.273-.859 4.57-1.789 6.884-2.779 2.41-.821 4.846-1.726 7.297-2.679a201 201 0 0 0 7.424-2.407q3.478-.92 7-1.974a232 232 0 0 0 7.7-1.814 260 260 0 0 0 7.503-1.391q3.96-.475 7.957-1.057 3.993-.26 8.018-.604a549 549 0 0 0 8.096-.107q4.166.247 8.349.455c62.482 8.125 126.64 14.521 182.984 16.428 18.508.626 36.173.768 52.659.329v-.172c-16.484.44-34.147.298-52.654-.329-55.72-1.886-119.081-8.162-180.904-16.155 23.334 1.109 47.022 1.303 70.638.287 44.227-1.903 86.206-1.123 123.525-.429 13.811.256 26.983.501 39.395.593v-.172c-12.411-.092-25.582-.336-39.392-.593-37.322-.694-79.305-1.474-123.535.43-24.338 1.047-48.754.809-72.778-.392l-3.134-.411c23.732-.722 48.009-3.061 72.444-7.487 63.923-11.579 120.935-9.603 166.396-7.2v-.172c-45.468-2.404-102.488-4.379-166.426 7.203-24.792 4.491-49.422 6.832-73.483 7.515q-1.754-.23-3.507-.462c23.898-2.587 48.524-7.489 73.544-15.346 67.508-21.199 125.023-19.083 169.872-14.079v-.173c-44.862-5.004-102.393-7.118-169.923 14.088-25.258 7.931-50.113 12.849-74.224 15.414l-3.679-.49c24.011-4.46 48.927-11.932 74.477-23.224C418.041 171.089 475.89 174.095 520 182.3v-.175c-44.13-8.206-102-11.206-173.419 20.358-25.721 11.368-50.801 18.86-74.96 23.306q-1.904-.256-3.806-.514c24.106-6.335 49.294-16.367 75.357-31.099C418.784 151.439 476.76 156.272 520 168.347v-.179c-43.264-12.076-101.268-16.897-176.913 25.859-26.189 14.803-51.496 24.864-75.709 31.189l-3.894-.527c24.193-8.213 49.641-20.803 76.208-38.976C419.938 130.82 477.761 138.695 520 155.377v-.186c-42.27-16.682-100.127-24.535-180.405 30.38-26.676 18.247-52.22 30.86-76.5 39.065-1.297-.178-2.588-.358-3.882-.536 24.26-10.092 49.949-25.248 76.997-46.851 85.355-68.174 142.671-55.705 183.79-33.621v-.197c-41.155-22.082-98.51-34.515-183.897 33.684-27.135 21.673-52.902 36.854-77.229 46.938-1.292-.179-2.587-.355-3.876-.535 24.307-11.97 50.226-29.721 77.73-54.732 91.039-82.79 147.365-63.684 187.272-35.37v-.211c-39.948-28.315-96.321-47.362-187.388 35.453-27.576 25.077-53.558 42.855-77.918 54.818q-1.978-.277-3.952-.556c24.37-13.848 50.525-34.165 78.502-62.598 72.011-73.184 120.673-76.724 156.775-59.312 3.63 5.214 7.619 9.557 12.035 12.819a37 37 0 0 0 3.59 2.355 41 41 0 0 0 2.642 2.085 36 36 0 0 0 3.044 1.969 40 40 0 0 0 3.17 2.48 36 36 0 0 0 2.513 1.605 39 39 0 0 0 3.681 2.854 33 33 0 0 0 1.939 1.223q.677.597 1.367 1.153v-.218a40 40 0 0 1-.614-.509q.305.17.614.33v-.19q-.64-.338-1.269-.707a47 47 0 0 1-2.351-2.226q1.232.536 2.506.959.553.658 1.114 1.289v-.26q-.405-.457-.805-.929.4.129.805.245v-.179q-.512-.148-1.016-.316a69 69 0 0 1-2.363-2.978 31 31 0 0 0 2.482.428l.406.369q.245.357.491.71v-.496l-.365-.332-.141-.206q.252.03.506.056v-.171a27 27 0 0 1-.632-.071 110 110 0 0 1-2.302-3.547c.807.028 1.623.033 2.452.004q.24.403.482.802v-.332l-.289-.48.289-.013v-.169l-.387.016a195 195 0 0 1-2.904-5.038 354 354 0 0 1 3.291 3.725v-.262a349 349 0 0 0-3.664-4.135c-2.274-4.109-4.514-8.45-6.745-12.935a386 386 0 0 1 5.726 7.601 423 423 0 0 0 4.683 8.231v-.341a409 409 0 0 1-3.865-6.776 811 811 0 0 1 3.865 5.331v-.294a716 716 0 0 0-4.538-6.244 1058 1058 0 0 1-5.203-9.507c1.983 3.146 3.932 6.29 5.857 9.395q1.956 3.161 3.884 6.25z"/><defs><linearGradient id="a" x1="0" x2="420.5" y1="146" y2="146" gradientUnits="userSpaceOnUse"><stop/><stop offset="1" stop-color="#666" stop-opacity="0"/></linearGradient></defs></svg>