<svg xmlns="http://www.w3.org/2000/svg" width="28" height="28" fill="none" viewBox="0 0 28 28"><path fill="#fff" d="M24.5 0a3.06 3.06 0 0 1 3.063 3.063V24.5a3.063 3.063 0 0 1-3.063 3.063H3.063A3.063 3.063 0 0 1 0 24.5V3.063A3.063 3.063 0 0 1 3.063 0zm-.766 23.734V15.62a4.99 4.99 0 0 0-4.992-4.992c-1.301 0-2.817.796-3.552 1.99v-1.7h-4.272v12.817h4.272v-7.549c0-1.179.95-2.143 2.128-2.143a2.143 2.143 0 0 1 2.144 2.143v7.55zM5.941 8.514A2.57 2.57 0 0 0 8.514 5.94 2.58 2.58 0 0 0 5.94 3.353a2.59 2.59 0 0 0-2.588 2.588A2.58 2.58 0 0 0 5.94 8.514m2.129 15.22V10.918H3.828v12.816z"/></svg>