<svg xmlns="http://www.w3.org/2000/svg" width="57" height="25" fill="none" viewBox="0 0 57 25"><path fill="#000" d="M23.089 24.36q-1.793 0-3.147-.541-1.32-.576-2.063-1.861-.745-1.32-.745-3.587V2.95c0-.153.124-.276.276-.276h4.016c.152 0 .276.123.276.276v4.083c0 .152.123.276.276.276h3.677c.152 0 .276.124.276.276v3.271a.276.276 0 0 1-.276.276h-3.677a.276.276 0 0 0-.276.276v7.032q0 1.15.507 1.59.508.44 1.726.44h1.957c.152 0 .276.123.276.276v3.339a.276.276 0 0 1-.276.276zm29.634-5.6c.1-.113.267-.162.4-.091l2.855 1.514c.14.075.19.25.095.378-.838 1.137-4.108 4.69-9.428 3.723-3.329-.606-6.303-3.348-6.99-6.946a8.3 8.3 0 0 1-.035-3.205 8.707 8.707 0 0 1 10.15-7.025c4.627.842 7.722 5.188 7.053 9.812-.018.095-.022.181-.034.261-.015.107-.115.172-.223.172H44.438c-.178 0-.31.167-.254.336a4.06 4.06 0 0 0 3.163 2.733c2.584.47 4.72-.906 5.376-1.661m-8.45-5.259-.053.142a.276.276 0 0 0 .257.374l7.514.026c.184 0 .317-.176.25-.348-.6-1.571-2.052-2.75-3.694-2.89-1.788-.187-3.58.966-4.273 2.696"/><path fill="#000" d="M27.465 24.365a.276.276 0 0 1-.276-.276v-3.273c0-.068.025-.133.07-.184l8.103-9.036a.276.276 0 0 0-.205-.46h-7.68a.276.276 0 0 1-.277-.276V7.59c0-.153.124-.276.276-.276h13.275c.152 0 .276.123.276.276v3.44a.27.27 0 0 1-.073.186l-8.164 8.898a.276.276 0 0 0 .203.462h7.746c.153 0 .276.124.276.276v3.238a.276.276 0 0 1-.276.276zM2.61 24.36a.276.276 0 0 1-.276-.276V11.407a.276.276 0 0 0-.275-.276H.276A.276.276 0 0 1 0 10.855V7.584c0-.153.124-.276.276-.276h1.783a.276.276 0 0 0 .275-.276V5.785q0-2.13.711-3.383A4.2 4.2 0 0 1 5.075.575Q6.428 0 8.22 0h1.585c.153 0 .276.124.276.276v3.339a.276.276 0 0 1-.276.276h-.908q-1.05 0-1.522.44-.474.406-.474 1.42v1.281c0 .152.123.276.276.276h7.89c.153 0 .277.123.277.276v16.5a.276.276 0 0 1-.276.276h-4.016a.276.276 0 0 1-.276-.276V11.407a.276.276 0 0 0-.276-.276H7.178a.276.276 0 0 0-.276.276v12.677a.276.276 0 0 1-.276.276z"/></svg>