<svg xmlns="http://www.w3.org/2000/svg" width="27" height="26" fill="none" viewBox="0 0 27 26"><path fill="#fe572a" d="M13.307 0C5.957 0 0 5.627 0 12.567s5.958 12.568 13.307 12.568 13.306-5.627 13.306-12.568S20.656 0 13.307 0m9.404 13.46a13 13 0 0 1-.634 2.493 12 12 0 0 1-.28.71 5 5 0 0 1-.353.68c-.072.118-.152.23-.232.34a.5.5 0 0 1-.087.065q-.014.01-.027.014a.4.4 0 0 1-.185.04c-.664-.022-1.31.258-1.783.673-.475.416-.816 1.003-.842 1.63-.008.147-.069.23-.198.301q-.165.086-.341.162a4 4 0 0 1-.35.121q-.177.052-.356.094-.164.038-.334.053-.166.015-.337.018c-.512.011-1.02.007-1.533.007h-3.065c-.512 0-1.02.004-1.532-.007-.114 0-.224-.003-.338-.018a3.6 3.6 0 0 1-.69-.147 4 4 0 0 1-.35-.121 3 3 0 0 1-.341-.162s-.087-.06-.121-.1a.36.36 0 0 1-.076-.2c-.027-.628-.368-1.215-.842-1.63-.475-.416-1.12-.696-1.783-.674-.148.003-.243-.04-.327-.154a6 6 0 0 1-.208-.308 6 6 0 0 1-.353-.681 13 13 0 0 1-.759-2.365 12 12 0 0 1-.155-.838 7.4 7.4 0 0 1 .042-2.526 8 8 0 0 1 .227-.903q.137-.447.315-.878.096-.23.197-.455.105-.224.22-.444.118-.22.247-.433c.045-.072.087-.14.136-.212q.07-.102.145-.204a9.2 9.2 0 0 1 2.116-2.074 9.8 9.8 0 0 1 2.773-1.361q.725-.225 1.472-.338c.25-.039.501-.064.751-.086q.377-.027.759-.028.38 0 .759.028c.25.018.504.047.75.086q.755.113 1.473.337c.497.154.978.348 1.445.573q.696.344 1.328.789A9.2 9.2 0 0 1 21.17 7.4q.074.102.144.204l.136.212q.131.213.247.433a10 10 0 0 1 .417.9q.178.433.315.877c.091.298.17.599.227.903a7.3 7.3 0 0 1 .042 2.526z"/></svg>