<svg xmlns="http://www.w3.org/2000/svg" width="35" height="16" fill="none" viewBox="0 0 35 16"><path fill="#fe572a" d="M31.928 0a2.32 2.32 0 0 1 2.322 2.322v10.604a2.32 2.32 0 0 1-2.322 2.322H5.24l.578-3.297q.458.695 1.263 1.171.824.457 1.976.457 1.317 0 2.505-.658a6.05 6.05 0 0 0 2.032-1.866 6.8 6.8 0 0 0 1.115-2.726q.11-.585.11-1.116 0-1.225-.494-2.14a3.44 3.44 0 0 0-1.39-1.409q-.896-.494-2.05-.494-1.152 0-2.157.476-.989.476-1.647 1.17l.256-1.482H5.25L3.155 15.248h-.833A2.32 2.32 0 0 1 0 12.926V2.322A2.32 2.32 0 0 1 2.322 0zm-4.032 3.17q-1.719 0-3.127.823a6 6 0 0 0-2.196 2.232q-.787 1.409-.787 3.11 0 1.244.531 2.214a3.8 3.8 0 0 0 1.519 1.5q.969.53 2.25.53 1.72 0 3.128-.805a6.1 6.1 0 0 0 2.232-2.232q.823-1.408.823-3.11 0-1.262-.567-2.213a3.8 3.8 0 0 0-1.537-1.5q-.988-.55-2.268-.55m-5.715 0q-1.043 0-1.903.512-.841.512-1.463 1.426l.311-1.774H17.04l-1.774 10.08h2.085l.952-5.396q.292-1.482 1.024-2.086t1.939-.604h.53zm5.424 1.756q1.079 0 1.793.695.712.677.712 1.94 0 1.115-.494 2.103a4.2 4.2 0 0 1-1.372 1.573 3.3 3.3 0 0 1-1.902.586q-1.061 0-1.738-.678-.66-.676-.659-1.902 0-1.134.457-2.122.475-1.005 1.3-1.592a3.2 3.2 0 0 1 1.902-.603m-17.488.054q1.098 0 1.812.696.73.676.731 1.902 0 .403-.073.751a4.4 4.4 0 0 1-.75 1.83q-.568.785-1.354 1.206a3.35 3.35 0 0 1-1.573.403q-1.08 0-1.811-.713-.713-.714-.713-1.94 0-.402.073-.75.183-1.043.75-1.811a3.9 3.9 0 0 1 1.335-1.171 3.4 3.4 0 0 1 1.573-.403"/></svg>