<svg width="520" height="292" viewBox="0 0 520 292" fill="none" xmlns="http://www.w3.org/2000/svg">
<path d="M249.989 227.103C249.368 227.046 248.747 226.989 248.125 226.929C247.471 226.971 246.816 227.012 246.16 227.052C247.438 227.074 248.714 227.091 249.989 227.103ZM255.109 227.127C254.167 226.975 253.222 226.817 252.276 226.656C251.253 226.725 250.23 226.793 249.206 226.86C250.171 226.951 251.135 227.036 252.097 227.119C253.102 227.124 254.107 227.127 255.109 227.127ZM257.972 227.577C257.372 227.486 256.773 227.395 256.171 227.3C255.541 227.301 254.91 227.3 254.279 227.299C255.512 227.397 256.743 227.49 257.972 227.577ZM259.605 227.11C258.575 226.871 257.539 226.612 256.504 226.356C255.336 226.441 254.168 226.525 252.998 226.606C254.062 226.786 255.125 226.96 256.186 227.128M263.137 227.909C262.188 227.702 261.238 227.495 260.285 227.275C259.282 227.285 258.278 227.291 257.273 227.295C258.225 227.442 259.177 227.586 260.126 227.724C261.131 227.79 262.136 227.852 263.137 227.909ZM266.095 228.535C265.475 228.406 264.854 228.273 264.233 228.141C263.575 228.105 262.917 228.068 262.257 228.028C263.54 228.206 264.818 228.374 266.095 228.535ZM263.845 227.059C262.763 226.727 261.683 226.398 260.597 226.05C259.422 226.14 258.245 226.229 257.066 226.315C258.148 226.583 259.233 226.858 260.308 227.103C261.489 227.092 262.668 227.078 263.845 227.059ZM267.44 228.131C266.427 227.837 265.411 227.532 264.394 227.223C263.26 227.242 262.125 227.257 260.989 227.268C262.083 227.514 263.17 227.737 264.262 227.97C265.322 228.028 266.382 228.082 267.44 228.131ZM270.85 229.1C269.944 228.85 269.036 228.599 268.124 228.336C267.202 228.294 266.278 228.249 265.354 228.201C266.27 228.4 267.188 228.601 268.1 228.782C269.018 228.892 269.935 228.998 270.85 229.1ZM273.451 229.785C272.956 229.655 272.461 229.523 271.967 229.394C271.396 229.333 270.826 229.273 270.255 229.208C271.323 229.41 272.386 229.595 273.451 229.785ZM470.2 188.882C470.256 188.842 470.308 188.803 470.362 188.763L470.224 188.813C470.165 188.85 470.108 188.887 470.049 188.923L470.2 188.882ZM268.029 226.978C266.93 226.557 265.835 226.151 264.734 225.721C263.505 225.821 262.276 225.92 261.045 226.015C262.176 226.374 263.3 226.706 264.427 227.051C265.629 227.031 266.83 227.006 268.029 226.978ZM271.529 228.303C270.509 227.935 269.48 227.535 268.452 227.14C267.294 227.167 266.134 227.192 264.972 227.213C266.038 227.537 267.104 227.861 268.164 228.165C269.287 228.215 270.409 228.262 271.529 228.303ZM275.15 229.547C274.128 229.195 273.109 228.854 272.085 228.494C271.007 228.456 269.928 228.416 268.847 228.369C269.908 228.667 270.96 228.941 272.017 229.226C273.063 229.338 274.108 229.445 275.15 229.547ZM278.292 230.625C277.485 230.362 276.67 230.072 275.857 229.789C274.948 229.703 274.037 229.613 273.125 229.518C273.961 229.742 274.797 229.967 275.628 230.178C276.517 230.329 277.407 230.483 278.292 230.625ZM280.902 231.436C280.377 231.271 279.854 231.117 279.329 230.955C278.825 230.877 278.326 230.811 277.822 230.729C278.852 230.977 279.875 231.2 280.902 231.436ZM471.535 188.169L471.687 188.043L471.566 188.096L471.402 188.216L471.535 188.169ZM470.912 188.687L471.163 188.478L470.932 188.56L470.668 188.754L470.912 188.687ZM272.103 226.868C271.039 226.39 269.966 225.879 268.894 225.372C267.644 225.48 266.392 225.585 265.138 225.688C266.259 226.125 267.374 226.543 268.491 226.967C269.697 226.938 270.901 226.905 272.103 226.868ZM275.662 228.43C274.601 227.974 273.537 227.506 272.47 227.029C271.287 227.066 270.101 227.099 268.914 227.128C269.988 227.536 271.062 227.941 272.129 228.323C273.309 228.364 274.487 228.4 275.662 228.43ZM279.171 229.911C278.143 229.489 277.113 229.056 276.079 228.613C274.949 228.585 273.818 228.552 272.684 228.514C273.761 228.892 274.835 229.256 275.909 229.621C276.999 229.724 278.085 229.82 279.171 229.911ZM282.488 231.253C281.565 230.892 280.635 230.509 279.706 230.127C278.67 230.042 277.633 229.952 276.593 229.856C277.528 230.175 278.462 230.492 279.39 230.79C280.425 230.95 281.458 231.105 282.488 231.253ZM285.828 232.521C284.944 232.192 284.063 231.874 283.175 231.531C282.292 231.407 281.403 231.268 280.517 231.133C281.456 231.423 282.394 231.711 283.33 231.992C284.165 232.174 284.997 232.349 285.828 232.521ZM288.149 233.381C287.717 233.226 287.281 233.061 286.847 232.899C286.342 232.797 285.841 232.709 285.334 232.604C286.277 232.877 287.211 233.123 288.149 233.381ZM472.885 187.321C472.93 187.278 472.974 187.235 473.019 187.191C472.982 187.212 472.946 187.232 472.909 187.252C472.858 187.295 472.806 187.337 472.755 187.38L472.885 187.321ZM472.274 187.902C472.356 187.825 472.439 187.748 472.52 187.671C472.435 187.709 472.354 187.747 472.268 187.785L472.014 187.996L472.274 187.902ZM471.656 188.483L471.967 188.191C471.857 188.231 471.749 188.27 471.638 188.309L471.317 188.577L471.656 188.483ZM474.181 186.363L474.306 186.227C474.266 186.253 474.228 186.279 474.188 186.305L474.056 186.432L474.181 186.363ZM473.587 187.005L473.817 186.756L473.592 186.88C473.511 186.956 473.432 187.034 473.351 187.111L473.587 187.005ZM472.994 187.642C473.093 187.536 473.193 187.429 473.292 187.323L472.99 187.459C472.886 187.557 472.788 187.656 472.684 187.754L472.994 187.642ZM472.401 188.276C472.516 188.154 472.629 188.032 472.744 187.91L472.376 188.043L472.013 188.384L472.401 188.276ZM276.234 226.728C275.17 226.17 274.1 225.591 273.03 225.008C271.769 225.122 270.507 225.234 269.242 225.343C270.335 225.855 271.429 226.369 272.514 226.856C273.756 226.817 274.996 226.775 276.234 226.728ZM279.697 228.517C278.651 227.991 277.598 227.44 276.543 226.888C275.325 226.935 274.104 226.978 272.881 227.017C273.967 227.502 275.05 227.981 276.128 228.442C277.32 228.472 278.511 228.497 279.697 228.517ZM283.185 230.222C282.139 229.719 281.095 229.219 280.042 228.695C278.879 228.677 277.713 228.653 276.545 228.625C277.621 229.082 278.692 229.522 279.762 229.959C280.906 230.053 282.047 230.141 283.185 230.222ZM286.559 231.817C285.578 231.365 284.593 230.899 283.605 230.425C282.505 230.349 281.402 230.264 280.297 230.176C281.279 230.578 282.262 230.988 283.237 231.365C284.346 231.522 285.455 231.676 286.559 231.817ZM289.857 233.307C288.937 232.903 288.011 232.479 287.084 232.054C286.058 231.925 285.033 231.797 284.002 231.655C284.973 232.022 285.94 232.377 286.906 232.731C287.892 232.93 288.876 233.122 289.857 233.307ZM293.22 234.736C292.339 234.368 291.46 234.007 290.575 233.626C289.695 233.463 288.809 233.283 287.926 233.109C288.73 233.402 289.532 233.687 290.331 233.964C291.293 234.219 292.263 234.498 293.22 234.736ZM295.491 235.687C295.057 235.511 294.618 235.324 294.181 235.139C293.78 235.042 293.384 234.957 292.983 234.857C293.82 235.136 294.659 235.423 295.491 235.687ZM475.436 185.284L475.555 185.138L475.492 185.186L475.355 185.337L475.436 185.284ZM474.854 185.996L475.075 185.725C475.012 185.766 474.95 185.807 474.887 185.848L474.649 186.108L474.854 185.996ZM474.28 186.692C474.375 186.577 474.47 186.463 474.565 186.348L474.291 186.497C474.191 186.606 474.09 186.715 473.989 186.823L474.28 186.692ZM473.707 187.384C473.817 187.252 473.926 187.12 474.035 186.988L473.694 187.141C473.58 187.265 473.465 187.39 473.35 187.514L473.707 187.384ZM473.131 188.074C473.253 187.929 473.376 187.783 473.497 187.637L473.099 187.781L472.719 188.189L473.131 188.074ZM280.329 226.558C279.279 225.929 278.225 225.284 277.166 224.626C275.894 224.746 274.619 224.864 273.342 224.98C274.427 225.568 275.511 226.15 276.59 226.714C277.839 226.666 279.085 226.614 280.329 226.558ZM283.758 228.56C282.705 227.954 281.652 227.35 280.592 226.718C279.363 226.774 278.132 226.826 276.899 226.874C277.966 227.432 279.034 227.994 280.093 228.523C281.317 228.542 282.539 228.553 283.758 228.56ZM287.169 230.482C286.135 229.911 285.099 229.331 284.058 228.734C282.856 228.728 281.652 228.717 280.445 228.7C281.521 229.234 282.591 229.746 283.661 230.257C284.834 230.339 286.003 230.414 287.169 230.482ZM290.485 232.285C289.501 231.764 288.511 231.221 287.52 230.675C286.376 230.609 285.23 230.539 284.08 230.46C285.104 230.948 286.125 231.422 287.143 231.886C288.259 232.027 289.374 232.16 290.485 232.285ZM293.845 234.021C292.875 233.53 291.901 233.026 290.924 232.513C289.842 232.392 288.755 232.258 287.668 232.124C288.659 232.577 289.651 233.032 290.634 233.459C291.708 233.657 292.777 233.84 293.845 234.021ZM297.115 235.631C296.194 235.185 295.274 234.745 294.346 234.281C293.375 234.118 292.408 233.97 291.431 233.793C292.366 234.192 293.301 234.586 294.231 234.968C295.197 235.203 296.155 235.412 297.115 235.631ZM300.33 237.151C299.499 236.768 298.666 236.378 297.83 235.978C296.952 235.78 296.074 235.581 295.192 235.371C296.044 235.716 296.89 236.037 297.737 236.366C298.602 236.628 299.471 236.903 300.33 237.151ZM302.595 238.178C302.205 238.004 301.811 237.823 301.419 237.644C300.925 237.506 300.429 237.361 299.934 237.217C300.825 237.552 301.71 237.862 302.595 238.178ZM476.642 184.099L476.729 183.979L476.685 184.017L476.582 184.144L476.642 184.099ZM476.092 184.856L476.291 184.581L476.13 184.704L475.911 184.974L476.092 184.856ZM475.525 185.63C475.618 185.502 475.712 185.375 475.806 185.248L475.552 185.414L475.255 185.777C475.345 185.728 475.436 185.679 475.525 185.63ZM474.973 186.38C475.077 186.238 475.181 186.096 475.285 185.955C475.18 186.013 475.074 186.071 474.967 186.128L474.636 186.531C474.749 186.481 474.862 186.43 474.973 186.38ZM474.418 187.127C474.535 186.97 474.652 186.814 474.768 186.657C474.644 186.714 474.517 186.77 474.391 186.827L474.025 187.269C474.157 187.222 474.289 187.175 474.418 187.127ZM473.863 187.872C473.988 187.705 474.112 187.537 474.237 187.37L473.816 187.522C473.686 187.679 473.554 187.837 473.423 187.994L473.863 187.872ZM284.442 226.36C283.406 225.662 282.364 224.949 281.32 224.225C280.034 224.352 278.747 224.477 277.457 224.599C278.522 225.261 279.584 225.913 280.641 226.544C281.91 226.486 283.178 226.426 284.442 226.36ZM287.772 228.565C286.747 227.902 285.715 227.213 284.682 226.519C283.426 226.585 282.167 226.647 280.906 226.705C281.979 227.342 283.045 227.951 284.11 228.562C285.333 228.568 286.554 228.57 287.772 228.565ZM291.126 230.688C290.102 230.05 289.074 229.402 288.043 228.737C286.835 228.743 285.623 228.741 284.41 228.736C285.469 229.341 286.523 229.926 287.575 230.505C288.761 230.573 289.945 230.634 291.126 230.688ZM294.444 232.708C293.438 232.107 292.432 231.502 291.42 230.874C290.257 230.822 289.093 230.762 287.925 230.697C288.948 231.258 289.968 231.81 290.983 232.345C292.14 232.473 293.294 232.596 294.444 232.708ZM297.762 234.653C296.773 234.086 295.78 233.507 294.784 232.913C293.665 232.805 292.547 232.695 291.423 232.572C292.418 233.095 293.413 233.614 294.401 234.111C295.524 234.299 296.646 234.484 297.762 234.653ZM301.057 236.508C300.108 235.988 299.154 235.448 298.198 234.902C297.113 234.739 296.02 234.554 294.929 234.374C295.917 234.865 296.899 235.337 297.881 235.807C298.941 236.045 300.004 236.29 301.057 236.508ZM304.216 238.21C303.342 237.752 302.461 237.272 301.581 236.791C300.589 236.588 299.593 236.373 298.595 236.153C299.555 236.607 300.509 237.039 301.463 237.471C302.384 237.73 303.3 237.968 304.216 238.21ZM307.314 239.789C306.532 239.398 305.75 239.002 304.965 238.597C304.134 238.381 303.301 238.155 302.466 237.926C303.326 238.31 304.182 238.68 305.036 239.045C305.799 239.305 306.555 239.543 307.314 239.789ZM309.651 240.939C309.21 240.726 308.773 240.523 308.331 240.305C307.894 240.166 307.455 240.025 307.016 239.881C307.897 240.245 308.775 240.594 309.651 240.939ZM477.811 182.794L477.885 182.678L477.864 182.7L477.77 182.83L477.811 182.794ZM477.273 183.622C477.335 183.527 477.397 183.432 477.459 183.338C477.409 183.381 477.361 183.425 477.311 183.469C477.246 183.56 477.181 183.65 477.115 183.741C477.168 183.702 477.221 183.662 477.273 183.622ZM476.744 184.43L476.992 184.052C476.916 184.109 476.84 184.167 476.764 184.224L476.497 184.592L476.744 184.43ZM476.204 185.252L476.509 184.789L476.212 184.983L475.886 185.429C475.992 185.369 476.098 185.311 476.204 185.252ZM475.668 186.061L475.999 185.561C475.879 185.627 475.763 185.693 475.643 185.76L475.295 186.232C475.419 186.175 475.542 186.118 475.668 186.061ZM475.133 186.865C475.253 186.686 475.371 186.507 475.49 186.328C475.356 186.39 475.224 186.451 475.088 186.513C474.963 186.682 474.838 186.851 474.712 187.02L475.133 186.865ZM474.593 187.669C474.72 187.479 474.848 187.291 474.974 187.101L474.531 187.263C474.399 187.441 474.266 187.619 474.133 187.797L474.593 187.669ZM288.541 226.131C287.521 225.371 286.496 224.596 285.468 223.807C284.177 223.94 282.883 224.07 281.587 224.198C282.639 224.926 283.689 225.643 284.734 226.344C286.006 226.277 287.275 226.206 288.541 226.131ZM291.81 228.529C290.797 227.799 289.779 227.05 288.757 226.291C287.498 226.365 286.237 226.437 284.974 226.503C286.018 227.203 287.062 227.896 288.098 228.565C289.339 228.559 290.575 228.546 291.81 228.529ZM295.079 230.848C294.074 230.15 293.062 229.427 292.048 228.698C290.823 228.715 289.597 228.729 288.367 228.736C289.408 229.405 290.445 230.064 291.477 230.705C292.681 230.759 293.882 230.808 295.079 230.848ZM298.334 233.057C297.341 232.393 296.344 231.72 295.343 231.028C294.155 230.989 292.965 230.943 291.771 230.891C292.8 231.526 293.821 232.136 294.842 232.744C296.009 232.856 297.174 232.961 298.334 233.057ZM301.604 235.195C300.616 234.56 299.626 233.92 298.63 233.257C297.485 233.164 296.334 233.057 295.182 232.949C296.211 233.559 297.234 234.15 298.255 234.733C299.377 234.901 300.489 235.046 301.604 235.195ZM304.852 237.238C303.887 236.644 302.919 236.038 301.946 235.417C300.861 235.273 299.781 235.142 298.691 234.981C299.675 235.54 300.656 236.086 301.633 236.619C302.71 236.839 303.781 237.038 304.852 237.238ZM308.096 239.198C307.162 238.647 306.223 238.08 305.281 237.502C304.242 237.311 303.202 237.112 302.157 236.902C303.113 237.42 304.067 237.933 305.016 238.426C306.046 238.693 307.073 238.951 308.096 239.198ZM311.255 241.026C310.383 240.534 309.504 240.023 308.625 239.506C307.682 239.282 306.74 239.061 305.791 238.819C306.656 239.265 307.522 239.71 308.381 240.134C309.342 240.44 310.301 240.741 311.255 241.026ZM314.217 242.661C313.471 242.259 312.721 241.84 311.97 241.421C311.172 241.186 310.375 240.955 309.573 240.707C310.359 241.085 311.147 241.464 311.929 241.828C312.696 242.118 313.456 242.386 314.217 242.661ZM316.715 243.972C316.248 243.73 315.78 243.488 315.312 243.242C314.884 243.092 314.456 242.937 314.028 242.781C314.926 243.187 315.824 243.591 316.715 243.972ZM478.934 181.379L478.992 181.279H478.992L478.917 181.396L478.934 181.379ZM478.43 182.245L478.585 181.978C478.543 182.02 478.504 182.062 478.462 182.103L478.29 182.369L478.43 182.245ZM477.905 183.14C477.987 183.002 478.07 182.863 478.151 182.724L477.94 182.911C477.853 183.046 477.767 183.18 477.679 183.315C477.756 183.256 477.83 183.199 477.905 183.14ZM477.396 184.005L477.671 183.538C477.582 183.606 477.49 183.675 477.399 183.744C477.301 183.895 477.202 184.045 477.103 184.196C477.201 184.132 477.299 184.069 477.396 184.005ZM476.881 184.875L477.199 184.339C477.089 184.411 476.978 184.483 476.868 184.555C476.755 184.726 476.644 184.898 476.531 185.07L476.881 184.875ZM476.362 185.742C476.477 185.551 476.591 185.359 476.705 185.168L476.326 185.379C476.206 185.561 476.085 185.743 475.964 185.924L476.362 185.742ZM475.847 186.603C475.968 186.402 476.088 186.2 476.209 185.998L475.787 186.192C475.66 186.383 475.534 186.574 475.407 186.765L475.847 186.603ZM475.325 187.464C475.453 187.253 475.581 187.042 475.708 186.832L475.25 187C475.117 187.2 474.982 187.398 474.848 187.597L475.325 187.464ZM292.634 225.876C291.633 225.057 290.628 224.221 289.619 223.372C288.321 223.511 287.02 223.647 285.717 223.782C286.752 224.573 287.783 225.353 288.81 226.115C290.087 226.039 291.362 225.96 292.634 225.876ZM295.831 228.455C294.836 227.666 293.834 226.856 292.83 226.035C291.565 226.119 290.296 226.199 289.026 226.275C290.055 227.038 291.082 227.791 292.103 228.525C293.349 228.507 294.592 228.484 295.831 228.455ZM299.037 230.954C298.045 230.194 297.047 229.414 296.046 228.622C294.814 228.652 293.579 228.675 292.341 228.693C293.364 229.427 294.386 230.155 295.4 230.857C296.616 230.897 297.828 230.928 299.037 230.954ZM302.234 233.352C301.248 232.623 300.26 231.89 299.264 231.131C298.068 231.106 296.869 231.076 295.666 231.038C296.677 231.735 297.685 232.42 298.689 233.088C299.874 233.184 301.056 233.273 302.234 233.352ZM305.46 235.689C304.473 234.986 303.483 234.274 302.487 233.541C301.322 233.464 300.156 233.382 298.984 233.289C299.995 233.959 300.998 234.605 302 235.246C303.156 235.399 304.312 235.555 305.46 235.689ZM308.659 237.921C307.697 237.262 306.732 236.593 305.762 235.905C304.628 235.774 303.483 235.616 302.343 235.467C303.344 236.105 304.339 236.722 305.332 237.331C306.444 237.536 307.555 237.737 308.659 237.921ZM311.893 240.09C310.933 239.46 309.969 238.815 309.001 238.155C307.925 237.978 306.845 237.793 305.761 237.595C306.736 238.189 307.706 238.767 308.672 239.333C309.747 239.589 310.826 239.857 311.893 240.09ZM315.061 242.129C314.148 241.555 313.23 240.964 312.31 240.362C311.279 240.14 310.238 239.885 309.2 239.641C310.143 240.19 311.082 240.726 312.016 241.248C313.033 241.547 314.052 241.853 315.061 242.129ZM318.105 244.008C317.266 243.503 316.42 242.977 315.574 242.447C314.63 242.192 313.68 241.916 312.73 241.642C313.61 242.129 314.489 242.609 315.362 243.072C316.28 243.395 317.194 243.705 318.105 244.008ZM321.072 245.752C320.326 245.323 319.574 244.877 318.822 244.429C318.057 244.18 317.296 243.942 316.527 243.678C317.22 244.04 317.913 244.404 318.6 244.749C319.426 245.09 320.252 245.43 321.072 245.752ZM323.356 247.031C322.936 246.799 322.517 246.567 322.097 246.332C321.711 246.184 321.328 246.044 320.941 245.892C321.748 246.279 322.553 246.661 323.356 247.031ZM479.536 180.768C479.583 180.679 479.629 180.59 479.675 180.501L479.576 180.614C479.524 180.704 479.473 180.795 479.42 180.886L479.536 180.768ZM479.043 181.701L479.258 181.296L479.071 181.485L478.841 181.881L479.043 181.701ZM478.548 182.639C478.637 182.472 478.725 182.304 478.814 182.137L478.562 182.36C478.467 182.523 478.372 182.688 478.275 182.852C478.366 182.781 478.456 182.71 478.548 182.639ZM478.047 183.58C478.147 183.391 478.249 183.202 478.35 183.013C478.244 183.095 478.142 183.176 478.036 183.258C477.931 183.437 477.826 183.615 477.721 183.793C477.83 183.722 477.94 183.651 478.047 183.58ZM477.553 184.501C477.662 184.299 477.769 184.097 477.877 183.896C477.761 183.973 477.642 184.05 477.523 184.127C477.409 184.321 477.295 184.515 477.18 184.708L477.553 184.501ZM477.056 185.423C477.173 185.209 477.289 184.994 477.404 184.779L477.006 185.001C476.884 185.206 476.761 185.41 476.639 185.615L477.056 185.423ZM476.557 186.343L476.921 185.671L476.485 185.871C476.358 186.084 476.231 186.297 476.104 186.509L476.557 186.343ZM476.058 187.258C476.185 187.027 476.31 186.796 476.436 186.564L475.967 186.737C475.835 186.957 475.701 187.176 475.568 187.396L476.058 187.258ZM296.714 225.591C295.736 224.719 294.753 223.826 293.766 222.92C292.465 223.064 291.161 223.206 289.855 223.346C290.869 224.198 291.879 225.037 292.885 225.858C294.164 225.773 295.44 225.684 296.714 225.591ZM299.853 228.34C298.871 227.492 297.886 226.631 296.896 225.75C295.627 225.843 294.356 225.932 293.081 226.018C294.093 226.842 295.101 227.655 296.103 228.449C297.357 228.419 298.606 228.382 299.853 228.34ZM303.003 231.015C302.02 230.192 301.035 229.361 300.042 228.506C298.804 228.548 297.563 228.586 296.318 228.617C297.324 229.411 298.327 230.198 299.324 230.96C300.553 230.985 301.78 231.004 303.003 231.015ZM306.128 233.586C305.158 232.8 304.186 232.005 303.209 231.188C301.996 231.179 300.779 231.16 299.56 231.137C300.56 231.898 301.554 232.64 302.545 233.37C303.742 233.45 304.937 233.523 306.128 233.586ZM309.266 236.083C308.301 235.329 307.332 234.56 306.359 233.773C305.176 233.713 303.987 233.637 302.798 233.56C303.81 234.303 304.815 235.023 305.819 235.734C306.974 235.867 308.118 235.97 309.266 236.083ZM312.416 238.504C311.456 237.781 310.492 237.04 309.524 236.285C308.39 236.174 307.262 236.08 306.12 235.951C307.102 236.644 308.079 237.318 309.053 237.982C310.178 238.167 311.298 238.341 312.416 238.504ZM315.561 240.833C314.619 240.15 313.672 239.447 312.721 238.733C311.616 238.573 310.506 238.397 309.395 238.216C310.387 238.89 311.374 239.546 312.358 240.188C313.431 240.42 314.495 240.624 315.561 240.833ZM318.705 243.072C317.781 242.428 316.85 241.763 315.917 241.088C314.869 240.885 313.82 240.679 312.765 240.454C313.721 241.075 314.673 241.682 315.622 242.274C316.654 242.552 317.681 242.817 318.705 243.072ZM321.803 245.187C320.921 244.598 320.032 243.987 319.142 243.37C318.144 243.125 317.139 242.86 316.134 242.592C317.051 243.161 317.964 243.717 318.873 244.259C319.853 244.578 320.831 244.891 321.803 245.187ZM324.882 247.188C324.033 246.647 323.18 246.091 322.324 245.526C321.415 245.254 320.504 244.973 319.589 244.68C320.444 245.184 321.297 245.681 322.145 246.16C323.06 246.512 323.974 246.86 324.882 247.188ZM327.758 248.974C327.019 248.524 326.28 248.072 325.536 247.605C324.769 247.332 324 247.051 323.228 246.762C323.99 247.186 324.751 247.608 325.508 248.012C326.262 248.345 327.009 248.658 327.758 248.974ZM329.985 250.303C329.573 250.062 329.165 249.831 328.752 249.585C328.34 249.415 327.926 249.235 327.513 249.06C328.34 249.485 329.164 249.899 329.985 250.303ZM16.8403 88.5202C17.3559 87.4397 17.8722 86.356 18.3899 85.27C19.3761 83.1998 20.3669 81.1211 21.3634 79.0414C18.2389 84.499 15.2131 90.052 12.2398 95.5378C13.7497 93.1853 15.2823 90.841 16.8403 88.5202ZM10.7946 101.009C12.6385 97.2856 14.4771 93.4665 16.3248 89.5998C14.5523 92.2591 12.8132 94.9465 11.1015 97.6388C9.16166 101.22 7.24172 104.764 5.32885 108.223C7.11692 105.807 8.93713 103.395 10.7946 101.009ZM480.594 179.184L480.726 178.904L480.653 178.997L480.498 179.295L480.594 179.184ZM480.131 180.165L480.324 179.757L480.158 179.948L479.948 180.35L480.131 180.165ZM479.656 181.158L479.904 180.641L479.677 180.87C479.588 181.039 479.499 181.208 479.41 181.377C479.492 181.304 479.575 181.231 479.656 181.158ZM479.187 182.141C479.28 181.947 479.372 181.753 479.464 181.56C479.37 181.644 479.275 181.728 479.18 181.812C479.08 182.002 478.98 182.192 478.879 182.381L479.187 182.141ZM478.706 183.136C478.809 182.922 478.914 182.707 479.017 182.492C478.905 182.58 478.793 182.667 478.682 182.754C478.572 182.961 478.462 183.168 478.352 183.374C478.469 183.295 478.586 183.216 478.706 183.136ZM478.226 184.126C478.337 183.899 478.447 183.671 478.557 183.444C478.429 183.529 478.306 183.614 478.178 183.699L477.831 184.346C477.964 184.272 478.096 184.199 478.226 184.126ZM477.748 185.105C477.864 184.868 477.981 184.631 478.097 184.394C477.96 184.47 477.821 184.547 477.682 184.624C477.561 184.85 477.439 185.077 477.318 185.303C477.462 185.237 477.606 185.171 477.748 185.105ZM477.268 186.081C477.389 185.836 477.51 185.591 477.63 185.345C477.482 185.413 477.332 185.482 477.183 185.551C477.056 185.785 476.928 186.019 476.801 186.253C476.958 186.195 477.115 186.138 477.268 186.081ZM476.789 187.054C476.914 186.802 477.038 186.55 477.162 186.298C477.003 186.356 476.842 186.415 476.681 186.475C476.551 186.714 476.422 186.954 476.291 187.193L476.789 187.054ZM300.817 225.278C299.854 224.351 298.886 223.409 297.914 222.45C296.609 222.601 295.302 222.749 293.992 222.895C294.983 223.803 295.971 224.698 296.953 225.573C298.244 225.478 299.532 225.38 300.817 225.278ZM303.881 228.187C302.919 227.287 301.952 226.369 300.981 225.437C299.702 225.54 298.42 225.638 297.135 225.732C298.128 226.616 299.116 227.482 300.101 228.332C301.364 228.289 302.624 228.241 303.881 228.187ZM306.951 231.022C305.991 230.149 305.026 229.257 304.057 228.352C302.805 228.407 301.549 228.454 300.29 228.497C301.288 229.357 302.279 230.189 303.268 231.016C304.499 231.026 305.726 231.026 306.951 231.022ZM310.004 233.759C309.055 232.922 308.099 232.063 307.14 231.193C305.921 231.198 304.699 231.198 303.473 231.189C304.46 232.012 305.441 232.812 306.419 233.603C307.618 233.664 308.812 233.715 310.004 233.759ZM313.099 236.446C312.141 235.631 311.177 234.789 310.211 233.939C309.026 233.896 307.841 233.85 306.65 233.791C307.631 234.582 308.608 235.354 309.58 236.113C310.754 236.228 311.932 236.352 313.099 236.446ZM316.157 239.014C315.222 238.244 314.28 237.45 313.337 236.647C312.178 236.554 311.005 236.427 309.839 236.315C310.822 237.08 311.801 237.828 312.774 238.56C313.906 238.724 315.033 238.872 316.157 239.014ZM319.26 241.52C318.316 240.771 317.368 240.007 316.415 239.225C315.305 239.086 314.197 238.949 313.08 238.788C314.047 239.513 315.01 240.223 315.968 240.915C317.07 241.129 318.167 241.331 319.26 241.52ZM322.356 243.929C321.423 243.217 320.488 242.496 319.547 241.752C318.476 241.568 317.403 241.377 316.325 241.171C317.285 241.862 318.242 242.539 319.193 243.198C320.253 243.458 321.304 243.694 322.356 243.929ZM325.465 246.255C324.545 245.58 323.622 244.896 322.693 244.19C321.673 243.964 320.656 243.744 319.629 243.496C320.548 244.129 321.464 244.752 322.375 245.355C323.408 245.665 324.44 245.971 325.465 246.255ZM328.533 248.454C327.643 247.83 326.751 247.195 325.853 246.541C324.873 246.274 323.886 245.988 322.898 245.695C323.797 246.287 324.694 246.871 325.585 247.434C326.571 247.784 327.555 248.131 328.533 248.454ZM331.505 250.494C330.677 249.938 329.847 249.374 329.012 248.793C328.107 248.497 327.198 248.184 326.286 247.866C327.13 248.393 327.973 248.918 328.809 249.419C329.712 249.792 330.609 250.146 331.505 250.494ZM334.354 252.364C333.629 251.9 332.903 251.428 332.172 250.943C331.416 250.653 330.657 250.36 329.895 250.053C330.618 250.479 331.344 250.91 332.062 251.317C332.83 251.68 333.592 252.021 334.354 252.364ZM336.431 253.684C336.087 253.471 335.74 253.249 335.394 253.028C334.968 252.84 334.536 252.635 334.107 252.442C334.884 252.863 335.659 253.281 336.431 253.684ZM27.7571 67.977C29.1032 64.7907 30.4574 61.6035 31.8265 58.437C28.9552 63.8629 26.1807 69.4587 23.4608 75.0808C24.8701 72.6819 26.3003 70.3088 27.7571 67.977ZM22.5432 80.3324C23.6096 77.8182 24.6763 75.2863 25.7465 72.7461C26.2728 71.4971 26.7995 70.2462 27.3273 68.9953C25.6925 71.6361 24.0895 74.3267 22.5126 77.0467C21.18 79.8157 19.8592 82.5874 18.5456 85.3442L17.4938 87.5508C19.1452 85.1097 20.8266 82.6973 22.5432 80.3324ZM16.799 93.5747C18.6255 89.4902 20.4342 85.2948 22.2418 81.0426C20.4564 83.5195 18.7081 86.0467 16.9919 88.6028C15.0949 92.5777 13.2086 96.507 11.3178 100.339C13.108 98.0523 14.9336 95.7911 16.799 93.5747ZM10.0061 107.927C12.228 103.549 14.3979 98.9265 16.5425 94.1475C14.6359 96.4262 12.7707 98.7504 10.9417 101.1C8.69991 105.625 6.4508 110.009 4.1678 114.165C6.0736 112.061 8.01819 109.975 10.0061 107.927ZM481.624 177.456L481.738 177.188L481.684 177.267L481.553 177.549L481.624 177.456ZM481.176 178.511C481.236 178.37 481.296 178.228 481.356 178.088L481.214 178.272L481.012 178.7L481.176 178.511ZM480.722 179.565C480.798 179.388 480.875 179.211 480.95 179.034L480.74 179.278C480.659 179.449 480.578 179.621 480.497 179.792C480.573 179.716 480.648 179.64 480.722 179.565ZM480.27 180.614C480.358 180.41 480.446 180.205 480.534 180C480.448 180.088 480.36 180.176 480.273 180.265C480.179 180.465 480.082 180.664 479.987 180.864C480.082 180.781 480.177 180.697 480.27 180.614ZM479.821 181.647C479.916 181.428 480.013 181.209 480.108 180.989C480.005 181.081 479.9 181.174 479.796 181.266C479.694 181.479 479.593 181.691 479.491 181.904L479.821 181.647ZM479.363 182.694L479.675 181.979L479.324 182.254C479.213 182.484 479.101 182.715 478.99 182.945C479.114 182.862 479.238 182.778 479.363 182.694ZM478.902 183.743L479.234 182.988C479.102 183.076 478.971 183.165 478.84 183.253C478.724 183.494 478.607 183.736 478.49 183.977C478.627 183.899 478.764 183.821 478.902 183.743ZM478.442 184.782C478.557 184.523 478.672 184.264 478.786 184.005C478.642 184.086 478.502 184.167 478.359 184.248C478.238 184.495 478.118 184.743 477.997 184.99C478.145 184.921 478.292 184.851 478.442 184.782ZM477.983 185.816C478.102 185.55 478.219 185.283 478.337 185.017C478.184 185.089 478.032 185.16 477.878 185.232C477.753 185.486 477.628 185.741 477.503 185.995C477.664 185.935 477.822 185.876 477.983 185.816ZM477.519 186.848C477.641 186.575 477.765 186.303 477.887 186.029L477.396 186.212C477.268 186.471 477.141 186.732 477.013 186.991L477.519 186.848ZM304.9 224.936C303.962 223.962 303.019 222.97 302.073 221.964C300.761 222.12 299.445 222.274 298.128 222.426C299.103 223.388 300.074 224.33 301.04 225.259C302.33 225.156 303.617 225.048 304.9 224.936ZM307.885 227.996C306.947 227.048 306.003 226.078 305.056 225.095C303.775 225.207 302.491 225.315 301.204 225.419C302.18 226.355 303.151 227.275 304.117 228.178C305.376 228.123 306.632 228.062 307.885 227.996ZM310.893 230.984C309.949 230.058 309.002 229.12 308.049 228.159C306.8 228.225 305.549 228.288 304.293 228.343C305.267 229.251 306.237 230.145 307.201 231.02C308.435 231.015 309.666 231.004 310.893 230.984ZM313.89 233.879C312.952 232.984 312.011 232.082 311.064 231.154C309.843 231.174 308.618 231.186 307.39 231.192C308.354 232.065 309.315 232.927 310.27 233.767C311.48 233.811 312.688 233.852 313.89 233.879ZM316.898 236.699C315.961 235.834 315.022 234.957 314.077 234.058C312.882 234.032 311.679 233.99 310.476 233.947C311.453 234.805 312.427 235.651 313.394 236.474C314.57 236.568 315.73 236.625 316.898 236.699ZM319.936 239.462C318.996 238.621 318.051 237.765 317.102 236.889C315.945 236.817 314.796 236.765 313.631 236.674C314.581 237.48 315.528 238.278 316.468 239.051C317.627 239.196 318.785 239.339 319.936 239.462ZM322.989 242.147C322.054 241.338 321.114 240.513 320.169 239.67C319.029 239.55 317.878 239.404 316.73 239.262C317.69 240.049 318.647 240.824 319.597 241.577C320.73 241.772 321.866 241.977 322.989 242.147ZM325.997 244.7C325.083 243.938 324.164 243.158 323.241 242.363C322.131 242.197 321.01 242 319.892 241.809C320.847 242.563 321.797 243.297 322.743 244.017C323.832 244.258 324.917 244.486 325.997 244.7ZM329.052 247.199C328.136 246.464 327.213 245.709 326.287 244.94C325.222 244.731 324.154 244.512 323.08 244.277C324.026 244.994 324.966 245.686 325.903 246.37C326.957 246.657 328.008 246.939 329.052 247.199ZM332.078 249.577C331.187 248.891 330.289 248.185 329.389 247.466C328.362 247.213 327.326 246.936 326.29 246.656C327.219 247.33 328.141 247.98 329.061 248.621C330.07 248.951 331.077 249.276 332.078 249.577ZM335.04 251.81C334.189 251.183 333.332 250.534 332.472 249.876C331.499 249.586 330.52 249.275 329.539 248.959C330.439 249.583 331.333 250.183 332.225 250.775C333.168 251.135 334.105 251.478 335.04 251.81ZM337.98 253.934C337.175 253.366 336.363 252.775 335.549 252.179C334.666 251.869 333.782 251.558 332.89 251.223C333.746 251.786 334.595 252.325 335.442 252.859C336.293 253.233 337.137 253.584 337.98 253.934ZM340.755 255.843C340.071 255.382 339.38 254.902 338.69 254.422C337.905 254.103 337.113 253.761 336.322 253.42C337.112 253.911 337.894 254.376 338.677 254.843C339.374 255.19 340.064 255.514 340.755 255.843ZM343.027 257.335C342.625 257.074 342.22 256.809 341.816 256.544C341.387 256.344 340.953 256.128 340.522 255.921C341.361 256.406 342.197 256.88 343.027 257.335ZM37.7081 47.5192C38.9399 44.2804 40.1808 41.061 41.4381 37.8814C38.759 43.2893 36.1777 48.9302 33.6553 54.6709C34.9832 52.2408 36.3325 49.8521 37.7081 47.5192ZM33.0764 59.8464L33.0817 59.8322C34.4956 56.0465 35.9123 52.2529 37.3416 48.4836C35.8089 51.1112 34.3077 53.8058 32.833 56.5493C31.3143 60.0347 29.815 63.551 28.3269 67.0695C29.879 64.6085 31.4606 62.1952 33.0764 59.8464ZM28.1388 72.9756C29.7075 68.8609 31.266 64.6931 32.8273 60.5137C31.1531 62.9661 29.5155 65.4879 27.9089 68.059C27.239 69.6447 26.5711 71.2304 25.9047 72.8129C24.9317 75.1232 23.9612 77.4271 22.9912 79.7168C24.6715 77.4172 26.3861 75.1648 28.1388 72.9756ZM22.6468 86.9396C24.4364 82.5671 26.1939 78.0678 27.9386 73.5002C26.1522 75.7461 24.4055 78.0582 22.6934 80.4176C20.8683 84.7187 19.0423 88.965 17.1991 93.1007C18.9774 91.0001 20.7918 88.9406 22.6468 86.9396ZM16.0901 101.927C18.2743 97.3156 20.3878 92.4412 22.459 87.3965C20.5815 89.434 18.7447 91.5301 16.9453 93.6679C14.7989 98.467 12.6273 103.112 10.4053 107.518C12.261 105.616 14.1548 103.747 16.0901 101.927ZM482.613 175.608L482.71 175.356L482.677 175.41L482.562 175.684L482.613 175.608ZM482.186 176.722L482.348 176.301L482.229 176.474C482.167 176.619 482.106 176.763 482.044 176.907L482.186 176.722ZM481.751 177.841L481.961 177.3L481.774 177.544L481.545 178.081L481.751 177.841ZM481.323 178.943C481.403 178.737 481.483 178.53 481.564 178.323L481.323 178.603C481.235 178.808 481.146 179.013 481.058 179.218C481.147 179.127 481.234 179.035 481.323 178.943ZM480.888 180.05C480.978 179.821 481.07 179.591 481.159 179.362C481.061 179.462 480.965 179.563 480.866 179.663L480.578 180.334C480.681 180.239 480.783 180.145 480.888 180.05ZM480.454 181.153C480.551 180.907 480.647 180.662 480.744 180.416C480.632 180.517 480.524 180.618 480.411 180.72L480.105 181.425C480.222 181.334 480.339 181.243 480.454 181.153ZM480.017 182.253C480.122 181.992 480.226 181.73 480.33 181.469C480.207 181.565 480.083 181.661 479.96 181.758C479.849 182.01 479.739 182.263 479.629 182.515L480.017 182.253ZM479.575 183.361L479.905 182.537L479.5 182.809C479.385 183.073 479.27 183.337 479.154 183.601L479.575 183.361ZM479.137 184.457C479.249 184.177 479.362 183.896 479.474 183.615L479.037 183.863C478.918 184.132 478.798 184.402 478.679 184.671L479.137 184.457ZM478.693 185.551C478.81 185.263 478.927 184.975 479.043 184.687L478.575 184.906C478.452 185.181 478.331 185.457 478.208 185.732L478.693 185.551ZM478.252 186.64C478.371 186.347 478.489 186.054 478.608 185.76L478.114 185.945C477.988 186.226 477.861 186.506 477.735 186.787L478.252 186.64ZM308.995 224.567C308.075 223.549 307.15 222.512 306.222 221.461C304.911 221.622 303.596 221.782 302.28 221.939C303.229 222.948 304.175 223.941 305.116 224.918C306.412 224.804 307.705 224.688 308.995 224.567ZM311.914 227.765C310.993 226.77 310.067 225.755 309.138 224.726C307.852 224.847 306.563 224.964 305.271 225.077C306.222 226.062 307.169 227.034 308.11 227.983C309.381 227.916 310.65 227.844 311.914 227.765ZM314.841 230.894C313.921 229.924 312.994 228.932 312.065 227.928C310.805 228.007 309.541 228.079 308.274 228.147C309.229 229.109 310.18 230.053 311.125 230.98C312.368 230.959 313.606 230.929 314.841 230.894ZM317.759 233.931C316.845 232.994 315.925 232.033 315.001 231.061C313.769 231.097 312.534 231.127 311.295 231.149C312.248 232.082 313.194 232.988 314.138 233.887C315.35 233.912 316.555 233.922 317.759 233.931ZM320.725 236.934C319.799 236.013 318.866 235.063 317.93 234.105C316.731 234.097 315.531 234.091 314.324 234.066C315.275 234.968 316.218 235.847 317.159 236.716C318.348 236.79 319.544 236.88 320.725 236.934ZM323.656 239.806C322.746 238.928 321.831 238.03 320.911 237.117C319.736 237.064 318.547 236.978 317.363 236.905C318.322 237.788 319.274 238.649 320.223 239.496C321.374 239.616 322.514 239.708 323.656 239.806ZM326.638 242.637C325.715 241.775 324.789 240.902 323.857 240.003C322.724 239.907 321.596 239.822 320.455 239.704C321.406 240.55 322.351 241.377 323.292 242.187C324.413 242.355 325.525 242.494 326.638 242.637ZM329.629 245.384C328.711 244.555 327.79 243.714 326.862 242.849C325.759 242.709 324.654 242.567 323.542 242.403C324.479 243.208 325.411 243.996 326.338 244.766C327.438 244.982 328.537 245.195 329.629 245.384ZM332.61 248.027C331.702 247.237 330.79 246.432 329.872 245.606C328.796 245.422 327.712 245.217 326.627 245.006C327.569 245.786 328.507 246.549 329.44 247.294C330.502 247.555 331.557 247.795 332.61 248.027ZM335.598 250.58C334.701 249.829 333.8 249.063 332.893 248.276C331.856 248.049 330.813 247.808 329.767 247.553C330.689 248.287 331.608 249.005 332.521 249.704C333.551 250.01 334.577 250.303 335.598 250.58ZM338.552 253.005C337.681 252.305 336.807 251.59 335.927 250.856C334.927 250.589 333.92 250.297 332.912 250.001C333.813 250.687 334.71 251.359 335.602 252.012C336.59 252.359 337.573 252.688 338.552 253.005ZM341.515 255.338C340.66 254.68 339.8 254.006 338.935 253.314C337.997 253.014 337.057 252.708 336.111 252.38C336.993 253.021 337.871 253.649 338.744 254.257C339.673 254.635 340.595 254.989 341.515 255.338ZM344.409 257.517C343.611 256.93 342.81 256.331 342.004 255.715C341.131 255.388 340.252 255.042 339.372 254.689C340.208 255.266 341.041 255.832 341.87 256.38C342.721 256.776 343.566 257.148 344.409 257.517ZM347.139 259.482C346.45 258.998 345.758 258.503 345.062 257.997C344.31 257.673 343.552 257.328 342.794 256.983C343.51 257.45 344.225 257.909 344.935 258.353C345.673 258.741 346.408 259.116 347.139 259.482ZM349.18 260.9C348.817 260.655 348.452 260.398 348.088 260.144C347.655 259.932 347.22 259.714 346.785 259.495C347.588 259.979 348.384 260.443 349.18 260.9ZM46.9126 27.1152C48.0489 23.8304 49.1958 20.5816 50.361 17.389C47.8378 22.7735 45.4171 28.4482 43.0592 34.2859C44.3191 31.835 45.6024 29.4414 46.9126 27.1152ZM42.7316 39.4554C44.0116 35.6192 45.2976 31.8012 46.5972 28.0284C45.1465 30.635 43.7287 33.3258 42.3381 36.0816C40.9481 39.5606 39.5794 43.0924 38.2232 46.6499C39.6941 44.1815 41.1956 41.7783 42.7316 39.4554ZM38.3725 52.5684C39.0409 50.5623 39.7084 48.5522 40.3755 46.5423C41.0903 44.3877 41.8052 42.2336 42.5219 40.0845C40.9334 42.5076 39.3826 45.0183 37.863 47.5954C36.3905 51.4694 34.9315 55.3709 33.476 59.2668C35.0731 56.9642 36.7037 54.7259 38.3725 52.5684ZM33.6768 66.4359C35.2031 62.0317 36.7081 57.5605 38.2063 53.0675C36.5096 55.2767 34.8526 57.569 33.2296 59.9271C31.6507 64.1549 30.0753 68.3724 28.4894 72.5374C30.1813 70.438 31.9094 68.3998 33.6768 66.4359ZM28.3877 81.0755C30.142 76.4584 31.85 71.6976 33.5319 66.8534C31.7451 68.8514 29.9994 70.9266 28.2894 73.0618C26.5379 77.6554 24.7732 82.1826 22.9772 86.584C24.7431 84.6904 26.5451 82.8493 28.3877 81.0755ZM21.981 96.6696C24.1484 91.8511 26.2263 86.7492 28.2434 81.4557C26.3873 83.2523 24.5719 85.1169 22.7937 87.0346C20.7238 92.0924 18.611 96.9801 16.4289 101.61C17.3283 100.769 18.2361 99.9385 19.1531 99.1205C20.085 98.2892 21.0293 97.4738 21.981 96.6696ZM12.8935 114.01C16.0593 108.959 19.0127 103.235 21.8154 97.0354C20.9591 97.7629 20.1083 98.4986 19.2677 99.2484C18.244 100.161 17.2321 101.089 16.231 102.03C13.3907 108.025 10.431 113.576 7.29164 118.492C9.12235 116.965 10.9904 115.469 12.8935 114.01ZM483.564 173.632L483.641 173.41L483.628 173.433L483.534 173.681L483.564 173.632ZM483.153 174.814L483.298 174.4L483.198 174.564L483.036 174.986L483.153 174.814ZM482.741 175.993L482.933 175.444L482.767 175.687C482.697 175.869 482.628 176.051 482.558 176.233L482.741 175.993ZM482.329 177.164L482.557 176.517L482.337 176.806C482.255 177.02 482.171 177.234 482.088 177.447L482.329 177.164ZM481.918 178.324L482.169 177.617L481.901 177.93C481.811 178.161 481.722 178.391 481.632 178.622L481.918 178.324ZM481.507 179.485C481.598 179.229 481.689 178.973 481.779 178.717C481.676 178.824 481.573 178.931 481.471 179.038C481.373 179.288 481.275 179.537 481.177 179.787C481.287 179.686 481.397 179.585 481.507 179.485ZM481.085 180.661C481.184 180.385 481.284 180.109 481.382 179.834C481.265 179.94 481.148 180.046 481.033 180.152L480.721 180.945C480.843 180.85 480.966 180.755 481.085 180.661ZM480.671 181.813C480.773 181.53 480.874 181.248 480.976 180.965C480.851 181.064 480.723 181.163 480.596 181.261C480.488 181.535 480.38 181.809 480.271 182.083C480.405 181.993 480.539 181.903 480.671 181.813ZM480.248 182.979C480.356 182.682 480.465 182.385 480.573 182.087L480.158 182.366C480.044 182.653 479.929 182.939 479.815 183.225C479.96 183.143 480.105 183.061 480.248 182.979ZM479.828 184.134L480.158 183.227L479.713 183.479C479.597 183.769 479.482 184.06 479.365 184.35C479.52 184.278 479.675 184.206 479.828 184.134ZM479.406 185.285C479.519 184.976 479.633 184.668 479.746 184.359L479.272 184.58C479.152 184.877 479.032 185.173 478.912 185.469L479.406 185.285ZM478.981 186.434C479.097 186.119 479.214 185.806 479.329 185.491L478.827 185.679C478.705 185.979 478.584 186.281 478.461 186.581L478.981 186.434ZM313.074 224.171C312.179 223.113 311.279 222.036 310.375 220.942C309.06 221.109 307.741 221.274 306.42 221.436C307.351 222.49 308.278 223.528 309.2 224.548C310.494 224.426 311.786 224.3 313.074 224.171ZM315.926 227.496C315.023 226.454 314.119 225.407 313.207 224.331C311.922 224.46 310.634 224.586 309.343 224.707C310.275 225.738 311.204 226.755 312.128 227.752C313.397 227.673 314.663 227.586 315.926 227.496ZM318.789 230.759C317.886 229.74 316.978 228.711 316.065 227.658C314.806 227.749 313.545 227.836 312.278 227.915C313.211 228.922 314.141 229.916 315.064 230.887C316.309 230.851 317.552 230.809 318.789 230.759ZM321.651 233.939C320.75 232.951 319.846 231.948 318.937 230.925C317.703 230.976 316.465 231.018 315.224 231.055C316.151 232.029 317.074 232.992 317.992 233.932C319.214 233.939 320.437 233.949 321.651 233.939ZM324.518 237.046C323.62 236.087 322.717 235.108 321.809 234.113C320.6 234.123 319.381 234.113 318.163 234.105C319.102 235.066 320.039 236.017 320.969 236.941C322.16 236.994 323.336 237.013 324.518 237.046ZM327.431 240.115C326.522 239.172 325.608 238.208 324.69 237.228C323.513 237.196 322.34 237.175 321.155 237.124C322.078 238.041 322.998 238.947 323.911 239.827C325.086 239.927 326.265 240.039 327.431 240.115ZM330.314 243.067C329.422 242.168 328.523 241.246 327.621 240.311C326.461 240.236 325.285 240.122 324.116 240.024C325.054 240.927 325.987 241.808 326.915 242.674C328.053 242.818 329.186 242.948 330.314 243.067ZM333.242 245.97C332.34 245.091 331.431 244.186 330.518 243.269C329.396 243.152 328.271 243.028 327.14 242.887C328.074 243.755 329.001 244.6 329.924 245.432C331.034 245.622 332.142 245.808 333.242 245.97ZM336.146 248.755C335.26 247.92 334.367 247.062 333.471 246.19C332.376 246.03 331.272 245.841 330.168 245.654C331.1 246.491 332.025 247.305 332.947 248.105C334.019 248.339 335.083 248.55 336.146 248.755ZM339.081 251.468C338.191 250.659 337.295 249.833 336.395 248.988C335.343 248.787 334.291 248.583 333.23 248.354C334.151 249.151 335.066 249.925 335.976 250.685C337.017 250.964 338.051 251.22 339.081 251.468ZM341.998 254.065C341.121 253.299 340.242 252.523 339.356 251.721C338.339 251.479 337.316 251.22 336.289 250.948C337.194 251.7 338.093 252.431 338.989 253.147C339.997 253.469 341 253.774 341.998 254.065ZM344.93 256.574C344.059 255.844 343.186 255.104 342.306 254.338C341.332 254.058 340.355 253.766 339.372 253.456C340.272 254.173 341.167 254.868 342.058 255.549C343.021 255.91 343.977 256.246 344.93 256.574ZM347.83 258.953C346.992 258.28 346.151 257.598 345.303 256.891C344.376 256.576 343.444 256.242 342.508 255.897C343.383 256.561 344.251 257.204 345.117 257.834C346.027 258.225 346.93 258.593 347.83 258.953ZM350.662 261.174C349.875 260.57 349.087 259.962 348.291 259.328C347.431 258.989 346.565 258.627 345.696 258.26C346.517 258.852 347.331 259.421 348.142 259.982C348.987 260.395 349.826 260.79 350.662 261.174ZM353.414 263.233C352.697 262.709 351.98 262.184 351.257 261.635C350.524 261.304 349.79 260.969 349.05 260.616C349.768 261.105 350.479 261.567 351.19 262.032C351.934 262.441 352.677 262.848 353.414 263.233ZM355.534 264.752C355.098 264.445 354.665 264.149 354.226 263.834C353.872 263.652 353.52 263.482 353.164 263.295C353.958 263.795 354.749 264.283 355.534 264.752ZM51.6935 19.1511C52.8604 15.2731 54.035 11.4328 55.2258 7.65747C53.8439 10.2342 52.4954 12.9103 51.1761 15.6682C49.8917 19.1441 48.6299 22.6914 47.3823 26.2845C48.7862 23.8208 50.2217 21.4379 51.6935 19.1511ZM47.7871 32.296C49.0268 28.0953 50.2648 23.9046 51.5113 19.7563C49.9944 22.1368 48.5154 24.6192 47.0693 27.1862C45.7327 31.0509 44.4119 34.9669 43.0971 38.903C44.6244 36.6146 46.1861 34.4069 47.7871 32.296ZM43.6722 46.1586C44.9964 41.7511 46.3054 37.3158 47.6121 32.8893L47.6486 32.7656C46.0227 34.9272 44.4372 37.1889 42.8868 39.533C42.1025 41.8828 41.3205 44.2395 40.5384 46.5961C39.9222 48.4524 39.3061 50.3087 38.6888 52.1621C40.3122 50.0793 41.9721 48.0728 43.6722 46.1586ZM39.1827 60.7085C40.6674 56.0563 42.1193 51.3217 43.5533 46.553C41.8379 48.4982 40.1633 50.5352 38.5257 52.6512C37.0191 57.1734 35.5056 61.6749 33.971 66.1103C35.6698 64.2351 37.4061 62.43 39.1827 60.7085ZM34.0462 75.9641C35.7747 71.1365 37.4431 66.1463 39.0708 61.0565C37.2833 62.7994 35.5368 64.6268 33.8271 66.5254C32.1423 71.3859 30.4312 76.1649 28.6745 80.8011C30.4279 79.124 32.2175 77.5075 34.0462 75.9641ZM27.7227 92.0878C29.8919 87.0972 31.9515 81.7992 33.9316 76.2859C32.0935 77.8457 30.2953 79.4791 28.5336 81.174C26.5207 86.472 24.4479 91.5822 22.2856 96.4106C24.0626 94.9174 25.8737 93.4724 27.7227 92.0878ZM18.6173 109.827C21.829 104.662 24.7967 98.7913 27.5832 92.4103C25.7249 93.8084 23.9059 95.2683 22.1206 96.7759C19.3424 102.949 16.417 108.659 13.2827 113.711C15.0286 112.38 16.8044 111.08 18.6173 109.827ZM484.472 171.539L484.502 171.444L484.464 171.553L484.472 171.539ZM484.08 172.786L484.207 172.381L484.129 172.523L483.985 172.941L484.08 172.786ZM483.692 174.018C483.749 173.836 483.806 173.653 483.864 173.47L483.721 173.705L483.529 174.261L483.692 174.018ZM483.298 175.255L483.507 174.599C483.441 174.697 483.374 174.794 483.308 174.891L483.08 175.544L483.298 175.255ZM482.905 176.488C482.984 176.242 483.062 175.995 483.141 175.75L482.894 176.075C482.81 176.316 482.727 176.557 482.642 176.797L482.905 176.488ZM482.513 177.706C482.599 177.441 482.685 177.177 482.77 176.912L482.481 177.251C482.39 177.509 482.298 177.766 482.207 178.024L482.513 177.706ZM482.12 178.925L482.393 178.079L482.068 178.417C481.971 178.691 481.875 178.965 481.777 179.238L482.12 178.925ZM481.72 180.158C481.817 179.858 481.915 179.558 482.013 179.258L481.654 179.585C481.55 179.878 481.444 180.17 481.339 180.463C481.468 180.361 481.591 180.26 481.72 180.158ZM481.322 181.376C481.422 181.07 481.522 180.765 481.621 180.459C481.492 180.562 481.361 180.664 481.229 180.767C481.124 181.062 481.018 181.357 480.912 181.651C481.049 181.559 481.187 181.467 481.322 181.376ZM480.921 182.598C481.026 182.279 481.13 181.96 481.235 181.642C481.096 181.736 480.955 181.83 480.814 181.925C480.703 182.233 480.591 182.54 480.479 182.848C480.627 182.765 480.776 182.681 480.921 182.598ZM480.518 183.811C480.626 183.487 480.734 183.163 480.84 182.839C480.691 182.925 480.54 183.01 480.389 183.096C480.276 183.408 480.162 183.719 480.048 184.031C480.206 183.957 480.363 183.884 480.518 183.811ZM480.117 185.02C480.227 184.691 480.336 184.361 480.445 184.031C480.287 184.106 480.126 184.181 479.966 184.255C479.851 184.573 479.735 184.889 479.619 185.206C479.785 185.144 479.953 185.081 480.117 185.02ZM479.711 186.226C479.824 185.892 479.938 185.558 480.05 185.222C479.882 185.285 479.712 185.349 479.542 185.412C479.424 185.734 479.304 186.054 479.186 186.376L479.711 186.226ZM317.167 223.747C316.293 222.649 315.415 221.534 314.533 220.405C313.215 220.577 311.894 220.749 310.569 220.917C311.475 222.012 312.375 223.093 313.271 224.151C314.573 224.02 315.871 223.885 317.167 223.747ZM319.937 227.19C319.061 226.115 318.18 225.016 317.295 223.906C316.002 224.045 314.706 224.179 313.406 224.311C314.319 225.388 315.225 226.438 316.128 227.481C317.401 227.389 318.671 227.292 319.937 227.19ZM322.725 230.571C321.845 229.516 320.96 228.443 320.07 227.352C318.807 227.455 317.538 227.551 316.268 227.644C317.184 228.699 318.093 229.73 319 230.75C320.246 230.698 321.487 230.637 322.725 230.571ZM325.514 233.87C324.633 232.839 323.751 231.802 322.861 230.737C321.626 230.803 320.389 230.864 319.146 230.916C320.06 231.943 320.968 232.948 321.872 233.94M328.341 237.135C327.451 236.119 326.558 235.091 325.658 234.04C324.45 234.068 323.246 234.102 322.03 234.113C322.941 235.112 323.847 236.091 324.749 237.053C325.949 237.085 327.15 237.123 328.341 237.135ZM331.151 240.296C330.27 239.318 329.386 238.325 328.496 237.311C327.31 237.3 326.114 237.266 324.92 237.235C325.844 238.22 326.763 239.188 327.678 240.136C328.844 240.21 329.994 240.244 331.151 240.296ZM334.013 243.43C333.12 242.467 332.223 241.485 331.32 240.484C330.169 240.433 329.024 240.4 327.864 240.327C328.771 241.266 329.674 242.19 330.571 243.093C331.721 243.212 332.873 243.336 334.013 243.43ZM336.852 246.449C335.971 245.527 335.084 244.583 334.193 243.624C333.061 243.532 331.917 243.412 330.775 243.295C331.696 244.22 332.613 245.129 333.524 246.015C334.64 246.178 335.746 246.314 336.852 246.449ZM339.706 249.392C338.827 248.5 337.942 247.586 337.052 246.657C335.953 246.524 334.852 246.386 333.744 246.226C334.65 247.107 335.553 247.973 336.449 248.816C337.54 249.025 338.625 249.213 339.706 249.392ZM342.577 252.255C341.698 251.394 340.813 250.509 339.924 249.61C338.854 249.435 337.78 249.253 336.7 249.049C337.608 249.9 338.513 250.738 339.41 251.551C340.472 251.804 341.526 252.034 342.577 252.255ZM345.439 255.011C344.572 254.192 343.699 253.348 342.821 252.491C341.784 252.275 340.742 252.051 339.694 251.804C340.587 252.61 341.476 253.402 342.359 254.171C343.392 254.468 344.418 254.747 345.439 255.011ZM348.321 257.683C347.456 256.898 346.585 256.087 345.71 255.263C344.705 255.007 343.697 254.737 342.682 254.448C343.579 255.226 344.47 255.986 345.357 256.726C346.351 257.064 347.337 257.379 348.321 257.683ZM351.187 260.236C350.344 259.502 349.494 258.741 348.641 257.969C347.675 257.674 346.702 257.359 345.725 257.031C346.602 257.758 347.475 258.471 348.342 259.162C349.296 259.538 350.243 259.894 351.187 260.236ZM354.012 262.648C353.2 261.971 352.382 261.268 351.561 260.556C350.644 260.228 349.721 259.879 348.794 259.518C349.637 260.186 350.477 260.84 351.31 261.474C352.216 261.883 353.116 262.272 354.012 262.648ZM356.812 264.931C356.042 264.317 355.265 263.679 354.486 263.035C353.649 262.689 352.809 262.335 351.963 261.96C352.738 262.542 353.511 263.119 354.278 263.672C355.127 264.107 355.972 264.528 356.812 264.931ZM359.462 266.991C358.781 266.474 358.095 265.938 357.409 265.397C356.688 265.058 355.965 264.709 355.238 264.346C355.923 264.83 356.607 265.316 357.285 265.778C358.015 266.197 358.74 266.597 359.462 266.991ZM361.583 268.562C361.19 268.276 360.796 267.985 360.401 267.693C359.973 267.465 359.541 267.223 359.11 266.986C359.938 267.526 360.763 268.054 361.583 268.562ZM52.894 26.0644C53.5254 23.6701 54.154 21.2757 54.7811 18.8862C55.3325 16.7849 55.8831 14.6878 56.4334 12.5978C54.866 14.6955 53.3405 16.9085 51.8519 19.2211C50.589 23.4185 49.3346 27.6605 48.0793 31.9142C49.6454 29.8665 51.2488 27.9117 52.894 26.0644ZM48.9931 40.6158C50.2824 35.9167 51.5459 31.1753 52.7974 26.4317C51.1385 28.3086 49.5216 30.2948 47.9432 32.3753L47.7771 32.9376C46.5051 37.2461 45.2312 41.5631 43.9435 45.8545C45.5873 44.0174 47.2695 42.2674 48.9931 40.6158ZM44.6687 55.7814C46.1205 50.9161 47.5273 45.952 48.9048 40.9384C47.1709 42.6109 45.4793 44.3837 43.826 46.2437C42.3879 51.03 40.9326 55.7827 39.4439 60.4539C41.1472 58.8152 42.8881 57.2543 44.6687 55.7814ZM39.6323 71.5848C41.3498 66.5778 42.9921 61.3878 44.5799 56.0784C42.7914 57.567 41.0436 59.145 39.3335 60.801C37.7047 65.9025 36.0353 70.9039 34.3066 75.7451C34.6154 75.4862 34.9252 75.2287 35.2364 74.9737C36.6759 73.7951 38.1424 72.6664 39.6323 71.5848ZM33.3196 88.1636C35.511 83.0362 37.5722 77.5735 39.5348 71.8703C38.1159 72.9051 36.7183 73.983 35.3456 75.107C34.9593 75.4233 34.5748 75.7438 34.1917 76.0667C32.2169 81.5805 30.1627 86.8813 28.0001 91.8787C29.7394 90.5846 31.5123 89.3433 33.3196 88.1636ZM24.019 106.293C27.3365 101.038 30.3727 95.025 33.1939 88.4554C31.3816 89.6445 29.6049 90.8945 27.8614 92.1985C25.0958 98.5591 22.1521 104.421 18.9678 109.589C20.6231 108.453 22.3065 107.352 24.019 106.293ZM6.18706 124.779C5.48506 125.163 4.77266 125.516 4.05038 125.842C3.39092 126.522 2.72105 127.17 2.04349 127.792C2.43464 127.549 2.82329 127.297 3.20819 127.035C4.22219 126.345 5.21466 125.592 6.18706 124.779ZM484.97 170.627L485.076 170.25L485.018 170.367L484.893 170.767L484.97 170.627ZM484.598 171.926L484.754 171.383L484.631 171.607L484.457 172.161L484.598 171.926ZM484.227 173.222L484.416 172.561L484.238 172.857L484.031 173.514L484.227 173.222ZM483.854 174.517C483.927 174.264 484.001 174.012 484.074 173.758L483.849 174.092C483.77 174.342 483.69 174.591 483.61 174.841L483.854 174.517ZM483.48 175.807L483.719 174.982L483.453 175.335L483.195 176.145L483.48 175.807ZM483.107 177.089L483.363 176.213L483.059 176.572C482.968 176.856 482.877 177.139 482.786 177.423C482.893 177.311 483.001 177.2 483.107 177.089ZM482.732 178.366L483.002 177.446C482.891 177.563 482.778 177.68 482.665 177.797L482.377 178.691C482.495 178.583 482.615 178.474 482.732 178.366ZM482.356 179.648C482.451 179.327 482.544 179.007 482.638 178.687C482.516 178.799 482.392 178.911 482.269 179.024C482.168 179.336 482.067 179.649 481.966 179.961C482.095 179.857 482.225 179.753 482.356 179.648ZM481.972 180.937C482.071 180.604 482.171 180.272 482.269 179.939C482.134 180.047 482 180.155 481.867 180.262C481.763 180.581 481.658 180.9 481.553 181.219C481.694 181.125 481.835 181.031 481.972 180.937ZM481.594 182.209C481.695 181.872 481.794 181.534 481.895 181.197C481.755 181.293 481.61 181.389 481.467 181.485C481.359 181.813 481.253 182.141 481.145 182.468C481.295 182.382 481.443 182.295 481.594 182.209ZM481.211 183.482C481.315 183.137 481.42 182.792 481.523 182.447C481.369 182.536 481.218 182.624 481.064 182.712C480.955 183.045 480.843 183.377 480.733 183.709C480.893 183.633 481.051 183.558 481.211 183.482ZM480.828 184.752C480.934 184.401 481.039 184.051 481.145 183.7C480.982 183.778 480.823 183.854 480.66 183.931C480.548 184.268 480.437 184.606 480.324 184.942C480.493 184.879 480.658 184.815 480.828 184.752ZM480.443 186.018C480.551 185.663 480.659 185.308 480.767 184.952L480.257 185.145C480.142 185.487 480.027 185.828 479.912 186.169L480.443 186.018ZM321.256 223.294C320.404 222.165 319.546 221.015 318.685 219.853C317.367 220.031 316.045 220.206 314.72 220.38C315.604 221.511 316.485 222.627 317.359 223.725C318.662 223.586 319.961 223.442 321.256 223.294ZM323.957 226.843C323.102 225.732 322.241 224.598 321.377 223.454C320.084 223.601 318.787 223.745 317.487 223.885C318.374 224.997 319.258 226.097 320.135 227.174C321.413 227.07 322.686 226.958 323.957 226.843ZM326.672 230.34C325.814 229.249 324.949 228.131 324.082 227.004C322.814 227.12 321.544 227.231 320.268 227.336C321.159 228.428 322.045 229.505 322.926 230.56C324.178 230.493 325.428 230.421 326.672 230.34ZM329.394 233.767C328.536 232.701 327.67 231.606 326.802 230.503C325.559 230.585 324.312 230.658 323.062 230.726C323.954 231.793 324.838 232.832 325.721 233.865C326.947 233.835 328.177 233.814 329.394 233.767ZM332.132 237.125C331.269 236.077 330.403 235.021 329.53 233.938C328.315 233.984 327.088 234.005 325.865 234.034C326.767 235.088 327.662 236.117 328.555 237.134C329.753 237.145 330.943 237.134 332.132 237.125ZM334.907 240.447C334.035 239.416 333.158 238.37 332.276 237.301C331.09 237.312 329.904 237.321 328.709 237.311C329.604 238.328 330.492 239.325 331.376 240.306C332.555 240.358 333.738 240.419 334.907 240.447ZM337.675 243.678C336.809 242.68 335.937 241.665 335.06 240.629C333.896 240.601 332.719 240.545 331.546 240.494C332.452 241.497 333.352 242.481 334.247 243.446C335.396 243.538 336.537 243.611 337.675 243.678ZM340.46 246.84C339.593 245.87 338.72 244.88 337.843 243.871C336.709 243.805 335.571 243.73 334.427 243.639C335.325 244.605 336.219 245.554 337.107 246.482C338.231 246.618 339.347 246.733 340.46 246.84ZM343.259 249.928C342.39 248.985 341.517 248.021 340.638 247.039C339.532 246.934 338.423 246.823 337.307 246.69C338.202 247.624 339.093 248.542 339.979 249.438C341.077 249.617 342.17 249.779 343.259 249.928ZM346.069 252.934C345.201 252.022 344.328 251.087 343.45 250.135C342.37 249.989 341.286 249.831 340.196 249.656C341.094 250.562 341.988 251.453 342.876 252.321C343.946 252.543 345.009 252.744 346.069 252.934ZM348.879 255.842C348.019 254.968 347.152 254.069 346.281 253.155C345.232 252.969 344.179 252.774 343.12 252.557C344.006 253.421 344.889 254.27 345.765 255.095C346.809 255.362 347.846 255.61 348.879 255.842ZM351.713 258.673C350.851 257.829 349.983 256.96 349.11 256.076C348.091 255.849 347.066 255.608 346.036 255.348C346.928 256.185 347.815 257.006 348.696 257.804C349.707 258.112 350.712 258.4 351.713 258.673ZM354.539 261.391C353.69 260.591 352.835 259.767 351.975 258.928C350.988 258.661 349.995 258.374 348.997 258.073C349.875 258.864 350.747 259.639 351.614 260.391C352.594 260.742 353.57 261.077 354.539 261.391ZM357.342 263.982C356.51 263.229 355.672 262.453 354.831 261.662C353.883 261.359 352.93 261.035 351.971 260.696C352.833 261.44 353.691 262.169 354.542 262.875C355.481 263.263 356.414 263.63 357.342 263.982ZM360.131 266.449C359.328 265.755 358.519 265.036 357.706 264.306C356.811 263.971 355.912 263.622 355.007 263.253C355.83 263.931 356.651 264.596 357.465 265.238C358.359 265.66 359.247 266.064 360.131 266.449ZM362.89 268.783C362.121 268.148 361.346 267.49 360.568 266.821C359.738 266.464 358.905 266.094 358.067 265.706C358.869 266.332 359.668 266.945 360.461 267.538C361.276 267.971 362.084 268.382 362.89 268.783ZM365.543 270.922C364.867 270.391 364.184 269.836 363.5 269.277C362.776 268.923 362.045 268.546 361.313 268.166C362.016 268.682 362.716 269.188 363.412 269.678C364.125 270.103 364.838 270.524 365.543 270.922ZM367.599 272.503C367.191 272.196 366.78 271.874 366.369 271.557C365.934 271.318 365.498 271.077 365.06 270.828C365.913 271.409 366.758 271.963 367.599 272.503ZM58.0654 20.7613C59.199 16.0078 60.3132 11.241 61.4187 6.49633C59.8053 8.28848 58.236 10.2078 56.7066 12.2359C56.1202 14.4599 55.5347 16.6923 54.9475 18.9295C54.349 21.2102 53.7489 23.4952 53.1468 25.7807C54.7453 24.0012 56.384 22.3243 58.0654 20.7613ZM54.3408 35.9337C55.5896 31.0211 56.8026 26.0505 57.9933 21.0641C56.3027 22.6466 54.6566 24.346 53.0497 26.1479C51.7945 30.9083 50.527 35.6676 49.2346 40.385C50.8967 38.8046 52.5975 37.3171 54.3408 35.9337ZM50.1359 51.6428C51.5665 46.5989 52.9392 41.438 54.2705 36.2106C52.521 37.6082 50.8143 39.1111 49.1461 40.7074C47.7677 45.7312 46.3599 50.7061 44.9073 55.5833C45.7138 54.9209 46.5287 54.2767 47.3524 53.6522C48.269 52.9566 49.1977 52.288 50.1359 51.6428ZM45.1495 67.895C46.8707 62.7482 48.501 57.3963 50.0619 51.9045C49.1844 52.5117 48.3146 53.1377 47.4561 53.7888C46.567 54.4633 45.6878 55.1617 44.8184 55.8804C43.2315 61.1955 41.5906 66.3927 39.8739 71.4081C41.5975 70.1657 43.3545 68.9902 45.1495 67.895ZM38.7624 84.8669C41.0034 79.6306 43.0928 74.0262 45.0631 68.1532C43.2643 69.2574 41.5035 70.4418 39.7764 71.6929C37.8189 77.3947 35.7643 82.8612 33.5796 87.9933C35.2754 86.8942 37.0033 85.8515 38.7624 84.8669ZM29.1158 103.318C32.5939 98.011 35.749 91.8791 38.6505 85.131C36.8871 86.1234 35.155 87.1738 33.4552 88.2813C30.6543 94.8304 27.6411 100.834 24.3497 106.091C25.9139 105.131 27.5017 104.204 29.1158 103.318ZM6.33308 123.072C5.44772 123.357 4.54802 123.603 3.63303 123.808C2.87466 124.825 2.10558 125.805 1.32444 126.743C2.21572 126.437 3.09088 126.087 3.952 125.698C4.75924 124.865 5.55214 123.989 6.33308 123.072ZM9.24091 121.973C8.39019 122.342 7.52491 122.673 6.64591 122.967C5.90137 123.849 5.14488 124.692 4.37652 125.499C5.22766 125.099 6.06486 124.66 6.88771 124.182C7.6858 123.485 8.46923 122.748 9.24091 121.973ZM11.8603 120.693C11.1395 121.086 10.409 121.452 9.6671 121.787C9.01243 122.457 8.34735 123.095 7.67343 123.709C8.25603 123.35 8.83282 122.975 9.40086 122.577C10.2358 121.991 11.0546 121.36 11.8603 120.693ZM485.815 168.354L485.908 167.992L485.87 168.077L485.76 168.466L485.815 168.354ZM485.466 169.711L485.604 169.176L485.499 169.389L485.344 169.936L485.466 169.711ZM485.114 171.07C485.173 170.846 485.231 170.623 485.288 170.399L485.129 170.692L484.939 171.36L485.114 171.07ZM484.762 172.424L484.962 171.657L484.757 171.996L484.539 172.759C484.613 172.648 484.687 172.536 484.762 172.424ZM484.41 173.773C484.484 173.493 484.556 173.212 484.63 172.932C484.549 173.053 484.467 173.174 484.385 173.295C484.306 173.572 484.226 173.849 484.146 174.126L484.41 173.773ZM484.054 175.125L484.293 174.217L484.01 174.596L483.753 175.484L484.054 175.125ZM483.701 176.466C483.785 176.149 483.868 175.832 483.952 175.515C483.847 175.64 483.741 175.765 483.635 175.89C483.545 176.2 483.456 176.511 483.365 176.821C483.478 176.702 483.589 176.584 483.701 176.466ZM483.343 177.808C483.431 177.478 483.52 177.147 483.608 176.816C483.493 176.937 483.377 177.057 483.26 177.178C483.166 177.499 483.072 177.821 482.977 178.143C483.1 178.031 483.223 177.92 483.343 177.808ZM482.988 179.14C483.08 178.799 483.17 178.459 483.261 178.118C483.136 178.233 483.01 178.348 482.883 178.463C482.785 178.795 482.688 179.128 482.59 179.46L482.988 179.14ZM482.626 180.484C482.722 180.13 482.818 179.776 482.913 179.422C482.777 179.531 482.641 179.64 482.505 179.75C482.403 180.094 482.3 180.437 482.198 180.781C482.34 180.682 482.482 180.583 482.626 180.484ZM482.266 181.821C482.363 181.461 482.46 181.101 482.557 180.741C482.409 180.843 482.266 180.943 482.12 181.044C482.017 181.391 481.914 181.738 481.81 182.083L482.266 181.821ZM481.903 183.153C482.003 182.787 482.103 182.421 482.202 182.054L481.74 182.322C481.634 182.675 481.527 183.029 481.421 183.382L481.903 183.153ZM481.539 184.482C481.641 184.111 481.743 183.74 481.844 183.368L481.355 183.601C481.247 183.959 481.139 184.317 481.031 184.675L481.539 184.482ZM481.174 185.808C481.278 185.432 481.381 185.056 481.484 184.681L480.97 184.876C480.86 185.238 480.75 185.6 480.64 185.961L481.174 185.808ZM325.341 222.815C324.509 221.652 323.675 220.481 322.833 219.284C321.515 219.468 320.194 219.649 318.868 219.828C319.73 220.992 320.589 222.142 321.443 223.273C322.746 223.125 324.045 222.972 325.341 222.815ZM327.973 226.461C327.138 225.315 326.298 224.154 325.455 222.975C324.161 223.131 322.864 223.284 321.563 223.433C322.429 224.578 323.291 225.713 324.147 226.826C325.426 226.709 326.702 226.588 327.973 226.461ZM330.617 230.055C329.78 228.929 328.937 227.783 328.091 226.622C326.822 226.749 325.549 226.87 324.272 226.987C325.141 228.115 326.008 229.233 326.867 230.326C328.122 230.243 329.371 230.152 330.617 230.055ZM333.259 233.576C332.425 232.477 331.583 231.352 330.739 230.218C329.496 230.315 328.249 230.406 326.997 230.49C327.867 231.595 328.735 232.694 329.594 233.762C330.823 233.715 332.039 233.641 333.259 233.576ZM335.937 237.066C335.093 235.98 334.242 234.867 333.388 233.743C332.17 233.808 330.959 233.884 329.733 233.933C330.606 235.015 331.474 236.077 332.337 237.124C333.541 237.114 334.742 237.097 335.937 237.066ZM338.627 240.482C337.779 239.416 336.928 238.342 336.07 237.239C334.879 237.27 333.682 237.29 332.482 237.301C333.366 238.371 334.243 239.417 335.117 240.449C336.294 240.476 337.46 240.477 338.627 240.482ZM341.342 243.847C340.489 242.803 339.633 241.745 338.771 240.664C337.607 240.66 336.443 240.657 335.269 240.631C336.151 241.672 337.027 242.69 337.899 243.693C339.052 243.76 340.198 243.806 341.342 243.847ZM344.069 247.144C343.215 246.125 342.357 245.091 341.493 244.034C340.354 243.994 339.214 243.951 338.066 243.886C338.947 244.898 339.822 245.89 340.693 246.863C341.824 246.971 342.949 247.065 344.069 247.144ZM346.805 250.363C345.952 249.373 345.093 248.364 344.229 247.335C343.115 247.258 341.996 247.167 340.871 247.062C341.754 248.048 342.632 249.015 343.505 249.961C344.61 250.11 345.71 250.245 346.805 250.363ZM349.553 253.504C348.7 252.543 347.84 251.562 346.976 250.561C345.888 250.445 344.795 250.315 343.696 250.168C344.581 251.126 345.461 252.067 346.336 252.984C347.414 253.175 348.486 253.346 349.553 253.504ZM352.307 256.556C351.457 255.629 350.601 254.68 349.74 253.713C348.681 253.559 347.618 253.393 346.547 253.205C347.425 254.125 348.299 255.028 349.166 255.907C350.219 256.141 351.266 256.357 352.307 256.556ZM355.088 259.537C354.234 258.638 353.374 257.715 352.509 256.775C351.477 256.58 350.44 256.369 349.397 256.14C350.28 257.033 351.158 257.909 352.029 258.76C353.054 259.037 354.074 259.297 355.088 259.537ZM357.853 262.398C357.01 261.543 356.161 260.662 355.306 259.765C354.304 259.53 353.295 259.276 352.282 259.005C353.155 259.855 354.023 260.688 354.884 261.497C355.88 261.817 356.869 262.117 357.853 262.398ZM360.63 265.164C359.792 264.347 358.948 263.505 358.099 262.645C357.13 262.372 356.155 262.078 355.175 261.768C356.043 262.58 356.907 263.375 357.764 264.146C358.725 264.505 359.68 264.844 360.63 265.164ZM363.383 267.798C362.568 267.035 361.745 266.247 360.919 265.444C359.989 265.133 359.052 264.802 358.111 264.455C358.954 265.21 359.792 265.948 360.624 266.663C361.55 267.061 362.469 267.439 363.383 267.798ZM366.162 270.343C365.355 269.621 364.541 268.875 363.724 268.114C362.841 267.771 361.953 267.412 361.06 267.034C361.896 267.747 362.728 268.444 363.553 269.118C364.428 269.545 365.298 269.953 366.162 270.343ZM368.855 272.698C368.099 272.053 367.337 271.386 366.572 270.705C365.75 270.34 364.923 269.954 364.092 269.555C364.875 270.187 365.652 270.804 366.425 271.401C367.239 271.85 368.05 272.284 368.855 272.698ZM371.427 274.842C370.754 274.296 370.076 273.728 369.396 273.153C368.681 272.792 367.963 272.418 367.241 272.03C367.94 272.562 368.634 273.077 369.326 273.581C370.03 274.015 370.731 274.437 371.427 274.842ZM373.492 276.491C373.08 276.17 372.664 275.832 372.249 275.498C371.819 275.254 371.39 275.014 370.957 274.759C371.809 275.361 372.653 275.936 373.492 276.491ZM325.636 222.953C326.482 224.134 327.322 225.295 328.158 226.443C335.045 225.749 341.814 224.901 348.458 223.917C395.458 216.956 436.107 203.243 466.579 190.097C435.224 201.042 393.254 212.948 345.262 220.269C338.825 221.251 332.278 222.15 325.636 222.953ZM323.012 219.26C323.854 220.458 324.689 221.628 325.522 222.793C332.195 221.987 338.77 221.085 345.236 220.099C392.494 212.89 433.909 201.238 465.09 190.439C433.137 199.018 390.585 208.832 342.544 216.37C336.128 217.377 329.613 218.343 323.012 219.26ZM63.3019 16.3882C64.3909 11.4176 65.4501 6.41873 66.4915 1.42813C64.8347 2.90238 63.225 4.51096 61.6562 6.23641C60.5473 10.9958 59.4304 15.7783 58.2934 20.5481C59.9209 19.049 61.5901 17.6597 63.3019 16.3882ZM59.7107 32.1059C60.9317 27.0126 62.1051 21.8448 63.2458 16.6445C61.5275 17.9298 59.8538 19.3354 58.221 20.8506C57.0292 25.8484 55.8148 30.8304 54.5641 35.755C55.4302 35.0734 56.3069 34.4176 57.1941 33.7893C58.0231 33.2027 58.8629 32.6442 59.7107 32.1059ZM55.5797 48.2639C57.0025 43.0778 58.3547 37.7555 59.653 32.3479C58.8589 32.8557 58.0713 33.379 57.2938 33.9295C56.3482 34.5996 55.4152 35.3014 54.4937 36.0318C53.1625 41.2661 51.7899 46.4343 50.3592 51.4868C52.0623 50.3257 53.802 49.2497 55.5797 48.2639ZM50.5795 64.8834C52.3241 59.6266 53.9634 54.1432 55.517 48.4944C53.7346 49.4886 51.9917 50.5767 50.285 51.7482C48.7248 57.2462 47.0955 62.6046 45.3754 67.759C47.077 66.729 48.8107 65.7672 50.5795 64.8834ZM44.0418 82.1499C46.3578 76.8398 48.5006 71.1297 50.5024 65.1167C48.7311 66.0063 46.9947 66.9727 45.2917 68.0098C43.3263 73.8822 41.242 79.4866 39.0071 84.7281C40.6561 83.8126 42.3345 82.9529 44.0418 82.1499ZM33.8797 100.856C37.5782 95.5354 40.905 89.3077 43.935 82.3934C42.2254 83.2022 40.5459 84.07 38.8951 84.9922C36.014 91.7178 32.8821 97.8376 29.4315 103.148C30.8937 102.351 32.3742 101.583 33.8797 100.856ZM4.94343 120.483C4.34896 120.538 3.7466 120.573 3.14017 120.598C2.40229 121.784 1.65651 122.936 0.902095 124.055C2.23049 122.854 3.57625 121.661 4.94343 120.483ZM5.84885 120.38C5.64896 120.404 5.44949 120.429 5.24888 120.451C3.85559 121.648 2.48414 122.86 1.1309 124.082C1.94293 123.969 2.74477 123.828 3.53371 123.654C4.31672 122.602 5.08809 121.51 5.84885 120.38ZM8.89064 119.867C7.96671 120.069 7.0279 120.232 6.07339 120.354C5.32396 121.47 4.56414 122.55 3.79309 123.591C4.727 123.375 5.64491 123.117 6.54773 122.818C7.34146 121.875 8.12229 120.892 8.89064 119.867ZM11.9393 119.048C11.0231 119.345 10.0905 119.601 9.1419 119.815C8.39217 120.82 7.63027 121.787 6.85599 122.714C7.77607 122.399 8.68046 122.043 9.56872 121.642C10.3734 120.819 11.163 119.953 11.9393 119.048ZM14.9165 117.915C14.046 118.294 13.1606 118.635 12.2604 118.938C11.5194 119.81 10.766 120.646 10 121.444C10.8716 121.035 11.7278 120.585 12.57 120.097C13.3658 119.408 14.1476 118.679 14.9165 117.915ZM17.5813 116.611C16.8519 117.007 16.1115 117.375 15.3602 117.716C14.6975 118.387 14.0242 119.029 13.3409 119.644C14.1112 119.173 14.8683 118.667 15.6135 118.13C16.2796 117.65 16.9351 117.142 17.5813 116.611ZM19.113 115.527C20.0405 114.959 20.9517 114.35 21.8432 113.691C26.1754 110.491 30.0958 106.248 33.6699 101.158C32.1652 101.89 30.6853 102.664 29.2238 103.466C26.1258 108.186 22.7724 112.258 19.113 115.527ZM15.6879 117.38C16.5603 116.973 17.4169 116.526 18.2589 116.041C22.1273 112.737 25.6583 108.546 28.9084 103.636C27.2904 104.529 25.6995 105.465 24.1322 106.433C21.5046 110.59 18.7008 114.273 15.6879 117.38ZM12.4835 118.677C13.4262 118.351 14.3528 117.982 15.2625 117.571C18.3113 114.48 21.1461 110.799 23.8017 106.635C22.0842 107.704 20.3944 108.814 18.735 109.961C16.7495 113.15 14.6709 116.073 12.4835 118.677ZM9.29947 119.603C10.2709 119.376 11.2242 119.102 12.1619 118.789C14.3348 116.228 16.4004 113.354 18.3746 110.214C16.5536 111.481 14.769 112.793 13.0148 114.137C11.8084 116.06 10.5712 117.885 9.29947 119.603ZM6.20006 120.166C7.16424 120.038 8.1121 119.869 9.04456 119.66C10.2693 118.015 11.4621 116.272 12.626 114.436C10.7071 115.916 8.82408 117.432 6.97964 118.98C6.7212 119.38 6.46089 119.775 6.20006 120.166ZM5.4862 120.249C5.64938 120.23 5.81266 120.212 5.97542 120.192C6.157 119.921 6.33786 119.647 6.51809 119.372C6.17312 119.664 5.82868 119.956 5.4862 120.249ZM3.24948 120.423C3.89802 120.395 4.54032 120.35 5.17493 120.286C5.73175 119.808 6.29106 119.331 6.85411 118.859C10.0283 113.947 13.0178 108.378 15.8858 102.356C13.9315 104.204 12.0201 106.1 10.1472 108.029C7.90961 112.437 5.61922 116.598 3.24948 120.423ZM0.58136 120.442C1.41367 120.468 2.23267 120.46 3.04356 120.429C5.34248 116.727 7.56651 112.706 9.74022 108.449C7.71856 110.543 5.74173 112.674 3.80494 114.823C2.73863 116.749 1.66504 118.625 0.58136 120.442ZM239.878 227.083C239.185 227.174 238.494 227.267 237.801 227.357C239.149 227.287 240.495 227.213 241.839 227.136C241.186 227.12 240.532 227.102 239.878 227.083ZM244.121 226.524C243.068 226.664 242.014 226.802 240.96 226.941C241.971 226.967 242.982 226.991 243.991 227.012C245.014 226.952 246.036 226.889 247.058 226.825C246.08 226.728 245.101 226.628 244.121 226.524ZM248.352 225.959C247.185 226.116 246.02 226.272 244.852 226.427C245.946 226.542 247.039 226.651 248.131 226.756C249.274 226.684 250.416 226.609 251.557 226.532C250.491 226.347 249.422 226.156 248.352 225.959ZM252.591 225.387C251.363 225.553 250.134 225.719 248.904 225.885C250.034 226.09 251.161 226.29 252.287 226.483C253.512 226.399 254.737 226.312 255.96 226.224C254.838 225.948 253.718 225.681 252.591 225.387ZM256.868 224.807C255.59 224.982 254.308 225.154 253.028 225.328C254.198 225.632 255.357 225.898 256.522 226.183C257.742 226.094 258.96 226.003 260.177 225.909C259.077 225.554 257.973 225.18 256.868 224.807ZM261.084 224.225C259.809 224.401 258.536 224.578 257.258 224.753C258.381 225.131 259.507 225.516 260.625 225.875C261.872 225.779 263.118 225.68 264.362 225.579C263.275 225.148 262.177 224.678 261.084 224.225ZM265.258 223.648C263.983 223.826 262.701 224.001 261.423 224.178C262.539 224.639 263.657 225.108 264.767 225.546C266.041 225.441 267.314 225.335 268.585 225.226C267.478 224.705 266.373 224.196 265.258 223.648ZM269.487 223.054C268.181 223.237 266.879 223.422 265.571 223.605C266.698 224.157 267.815 224.672 268.934 225.197C270.211 225.087 271.486 224.974 272.76 224.86C271.672 224.267 270.583 223.675 269.487 223.054ZM273.733 222.454C272.414 222.642 271.09 222.828 269.767 223.014C270.874 223.64 271.974 224.236 273.072 224.832C274.357 224.716 275.64 224.597 276.922 224.477C275.862 223.816 274.799 223.139 273.733 222.454ZM277.951 221.853C276.634 222.041 275.318 222.23 273.997 222.417C275.072 223.106 276.144 223.784 277.213 224.45C278.512 224.327 279.808 224.202 281.103 224.074C280.056 223.347 279.007 222.61 277.951 221.853ZM282.176 221.245C280.851 221.436 279.526 221.627 278.198 221.817C279.26 222.578 280.316 223.318 281.37 224.048C282.672 223.919 283.973 223.788 285.271 223.655C284.243 222.866 283.212 222.066 282.176 221.245ZM286.409 220.633C285.079 220.826 283.743 221.019 282.409 221.211C283.451 222.036 284.487 222.838 285.52 223.629C286.828 223.495 288.134 223.358 289.437 223.219C288.432 222.371 287.423 221.511 286.409 220.633ZM290.637 220.012C289.302 220.208 287.97 220.405 286.631 220.6C287.65 221.481 288.663 222.344 289.673 223.193C290.983 223.053 292.291 222.911 293.596 222.766C292.614 221.862 291.627 220.944 290.637 220.012ZM294.857 219.393C293.527 219.59 292.186 219.785 290.852 219.981C291.846 220.915 292.836 221.836 293.822 222.741C295.137 222.595 296.45 222.446 297.759 222.296C296.796 221.344 295.829 220.38 294.857 219.393ZM299.093 218.76C297.75 218.961 296.413 219.163 295.065 219.362C296.039 220.35 297.008 221.318 297.973 222.271C299.294 222.119 300.611 221.965 301.926 221.809C300.986 220.808 300.042 219.792 299.093 218.76ZM303.313 218.13C301.978 218.331 300.633 218.53 299.293 218.731C300.244 219.765 301.19 220.782 302.133 221.784C303.453 221.626 304.771 221.467 306.086 221.305C305.166 220.263 304.243 219.209 303.313 218.13ZM307.55 217.489C306.203 217.693 304.859 217.898 303.507 218.101C304.438 219.182 305.363 220.237 306.284 221.281C307.607 221.118 308.927 220.953 310.244 220.785C309.35 219.703 308.452 218.601 307.55 217.489ZM311.779 216.846C310.436 217.051 309.088 217.256 307.739 217.46C308.643 218.574 309.543 219.676 310.439 220.76C311.765 220.592 313.089 220.421 314.41 220.247C313.537 219.13 312.661 217.997 311.779 216.846ZM316.002 216.199C314.659 216.405 313.313 216.612 311.963 216.818C312.846 217.971 313.724 219.103 314.598 220.223C315.925 220.049 317.249 219.873 318.569 219.695C317.717 218.545 316.863 217.385 316.002 216.199ZM320.234 215.545C318.886 215.753 317.537 215.963 316.182 216.171C317.044 217.359 317.9 218.52 318.752 219.671C320.08 219.492 321.403 219.31 322.724 219.127C321.899 217.952 321.068 216.753 320.234 215.545ZM463.665 190.649C426.797 197.769 376.348 206.844 320.412 215.517C321.246 216.725 322.078 217.927 322.902 219.102C329.531 218.181 336.074 217.211 342.518 216.2C389.875 208.77 431.883 199.133 463.665 190.649ZM467.562 189.894L467.4 189.926C436.829 203.177 395.885 217.067 348.483 224.087C341.869 225.066 335.13 225.912 328.275 226.603C329.124 227.765 329.967 228.912 330.806 230.04C337.959 229.48 344.975 228.694 351.841 227.708C398.267 221.044 437.891 205.345 467.562 189.894ZM468.405 189.73L468.147 189.78C438.406 205.324 398.577 221.173 351.865 227.879C345.031 228.86 338.047 229.643 330.928 230.203C331.773 231.34 332.616 232.465 333.452 233.565C388.834 230.591 435.088 210.225 468.405 189.73ZM469.235 189.568L468.889 189.635C435.549 210.211 389.162 230.724 333.58 233.733C334.435 234.857 335.287 235.973 336.131 237.06C391.385 235.59 436.674 212.856 469.235 189.568ZM470.043 189.411L469.649 189.487C437.072 212.859 391.68 235.727 336.268 237.232C337.127 238.336 337.98 239.417 338.83 240.484C393.955 240.636 438.255 215.535 470.043 189.411ZM470.83 189.257L470.398 189.341C438.598 215.547 394.224 240.779 338.973 240.666C339.838 241.75 340.695 242.808 341.55 243.854C396.555 245.751 439.833 218.263 470.83 189.257ZM471.622 189.103L471.149 189.195C440.138 218.272 396.803 245.887 341.701 244.041C342.568 245.101 343.428 246.137 344.285 247.158C395.07 250.659 435.018 225.327 464.622 196.242C467.023 193.882 469.356 191.498 471.622 189.103ZM472.397 188.95L471.912 189.046C469.593 191.501 467.204 193.946 464.743 196.364C435.138 225.45 395.203 250.787 344.445 247.35C345.313 248.383 346.175 249.393 347.032 250.387C388.343 254.774 421.899 237.471 448.5 213.748C457.2 205.99 465.155 197.546 472.397 188.95ZM473.166 188.799L472.667 188.897C465.384 197.554 457.376 206.063 448.615 213.876C422.018 237.595 388.48 254.905 347.203 250.585C348.073 251.591 348.937 252.576 349.796 253.541C384.793 258.649 413.79 246.253 437.613 226.748C451.061 215.738 462.861 202.464 473.166 188.799ZM473.934 188.648L473.419 188.749C463.08 202.478 451.232 215.82 437.722 226.882C413.908 246.379 384.936 258.788 349.983 253.751C350.849 254.723 351.71 255.675 352.566 256.606C383.146 262.373 408.804 253.248 430.323 236.923C447.301 224.045 461.708 206.691 473.934 188.648ZM474.698 188.497L474.174 188.6C461.919 206.708 447.468 224.133 430.427 237.06C408.922 253.373 383.296 262.513 352.767 256.824C353.637 257.769 354.502 258.695 355.361 259.597C382.748 266.007 405.898 259.194 425.56 245.269C445.153 231.393 461.287 210.455 474.698 188.497ZM475.458 188.348L474.927 188.452C461.489 210.475 445.315 231.488 425.659 245.409C406.019 259.319 382.905 266.145 355.579 259.825C356.443 260.73 357.301 261.617 358.154 262.48C383.187 269.551 404.436 264.486 422.612 252.392C444.136 238.069 461.357 213.893 475.458 188.348ZM476.218 188.198L475.678 188.304C461.554 213.916 444.295 238.17 422.707 252.535C404.56 264.61 383.358 269.693 358.398 262.727C359.263 263.599 360.122 264.452 360.974 265.281C384.239 273.039 404.017 269.348 420.997 258.675C443.937 244.254 461.779 217.091 476.218 188.198ZM476.978 188.048L476.431 188.156C461.971 217.116 444.093 244.359 421.089 258.82C404.146 269.47 384.426 273.182 361.251 265.549C362.1 266.372 362.944 267.175 363.781 267.956C385.72 276.468 404.362 273.922 420.382 264.365C444.343 250.069 462.453 220.107 476.978 188.048ZM477.735 187.898L477.185 188.008C462.64 220.134 444.496 250.178 420.47 264.512C404.503 274.038 385.943 276.622 364.121 268.27C364.962 269.05 365.797 269.81 366.627 270.547C387.553 279.855 405.295 278.288 420.529 269.627C445.203 255.599 463.311 222.981 477.735 187.898ZM478.493 187.747L477.937 187.858C463.495 223.009 445.354 255.711 420.614 269.776C405.449 278.398 387.806 280.007 367.027 270.901C367.841 271.62 368.65 272.32 369.453 272.999C389.63 283.195 406.672 282.509 421.266 274.574C446.412 260.903 464.313 225.742 478.493 187.747ZM479.25 187.597L478.692 187.708C464.494 225.771 446.563 261.016 421.348 274.725C406.855 282.605 389.959 283.36 369.991 273.452C370.768 274.102 371.54 274.733 372.307 275.347C391.921 286.495 408.406 286.62 422.467 279.286C447.892 266.025 465.422 228.412 479.25 187.597ZM480.005 187.447L479.444 187.558C465.6 228.443 448.042 266.14 422.547 279.438C408.652 286.685 392.404 286.686 373.121 275.998C373.811 276.541 374.496 277.063 375.178 277.576C394.381 289.751 410.424 290.649 424.038 283.818C449.586 270.999 466.616 231.007 480.005 187.447ZM480.76 187.296L480.196 187.409C466.791 231.038 449.734 271.116 424.115 283.971C410.834 290.635 395.255 289.97 376.701 278.707C396.23 292.892 412.354 294.768 425.905 288.212C451.45 275.851 467.876 233.54 480.76 187.296ZM480.246 187.246L480.805 187.134C480.911 186.753 481.017 186.373 481.123 185.992L480.583 186.147C480.471 186.513 480.358 186.879 480.246 187.246ZM479.5 187.394L480.055 187.284L480.386 186.204L479.849 186.356C479.733 186.702 479.617 187.049 479.5 187.394ZM478.754 187.542L479.305 187.433C479.42 187.093 479.534 186.753 479.648 186.413L479.116 186.564C478.996 186.891 478.875 187.217 478.754 187.542ZM478.006 187.691L478.556 187.582C478.675 187.263 478.793 186.943 478.911 186.622L478.384 186.772C478.258 187.079 478.132 187.385 478.006 187.691ZM477.261 187.839L477.803 187.731C477.927 187.431 478.051 187.132 478.174 186.832L477.647 186.981C477.518 187.267 477.39 187.553 477.261 187.839ZM476.516 187.986L477.054 187.88C477.18 187.601 477.305 187.322 477.431 187.043L476.914 187.188C476.782 187.454 476.649 187.72 476.516 187.986ZM475.773 188.132L476.303 188.028L476.691 187.25L476.18 187.394L475.773 188.132ZM475.032 188.278L475.553 188.176L475.948 187.459L475.443 187.6C475.307 187.826 475.17 188.052 475.032 188.278ZM474.293 188.423L474.804 188.323C474.937 188.105 475.069 187.886 475.201 187.668L474.708 187.806C474.57 188.012 474.432 188.218 474.293 188.423ZM473.555 188.569L474.054 188.471C474.188 188.273 474.32 188.075 474.453 187.878L473.974 188.011C473.835 188.197 473.696 188.383 473.555 188.569ZM472.821 188.713L473.302 188.618C473.436 188.441 473.57 188.263 473.703 188.086L473.238 188.214C473.099 188.381 472.96 188.547 472.821 188.713ZM472.091 188.857L472.552 188.766C472.685 188.609 472.815 188.452 472.947 188.295L472.505 188.418C472.367 188.564 472.228 188.71 472.091 188.857ZM471.355 189.001L471.8 188.914L472.185 188.506L471.756 188.625L471.355 189.001ZM470.639 189.141L471.037 189.063L471.398 188.724L471.013 188.829C470.888 188.933 470.764 189.037 470.639 189.141ZM469.948 189.275L470.284 189.21C470.393 189.12 470.5 189.03 470.608 188.94L470.298 189.025C470.183 189.108 470.064 189.192 469.948 189.275ZM469.258 189.41L469.534 189.356C469.626 189.29 469.721 189.223 469.814 189.157L469.554 189.228C469.456 189.289 469.356 189.35 469.258 189.41ZM468.614 189.535L468.774 189.504L468.958 189.392L468.812 189.432L468.614 189.535ZM286.47 220.459C287.812 220.263 289.147 220.066 290.485 219.87C265.819 196.636 238.5 163.509 208.178 118.01C136.892 11.0408 94.8859 -4.51169 65.6478 14.9439C64.9092 15.4356 64.1792 15.9521 63.4564 16.4876C62.3152 21.695 61.1406 26.8701 59.9192 31.9716C90.464 12.767 133.611 25.9574 204.833 126.372C234.729 168.521 261.844 199.109 286.47 220.459ZM282.234 221.071C283.573 220.878 284.913 220.686 286.247 220.491C261.639 199.134 234.549 168.566 204.693 126.472C133.429 25.9986 90.3382 12.9223 59.8617 32.2135C58.5633 37.6276 57.2111 42.9564 55.7883 48.1501C87.4858 30.731 131.464 42.8483 201.345 134.83C230.776 173.569 257.663 201.598 282.234 221.071ZM278.008 221.68C279.341 221.488 280.672 221.297 282.002 221.105C257.453 201.625 230.596 173.616 201.208 134.934C131.295 42.9094 87.3638 30.8888 55.7253 48.3808C54.1739 54.0317 52.5366 59.5185 50.7943 64.7801C83.7131 48.4829 128.694 58.9395 197.857 143.288C226.826 178.618 253.489 204.083 278.008 221.68ZM273.787 222.281C275.114 222.093 276.438 221.904 277.761 221.715C253.269 204.111 226.645 178.668 197.723 143.397C128.53 59.0104 83.5867 48.645 50.7181 65.0104C48.7215 71.0195 46.585 76.7287 44.2759 82.0406C78.5854 66.032 124.939 74.0103 194.368 151.745C222.879 183.668 249.316 206.562 273.787 222.281ZM269.538 222.881C270.867 222.694 272.196 222.507 273.522 222.319C249.087 206.593 222.695 183.719 194.239 151.859C124.767 74.076 78.4397 66.1993 44.1692 82.2842C41.1592 89.1764 37.8543 95.3901 34.1838 100.714C70.3038 83.4198 118.961 87.1121 190.878 160.202C218.918 188.698 245.125 209.04 269.538 222.881ZM0 115.108C1.2376 113.127 2.48279 111.118 3.73797 109.093C6.09939 105.284 8.497 101.415 10.9505 97.556L11.0404 97.3901C14.7118 90.6126 18.4552 83.7014 22.359 76.9676C25.6977 70.0308 29.1119 63.1083 32.6807 56.4687C35.7425 49.4432 38.8847 42.5445 42.1803 36.0131C45.0161 28.9158 47.9387 22.0374 51.0174 15.6018C53.014 10.1991 55.0638 4.96785 57.1968 0.000103829H57.3826C55.4658 4.4613 53.6158 9.13671 51.8119 13.9583C53.0166 11.4913 54.2456 9.09298 55.5035 6.7789C56.2285 4.49288 56.9591 2.23117 57.6981 0.000103829H57.8789C57.2237 1.97769 56.575 3.97937 55.9312 6.00079C57.0729 3.92899 58.2379 1.92522 59.4295 0.000103829H59.6301C58.2748 2.18473 56.9538 4.47107 55.6626 6.84518C54.4366 10.7146 53.2277 14.6547 52.0278 18.6361C53.4971 16.3759 55.0026 14.2113 56.5489 12.1597C57.6271 8.06834 58.7063 4.00607 59.7952 0.000103829H59.9732C58.9162 3.88857 57.8682 7.83065 56.8211 11.8012C58.3396 9.80564 59.8971 7.91844 61.4982 6.15455L61.8739 4.54337C62.2275 3.0258 62.5804 1.51082 62.9331 0.000103829H63.1099C62.7541 1.5237 62.3982 3.05156 62.0416 4.58264L61.7358 5.89493C63.2979 4.19109 64.9008 2.6034 66.55 1.14774L66.7892 0.000103829H66.9647L66.7646 0.961366C67.139 0.634227 67.5156 0.313737 67.8951 0.000103829H68.1637C67.6741 0.401833 67.1883 0.814886 66.7066 1.23937C65.6636 6.24005 64.6033 11.2497 63.5128 16.2313C64.1864 15.7357 64.8658 15.2577 65.5531 14.8003C94.8726 -4.70938 136.961 10.8339 208.322 117.915C238.679 163.468 266.021 196.612 290.7 219.838C292.038 219.642 293.381 219.447 294.714 219.25C269.994 194.141 242.444 158.441 211.664 109.548C172.947 48.0489 143.169 14.6133 119.544 0.000103829H119.858C143.48 14.7108 173.214 48.1515 211.809 109.456C242.622 158.402 270.192 194.118 294.922 219.219C296.274 219.019 297.614 218.817 298.961 218.616C274.18 191.632 246.4 153.389 215.149 101.087C185.924 52.1744 161.95 19.8263 141.975 0.000103829H142.208C162.18 19.8529 186.131 52.1848 215.297 100.998C246.577 153.35 274.373 191.609 299.16 218.586C300.504 218.386 301.851 218.186 303.19 217.985C278.354 189.126 250.344 148.315 218.635 92.6248C195.194 51.456 175.224 21.2859 158.058 0.000207659H158.267C175.429 21.2917 195.381 51.4365 218.784 92.5401C250.52 148.278 278.544 189.104 303.383 217.956C304.737 217.752 306.083 217.548 307.432 217.343C282.536 186.609 254.296 143.255 222.121 84.1637C202.925 48.9112 186.116 21.249 171.314 0.000207659H171.516C186.312 21.2443 203.106 48.8831 222.272 84.0814C254.474 143.22 282.725 186.588 307.621 217.315C308.972 217.11 310.322 216.905 311.667 216.7C286.715 184.091 258.245 138.185 225.607 75.7023C209.773 45.3908 195.6 20.3802 182.869 0.000103829H183.065C195.789 20.37 209.948 45.3545 225.759 75.6228C258.421 138.151 286.9 184.071 311.852 216.672C313.204 216.465 314.551 216.259 315.897 216.052C290.888 181.57 262.189 133.104 229.093 67.2407C216.038 41.2611 204.138 18.9815 193.262 0H193.455C204.324 18.9673 216.211 41.2229 229.246 67.1641C262.364 133.07 291.071 181.55 316.077 216.024C317.432 215.815 318.783 215.606 320.132 215.397C295.066 179.042 266.137 128.03 232.579 58.7797C221.894 36.7324 211.996 17.2105 202.813 0.000103829H203.005C212.18 17.1934 222.066 36.6921 232.733 58.7051C266.313 127.999 295.248 179.023 320.311 215.37C377.333 206.533 428.679 197.275 465.72 190.099C466.234 189.96 466.743 189.822 467.253 189.684C467.729 189.518 468.208 189.351 468.678 189.185C469.16 188.975 469.637 188.765 470.113 188.554C470.543 188.326 470.965 188.099 471.39 187.871C471.852 187.581 472.312 187.29 472.769 186.999C473.175 186.701 473.592 186.402 473.993 186.103C474.473 185.693 474.948 185.284 475.422 184.874C475.816 184.49 476.198 184.105 476.588 183.721C476.957 183.311 477.325 182.901 477.69 182.491C478.064 182.021 478.436 181.552 478.806 181.083C479.178 180.559 479.547 180.035 479.914 179.511C480.259 178.966 480.603 178.421 480.944 177.876C481.288 177.27 481.63 176.664 481.97 176.057C482.29 175.43 482.609 174.803 482.925 174.175C483.241 173.488 483.555 172.8 483.867 172.112C484.163 171.397 484.458 170.682 484.751 169.968C485.034 169.209 485.316 168.451 485.597 167.693C485.868 166.892 486.138 166.091 486.406 165.291C486.659 164.463 486.911 163.636 487.162 162.809C487.407 161.924 487.65 161.04 487.893 160.156C490.062 151.5 492.146 142.882 494.181 134.466C502.771 98.9388 510.489 67.0235 520 51.0818V51.4128C510.574 67.4018 502.893 99.1674 494.348 134.506C492.902 140.487 491.431 146.571 489.923 152.698C491.684 146.167 493.392 139.693 495.064 133.358C503.599 101.025 511.192 72.2659 520 57.4567V57.791C511.271 72.6406 503.717 101.253 495.231 133.402C493.288 140.763 491.296 148.309 489.23 155.917C491.591 147.971 493.855 140.107 496.05 132.48C504.459 103.26 511.871 77.5109 520 63.8249V64.1615C511.944 77.8807 504.573 103.488 496.216 132.527C493.739 141.131 491.176 150.036 488.483 159.022C491.518 149.764 494.388 140.613 497.141 131.834C505.352 105.642 512.527 82.7583 520 70.1873V70.5247C512.594 83.1212 505.461 105.87 497.305 131.885C494.265 141.581 491.082 151.73 487.691 161.976C491.477 151.524 495.002 141.199 498.339 131.423C506.278 108.168 513.162 88.0068 520 76.5429V76.8785C513.223 88.3608 506.383 108.394 498.502 131.478C494.922 141.965 491.126 153.082 487.024 164.313L486.997 164.42C491.561 153.012 495.746 141.756 499.652 131.249C507.241 110.833 513.777 93.2521 520 82.8879V83.2213C513.833 93.596 507.341 111.057 499.812 131.309C495.77 142.184 491.427 153.863 486.675 165.682L486.583 166.044C491.884 154.028 496.677 142.193 501.08 131.319C508.241 113.635 514.374 98.4904 520 89.2186V89.5486C514.425 98.8229 508.337 113.856 501.24 131.383C496.722 142.541 491.794 154.71 486.327 167.048L486.191 167.584C492.294 155.055 497.73 142.743 502.633 131.636C509.283 116.57 514.957 103.718 520 95.5325V95.8602C515.003 104.042 509.376 116.787 502.79 131.705C497.788 143.038 492.232 155.624 485.977 168.416L485.804 169.087C492.792 156.124 498.913 143.42 504.317 132.204C510.373 119.634 515.529 108.932 520 101.824V102.148C515.57 109.243 510.462 119.846 504.471 132.279C498.983 143.671 492.753 156.599 485.627 169.775C485.561 170.031 485.495 170.288 485.429 170.544C493.394 157.228 500.246 144.219 506.14 133.032C511.517 122.822 516.097 114.128 520 108.091V108.408C516.135 114.426 511.603 123.029 506.292 133.112C500.323 144.444 493.371 157.642 485.274 171.138L485.053 171.986C494.113 158.384 501.751 145.149 508.114 134.124C512.726 126.132 516.669 119.3 520 114.326V114.635C516.704 119.584 512.809 126.332 508.263 134.209C501.834 145.35 494.104 158.744 484.921 172.495C484.842 172.799 484.763 173.103 484.684 173.407C494.978 159.584 503.462 146.201 510.253 135.488C514.014 129.556 517.256 124.442 520 120.523V120.822C517.289 124.71 514.094 129.749 510.399 135.579C503.55 146.383 494.979 159.902 484.568 173.849C484.484 174.171 484.398 174.493 484.313 174.815C496.025 160.825 505.429 147.363 512.578 137.129C515.402 133.086 517.875 129.546 520 126.675V126.963C517.908 129.798 515.482 133.271 512.718 137.227C505.52 147.533 496.035 161.11 484.211 175.205C484.123 175.538 484.036 175.871 483.948 176.204C485.502 174.564 487.02 172.931 488.493 171.314C499.703 159.005 508.591 147.497 515.113 139.054C516.925 136.708 518.554 134.599 520 132.774V133.05C518.589 134.835 517.005 136.885 515.249 139.159C508.725 147.606 499.833 159.118 488.62 171.43C487.077 173.124 485.488 174.834 483.856 176.553C483.764 176.9 483.671 177.247 483.579 177.594C498.989 163.334 510.521 149.872 517.9 141.261C518.642 140.394 519.342 139.577 520 138.813V139.076C519.38 139.797 518.724 140.563 518.03 141.372C510.617 150.024 499.011 163.569 483.496 177.904C483.402 178.255 483.309 178.607 483.215 178.958C500.441 165.124 512.912 152.225 520 144.784V145.033C512.862 152.523 500.367 165.422 483.14 179.24C483.042 179.605 482.944 179.968 482.846 180.332C500.331 168.305 512.989 157.188 520 150.679V150.914C512.94 157.461 500.261 168.577 482.777 180.589C482.677 180.959 482.577 181.329 482.477 181.699C500.202 171.434 513.043 162.054 520 156.494V156.713C512.992 162.305 500.131 171.683 482.414 181.932C482.312 182.307 482.21 182.681 482.108 183.055C500.052 174.508 513.072 166.82 520 162.221V162.425C513.02 167.049 499.982 174.735 482.049 183.27C481.946 183.649 481.842 184.028 481.738 184.407C499.884 177.529 513.078 171.484 520 167.856V168.044C513.024 171.691 499.816 177.736 481.683 184.605C481.578 184.987 481.474 185.37 481.368 185.752C499.702 180.493 513.063 176.043 520 173.395V173.566C513.008 176.231 499.633 180.683 481.317 185.936C481.21 186.323 481.102 186.71 480.994 187.097C499.5 183.407 513.027 180.501 520 178.835V178.989C512.972 180.666 499.434 183.573 480.949 187.259C468.05 233.573 451.598 275.97 425.98 288.366C412.037 295.113 395.382 292.959 375.119 277.725C373.201 276.509 371.25 275.177 369.269 273.734C367.329 272.541 365.359 271.244 363.358 269.836C361.341 268.637 359.298 267.344 357.22 265.93C355.221 264.782 353.192 263.533 351.138 262.193C349.078 261.06 346.993 259.836 344.879 258.514C342.819 257.432 340.734 256.261 338.625 255.008C336.448 253.922 334.246 252.754 332.017 251.488C329.85 250.464 327.659 249.361 325.444 248.174C323.173 247.169 320.878 246.091 318.557 244.923C316.349 244.013 314.122 243.042 311.872 241.996C309.599 241.137 307.302 240.207 304.988 239.217C302.578 238.396 300.142 237.491 297.691 236.538C295.235 235.793 292.76 234.994 290.267 234.131C287.948 233.517 285.615 232.861 283.267 232.157C280.716 231.6 278.151 231 275.567 230.343C273.079 229.917 270.58 229.459 268.064 228.952C265.424 228.635 262.772 228.283 260.107 227.895C257.445 227.721 254.772 227.521 252.089 227.291C249.398 227.275 246.699 227.24 243.993 227.184C241.216 227.349 238.433 227.5 235.644 227.639C173.162 235.764 109.004 242.16 52.6604 244.067C34.1519 244.693 16.4871 244.835 0.00052 244.396V244.224C16.4848 244.664 34.148 244.522 52.655 243.895C108.375 242.009 171.736 235.733 233.559 227.74C210.225 228.849 186.537 229.043 162.921 228.027C118.694 226.124 76.7145 226.904 39.396 227.598C25.585 227.854 12.413 228.099 0.00052 228.191V228.019C12.4117 227.927 25.5825 227.683 39.3933 227.426C76.7147 226.732 118.698 225.952 162.928 227.856C187.266 228.903 211.682 228.665 235.706 227.464C236.752 227.328 237.795 227.19 238.84 227.053C215.108 226.331 190.831 223.992 166.396 219.566C102.473 207.987 45.461 209.963 0 212.366V212.194C45.4675 209.79 102.488 207.815 166.426 219.397C191.218 223.888 215.848 226.229 239.909 226.912C241.078 226.758 242.248 226.605 243.416 226.45C219.518 223.863 194.892 218.961 169.872 211.104C102.364 189.905 44.8492 192.021 0 197.025V196.852C44.8624 191.848 102.393 189.734 169.923 210.94C195.181 218.871 220.036 223.789 244.147 226.354C245.375 226.191 246.601 226.028 247.826 225.864C223.815 221.404 198.899 213.932 173.349 202.64C101.959 171.089 44.1104 174.095 0 182.3V182.125C44.1297 173.919 102 170.919 173.419 202.483C199.14 213.851 224.22 221.343 248.379 225.789C249.649 225.619 250.917 225.447 252.185 225.275C228.079 218.94 202.891 208.908 176.828 194.176C101.216 151.439 43.2395 156.272 0 168.347V168.168C43.2641 156.092 101.268 151.271 176.913 194.027C203.102 208.83 228.409 218.891 252.622 225.216C253.92 225.04 255.22 224.866 256.516 224.689C232.323 216.476 206.875 203.886 180.308 185.713C100.062 130.82 42.2393 138.695 0 155.377V155.191C42.2698 138.509 100.127 130.656 180.405 185.571C207.081 203.818 232.625 216.431 256.905 224.636C258.202 224.458 259.493 224.278 260.787 224.1C236.527 214.008 210.838 198.852 183.79 177.249C98.435 109.075 41.1189 121.544 0 143.628V143.431C41.1547 121.349 98.5099 108.916 183.897 177.115C211.032 198.788 236.799 213.969 261.126 224.053C262.418 223.874 263.713 223.698 265.002 223.518C240.695 211.548 214.776 193.797 187.272 168.786C96.2332 85.996 39.9071 105.102 0 133.416V133.205C39.9478 104.89 96.3207 85.843 187.388 168.658C214.964 193.735 240.946 211.513 265.306 223.476C266.626 223.292 267.941 223.105 269.258 222.92C244.888 209.072 218.733 188.755 190.756 160.322C118.745 87.1376 70.0826 83.5984 33.9813 101.01C30.3507 106.224 26.3624 110.567 21.9456 113.829C20.7796 114.691 19.5838 115.478 18.3564 116.184C17.4921 116.922 16.6127 117.621 15.7142 118.269C14.7216 118.984 13.7059 119.639 12.6699 120.238C11.6374 121.132 10.5812 121.959 9.49987 122.718C8.67734 123.294 7.83899 123.827 6.98682 124.323C5.79124 125.366 4.56508 126.32 3.30574 127.177C2.66822 127.611 2.02217 128.018 1.36749 128.4C0.916135 128.798 0.460304 129.182 0.000104 129.553V129.335C0.2054 129.168 0.410072 128.999 0.613704 128.826C0.410072 128.939 0.205504 129.049 0.000104 129.156V128.966C0.426712 128.741 0.849679 128.505 1.26911 128.259C2.06544 127.557 2.84897 126.814 3.62045 126.033C2.79864 126.39 1.9631 126.71 1.11446 126.992C0.745679 127.431 0.374296 127.86 0.000104 128.281V128.021C0.269672 127.716 0.537576 127.407 0.804543 127.092C0.537576 127.178 0.269672 127.259 0.000104 127.337V127.158C0.340912 127.059 0.679847 126.954 1.01639 126.842C1.81563 125.89 2.60322 124.898 3.37896 123.864C2.5636 124.038 1.7368 124.183 0.896791 124.292C0.761383 124.415 0.625976 124.538 0.491088 124.661C0.328016 124.899 0.164008 125.136 0.000104 125.371V124.875L0.364936 124.543C0.412048 124.474 0.459368 124.406 0.50648 124.337C0.338 124.357 0.169416 124.376 0.000104 124.393V124.222C0.211328 124.201 0.422032 124.177 0.6318 124.151C1.40816 123.006 2.17516 121.822 2.93405 120.604C2.12711 120.632 1.31113 120.637 0.482456 120.608C0.321776 120.877 0.1612 121.144 0.000104 121.41V121.078C0.0965119 120.919 0.192608 120.759 0.2886 120.598L0 120.585V120.416C0.129168 120.422 0.258128 120.427 0.386984 120.432C1.3625 118.799 2.33012 117.117 3.29139 115.394C2.18161 116.631 1.08462 117.874 0 119.119V118.857C1.20557 117.475 2.42653 116.095 3.66392 114.722C5.93767 110.613 8.17762 106.272 10.4085 101.787C8.46133 104.302 6.55511 106.844 4.68301 109.388C3.12062 112.199 1.56208 114.951 0.000104 117.619V117.278C1.28918 115.072 2.57608 112.808 3.86526 110.502C2.5611 112.283 1.27358 114.063 0.000104 115.833V115.539C1.49167 113.466 3.00289 111.38 4.53752 109.295C6.26402 106.188 7.99572 103.007 9.74126 99.7882C7.75767 102.934 5.80881 106.078 3.8844 109.183C2.5792 111.289 1.28575 113.375 0.000104 115.433V115.108H0Z" fill="url(#paint0_linear_1548_2694)"/>
<defs>
<linearGradient id="paint0_linear_1548_2694" x1="520" y1="146" x2="99.5" y2="146" gradientUnits="userSpaceOnUse">
<stop/>
<stop offset="1" stop-color="#666666" stop-opacity="0"/>
</linearGradient>
</defs>
</svg>
